<?xml version="1.0" encoding="UTF-8" standalone="no"?>
<!-- Created with Inkscape (http://www.inkscape.org/) -->

<svg
   xmlns:dc="http://purl.org/dc/elements/1.1/"
   xmlns:cc="http://creativecommons.org/ns#"
   xmlns:rdf="http://www.w3.org/1999/02/22-rdf-syntax-ns#"
   xmlns:svg="http://www.w3.org/2000/svg"
   xmlns="http://www.w3.org/2000/svg"
   xmlns:sodipodi="http://sodipodi.sourceforge.net/DTD/sodipodi-0.dtd"
   xmlns:inkscape="http://www.inkscape.org/namespaces/inkscape"
   width="71.136429"
   height="48.275204"
   id="svg5172"
   version="1.1"
   inkscape:version="0.47 r22583"
   sodipodi:docname="A.1 Verbot der Durchfahrt und Sperrung der Schifffahrt.svg">
  <defs
     id="defs5174" />
  <sodipodi:namedview
     id="base"
     pagecolor="#ffffff"
     bordercolor="#666666"
     borderopacity="1.0"
     inkscape:pageopacity="0.0"
     inkscape:pageshadow="2"
     inkscape:zoom="1"
     inkscape:cx="35.568214"
     inkscape:cy="24.137602"
     inkscape:document-units="px"
     inkscape:current-layer="layer1"
     showgrid="false"
     inkscape:window-width="1280"
     inkscape:window-height="748"
     inkscape:window-x="-8"
     inkscape:window-y="-8"
     inkscape:window-maximized="1" />
  <metadata
     id="metadata5177">
    <rdf:RDF>
      <cc:Work
         rdf:about="">
        <dc:format>image/svg+xml</dc:format>
        <dc:type
           rdf:resource="http://purl.org/dc/dcmitype/StillImage" />
        <dc:title></dc:title>
      </cc:Work>
    </rdf:RDF>
  </metadata>
  <g
     inkscape:label="Ebene 1"
     inkscape:groupmode="layer"
     id="layer1"
     transform="translate(-278.71757,-639.65307)">
    <path
       d="m 281.73265,687.74701 65.1275,0 c 0.1225,-0.001 0.245,-0.009 0.36625,-0.025 0.12125,-0.0162 0.24125,-0.0425 0.36,-0.075 0.11875,-0.0312 0.235,-0.07 0.3475,-0.1175 0.1125,-0.0475 0.2225,-0.10375 0.3275,-0.16625 0.10625,-0.06 0.20875,-0.12875 0.30625,-0.20375 0.0962,-0.0737 0.18875,-0.155 0.275,-0.2425 0.0875,-0.0862 0.16875,-0.1775 0.2425,-0.275 0.075,-0.0975 0.14375,-0.19875 0.20375,-0.305 0.0625,-0.10625 0.1175,-0.21625 0.16375,-0.32875 0.0475,-0.11375 0.0875,-0.22875 0.12,-0.3475 0.0325,-0.11875 0.0587,-0.23875 0.075,-0.36 0.0175,-0.12125 0.0263,-0.24375 0.025,-0.36625 l 0,-42.28875 c 0,-0.1225 -0.009,-0.245 -0.025,-0.36625 -0.0175,-0.12125 -0.0425,-0.24125 -0.075,-0.36 -0.0312,-0.11875 -0.0713,-0.235 -0.11875,-0.3475 -0.0475,-0.11375 -0.1025,-0.2225 -0.165,-0.3275 -0.0613,-0.10625 -0.12875,-0.20875 -0.20375,-0.30625 -0.0738,-0.0975 -0.155,-0.18875 -0.2425,-0.275 -0.0863,-0.0875 -0.17875,-0.16875 -0.275,-0.24375 -0.0975,-0.0737 -0.2,-0.1425 -0.30625,-0.2025 -0.105,-0.0625 -0.215,-0.1175 -0.3275,-0.165 -0.11375,-0.0462 -0.23,-0.0862 -0.3475,-0.11875 -0.11875,-0.0338 -0.23875,-0.0588 -0.36,-0.0763 -0.12125,-0.0162 -0.24375,-0.025 -0.36625,-0.0237 l -65.15,0 c -0.1225,0 -0.24375,0.009 -0.36625,0.025 -0.12125,0.0163 -0.24125,0.0412 -0.35875,0.075 -0.11875,0.0312 -0.235,0.07 -0.34875,0.1175 -0.1125,0.0475 -0.2225,0.10375 -0.3275,0.16625 -0.10625,0.06 -0.20875,0.12875 -0.305,0.2025 -0.0975,0.075 -0.19,0.15625 -0.27625,0.24375 -0.0863,0.0862 -0.1675,0.1775 -0.2425,0.275 -0.075,0.0975 -0.1425,0.2 -0.20375,0.30625 -0.0625,0.105 -0.1175,0.215 -0.16375,0.3275 -0.0475,0.11375 -0.0875,0.22875 -0.11875,0.3475 -0.0337,0.11875 -0.06,0.23875 -0.0763,0.36 -0.0175,0.12125 -0.025,0.24375 -0.025,0.36625 l 0,42.28875 c 10e-4,0.1225 0.01,0.245 0.0263,0.36625 0.0163,0.12125 0.0412,0.2425 0.075,0.36 0.03,0.11875 0.07,0.235 0.1175,0.3475 0.0475,0.11375 0.1025,0.2225 0.165,0.32875 0.0612,0.10625 0.12875,0.2075 0.20375,0.305 0.075,0.0975 0.15625,0.18875 0.2425,0.275 0.0863,0.0875 0.17875,0.16875 0.27625,0.24375 0.0962,0.0738 0.19875,0.1425 0.305,0.2025 0.10625,0.0625 0.215,0.1175 0.32875,0.165 0.1125,0.0475 0.22875,0.0862 0.3475,0.11875 0.1175,0.0325 0.2375,0.0588 0.36,0.075 0.12125,0.0175 0.2425,0.0263 0.365,0.025 l 0.0225,0 z"
       style="fill:none;stroke:#231f20;stroke-width:0.27000001;stroke-linecap:butt;stroke-linejoin:bevel;stroke-miterlimit:22.9260006;stroke-opacity:1;stroke-dasharray:none"
       id="path19982" />
    <path
       id="path19986"
       style="fill:#ffffff;stroke:#231f20;stroke-width:0.27000001;stroke-linecap:butt;stroke-linejoin:bevel;stroke-miterlimit:22.9260006;stroke-opacity:1;stroke-dasharray:none"
       d="m 281.73265,687.79326 -0.0225,0 c -0.125,-10e-4 -0.24875,-0.009 -0.37125,-0.0263 -0.12375,-0.0163 -0.24625,-0.0412 -0.36625,-0.0763 -0.12,-0.0312 -0.23875,-0.07 -0.35375,-0.11875 -0.115,-0.0487 -0.22625,-0.105 -0.3325,-0.16875 -0.10875,-0.0613 -0.2125,-0.13 -0.31125,-0.20625 -0.0987,-0.0762 -0.19125,-0.15875 -0.27875,-0.2475 -0.0888,-0.0875 -0.17125,-0.18125 -0.2475,-0.27875 -0.0762,-0.0987 -0.145,-0.2025 -0.20625,-0.31125 -0.0638,-0.1075 -0.12,-0.21875 -0.1675,-0.33375 -0.0475,-0.115 -0.0888,-0.2325 -0.12125,-0.3525 -0.0337,-0.12 -0.06,-0.2425 -0.0762,-0.36625 -0.0175,-0.1225 -0.0263,-0.2475 -0.025,-0.37125 l 0,-42.29 c 0,-0.125 0.009,-0.24875 0.0263,-0.3725 0.0163,-0.12375 0.0412,-0.245 0.075,-0.365 0.0312,-0.12 0.0713,-0.23875 0.12,-0.35375 0.0488,-0.115 0.105,-0.22625 0.16875,-0.3325 0.0612,-0.10875 0.13,-0.2125 0.20625,-0.31125 0.0763,-0.0987 0.15875,-0.1925 0.2475,-0.28 0.0875,-0.0888 0.18,-0.17 0.27875,-0.24625 0.0987,-0.0762 0.2025,-0.145 0.31125,-0.2075 0.1075,-0.0625 0.21875,-0.11875 0.3325,-0.16625 0.115,-0.0488 0.23375,-0.0888 0.35375,-0.12125 0.12,-0.0337 0.2425,-0.06 0.36625,-0.0775 0.1225,-0.0175 0.24625,-0.025 0.37125,-0.0237 l 65.15,0 c 0.125,0 0.24875,0.009 0.3725,0.025 0.12375,0.0175 0.245,0.0425 0.365,0.0762 0.12125,0.0312 0.23875,0.0713 0.35375,0.12 0.115,0.0488 0.22625,0.10375 0.3325,0.1675 0.10875,0.0625 0.2125,0.13125 0.31125,0.2075 0.0987,0.0763 0.1925,0.1575 0.28,0.24625 0.0888,0.0875 0.17125,0.18125 0.24625,0.28 0.0763,0.0987 0.145,0.2025 0.2075,0.31125 0.0638,0.10625 0.11875,0.2175 0.16625,0.3325 0.0487,0.115 0.0888,0.23375 0.12125,0.35375 0.0337,0.12 0.06,0.24125 0.0775,0.365 0.0175,0.12375 0.025,0.2475 0.025,0.3725 l 0,42.29 c -10e-4,0.12375 -0.01,0.24875 -0.0263,0.37125 -0.0175,0.12375 -0.0425,0.24625 -0.0763,0.36625 -0.0312,0.12 -0.0713,0.23875 -0.12,0.35375 -0.0475,0.11375 -0.10375,0.225 -0.1675,0.3325 -0.0625,0.10875 -0.13125,0.2125 -0.2075,0.31125 -0.075,0.0975 -0.1575,0.19125 -0.24625,0.27875 -0.0875,0.0888 -0.18125,0.17125 -0.28,0.2475 -0.0987,0.0763 -0.2025,0.145 -0.31125,0.20625 -0.10625,0.0637 -0.2175,0.11875 -0.3325,0.1675 -0.115,0.0475 -0.2325,0.0875 -0.35375,0.12 -0.12,0.035 -0.24125,0.06 -0.365,0.0775 -0.12375,0.0175 -0.2475,0.0262 -0.3725,0.025 l -65.1275,0 z" />
    <path
       id="path19978"
       style="fill:#cc0000;fill-opacity:1;fill-rule:evenodd;stroke:none"
       d="m 348.5764,670.64826 0,13.73375 c -10e-4,0.0987 -0.007,0.1975 -0.0212,0.295 -0.0125,0.0975 -0.0325,0.195 -0.06,0.29 -0.025,0.0963 -0.0563,0.19 -0.095,0.28125 -0.0375,0.09 -0.0825,0.17875 -0.13375,0.26375 -0.0487,0.0862 -0.10375,0.16875 -0.16375,0.24625 -0.06,0.0788 -0.12625,0.1525 -0.19625,0.2225 -0.0688,0.07 -0.14375,0.13625 -0.22125,0.19625 -0.0788,0.06 -0.16125,0.115 -0.24625,0.16375 -0.085,0.05 -0.17375,0.095 -0.265,0.1325 -0.0913,0.0375 -0.185,0.07 -0.28,0.0963 -0.095,0.0263 -0.1925,0.0475 -0.29,0.0612 -0.0987,0.0137 -0.19625,0.02 -0.295,0.02 l -64.04375,0 c -0.1,-10e-4 -0.1975,-0.007 -0.29625,-0.0213 -0.0975,-0.0137 -0.195,-0.0337 -0.29,-0.06 -0.095,-0.025 -0.18875,-0.0563 -0.28,-0.095 -0.0913,-0.0388 -0.18,-0.0838 -0.265,-0.13375 -0.085,-0.0488 -0.1675,-0.10375 -0.24625,-0.16375 -0.0775,-0.0612 -0.1525,-0.12625 -0.2225,-0.19625 -0.07,-0.07 -0.135,-0.14375 -0.195,-0.2225 -0.06,-0.0775 -0.115,-0.16 -0.165,-0.24625 -0.05,-0.085 -0.0937,-0.17375 -0.1325,-0.26375 -0.0375,-0.0912 -0.07,-0.185 -0.095,-0.28125 -0.0275,-0.095 -0.0475,-0.1925 -0.0613,-0.29 -0.0137,-0.0975 -0.0212,-0.19625 -0.02,-0.295 l 0,-13.73375 68.58,0 m -68.58,-13.7162 0,-13.73375 c 0,-0.0987 0.007,-0.1975 0.0213,-0.295 0.0125,-0.0975 0.0325,-0.195 0.06,-0.29 0.0238,-0.0962 0.0562,-0.19 0.095,-0.28125 0.0375,-0.09 0.0825,-0.17875 0.1325,-0.26375 0.05,-0.0863 0.105,-0.1675 0.165,-0.24625 0.06,-0.0788 0.125,-0.1525 0.195,-0.2225 0.07,-0.07 0.14375,-0.13625 0.2225,-0.19625 0.0788,-0.06 0.16125,-0.115 0.24625,-0.16375 0.085,-0.05 0.17375,-0.0937 0.265,-0.1325 0.0913,-0.0375 0.185,-0.07 0.28,-0.0962 0.095,-0.0263 0.1925,-0.0475 0.29,-0.0612 0.0987,-0.0138 0.19625,-0.02 0.295,-0.02 l 64.04375,0 c 0.1,10e-4 0.1975,0.007 0.29625,0.0212 0.0975,0.0138 0.195,0.0338 0.29,0.06 0.095,0.025 0.18875,0.0575 0.28,0.095 0.0913,0.0387 0.18,0.0838 0.26375,0.13375 0.0863,0.0488 0.16875,0.10375 0.2475,0.16375 0.0775,0.0612 0.1525,0.12625 0.22125,0.19625 0.0712,0.07 0.13625,0.14375 0.1975,0.2225 0.06,0.0788 0.11375,0.16 0.16375,0.24625 0.05,0.085 0.0937,0.17375 0.1325,0.26375 0.0375,0.0925 0.07,0.185 0.095,0.28125 0.0275,0.095 0.0475,0.1925 0.0612,0.29 0.0138,0.0975 0.0213,0.19625 0.02,0.295 l 0,13.73375 -68.58,0" />
  </g>
</svg>
