<?xml version="1.0" encoding="UTF-8" standalone="no"?>
<!-- Created with Inkscape (http://www.inkscape.org/) -->

<svg
   xmlns:dc="http://purl.org/dc/elements/1.1/"
   xmlns:cc="http://creativecommons.org/ns#"
   xmlns:rdf="http://www.w3.org/1999/02/22-rdf-syntax-ns#"
   xmlns:svg="http://www.w3.org/2000/svg"
   xmlns="http://www.w3.org/2000/svg"
   xmlns:sodipodi="http://sodipodi.sourceforge.net/DTD/sodipodi-0.dtd"
   xmlns:inkscape="http://www.inkscape.org/namespaces/inkscape"
   width="71.135368"
   height="71.136322"
   id="svg14980"
   version="1.1"
   inkscape:version="0.47 r22583"
   sodipodi:docname="A.15 Fahrverbot für Segelfahrzeuge.svg">
  <defs
     id="defs14982" />
  <sodipodi:namedview
     id="base"
     pagecolor="#ffffff"
     bordercolor="#666666"
     borderopacity="1.0"
     inkscape:pageopacity="0.0"
     inkscape:pageshadow="2"
     inkscape:zoom="7.352081"
     inkscape:cx="35.567684"
     inkscape:cy="35.568161"
     inkscape:document-units="px"
     inkscape:current-layer="layer1"
     showgrid="false"
     inkscape:window-width="1280"
     inkscape:window-height="748"
     inkscape:window-x="-8"
     inkscape:window-y="-8"
     inkscape:window-maximized="1" />
  <metadata
     id="metadata14985">
    <rdf:RDF>
      <cc:Work
         rdf:about="">
        <dc:format>image/svg+xml</dc:format>
        <dc:type
           rdf:resource="http://purl.org/dc/dcmitype/StillImage" />
        <dc:title />
      </cc:Work>
    </rdf:RDF>
  </metadata>
  <g
     inkscape:label="Ebene 1"
     inkscape:groupmode="layer"
     id="layer1"
     transform="translate(138.42483,234.63454)">
    <path
       d="m -133.56579,-163.70076 61.435003,0 0.01875,0 c 0.20125,-0.001 0.4025,-0.015 0.60125,-0.0425 0.2,-0.0275 0.3975,-0.0675 0.59125,-0.1225 0.195,-0.0513 0.385,-0.115 0.57125,-0.19375 0.18625,-0.0775 0.36625,-0.16875 0.53875,-0.27125 0.175,-0.1 0.3425,-0.2125 0.50125,-0.335 0.16,-0.1225 0.31125,-0.25625 0.4525,-0.39875 0.14375,-0.14125 0.2775,-0.2925 0.4,-0.4525 0.1225,-0.15875 0.235,-0.3275 0.335,-0.50125 0.10125,-0.17375 0.19125,-0.35375 0.26875,-0.54 0.0775,-0.185 0.1425,-0.37625 0.195,-0.57 0.055,-0.195 0.09625,-0.3925 0.125,-0.5925 0.0275,-0.19875 0.04125,-0.39875 0.04,-0.6 l 0,-61.49125 c -0.0012,-0.20125 -0.015,-0.40125 -0.0425,-0.60125 -0.02625,-0.19875 -0.0675,-0.39625 -0.1225,-0.59 -0.05,-0.195 -0.115,-0.38625 -0.1925,-0.57125 -0.07875,-0.18625 -0.16875,-0.36625 -0.27125,-0.54 -0.10125,-0.17375 -0.2125,-0.34125 -0.335,-0.50125 -0.1225,-0.16 -0.25625,-0.31 -0.4,-0.4525 -0.14125,-0.1425 -0.2925,-0.27625 -0.4525,-0.39875 -0.15875,-0.12375 -0.32625,-0.235 -0.50125,-0.335 -0.1725,-0.1025 -0.35375,-0.1925 -0.53875,-0.27 -0.18625,-0.0775 -0.3775,-0.1425 -0.57125,-0.195 -0.19375,-0.055 -0.39125,-0.0962 -0.59125,-0.125 -0.19875,-0.0275 -0.4,-0.0412 -0.60125,-0.04 l -61.490003,0 c -0.20125,0.001 -0.4025,0.0162 -0.60125,0.0425 -0.2,0.0275 -0.3975,0.0687 -0.59125,0.1225 -0.195,0.0513 -0.38625,0.115 -0.57125,0.19375 -0.18625,0.0775 -0.36625,0.16875 -0.53875,0.27125 -0.175,0.1 -0.3425,0.21125 -0.5025,0.335 -0.15875,0.1225 -0.31,0.25625 -0.45125,0.39875 -0.14375,0.1425 -0.2775,0.2925 -0.4,0.4525 -0.1225,0.15875 -0.235,0.3275 -0.335,0.50125 -0.10125,0.17375 -0.19125,0.35375 -0.26875,0.54 -0.0775,0.185 -0.14375,0.37625 -0.19625,0.57125 -0.0538,0.19375 -0.0962,0.39125 -0.12375,0.59 -0.0288,0.2 -0.0412,0.4 -0.04,0.60125 l -0.001,0.0187 0,61.45375 0.001,0.0187 c 0.001,0.20125 0.015,0.40125 0.0412,0.60125 0.0275,0.2 0.0687,0.39625 0.1225,0.59125 0.0513,0.19375 0.11625,0.385 0.19375,0.57125 0.0788,0.185 0.16875,0.365 0.27125,0.53875 0.10125,0.17375 0.2125,0.34125 0.335,0.50125 0.1225,0.16 0.25625,0.31125 0.4,0.4525 0.14125,0.1425 0.2925,0.27625 0.45125,0.39875 0.16,0.12375 0.3275,0.235 0.5025,0.335 0.1725,0.1025 0.3525,0.1925 0.53875,0.27 0.18625,0.0775 0.37625,0.1425 0.57125,0.195 0.19375,0.055 0.39125,0.0962 0.59125,0.125 0.19875,0.0275 0.4,0.0412 0.60125,0.04 l 0.0187,0 0.0175,0 z"
       style="fill:none;stroke:#231f20;stroke-width:0.27000001;stroke-linecap:butt;stroke-linejoin:bevel;stroke-miterlimit:22.9260006;stroke-opacity:1;stroke-dasharray:none"
       id="path20290" />
    <path
       id="path20294"
       style="fill:none;stroke:#000000;stroke-width:0.27000001000000001;stroke-linecap:butt;stroke-linejoin:bevel;stroke-miterlimit:22.92600059999999800;stroke-opacity:1;stroke-dasharray:none"
       d="m -133.56579,-163.63326 -0.0375,0 c -0.20375,-0.001 -0.4075,-0.0162 -0.61,-0.0425 -0.2025,-0.0275 -0.4025,-0.0687 -0.59875,-0.125 -0.1975,-0.0513 -0.39125,-0.11625 -0.58,-0.19625 -0.18875,-0.0788 -0.37125,-0.17125 -0.54625,-0.275 -0.1775,-0.10125 -0.3475,-0.215 -0.51,-0.34 -0.16125,-0.12375 -0.315,-0.26 -0.45875,-0.405 -0.145,-0.14375 -0.28,-0.29625 -0.405,-0.45875 -0.125,-0.16125 -0.2375,-0.33125 -0.33875,-0.50875 -0.10375,-0.17625 -0.195,-0.35875 -0.27375,-0.5475 -0.0787,-0.18875 -0.145,-0.38125 -0.19875,-0.57875 -0.055,-0.1975 -0.0975,-0.3975 -0.12625,-0.6 -0.0288,-0.2025 -0.0425,-0.40625 -0.04,-0.61 l 0,-61.49125 c 0,-0.20375 0.015,-0.4075 0.0425,-0.61 0.0275,-0.2025 0.0687,-0.4025 0.12375,-0.6 0.0513,-0.1975 0.1175,-0.39125 0.19625,-0.58 0.08,-0.1875 0.17125,-0.37 0.27625,-0.54625 0.10125,-0.17625 0.215,-0.34625 0.33875,-0.50875 0.125,-0.16125 0.26,-0.315 0.405,-0.45875 0.14375,-0.145 0.2975,-0.28125 0.45875,-0.40625 0.1625,-0.12375 0.3325,-0.23625 0.51,-0.33875 0.175,-0.1025 0.3575,-0.195 0.54625,-0.27375 0.18875,-0.0787 0.3825,-0.145 0.58,-0.1975 0.19625,-0.055 0.39625,-0.0975 0.6,-0.12625 0.20125,-0.0288 0.405,-0.0425 0.60875,-0.0412 l 61.492503,0 c 0.20375,0.001 0.4075,0.0162 0.61,0.0437 0.20125,0.0263 0.4025,0.0687 0.59875,0.12375 0.1975,0.0513 0.39125,0.1175 0.58,0.19625 0.18875,0.0788 0.37125,0.17125 0.54625,0.275 0.1775,0.1025 0.3475,0.215 0.50875,0.34 0.1625,0.125 0.31625,0.26 0.46,0.405 0.145,0.14375 0.28,0.2975 0.405,0.45875 0.125,0.1625 0.2375,0.3325 0.33875,0.50875 0.10375,0.17625 0.195,0.35875 0.27375,0.54625 0.07875,0.19 0.145,0.3825 0.1975,0.58 0.05625,0.1975 0.09875,0.3975 0.12625,0.6 0.02875,0.2025 0.0425,0.40625 0.04125,0.61 l 0,61.49125 c -0.0012,0.205 -0.015,0.40875 -0.0425,0.61 -0.0275,0.2025 -0.06875,0.4025 -0.125,0.6 -0.05125,0.1975 -0.11625,0.39125 -0.19625,0.58 -0.07875,0.1875 -0.17125,0.37 -0.275,0.54625 -0.10125,0.1775 -0.215,0.3475 -0.33875,0.50875 -0.125,0.1625 -0.26,0.315 -0.405,0.45875 -0.14375,0.14625 -0.2975,0.28125 -0.46,0.405 -0.16125,0.125 -0.33125,0.23875 -0.50875,0.34 -0.17625,0.10375 -0.3575,0.195 -0.54625,0.27375 -0.18875,0.0787 -0.3825,0.145 -0.58,0.1975 -0.19625,0.0563 -0.3975,0.0975 -0.6,0.12625 -0.20125,0.0288 -0.405,0.0425 -0.60875,0.0412 l -61.455003,0 z" />
    <path
       d="m -133.56579,-165.40451 -0.0225,0 c -0.1275,-0.001 -0.25625,-0.01 -0.38125,-0.0263 -0.1275,-0.0175 -0.2525,-0.0438 -0.375,-0.0788 -0.12375,-0.0312 -0.245,-0.0725 -0.3625,-0.1225 -0.1175,-0.0487 -0.2325,-0.10625 -0.34125,-0.1725 -0.11125,-0.0625 -0.2175,-0.13375 -0.31875,-0.21125 -0.10125,-0.0788 -0.1975,-0.1625 -0.28625,-0.25375 -0.0913,-0.09 -0.17625,-0.185 -0.25375,-0.28625 -0.0775,-0.10125 -0.14875,-0.2075 -0.2125,-0.31875 -0.0637,-0.11 -0.12125,-0.22375 -0.17125,-0.34125 -0.0488,-0.11875 -0.09,-0.23875 -0.12375,-0.3625 -0.0337,-0.1225 -0.0613,-0.2475 -0.0788,-0.375 -0.0175,-0.12625 -0.0263,-0.25375 -0.025,-0.38125 l 0,-61.46375 c 0,-0.1275 0.01,-0.25375 0.0263,-0.38125 0.0175,-0.12625 0.0438,-0.25125 0.0775,-0.37375 0.0325,-0.12375 0.0737,-0.245 0.12375,-0.3625 0.0487,-0.1175 0.10625,-0.23125 0.17125,-0.34125 0.0637,-0.11125 0.135,-0.2175 0.2125,-0.31875 0.0787,-0.10125 0.1625,-0.1975 0.25375,-0.2875 0.0888,-0.09 0.185,-0.175 0.28625,-0.2525 0.10125,-0.0775 0.2075,-0.14875 0.31875,-0.2125 0.11,-0.0637 0.22375,-0.12125 0.34125,-0.17125 0.1175,-0.0488 0.23875,-0.09 0.3625,-0.1225 0.1225,-0.035 0.2475,-0.0613 0.375,-0.08 0.125,-0.0175 0.25375,-0.0263 0.38125,-0.025 l 61.462503,0 c 0.12875,0.001 0.255,0.01 0.38125,0.0275 0.1275,0.0163 0.2525,0.0425 0.375,0.0775 0.12375,0.0312 0.245,0.0725 0.3625,0.1225 0.1175,0.0487 0.23125,0.10625 0.34125,0.17125 0.11125,0.0637 0.2175,0.135 0.31875,0.2125 0.10125,0.0775 0.19625,0.1625 0.2875,0.2525 0.09,0.09 0.175,0.18625 0.2525,0.2875 0.0775,0.10125 0.14875,0.2075 0.21125,0.31875 0.065,0.11 0.1225,0.22375 0.1725,0.34125 0.04875,0.1175 0.09,0.23875 0.1225,0.3625 0.035,0.1225 0.06125,0.2475 0.07875,0.375 0.01875,0.12625 0.0275,0.2525 0.02625,0.38 l 0,61.46375 c -0.0012,0.1275 -0.01,0.255 -0.0275,0.38125 -0.01625,0.1275 -0.0425,0.2525 -0.0775,0.375 -0.03125,0.12375 -0.0725,0.245 -0.1225,0.3625 -0.05,0.1175 -0.10625,0.2325 -0.1725,0.34125 -0.0625,0.11125 -0.13375,0.2175 -0.21125,0.31875 -0.0775,0.10125 -0.1625,0.19625 -0.2525,0.28625 -0.09125,0.0913 -0.18625,0.17625 -0.2875,0.25375 -0.10125,0.0775 -0.2075,0.14875 -0.31875,0.21125 -0.11,0.065 -0.22375,0.1225 -0.34125,0.17125 -0.1175,0.05 -0.23875,0.0913 -0.3625,0.12375 -0.1225,0.035 -0.2475,0.0613 -0.375,0.08 -0.12625,0.0175 -0.2525,0.025 -0.38125,0.025 l -61.440003,0 z"
       style="fill:#cc0000;fill-opacity:1;fill-rule:evenodd;stroke:#000000;stroke-width:0.27000001000000001;stroke-linecap:butt;stroke-linejoin:bevel;stroke-miterlimit:22.92600059999999800;stroke-opacity:1;stroke-dasharray:none"
       id="path20298" />
    <path
       d="m -86.393287,-175.44451 -40.085003,-40.085 0,40.085 40.085003,0"
       style="fill:#ffffff;fill-opacity:1;fill-rule:evenodd;stroke:none"
       id="path20302" />
    <path
       d="m -79.235787,-182.60201 0,-40.085 -40.085003,0 40.085003,40.085"
       style="fill:#ffffff;fill-opacity:1;fill-rule:evenodd;stroke:none"
       id="path20306" />
    <path
       d="m -83.263287,-186.91701 -39.145003,0 -0.0175,0 c -0.0287,0.001 -0.0587,0.004 -0.0875,0.009 -0.0288,0.004 -0.0588,0.0112 -0.0863,0.0188 -0.0288,0.009 -0.0562,0.0187 -0.0825,0.0312 -0.0275,0.0112 -0.0537,0.025 -0.0787,0.0412 -0.025,0.015 -0.05,0.0312 -0.0725,0.05 -0.0225,0.0187 -0.0437,0.0387 -0.0637,0.06 -0.0212,0.0213 -0.04,0.045 -0.0575,0.0688 -0.0175,0.0237 -0.0325,0.0487 -0.0463,0.0737 -0.015,0.0263 -0.0263,0.0538 -0.0375,0.08 -0.0112,0.0287 -0.02,0.0562 -0.0262,0.085 -0.006,0.0288 -0.0125,0.0575 -0.015,0.0875 -0.003,0.0288 -0.004,0.0588 -0.003,0.0875 0,0.03 0.003,0.0588 0.008,0.0875 0.004,0.03 0.0113,0.0588 0.02,0.0862 0.004,0.0175 0.01,0.0325 0.015,0.0488 0.006,0.0163 0.0138,0.0325 0.0213,0.0475 l 0.006,0.0137 3.375,6.75 0.008,0.015 c 0.015,0.0263 0.03,0.0513 0.0462,0.0763 0.0175,0.0238 0.0363,0.0462 0.0563,0.0675 0.02,0.0225 0.0413,0.0425 0.065,0.0613 0.0225,0.0175 0.0463,0.035 0.0713,0.0513 0.025,0.015 0.0512,0.0288 0.0775,0.0412 0.0275,0.0125 0.055,0.0225 0.0837,0.0312 0.0275,0.009 0.0563,0.015 0.085,0.02 0.0287,0.005 0.0587,0.007 0.0887,0.009 l 0.006,0 29.037503,0 0.0175,0 c 0.03,-0.001 0.05875,-0.004 0.0875,-0.007 0.03,-0.005 0.05875,-0.0112 0.08625,-0.02 0.02875,-0.008 0.05625,-0.0188 0.08375,-0.03 0.02625,-0.0125 0.0525,-0.0263 0.0775,-0.0425 0.02,-0.0112 0.04,-0.025 0.06,-0.04 0.01875,-0.0137 0.03625,-0.03 0.05375,-0.0463 l 0.01125,-0.0112 6.74875,-6.74875 0.0125,-0.0125 c 0.02,-0.0213 0.03875,-0.0438 0.05625,-0.0675 0.0175,-0.0238 0.0325,-0.05 0.04625,-0.075 0.015,-0.0263 0.0275,-0.0525 0.03875,-0.08 0.01,-0.0288 0.01875,-0.0563 0.025,-0.085 0.0075,-0.0288 0.0125,-0.0575 0.015,-0.0875 0.0038,-0.0288 0.005,-0.0588 0.0038,-0.0875 -0.0012,-0.03 -0.0038,-0.0588 -0.0087,-0.0875 -0.0038,-0.03 -0.01,-0.0588 -0.01875,-0.0863 -0.0087,-0.0288 -0.01875,-0.0563 -0.03,-0.0838 -0.0125,-0.0263 -0.02625,-0.0525 -0.0425,-0.0775 -0.015,-0.025 -0.03125,-0.05 -0.05,-0.0725 -0.01875,-0.0225 -0.03875,-0.045 -0.06,-0.065 -0.02125,-0.02 -0.045,-0.0387 -0.0675,-0.0563 -0.025,-0.0175 -0.05,-0.0325 -0.075,-0.0475 -0.02625,-0.0138 -0.0525,-0.0263 -0.08,-0.0362 -0.0275,-0.01 -0.05625,-0.02 -0.085,-0.0263 -0.02375,-0.006 -0.04625,-0.01 -0.07,-0.0138 -0.02375,-0.002 -0.0475,-0.005 -0.07125,-0.005 l -0.01625,0 z"
       style="fill:#000000;fill-opacity:1;fill-rule:evenodd;stroke:#000000;stroke-width:0.27000001000000001;stroke-linecap:butt;stroke-linejoin:bevel;stroke-miterlimit:22.92600059999999800;stroke-opacity:1;stroke-dasharray:none"
       id="path20310" />
    <path
       d="m -98.808287,-190.96701 0,-29.03875 c -0.0013,-0.03 -0.0038,-0.0588 -0.0075,-0.0888 -0.005,-0.0287 -0.01125,-0.0575 -0.02,-0.0862 -0.0087,-0.0275 -0.01875,-0.055 -0.03,-0.0825 -0.0125,-0.0263 -0.02625,-0.0525 -0.04125,-0.0775 -0.01625,-0.025 -0.0325,-0.05 -0.05125,-0.0725 -0.01875,-0.0225 -0.03875,-0.045 -0.06,-0.065 -0.02125,-0.02 -0.04375,-0.0387 -0.0675,-0.0563 -0.025,-0.0175 -0.04875,-0.0325 -0.075,-0.0475 -0.02625,-0.0138 -0.0525,-0.0263 -0.08,-0.0362 -0.0275,-0.0113 -0.05625,-0.02 -0.085,-0.0263 -0.02875,-0.007 -0.0575,-0.0125 -0.08625,-0.015 -0.03,-0.004 -0.05875,-0.005 -0.08875,-0.004 -0.02875,10e-4 -0.05875,0.004 -0.0875,0.007 -0.02875,0.005 -0.05875,0.0112 -0.08625,0.02 -0.02875,0.009 -0.05625,0.0187 -0.0825,0.03 -0.0275,0.0125 -0.05375,0.0263 -0.07875,0.0425 -0.025,0.015 -0.04875,0.0312 -0.0725,0.05 -0.0225,0.0187 -0.04375,0.0387 -0.06375,0.06 l -0.01625,0.0175 c -0.005,0.005 -0.0088,0.01 -0.01375,0.0163 l -0.01,0.0125 -22.9475,29.02125 -0.01,0.0137 c -0.0188,0.0238 -0.035,0.0488 -0.0487,0.0738 -0.015,0.0262 -0.0275,0.0525 -0.0388,0.08 -0.0113,0.0275 -0.02,0.055 -0.0275,0.0838 -0.007,0.0288 -0.0125,0.0575 -0.015,0.0875 -0.004,0.0287 -0.006,0.0587 -0.005,0.0875 0,0.03 0.002,0.0588 0.006,0.0888 0.004,0.0288 0.01,0.0575 0.0175,0.0863 0.009,0.0275 0.0187,0.0563 0.03,0.0825 0.0112,0.0275 0.025,0.0537 0.04,0.0787 0.015,0.0263 0.0312,0.05 0.05,0.0737 0.0188,0.0225 0.0375,0.045 0.0588,0.065 0.0212,0.0212 0.0438,0.04 0.0675,0.0575 0.0238,0.0175 0.0475,0.0337 0.0738,0.0488 0.025,0.0137 0.0525,0.0263 0.08,0.0375 0.0275,0.0113 0.055,0.02 0.0838,0.0275 0.0287,0.007 0.0575,0.0125 0.0862,0.0163 0.0113,0.001 0.0212,0.002 0.0325,0.004 0.0113,0 0.0213,0 0.0325,0.001 l 22.980012,0 c 0.03,-0.001 0.05875,-0.004 0.0875,-0.008 0.03,-0.005 0.05875,-0.0125 0.08625,-0.02 0.02875,-0.009 0.05625,-0.0188 0.08375,-0.03 0.02625,-0.0125 0.0525,-0.0263 0.0775,-0.0425 0.025,-0.015 0.05,-0.0312 0.0725,-0.05 0.0225,-0.0188 0.045,-0.0387 0.065,-0.06 0.02,-0.0213 0.03875,-0.045 0.05625,-0.0675 0.0175,-0.025 0.0325,-0.05 0.0475,-0.0763 0.01375,-0.025 0.02625,-0.0525 0.03625,-0.08 0.01125,-0.0263 0.02,-0.055 0.02625,-0.0838 0.0063,-0.0238 0.01,-0.0462 0.01375,-0.07 0.0025,-0.0238 0.005,-0.0475 0.005,-0.0712 l 0,-0.0163 z"
       style="fill:#000000;fill-opacity:1;fill-rule:evenodd;stroke:#000000;stroke-width:0.27000001000000001;stroke-linecap:butt;stroke-linejoin:bevel;stroke-miterlimit:22.92600059999999800;stroke-opacity:1;stroke-dasharray:none"
       id="path20314" />
  </g>
</svg>
