<?xml version="1.0" encoding="UTF-8" standalone="no"?>
<!-- Created with Inkscape (http://www.inkscape.org/) -->

<svg
   xmlns:dc="http://purl.org/dc/elements/1.1/"
   xmlns:cc="http://creativecommons.org/ns#"
   xmlns:rdf="http://www.w3.org/1999/02/22-rdf-syntax-ns#"
   xmlns:svg="http://www.w3.org/2000/svg"
   xmlns="http://www.w3.org/2000/svg"
   xmlns:sodipodi="http://sodipodi.sourceforge.net/DTD/sodipodi-0.dtd"
   xmlns:inkscape="http://www.inkscape.org/namespaces/inkscape"
   width="71.136452"
   height="71.136459"
   id="svg13927"
   version="1.1"
   inkscape:version="0.47 r22583"
   sodipodi:docname="B.5 Gebot.svg">
  <defs
     id="defs13929" />
  <sodipodi:namedview
     id="base"
     pagecolor="#ffffff"
     bordercolor="#666666"
     borderopacity="1.0"
     inkscape:pageopacity="0.0"
     inkscape:pageshadow="2"
     inkscape:zoom="7.042802"
     inkscape:cx="35.568226"
     inkscape:cy="35.56823"
     inkscape:document-units="px"
     inkscape:current-layer="layer1"
     showgrid="false"
     inkscape:window-width="1280"
     inkscape:window-height="748"
     inkscape:window-x="-8"
     inkscape:window-y="-8"
     inkscape:window-maximized="1" />
  <metadata
     id="metadata13932">
    <rdf:RDF>
      <cc:Work
         rdf:about="">
        <dc:format>image/svg+xml</dc:format>
        <dc:type
           rdf:resource="http://purl.org/dc/dcmitype/StillImage" />
        <dc:title />
      </cc:Work>
    </rdf:RDF>
  </metadata>
  <g
     inkscape:label="Ebene 1"
     inkscape:groupmode="layer"
     id="layer1"
     transform="translate(298.42536,-231.07967)">
    <path
       id="path7846"
       style="fill:#ffffff;stroke:#000000;stroke-width:0.27000001;stroke-linecap:butt;stroke-linejoin:bevel;stroke-miterlimit:22.9260006;stroke-opacity:1;stroke-dasharray:none"
       d="m -294.05838,302.03603 62.435,0 c 0.18125,-10e-4 0.3625,-0.0137 0.54125,-0.0375 0.17875,-0.025 0.35625,-0.0613 0.53125,-0.11125 0.175,-0.045 0.3475,-0.10375 0.51375,-0.17375 0.16625,-0.07 0.32875,-0.15125 0.48375,-0.24375 0.1575,-0.09 0.30875,-0.19125 0.45125,-0.30125 0.14375,-0.11 0.28,-0.23 0.4075,-0.35875 0.12875,-0.1275 0.24875,-0.2625 0.35875,-0.40625 0.11,-0.14375 0.21125,-0.295 0.3,-0.45125 0.0925,-0.15625 0.17375,-0.31875 0.2425,-0.485 0.0713,-0.1675 0.12875,-0.33875 0.17625,-0.51375 0.0488,-0.17375 0.0863,-0.3525 0.1125,-0.53125 0.025,-0.17875 0.0375,-0.36 0.0362,-0.54 l 0,-62.46875 c -10e-4,-0.18125 -0.0138,-0.36125 -0.0387,-0.54 -0.0238,-0.18 -0.0613,-0.3575 -0.11,-0.5325 -0.045,-0.175 -0.10375,-0.34625 -0.17375,-0.51375 -0.07,-0.16625 -0.1525,-0.32875 -0.245,-0.48375 -0.09,-0.1575 -0.19,-0.3075 -0.3,-0.45125 -0.11,-0.14375 -0.23,-0.27875 -0.35875,-0.40625 -0.1275,-0.12875 -0.26375,-0.24875 -0.4075,-0.36 -0.1425,-0.11 -0.29375,-0.21 -0.45125,-0.3 -0.155,-0.0913 -0.3175,-0.1725 -0.48375,-0.2425 -0.1675,-0.07 -0.33875,-0.12875 -0.51375,-0.175 -0.175,-0.05 -0.3525,-0.0875 -0.53125,-0.1125 -0.17875,-0.025 -0.36,-0.0375 -0.54125,-0.0362 l -62.4675,0 c -0.18125,0 -0.3625,0.0137 -0.54125,0.0375 -0.18,0.0238 -0.3575,0.0613 -0.53125,0.11125 -0.175,0.045 -0.3475,0.1025 -0.51375,0.1725 -0.1675,0.0712 -0.32875,0.1525 -0.485,0.245 -0.15625,0.09 -0.3075,0.19 -0.45125,0.3 -0.1425,0.11125 -0.27875,0.23125 -0.40625,0.36 -0.12875,0.1275 -0.24875,0.2625 -0.35875,0.40625 -0.11125,0.14375 -0.21125,0.29375 -0.30125,0.45125 -0.0913,0.15625 -0.1725,0.3175 -0.2425,0.485 -0.07,0.16625 -0.12875,0.33875 -0.175,0.5125 -0.05,0.175 -0.0875,0.3525 -0.1125,0.5325 -0.025,0.17875 -0.0375,0.35875 -0.0362,0.54 l 0,62.46875 c 0.001,0.18 0.0138,0.36125 0.0387,0.54 0.0238,0.18 0.06,0.3575 0.11,0.53125 0.045,0.175 0.10375,0.3475 0.17375,0.51375 0.07,0.1675 0.15125,0.32875 0.24375,0.485 0.09,0.15625 0.19125,0.3075 0.30125,0.45125 0.11,0.14375 0.23,0.27875 0.35875,0.40625 0.1275,0.12875 0.26375,0.24875 0.40625,0.35875 0.14375,0.11 0.295,0.21125 0.45125,0.30125 0.15625,0.0913 0.31875,0.1725 0.485,0.2425 0.1675,0.07 0.33875,0.1275 0.51375,0.175 0.175,0.05 0.3525,0.0875 0.53125,0.1125 0.17875,0.025 0.36,0.0375 0.54125,0.0362 l 0.0325,0 z" />
    <path
       d="m -294.05838,302.10353 -0.0337,0 c -0.18375,-10e-4 -0.3675,-0.0137 -0.54875,-0.0387 -0.1825,-0.0238 -0.36375,-0.0625 -0.54,-0.11125 -0.17875,-0.0462 -0.3525,-0.10625 -0.5225,-0.1775 -0.17,-0.0712 -0.33375,-0.15375 -0.4925,-0.2475 -0.15875,-0.0925 -0.3125,-0.19375 -0.4575,-0.30625 -0.14625,-0.1125 -0.28375,-0.23375 -0.41375,-0.365 -0.13125,-0.12875 -0.2525,-0.26625 -0.365,-0.4125 -0.1125,-0.14625 -0.21375,-0.29875 -0.305,-0.45875 -0.0937,-0.15875 -0.17625,-0.32375 -0.2475,-0.4925 -0.0713,-0.17 -0.13,-0.34375 -0.1775,-0.5225 -0.05,-0.17625 -0.0888,-0.3575 -0.11375,-0.54 -0.0263,-0.18125 -0.0388,-0.365 -0.0375,-0.54875 l 0,-62.46875 c 0.001,-0.18375 0.0138,-0.3675 0.0387,-0.55 0.025,-0.1825 0.0625,-0.3625 0.1125,-0.53875 0.0462,-0.17875 0.105,-0.35375 0.17625,-0.52375 0.0713,-0.16875 0.15375,-0.33375 0.24875,-0.49125 0.0913,-0.16 0.1925,-0.3125 0.305,-0.45875 0.1125,-0.14625 0.23375,-0.28375 0.365,-0.41375 0.12875,-0.13 0.2675,-0.2525 0.4125,-0.36375 0.14625,-0.1125 0.3,-0.215 0.45875,-0.30625 0.15875,-0.0937 0.32375,-0.175 0.4925,-0.24625 0.17,-0.0712 0.345,-0.13 0.5225,-0.17875 0.17625,-0.05 0.3575,-0.0887 0.54,-0.11375 0.18125,-0.0263 0.365,-0.0375 0.54875,-0.0362 l 62.47,0 c 0.18375,10e-4 0.3675,0.0137 0.54875,0.0375 0.1825,0.025 0.3625,0.0625 0.54,0.1125 0.17875,0.0463 0.3525,0.105 0.5225,0.1775 0.17,0.0712 0.33375,0.15375 0.4925,0.2475 0.15875,0.0913 0.3125,0.19375 0.4575,0.30625 0.14625,0.11125 0.285,0.23375 0.41375,0.36375 0.13125,0.13 0.2525,0.2675 0.365,0.41375 0.11125,0.14625 0.21375,0.29875 0.30625,0.45875 0.0925,0.15875 0.175,0.3225 0.24625,0.4925 0.0712,0.17 0.13,0.34375 0.1775,0.5225 0.0513,0.17625 0.0888,0.3575 0.115,0.53875 0.025,0.1825 0.0375,0.36625 0.0362,0.55 l 0,62.46875 c -0.001,0.18375 -0.0137,0.3675 -0.0387,0.55 -0.025,0.18125 -0.0625,0.3625 -0.1125,0.53875 -0.0462,0.17875 -0.105,0.3525 -0.17625,0.5225 -0.0713,0.17 -0.15375,0.33375 -0.2475,0.4925 -0.0925,0.16 -0.195,0.3125 -0.30625,0.45875 -0.1125,0.145 -0.23375,0.28375 -0.365,0.4125 -0.12875,0.13125 -0.2675,0.25375 -0.41375,0.365 -0.145,0.1125 -0.29875,0.215 -0.4575,0.30625 -0.15875,0.0925 -0.32375,0.175 -0.4925,0.24625 -0.17,0.0712 -0.345,0.13 -0.5225,0.17875 -0.1775,0.05 -0.3575,0.0875 -0.54,0.11375 -0.18125,0.025 -0.365,0.0375 -0.54875,0.0362 l -62.43625,0 z"
       style="fill:#ffffff;stroke:#000000;stroke-width:0.27000001;stroke-linecap:butt;stroke-linejoin:bevel;stroke-miterlimit:22.9260006;stroke-opacity:1;stroke-dasharray:none"
       id="path7850" />
    <path
       id="path7842"
       style="fill:#cc0000;fill-opacity:1;fill-rule:evenodd;stroke:#000000;stroke-width:0.27000001;stroke-linecap:butt;stroke-linejoin:bevel;stroke-miterlimit:22.9260006;stroke-opacity:1;stroke-dasharray:none"
       d="m -294.05838,300.41478 -0.02,0 c -0.11125,-0.001 -0.22125,-0.009 -0.33125,-0.0238 -0.11,-0.015 -0.21875,-0.0375 -0.32625,-0.0675 -0.1075,-0.0275 -0.2125,-0.0638 -0.315,-0.10625 -0.1025,-0.0425 -0.20125,-0.0925 -0.29625,-0.15 -0.0962,-0.055 -0.18875,-0.11625 -0.2775,-0.18375 -0.0875,-0.0688 -0.17125,-0.14125 -0.24875,-0.22125 -0.0788,-0.0775 -0.1525,-0.16 -0.22,-0.24875 -0.0675,-0.0875 -0.12875,-0.18 -0.18375,-0.27625 -0.0562,-0.095 -0.10625,-0.195 -0.14875,-0.2975 -0.0437,-0.1025 -0.0788,-0.2075 -0.1075,-0.31375 -0.0312,-0.1075 -0.0537,-0.21625 -0.0687,-0.32625 -0.0163,-0.11 -0.0238,-0.22125 -0.0225,-0.33125 l 0,-62.4425 c 0,-0.11125 0.009,-0.2225 0.0238,-0.33125 0.0138,-0.11 0.0362,-0.21875 0.0675,-0.32625 0.0275,-0.1075 0.0625,-0.2125 0.10625,-0.315 0.0425,-0.1025 0.0925,-0.20125 0.15,-0.2975 0.055,-0.095 0.11625,-0.1875 0.18375,-0.27625 0.0675,-0.0875 0.14125,-0.17 0.22,-0.24875 0.0775,-0.0788 0.16125,-0.1525 0.24875,-0.22 0.0888,-0.0675 0.18125,-0.12875 0.2775,-0.185 0.095,-0.055 0.195,-0.105 0.29625,-0.1475 0.1025,-0.0437 0.2075,-0.0788 0.315,-0.1075 0.1075,-0.0312 0.21625,-0.0538 0.32625,-0.0688 0.11,-0.0162 0.22,-0.0237 0.33125,-0.0225 l 62.4425,0 c 0.11125,0 0.22125,0.007 0.33125,0.0225 0.11,0.015 0.21875,0.0375 0.32625,0.0688 0.1075,0.0275 0.2125,0.0625 0.315,0.10625 0.1025,0.0425 0.20125,0.0925 0.2975,0.14875 0.095,0.0562 0.1875,0.1175 0.275,0.185 0.0888,0.0675 0.17125,0.14125 0.25,0.22 0.0787,0.0787 0.1525,0.16125 0.22,0.24875 0.0675,0.0887 0.12875,0.18125 0.18375,0.27625 0.0563,0.0963 0.10625,0.195 0.14875,0.2975 0.0425,0.1025 0.0787,0.2075 0.1075,0.315 0.03,0.1075 0.0538,0.21625 0.0687,0.32625 0.0163,0.10875 0.0238,0.22 0.0225,0.33125 l 0,62.4425 c 0,0.11 -0.007,0.22125 -0.0225,0.33125 -0.015,0.11 -0.0387,0.21875 -0.0687,0.32625 -0.0275,0.10625 -0.0625,0.2125 -0.10625,0.315 -0.0425,0.10125 -0.0925,0.20125 -0.15,0.29625 -0.055,0.0962 -0.11625,0.18875 -0.18375,0.27625 -0.0675,0.0875 -0.14125,0.17125 -0.22,0.24875 -0.0788,0.08 -0.16125,0.15375 -0.25,0.22125 -0.0875,0.0675 -0.18,0.12875 -0.275,0.18375 -0.0962,0.0563 -0.195,0.10625 -0.2975,0.14875 -0.1025,0.0425 -0.2075,0.0788 -0.315,0.1075 -0.1075,0.03 -0.21625,0.0537 -0.32625,0.0688 -0.11,0.0162 -0.22,0.0225 -0.33125,0.0225 l -0.02,0 -62.4025,0 z" />
    <path
       d="m -286.49463,243.01103 0,47.275 47.275,0 0,-47.275 -47.275,0 z"
       style="fill:#ffffff;fill-opacity:1;fill-rule:nonzero;stroke:none"
       id="path7852" />
    <g
       id="g7836"
       transform="matrix(0,1.25,1.25,0,-274.54902,271.96352)"
       style="fill:#000000">
      <path
         d="M 0,0 0,-0.033 C -0.001,-0.217 -0.014,-0.401 -0.039,-0.583 -0.063,-0.765 -0.101,-0.945 -0.151,-1.122 -0.197,-1.3 -0.256,-1.474 -0.327,-1.644 -0.398,-1.813 -0.481,-1.978 -0.575,-2.136 -0.667,-2.295 -0.769,-2.448 -0.881,-2.594 -0.993,-2.74 -1.115,-2.877 -1.245,-3.007 -1.375,-3.138 -1.512,-3.26 -1.658,-3.372 -1.804,-3.484 -1.957,-3.586 -2.116,-3.677 -2.274,-3.77 -2.439,-3.852 -2.608,-3.923 -2.778,-3.994 -2.952,-4.054 -3.13,-4.101 -3.307,-4.152 -3.487,-4.19 -3.67,-4.215 -3.851,-4.241 -4.035,-4.253 -4.219,-4.252 l -0.066,0 c -0.184,10e-4 -0.367,0.014 -0.549,0.039 -0.183,0.024 -0.363,0.062 -0.54,0.112 -0.178,0.046 -0.352,0.105 -0.522,0.176 -0.169,0.071 -0.333,0.154 -0.492,0.248 -0.159,0.092 -0.312,0.194 -0.458,0.306 -0.146,0.112 -0.283,0.234 -0.413,0.364 -0.13,0.129 -0.252,0.267 -0.364,0.413 -0.112,0.146 -0.214,0.299 -0.306,0.458 -0.093,0.159 -0.175,0.323 -0.246,0.492 -0.071,0.17 -0.13,0.344 -0.178,0.522 -0.051,0.177 -0.089,0.357 -0.114,0.54 -0.026,0.181 -0.038,0.365 -0.037,0.549 l 0,18.775 c 10e-4,0.184 0.014,0.367 0.039,0.549 0.024,0.182 0.062,0.363 0.112,0.54 0.046,0.178 0.105,0.352 0.176,0.521 0.072,0.17 0.154,0.334 0.248,0.492 0.092,0.16 0.194,0.313 0.306,0.459 0.112,0.145 0.234,0.283 0.364,0.412 0.13,0.131 0.267,0.253 0.413,0.365 0.146,0.112 0.299,0.214 0.458,0.305 0.159,0.094 0.323,0.176 0.493,0.247 0.169,0.071 0.344,0.13 0.521,0.178 0.177,0.05 0.358,0.088 0.54,0.114 0.182,0.026 0.365,0.038 0.549,0.037 l 0.066,0 c 0.184,-10e-4 0.368,-0.014 0.55,-0.039 0.182,-0.025 0.362,-0.062 0.539,-0.112 0.178,-0.046 0.352,-0.105 0.522,-0.177 0.169,-0.071 0.334,-0.154 0.492,-0.248 0.159,-0.091 0.312,-0.193 0.458,-0.305 0.146,-0.112 0.283,-0.234 0.413,-0.365 0.131,-0.129 0.253,-0.267 0.365,-0.412 0.112,-0.146 0.214,-0.299 0.305,-0.459 0.093,-0.158 0.175,-0.323 0.246,-0.492 0.071,-0.17 0.131,-0.344 0.178,-0.521 0.051,-0.178 0.089,-0.358 0.114,-0.54 C -0.011,19.109 0.001,18.926 0,18.742 L 0,0 z"
         style="fill:#000000;fill-opacity:1;fill-rule:evenodd;stroke:#231f20;stroke-width:0.21600000999999999;stroke-linecap:butt;stroke-linejoin:bevel;stroke-miterlimit:22.92600059999999800;stroke-opacity:1;stroke-dasharray:none"
         id="path7838" />
    </g>
  </g>
</svg>
