<?xml version="1.0" encoding="UTF-8" standalone="no"?>
<!-- Created with Inkscape (http://www.inkscape.org/) -->

<svg
   xmlns:dc="http://purl.org/dc/elements/1.1/"
   xmlns:cc="http://creativecommons.org/ns#"
   xmlns:rdf="http://www.w3.org/1999/02/22-rdf-syntax-ns#"
   xmlns:svg="http://www.w3.org/2000/svg"
   xmlns="http://www.w3.org/2000/svg"
   xmlns:sodipodi="http://sodipodi.sourceforge.net/DTD/sodipodi-0.dtd"
   xmlns:inkscape="http://www.inkscape.org/namespaces/inkscape"
   width="71.136368"
   height="48.276367"
   id="svg20630"
   version="1.1"
   inkscape:version="0.47 r22583"
   sodipodi:docname="Neues Dokument 61">
  <defs
     id="defs20632">
    <inkscape:perspective
       sodipodi:type="inkscape:persp3d"
       inkscape:vp_x="0 : 526.18109 : 1"
       inkscape:vp_y="0 : 1000 : 0"
       inkscape:vp_z="744.09448 : 526.18109 : 1"
       inkscape:persp3d-origin="372.04724 : 350.78739 : 1"
       id="perspective20638" />
    <inkscape:perspective
       id="perspective20612"
       inkscape:persp3d-origin="0.5 : 0.33333333 : 1"
       inkscape:vp_z="1 : 0.5 : 1"
       inkscape:vp_y="0 : 1000 : 0"
       inkscape:vp_x="0 : 0.5 : 1"
       sodipodi:type="inkscape:persp3d" />
  </defs>
  <sodipodi:namedview
     id="base"
     pagecolor="#ffffff"
     bordercolor="#666666"
     borderopacity="1.0"
     inkscape:pageopacity="0.0"
     inkscape:pageshadow="2"
     inkscape:zoom="10.833458"
     inkscape:cx="35.568184"
     inkscape:cy="24.138184"
     inkscape:document-units="px"
     inkscape:current-layer="layer1"
     showgrid="false"
     inkscape:window-width="1280"
     inkscape:window-height="748"
     inkscape:window-x="-8"
     inkscape:window-y="-8"
     inkscape:window-maximized="1" />
  <metadata
     id="metadata20635">
    <rdf:RDF>
      <cc:Work
         rdf:about="">
        <dc:format>image/svg+xml</dc:format>
        <dc:type
           rdf:resource="http://purl.org/dc/dcmitype/StillImage" />
        <dc:title></dc:title>
      </cc:Work>
    </rdf:RDF>
  </metadata>
  <g
     inkscape:label="Ebene 1"
     inkscape:groupmode="layer"
     id="layer1"
     transform="translate(-450.1461,-382.50971)">
    <g
       id="g7904"
       transform="matrix(0,1.25,1.25,0,453.16122,430.60471)"
       style="fill:#ffffff;stroke:#000000;stroke-opacity:1">
      <path
         d="m 0,0 0,52.093 0,0.009 c -0.001,0.098 -0.008,0.196 -0.021,0.293 -0.013,0.097 -0.033,0.193 -0.059,0.288 -0.025,0.095 -0.057,0.188 -0.095,0.278 -0.038,0.09 -0.082,0.178 -0.132,0.262 -0.049,0.085 -0.103,0.167 -0.163,0.245 -0.06,0.077 -0.124,0.151 -0.194,0.22 -0.069,0.07 -0.143,0.135 -0.22,0.194 -0.078,0.06 -0.16,0.115 -0.245,0.163 -0.084,0.05 -0.172,0.094 -0.262,0.131 -0.091,0.038 -0.184,0.07 -0.278,0.096 -0.095,0.026 -0.191,0.047 -0.288,0.06 -0.097,0.014 -0.195,0.021 -0.293,0.02 l -33.832,0 c -0.098,0 -0.195,-0.007 -0.292,-0.02 -0.098,-0.014 -0.194,-0.034 -0.288,-0.06 -0.095,-0.025 -0.188,-0.057 -0.279,-0.095 -0.09,-0.038 -0.178,-0.082 -0.262,-0.132 -0.085,-0.049 -0.166,-0.103 -0.244,-0.163 -0.078,-0.059 -0.151,-0.124 -0.22,-0.194 -0.07,-0.069 -0.135,-0.143 -0.195,-0.22 -0.06,-0.078 -0.114,-0.16 -0.163,-0.245 -0.049,-0.084 -0.093,-0.172 -0.131,-0.262 -0.038,-0.091 -0.07,-0.184 -0.095,-0.278 -0.027,-0.095 -0.047,-0.191 -0.061,-0.288 -0.014,-0.097 -0.02,-0.195 -0.02,-0.293 l 0,-52.12 c 10e-4,-0.098 0.008,-0.195 0.021,-0.293 0.013,-0.097 0.033,-0.193 0.06,-0.287 0.024,-0.095 0.056,-0.188 0.094,-0.279 0.038,-0.09 0.082,-0.178 0.132,-0.262 0.049,-0.085 0.103,-0.167 0.163,-0.244 0.06,-0.078 0.125,-0.152 0.195,-0.221 0.069,-0.069 0.142,-0.134 0.22,-0.194 0.077,-0.06 0.159,-0.114 0.244,-0.163 0.084,-0.05 0.172,-0.094 0.263,-0.131 0.09,-0.038 0.183,-0.07 0.278,-0.095 0.094,-0.027 0.19,-0.048 0.288,-0.061 0.097,-0.014 0.194,-0.02 0.292,-0.02 l 33.832,0 c 0.098,10e-4 0.196,0.008 0.293,0.021 0.097,0.013 0.193,0.033 0.288,0.06 0.095,0.024 0.188,0.056 0.278,0.094 0.09,0.038 0.178,0.082 0.262,0.132 0.085,0.049 0.167,0.103 0.245,0.163 0.077,0.06 0.151,0.125 0.22,0.194 0.07,0.069 0.134,0.143 0.194,0.221 0.06,0.077 0.115,0.159 0.163,0.244 0.05,0.084 0.094,0.172 0.132,0.263 0.037,0.09 0.069,0.183 0.095,0.278 0.026,0.094 0.047,0.19 0.06,0.288 0.014,0.097 0.021,0.194 0.02,0.292 L 0,-0.009 0,0 z"
         style="fill:#ffffff;stroke:#000000;stroke-width:0.21600000999999999;stroke-linecap:butt;stroke-linejoin:bevel;stroke-miterlimit:22.92600059999999800;stroke-opacity:1;stroke-dasharray:none"
         id="path7906" />
      <g
         id="g7908"
         transform="translate(0.037,0)"
         style="fill:#ffffff;stroke:#000000;stroke-opacity:1">
        <path
           d="m 0,0 0,-0.009 0,-0.009 c -0.001,-0.1 -0.008,-0.199 -0.021,-0.297 -0.013,-0.099 -0.034,-0.197 -0.061,-0.293 -0.025,-0.096 -0.057,-0.191 -0.095,-0.283 -0.039,-0.092 -0.084,-0.181 -0.135,-0.266 -0.049,-0.087 -0.105,-0.17 -0.165,-0.249 C -0.538,-1.485 -0.604,-1.559 -0.675,-1.629 -0.745,-1.7 -0.82,-1.766 -0.899,-1.827 -0.977,-1.888 -1.06,-1.943 -1.147,-1.993 -1.233,-2.043 -1.322,-2.088 -1.414,-2.126 -1.506,-2.165 -1.6,-2.197 -1.696,-2.223 -1.792,-2.25 -1.89,-2.271 -1.989,-2.284 -2.087,-2.298 -2.187,-2.305 -2.286,-2.304 l -33.832,0 c -0.1,0 -0.199,0.007 -0.298,0.021 -0.099,0.013 -0.197,0.033 -0.292,0.06 -0.097,0.025 -0.191,0.057 -0.284,0.096 -0.091,0.039 -0.18,0.084 -0.266,0.134 -0.086,0.05 -0.169,0.105 -0.248,0.166 -0.079,0.061 -0.154,0.127 -0.224,0.198 -0.071,0.07 -0.137,0.144 -0.198,0.223 -0.06,0.079 -0.116,0.162 -0.165,0.249 -0.051,0.086 -0.095,0.175 -0.134,0.266 -0.038,0.092 -0.07,0.187 -0.096,0.283 -0.027,0.096 -0.048,0.194 -0.062,0.293 -0.014,0.098 -0.02,0.197 -0.02,0.297 l 0,52.12 c 10e-4,0.1 0.008,0.199 0.021,0.298 0.013,0.099 0.034,0.196 0.061,0.292 0.025,0.097 0.057,0.191 0.096,0.283 0.038,0.092 0.083,0.181 0.134,0.266 0.049,0.087 0.105,0.17 0.165,0.249 0.061,0.079 0.127,0.154 0.198,0.224 0.07,0.071 0.145,0.137 0.224,0.197 0.079,0.061 0.162,0.116 0.248,0.166 0.086,0.051 0.175,0.095 0.267,0.133 0.092,0.039 0.186,0.071 0.283,0.097 0.095,0.027 0.193,0.048 0.292,0.062 0.099,0.014 0.198,0.02 0.298,0.02 l 33.832,0 c 0.099,-0.001 0.199,-0.008 0.297,-0.021 0.099,-0.014 0.197,-0.034 0.293,-0.061 0.096,-0.025 0.191,-0.057 0.282,-0.096 0.092,-0.038 0.181,-0.083 0.267,-0.134 0.086,-0.05 0.169,-0.105 0.248,-0.166 0.079,-0.06 0.154,-0.126 0.224,-0.197 0.071,-0.07 0.137,-0.145 0.198,-0.224 0.061,-0.079 0.116,-0.162 0.165,-0.249 0.051,-0.085 0.095,-0.174 0.134,-0.266 0.038,-0.092 0.07,-0.187 0.096,-0.283 C -0.054,52.596 -0.034,52.499 -0.02,52.4 -0.006,52.301 0.001,52.202 0,52.102 L 0,52.093 0,0 z"
           style="fill:#ffffff;stroke:#000000;stroke-width:0.21600000999999999;stroke-linecap:butt;stroke-linejoin:bevel;stroke-miterlimit:22.92600059999999800;stroke-opacity:1;stroke-dasharray:none"
           id="path7910" />
      </g>
    </g>
    <g
       id="g7912"
       transform="matrix(0,1.25,1.25,0,453.16122,429.50721)"
       style="stroke:#000000;fill:#cc0000;fill-opacity:1">
      <path
         d="m 0,0 0,-0.011 c 0,-0.06 -0.005,-0.12 -0.013,-0.179 -0.008,-0.06 -0.02,-0.119 -0.036,-0.177 -0.015,-0.058 -0.035,-0.115 -0.058,-0.17 -0.023,-0.056 -0.05,-0.109 -0.081,-0.161 -0.03,-0.052 -0.063,-0.102 -0.1,-0.15 -0.037,-0.048 -0.076,-0.093 -0.119,-0.135 -0.042,-0.043 -0.087,-0.083 -0.135,-0.119 -0.048,-0.037 -0.098,-0.07 -0.15,-0.1 -0.052,-0.03 -0.105,-0.057 -0.161,-0.08 C -0.908,-1.306 -0.965,-1.325 -1.023,-1.34 -1.081,-1.357 -1.14,-1.369 -1.2,-1.378 -1.259,-1.386 -1.319,-1.39 -1.379,-1.39 l -33.818,0 c -0.06,0 -0.12,0.005 -0.179,0.013 -0.06,0.008 -0.119,0.02 -0.177,0.037 -0.058,0.014 -0.115,0.034 -0.17,0.057 -0.056,0.023 -0.109,0.051 -0.161,0.081 -0.052,0.03 -0.102,0.063 -0.15,0.1 -0.048,0.037 -0.093,0.076 -0.135,0.119 -0.043,0.042 -0.082,0.087 -0.119,0.135 -0.037,0.048 -0.07,0.098 -0.1,0.15 -0.03,0.052 -0.057,0.105 -0.08,0.161 -0.024,0.055 -0.043,0.112 -0.059,0.17 -0.016,0.058 -0.029,0.117 -0.037,0.177 -0.008,0.059 -0.012,0.119 -0.012,0.179 l 0,52.106 c 0,0.06 0.005,0.12 0.012,0.18 0.009,0.059 0.021,0.118 0.037,0.176 0.015,0.058 0.035,0.115 0.058,0.171 0.023,0.055 0.05,0.109 0.081,0.16 0.03,0.053 0.063,0.103 0.1,0.15 0.037,0.048 0.076,0.093 0.119,0.135 0.042,0.043 0.087,0.083 0.135,0.119 0.048,0.037 0.097,0.07 0.15,0.1 0.052,0.031 0.105,0.058 0.161,0.081 0.055,0.023 0.112,0.042 0.17,0.058 0.058,0.016 0.117,0.029 0.177,0.037 0.059,0.008 0.119,0.012 0.179,0.012 l 33.818,0 c 0.06,0 0.12,-0.004 0.179,-0.012 0.06,-0.009 0.119,-0.021 0.177,-0.037 0.058,-0.015 0.115,-0.034 0.17,-0.058 0.056,-0.023 0.109,-0.05 0.161,-0.081 0.052,-0.03 0.102,-0.063 0.15,-0.1 0.048,-0.036 0.093,-0.076 0.135,-0.119 0.043,-0.042 0.082,-0.087 0.119,-0.135 0.037,-0.047 0.07,-0.097 0.1,-0.15 0.03,-0.051 0.057,-0.105 0.081,-0.16 0.023,-0.056 0.042,-0.113 0.058,-0.171 0.016,-0.058 0.029,-0.117 0.037,-0.176 C -0.004,52.215 0,52.155 0,52.095 L 0,0 z"
         style="fill:#cc0000;fill-opacity:1;fill-rule:evenodd;stroke:#000000;stroke-width:0.21600000999999999;stroke-linecap:butt;stroke-linejoin:bevel;stroke-miterlimit:22.92600059999999800;stroke-opacity:1;stroke-dasharray:none"
         id="path7914" />
    </g>
    <g
       id="g7916"
       transform="matrix(0,1.25,1.25,0,458.28122,422.64846)"
       style="stroke:#000000">
      <path
         d="M -25.603,0 0,0 l 0,43.891 -25.603,0 0,-43.891 z M 0,0 z"
         style="fill:#ffffff;fill-opacity:1;fill-rule:evenodd;stroke:#000000;stroke-width:0.21600000999999999;stroke-linecap:butt;stroke-linejoin:bevel;stroke-miterlimit:22.92600059999999800;stroke-opacity:1;stroke-dasharray:none"
         id="path7918" />
    </g>
    <g
       id="g7920"
       transform="matrix(0,1.25,1.25,0,485.71372,422.67221)"
       style="fill:#000000;stroke:#000000">
      <path
         d="M 0,0 -12.802,-10.973 -25.64,0 l 0,21.945 25.64,0 L 0,0 z"
         style="fill:#000000;fill-opacity:1;fill-rule:evenodd;stroke:#000000;stroke-width:0.21600000999999999;stroke-linecap:butt;stroke-linejoin:bevel;stroke-miterlimit:22.92600059999999800;stroke-opacity:1;stroke-dasharray:none"
         id="path7922" />
    </g>
    <g
       id="g7924"
       transform="matrix(0,1.25,1.25,0,486.62752,417.84721)"
       style="stroke:#000000">
      <path
         d="m 0,0 -2.399,0 -9.126,4.783 c -0.04,0.024 -0.082,0.047 -0.123,0.07 -0.042,0.023 -0.084,0.044 -0.127,0.064 -0.055,0.026 -0.112,0.048 -0.17,0.067 -0.059,0.02 -0.118,0.038 -0.177,0.055 -0.057,0.016 -0.114,0.031 -0.172,0.044 -0.058,0.013 -0.116,0.021 -0.175,0.025 -0.023,0.001 -0.045,0.003 -0.068,0.003 -0.023,0 -0.046,0 -0.068,0 l -1.679,0 c -0.026,-10e-4 -0.053,-0.002 -0.079,-0.004 -0.027,-0.002 -0.053,-0.005 -0.08,-0.009 -0.109,-0.016 -0.216,-0.05 -0.314,-0.101 -0.101,-0.052 -0.195,-0.116 -0.279,-0.192 -0.111,-0.091 -0.207,-0.2 -0.285,-0.321 -0.077,-0.119 -0.132,-0.252 -0.161,-0.392 -0.047,-0.187 -0.048,-0.383 -0.003,-0.571 0.044,-0.191 0.133,-0.369 0.26,-0.519 0.102,-0.132 0.229,-0.242 0.376,-0.321 0.141,-0.079 0.299,-0.123 0.461,-0.129 0.021,-0.002 0.042,-0.003 0.063,-0.003 0.021,0 0.043,-10e-4 0.064,-10e-4 l 1.49,0 0,-2.548 -1.619,0 c -0.027,0.001 -0.054,0.002 -0.081,0.003 -0.027,0.001 -0.055,0.003 -0.081,0.004 -0.2,0.013 -0.398,0.042 -0.593,0.089 -0.196,0.047 -0.387,0.111 -0.571,0.191 -0.368,0.152 -0.708,0.365 -1.006,0.629 -0.3,0.265 -0.557,0.576 -0.762,0.921 -0.172,0.266 -0.31,0.552 -0.41,0.853 -0.099,0.298 -0.158,0.608 -0.174,0.922 -0.035,0.479 0.026,0.959 0.181,1.414 0.156,0.465 0.402,0.895 0.723,1.267 0.324,0.412 0.73,0.754 1.193,1.002 0.444,0.245 0.944,0.374 1.452,0.374 0.027,0.001 0.054,0.002 0.081,0.003 0.027,0 0.054,0.001 0.081,0.001 l 1.765,0 c 0.021,-0.001 0.042,-0.002 0.063,-0.003 0.021,-0.001 0.042,-0.001 0.064,-0.003 0.099,-0.006 0.199,-0.016 0.298,-0.031 0.099,-0.014 0.197,-0.032 0.295,-0.051 0.124,-0.023 0.248,-0.05 0.37,-0.081 0.122,-0.032 0.242,-0.07 0.36,-0.115 0.017,-0.006 0.033,-0.012 0.049,-0.018 0.016,-0.007 0.032,-0.013 0.048,-0.019 l 8.489,-4.3 0,4.626 L 0,7.678 0,0 z"
         style="fill:#ffffff;fill-opacity:1;fill-rule:evenodd;stroke:#000000;stroke-width:0.21600000999999999;stroke-linecap:butt;stroke-linejoin:bevel;stroke-miterlimit:22.92600059999999800;stroke-opacity:1;stroke-dasharray:none"
         id="path7926" />
    </g>
    <g
       id="g7928"
       transform="matrix(0,1.25,1.25,0,502.43502,412.22346)"
       style="stroke:#000000">
      <path
         d="M 0,0 0.905,0 0.951,0.006 C 0.965,0.008 0.98,0.01 0.995,0.013 1.117,0.033 1.235,0.067 1.349,0.115 1.462,0.164 1.568,0.229 1.662,0.31 1.794,0.415 1.901,0.547 1.976,0.699 2.053,0.852 2.097,1.02 2.104,1.191 2.12,1.362 2.099,1.534 2.044,1.697 1.991,1.855 1.904,2.001 1.787,2.121 1.721,2.193 1.647,2.257 1.565,2.31 1.483,2.364 1.397,2.412 1.307,2.453 1.255,2.479 1.201,2.501 1.146,2.52 1.092,2.539 1.036,2.551 0.978,2.556 0.964,2.557 0.951,2.558 0.937,2.558 0.922,2.559 0.909,2.559 0.894,2.559 l -4.413,0 c -0.02,0 -0.04,-0.001 -0.061,-0.001 C -3.6,2.557 -3.62,2.556 -3.64,2.554 -3.76,2.543 -3.876,2.515 -3.987,2.468 -4.098,2.421 -4.202,2.358 -4.294,2.28 -4.394,2.201 -4.481,2.108 -4.551,2.002 -4.621,1.897 -4.675,1.781 -4.712,1.66 -4.758,1.524 -4.78,1.382 -4.778,1.239 -4.776,1.094 -4.749,0.951 -4.697,0.816 -4.639,0.649 -4.548,0.496 -4.427,0.367 -4.311,0.24 -4.165,0.144 -4.003,0.089 -3.971,0.077 -3.94,0.067 -3.907,0.057 -3.875,0.048 -3.843,0.04 -3.81,0.032 l 0,-2.295 -9.611,0 0,7.389 2.412,0 0,-5.122 4.802,0 c -0.069,0.085 -0.135,0.172 -0.201,0.259 -0.066,0.088 -0.128,0.178 -0.186,0.271 -0.14,0.227 -0.248,0.473 -0.32,0.73 -0.074,0.259 -0.111,0.528 -0.109,0.797 -0.008,0.308 0.035,0.616 0.127,0.911 0.09,0.294 0.227,0.571 0.405,0.821 0.139,0.21 0.305,0.4 0.493,0.566 0.189,0.167 0.397,0.312 0.62,0.43 0.163,0.092 0.335,0.168 0.513,0.227 0.175,0.058 0.358,0.093 0.543,0.103 0.027,0.002 0.054,0.004 0.081,0.005 0.028,0.001 0.055,0.002 0.082,0.002 l 5.119,0 L 1.03,5.12 C 1.053,5.118 1.076,5.116 1.1,5.114 1.331,5.09 1.559,5.049 1.784,4.991 2.009,4.932 2.228,4.852 2.438,4.751 2.781,4.598 3.098,4.391 3.376,4.139 3.656,3.886 3.896,3.592 4.087,3.267 4.253,3.006 4.385,2.725 4.48,2.43 4.574,2.134 4.63,1.829 4.647,1.52 4.679,1.105 4.643,0.688 4.539,0.286 4.437,-0.117 4.266,-0.499 4.035,-0.844 3.843,-1.151 3.605,-1.427 3.33,-1.662 3.054,-1.898 2.747,-2.093 2.416,-2.242 2.205,-2.345 1.985,-2.426 1.758,-2.485 1.533,-2.544 1.302,-2.575 1.07,-2.578 1.046,-2.579 1.022,-2.579 0.999,-2.58 c -0.024,0 -0.047,0 -0.071,0 L 0,-2.58 0,0 z"
         style="fill:#ffffff;fill-opacity:1;fill-rule:evenodd;stroke:#000000;stroke-width:0.21600000999999999;stroke-linecap:butt;stroke-linejoin:bevel;stroke-miterlimit:22.92600059999999800;stroke-opacity:1;stroke-dasharray:none"
         id="path7930" />
    </g>
  </g>
</svg>
