<?xml version="1.0" encoding="UTF-8" standalone="no"?>
<!-- Created with Inkscape (http://www.inkscape.org/) -->

<svg
   xmlns:dc="http://purl.org/dc/elements/1.1/"
   xmlns:cc="http://creativecommons.org/ns#"
   xmlns:rdf="http://www.w3.org/1999/02/22-rdf-syntax-ns#"
   xmlns:svg="http://www.w3.org/2000/svg"
   xmlns="http://www.w3.org/2000/svg"
   xmlns:sodipodi="http://sodipodi.sourceforge.net/DTD/sodipodi-0.dtd"
   xmlns:inkscape="http://www.inkscape.org/namespaces/inkscape"
   width="71.136429"
   height="71.136337"
   id="svg9369"
   version="1.1"
   inkscape:version="0.47 r22583"
   sodipodi:docname="A.5 Stillliegeverbot.svg">
  <defs
     id="defs9371" />
  <sodipodi:namedview
     id="base"
     pagecolor="#ffffff"
     bordercolor="#666666"
     borderopacity="1.0"
     inkscape:pageopacity="0.0"
     inkscape:pageshadow="2"
     inkscape:zoom="7.3520794"
     inkscape:cx="35.568214"
     inkscape:cy="35.568169"
     inkscape:document-units="px"
     inkscape:current-layer="layer1"
     showgrid="false"
     inkscape:window-width="1280"
     inkscape:window-height="748"
     inkscape:window-x="-8"
     inkscape:window-y="-8"
     inkscape:window-maximized="1" />
  <metadata
     id="metadata9374">
    <rdf:RDF>
      <cc:Work
         rdf:about="">
        <dc:format>image/svg+xml</dc:format>
        <dc:type
           rdf:resource="http://purl.org/dc/dcmitype/StillImage" />
        <dc:title />
      </cc:Work>
    </rdf:RDF>
  </metadata>
  <g
     inkscape:label="Ebene 1"
     inkscape:groupmode="layer"
     id="layer1"
     transform="translate(72.711071,260.34879)">
    <path
       d="m -68.323486,-191.0338 -0.02,0 c -0.11125,0 -0.22125,-0.009 -0.33125,-0.0225 -0.11,-0.015 -0.21875,-0.0375 -0.32625,-0.0687 -0.10625,-0.0275 -0.21125,-0.0625 -0.31375,-0.10625 -0.1025,-0.0425 -0.20125,-0.0925 -0.2975,-0.14875 -0.09625,-0.055 -0.18875,-0.1175 -0.27625,-0.185 -0.0875,-0.0675 -0.17125,-0.14125 -0.24875,-0.22 -0.07875,-0.0775 -0.1525,-0.16125 -0.22,-0.24875 -0.0675,-0.0875 -0.12875,-0.18 -0.185,-0.27625 -0.055,-0.095 -0.105,-0.195 -0.1475,-0.2975 -0.04375,-0.1025 -0.07875,-0.20625 -0.1075,-0.31375 -0.03125,-0.1075 -0.05375,-0.21625 -0.06875,-0.32625 -0.01625,-0.10875 -0.02375,-0.22 -0.0225,-0.33125 l 0,-62.4025 c 0,-0.11 0.0088,-0.22125 0.02375,-0.33 0.015,-0.11125 0.03625,-0.22 0.0675,-0.32625 0.0275,-0.1075 0.06375,-0.2125 0.10625,-0.315 0.0425,-0.1025 0.0925,-0.20125 0.14875,-0.29625 0.05625,-0.0962 0.1175,-0.18875 0.185,-0.27625 0.0675,-0.0888 0.14125,-0.17125 0.22,-0.24875 0.0775,-0.0788 0.16125,-0.1525 0.24875,-0.22 0.0875,-0.0675 0.18,-0.13 0.27625,-0.185 0.09625,-0.0562 0.195,-0.105 0.2975,-0.1475 0.1025,-0.0437 0.2075,-0.0788 0.31375,-0.1075 0.1075,-0.03 0.21625,-0.0537 0.32625,-0.0687 0.11,-0.015 0.22,-0.0225 0.33125,-0.0225 l 62.4024996,0 c 0.11,10e-4 0.22125,0.009 0.33125,0.0238 0.11,0.0138 0.21875,0.0375 0.325,0.0675 0.1075,0.0275 0.2125,0.0625 0.315,0.105 0.1025,0.0437 0.20125,0.0937 0.29625,0.15 0.09625,0.055 0.18875,0.1175 0.27625,0.185 0.08875,0.0675 0.17125,0.14125 0.25,0.22 0.07875,0.0775 0.15125,0.16 0.22,0.24875 0.0675,0.0875 0.12875,0.18 0.18375,0.27625 0.05625,0.095 0.10625,0.19375 0.14875,0.29625 0.0425,0.1025 0.07875,0.2075 0.1075,0.315 0.03,0.1075 0.0525,0.21625 0.06875,0.32625 0.015,0.10875 0.0225,0.22 0.02125,0.33 l 0,62.4025 c 0,0.11125 -0.0087,0.2225 -0.0225,0.33125 -0.015,0.11 -0.0375,0.21875 -0.0675,0.32625 -0.02875,0.1075 -0.06375,0.2125 -0.10625,0.315 -0.04375,0.10125 -0.09375,0.20125 -0.15,0.29625 -0.055,0.0962 -0.11625,0.18875 -0.18375,0.27625 -0.06875,0.0875 -0.14125,0.17125 -0.22,0.24875 -0.07875,0.08 -0.16125,0.1525 -0.25,0.22 -0.0875,0.0688 -0.18,0.13 -0.27625,0.185 -0.095,0.0563 -0.19375,0.105 -0.29625,0.14875 -0.1025,0.0425 -0.2075,0.0775 -0.315,0.10625 -0.10625,0.0312 -0.215,0.0537 -0.325,0.0687 -0.11,0.0162 -0.22125,0.0238 -0.33125,0.0225 l -62.3824996,0 z"
       style="fill:#cc0000;fill-opacity:1;fill-rule:evenodd;stroke:#000000;stroke-width:0.27000001000000001;stroke-linecap:butt;stroke-linejoin:bevel;stroke-miterlimit:22.92600059999999800;stroke-opacity:1;stroke-dasharray:none"
       id="path20046" />
    <path
       d="m -20.674736,-201.15755 -40.09,-40.09 0,40.09 40.09,0"
       style="fill:#ffffff;fill-opacity:1;fill-rule:evenodd;stroke:none"
       id="path20050" />
    <path
       d="m -13.520986,-208.31255 0,-40.09 -40.09,0 40.09,40.09"
       style="fill:#ffffff;fill-opacity:1;fill-rule:evenodd;stroke:none"
       id="path20054" />
    <path
       d="m -68.323486,-189.41505 62.3949996,0 c 0.18125,-0.001 0.36125,-0.0137 0.54,-0.0375 0.18,-0.025 0.3575,-0.0613 0.53125,-0.11125 0.175,-0.045 0.3475,-0.1025 0.51375,-0.17375 0.16625,-0.07 0.32875,-0.15125 0.48375,-0.24375 0.1575,-0.09 0.3075,-0.19 0.45125,-0.3 0.14375,-0.11 0.27875,-0.23125 0.40625,-0.36 0.12875,-0.12625 0.24875,-0.26125 0.35875,-0.405 0.11,-0.14375 0.21,-0.295 0.3,-0.45125 0.0925,-0.15625 0.17375,-0.3175 0.2425,-0.485 0.07,-0.16625 0.12875,-0.3375 0.17625,-0.5125 0.04875,-0.175 0.08625,-0.3525 0.11125,-0.53125 0.025,-0.17875 0.0375,-0.36 0.03625,-0.54 l 0,-62.42875 c 0,-0.18 -0.01375,-0.36125 -0.0375,-0.54 -0.02375,-0.18 -0.06125,-0.3575 -0.11,-0.53125 -0.04625,-0.175 -0.10375,-0.34625 -0.17375,-0.51375 -0.07,-0.16625 -0.1525,-0.32875 -0.245,-0.48375 -0.09,-0.15625 -0.19,-0.3075 -0.3,-0.45125 -0.11,-0.1425 -0.23,-0.27875 -0.35875,-0.40625 -0.1275,-0.12875 -0.2625,-0.24875 -0.40625,-0.35875 -0.14375,-0.11 -0.29375,-0.21 -0.45125,-0.3 -0.155,-0.0912 -0.3175,-0.1725 -0.485,-0.2425 -0.16625,-0.07 -0.3375,-0.12875 -0.5125,-0.175 -0.17375,-0.05 -0.35125,-0.0875 -0.53125,-0.1125 -0.17875,-0.025 -0.35875,-0.0375 -0.54,-0.0362 l -62.4274996,0 c -0.18125,0.001 -0.3625,0.0138 -0.54125,0.0375 -0.17875,0.025 -0.35625,0.0612 -0.53125,0.11125 -0.175,0.045 -0.34625,0.1025 -0.5125,0.1725 -0.1675,0.0712 -0.32875,0.1525 -0.485,0.245 -0.15625,0.09 -0.3075,0.19 -0.45,0.3 -0.14375,0.11 -0.28,0.23 -0.40625,0.35875 -0.12875,0.1275 -0.24875,0.26375 -0.36,0.40625 -0.11,0.14375 -0.21,0.29375 -0.3,0.45125 -0.09125,0.15625 -0.1725,0.3175 -0.2425,0.485 -0.07,0.16625 -0.12875,0.33875 -0.175,0.5125 -0.05,0.175 -0.0875,0.3525 -0.1125,0.53125 -0.025,0.17875 -0.0375,0.36 -0.03625,0.54 l 0,62.42875 c 0.0012,0.18 0.01375,0.36125 0.03875,0.54 0.02375,0.17875 0.06125,0.35625 0.11,0.53125 0.045,0.175 0.10375,0.34625 0.17375,0.51375 0.07,0.16625 0.15125,0.3275 0.24375,0.48375 0.09,0.15625 0.19,0.3075 0.30125,0.45125 0.11,0.1425 0.23,0.27875 0.35875,0.405 0.12625,0.13 0.2625,0.25 0.40625,0.36 0.1425,0.11 0.29375,0.21 0.45,0.3 0.15625,0.0913 0.3175,0.1725 0.485,0.2425 0.16625,0.07 0.33875,0.12875 0.5125,0.175 0.175,0.05 0.3525,0.0875 0.5325,0.1125 0.17875,0.025 0.35875,0.0375 0.54,0.0362 l 0.0325,0 z"
       style="fill:none;stroke:#231f20;stroke-width:0.27000001;stroke-linecap:butt;stroke-linejoin:bevel;stroke-miterlimit:22.9260006;stroke-opacity:1;stroke-dasharray:none"
       id="path20058" />
    <path
       id="path20062"
       style="fill:none;stroke:#000000;stroke-width:0.27000001000000001;stroke-linecap:butt;stroke-linejoin:bevel;stroke-miterlimit:22.92600059999999800;stroke-opacity:1;stroke-dasharray:none"
       d="m -68.323486,-189.34755 -0.03375,0 c -0.18375,-10e-4 -0.36625,-0.0137 -0.54875,-0.0387 -0.1825,-0.0238 -0.3625,-0.0625 -0.54,-0.11125 -0.1775,-0.0463 -0.3525,-0.105 -0.52125,-0.1775 -0.17,-0.0712 -0.33375,-0.15375 -0.4925,-0.2475 -0.15875,-0.0913 -0.3125,-0.19375 -0.4575,-0.305 -0.14625,-0.1125 -0.28375,-0.23375 -0.41375,-0.365 -0.13,-0.13 -0.2525,-0.2675 -0.365,-0.4125 -0.11125,-0.14625 -0.21375,-0.29875 -0.305,-0.45875 -0.0925,-0.15875 -0.175,-0.3225 -0.24625,-0.4925 -0.07,-0.16875 -0.13,-0.34375 -0.1775,-0.52125 -0.05,-0.1775 -0.08875,-0.3575 -0.11375,-0.54 -0.02625,-0.18125 -0.03875,-0.365 -0.0375,-0.54875 l 0,-62.42875 c 0.0012,-0.18375 0.01375,-0.3675 0.03875,-0.54875 0.025,-0.1825 0.0625,-0.3625 0.1125,-0.54 0.04625,-0.1775 0.105,-0.3525 0.17625,-0.5225 0.07125,-0.16875 0.15375,-0.3325 0.2475,-0.49125 0.0925,-0.15875 0.19375,-0.3125 0.30625,-0.4575 0.11125,-0.14625 0.23375,-0.28375 0.36375,-0.41375 0.13,-0.13 0.2675,-0.2525 0.41375,-0.36375 0.145,-0.1125 0.29875,-0.215 0.4575,-0.30625 0.15875,-0.0925 0.3225,-0.175 0.4925,-0.24625 0.17,-0.0713 0.34375,-0.13 0.52125,-0.1775 0.1775,-0.0513 0.3575,-0.0888 0.54,-0.115 0.1825,-0.025 0.365,-0.0375 0.54875,-0.0362 l 62.4287496,0 c 0.18375,0.001 0.3675,0.0138 0.55,0.0387 0.18125,0.025 0.3625,0.0612 0.53875,0.1125 0.17875,0.045 0.3525,0.105 0.5225,0.17625 0.17,0.0713 0.33375,0.15375 0.49125,0.2475 0.16,0.0913 0.3125,0.19375 0.45875,0.30625 0.145,0.11125 0.28375,0.23375 0.4125,0.36375 0.13125,0.13 0.2525,0.2675 0.365,0.41375 0.11125,0.145 0.21375,0.29875 0.305,0.4575 0.09375,0.15875 0.17625,0.3225 0.2475,0.4925 0.07,0.17 0.13,0.34375 0.1775,0.52125 0.05,0.1775 0.08875,0.3575 0.11375,0.54 0.02625,0.18125 0.0375,0.365 0.03625,0.54875 l 0,62.42875 c -0.0012,0.18375 -0.01375,0.3675 -0.0375,0.54875 -0.025,0.1825 -0.0625,0.3625 -0.1125,0.54 -0.04625,0.1775 -0.105,0.3525 -0.1775,0.52125 -0.07125,0.17 -0.15375,0.33375 -0.2475,0.4925 -0.09125,0.16 -0.19375,0.3125 -0.305,0.45875 -0.1125,0.145 -0.23375,0.2825 -0.365,0.4125 -0.12875,0.13125 -0.2675,0.2525 -0.4125,0.365 -0.14625,0.11125 -0.29875,0.21375 -0.45875,0.305 -0.15875,0.0937 -0.3225,0.175 -0.4925,0.24625 -0.16875,0.0712 -0.34375,0.13 -0.52125,0.17875 -0.1775,0.05 -0.3575,0.0875 -0.54,0.11375 -0.18125,0.025 -0.365,0.0375 -0.54875,0.0362 l -62.3949996,0 z" />
    <path
       d="m -53.340986,-216.6813 0,-25.64625 19.5725,0 0.1675,0.001 c 0.05625,0 0.1125,0.001 0.16875,0.002 0.55875,0.0125 1.1175,0.0613 1.67,0.1475 0.55375,0.0863 1.1,0.2125 1.63625,0.37625 0.53875,0.1525 1.06625,0.34375 1.5775,0.5725 0.51125,0.22875 1.005,0.4925 1.48,0.78875 0.48,0.29 0.93875,0.6125 1.37375,0.965 0.435,0.35125 0.845,0.73375 1.22875,1.1425 0.3875,0.4025 0.7475,0.8325 1.0775,1.28625 0.32875,0.4525 0.62625,0.9275 0.89,1.42125 0.27,0.49125 0.50625,0.99875 0.70625,1.52125 0.2,0.52375 0.365,1.05875 0.4925,1.60375 0.11,0.44 0.195,0.88625 0.255,1.33625 0.05875,0.44875 0.09125,0.9 0.09625,1.3525 0.0012,0.0513 0.0012,0.1025 0.0025,0.1525 l 0.0012,0.1525 -0.0012,0.1675 c -0.0012,0.0563 -0.0025,0.1125 -0.0037,0.16875 -0.01125,0.55875 -0.06125,1.1175 -0.1475,1.67 -0.08625,0.55375 -0.21125,1.1 -0.375,1.63625 -0.15375,0.53875 -0.345,1.06625 -0.57375,1.5775 -0.2275,0.51125 -0.49125,1.00625 -0.78875,1.48 -0.29,0.48 -0.61125,0.93875 -0.96375,1.37375 -0.3525,0.435 -0.73375,0.845 -1.1425,1.22875 -0.40375,0.38875 -0.83375,0.74875 -1.28625,1.0775 -0.45375,0.32875 -0.92875,0.62625 -1.4225,0.89 -0.49,0.27 -0.99875,0.50625 -1.52125,0.70625 -0.5225,0.2 -1.05875,0.365 -1.60375,0.49375 -0.44,0.10875 -0.88625,0.19375 -1.335,0.25375 -0.44875,0.0588 -0.90125,0.0913 -1.35375,0.0962 -0.05,10e-4 -0.10125,0.002 -0.1525,0.002 l -0.1525,0.001 -11.47375,0 0,9.44875 -8.09875,0 0,-9.44875 z"
       style="fill:#000000;fill-opacity:1;fill-rule:evenodd;stroke:#000000;stroke-width:0.27000001000000001;stroke-linecap:butt;stroke-linejoin:bevel;stroke-miterlimit:22.92600059999999800;stroke-opacity:1;stroke-dasharray:none"
       id="path20066" />
    <path
       d="m -45.240986,-234.2288 0,9.44875 11.47375,0 0.06125,0 c 0.02125,0 0.04125,-0.001 0.0625,-0.001 0.20625,-0.005 0.41125,-0.0225 0.615,-0.055 0.20375,-0.0312 0.405,-0.0775 0.6025,-0.1375 0.19875,-0.0575 0.3925,-0.1275 0.58125,-0.21125 0.18875,-0.085 0.37125,-0.18125 0.54625,-0.29125 0.17625,-0.10625 0.345,-0.225 0.505,-0.355 0.16125,-0.13 0.31125,-0.27 0.4525,-0.42125 0.14375,-0.14875 0.27625,-0.30625 0.3975,-0.47375 0.12125,-0.16625 0.23125,-0.34125 0.3275,-0.52375 0.1,-0.18 0.1875,-0.3675 0.26125,-0.56 0.07375,-0.1925 0.13375,-0.39 0.18125,-0.59125 0.04,-0.1625 0.07125,-0.32625 0.0925,-0.4925 0.0225,-0.165 0.03375,-0.33125 0.03625,-0.4975 l 0.0013,-0.0337 0,-0.0337 0,-0.07 c 0,-0.02 0,-0.0412 -0.0013,-0.0613 -0.0025,-0.20625 -0.01875,-0.4125 -0.04875,-0.615 -0.03,-0.205 -0.075,-0.40625 -0.13375,-0.605 -0.055,-0.19875 -0.12375,-0.39375 -0.20625,-0.5825 -0.0825,-0.18875 -0.17875,-0.3725 -0.28625,-0.5475 -0.105,-0.1775 -0.2225,-0.3475 -0.35125,-0.50875 -0.12875,-0.16125 -0.2675,-0.31375 -0.4175,-0.45625 -0.1475,-0.14375 -0.305,-0.2775 -0.47,-0.40125 -0.16625,-0.1225 -0.34,-0.2325 -0.52125,-0.33125 -0.18,-0.10125 -0.36625,-0.19 -0.55875,-0.265 -0.1925,-0.075 -0.38875,-0.1375 -0.59,-0.18625 -0.1675,-0.0437 -0.3375,-0.0775 -0.51,-0.10125 -0.17125,-0.0225 -0.34375,-0.035 -0.5175,-0.0375 l -0.055,0 -0.05625,-0.001 -11.47375,0 z"
       style="fill:#ffffff;fill-opacity:1;fill-rule:evenodd;stroke:#000000;stroke-width:0.27000001000000001;stroke-linecap:butt;stroke-linejoin:bevel;stroke-miterlimit:22.92600059999999800;stroke-opacity:1;stroke-dasharray:none"
       id="path20070" />
    <path
       d="m -31.299736,-225.4763 -8.20625,-8.7525 -5.73625,0 0,9.44875 11.5975,-0.001 c 0.8075,-0.0625 1.58875,-0.29375 2.345,-0.695"
       style="fill:#cc0000;fill-opacity:1;fill-rule:evenodd;stroke:none"
       id="path20074" />
  </g>
</svg>
