<?xml version="1.0" encoding="UTF-8" standalone="no"?>
<!-- Created with Inkscape (http://www.inkscape.org/) -->

<svg
   xmlns:dc="http://purl.org/dc/elements/1.1/"
   xmlns:cc="http://creativecommons.org/ns#"
   xmlns:rdf="http://www.w3.org/1999/02/22-rdf-syntax-ns#"
   xmlns:svg="http://www.w3.org/2000/svg"
   xmlns="http://www.w3.org/2000/svg"
   xmlns:sodipodi="http://sodipodi.sourceforge.net/DTD/sodipodi-0.dtd"
   xmlns:inkscape="http://www.inkscape.org/namespaces/inkscape"
   width="71.135361"
   height="71.136406"
   id="svg15541"
   version="1.1"
   inkscape:version="0.47 r22583"
   sodipodi:docname="A.16 Fahrverbot.svg">
  <defs
     id="defs15543" />
  <sodipodi:namedview
     id="base"
     pagecolor="#ffffff"
     bordercolor="#666666"
     borderopacity="1.0"
     inkscape:pageopacity="0.0"
     inkscape:pageshadow="2"
     inkscape:zoom="7.3520723"
     inkscape:cx="35.56768"
     inkscape:cy="35.568203"
     inkscape:document-units="px"
     inkscape:current-layer="layer1"
     showgrid="false"
     inkscape:window-width="1280"
     inkscape:window-height="748"
     inkscape:window-x="-8"
     inkscape:window-y="-8"
     inkscape:window-maximized="1" />
  <metadata
     id="metadata15546">
    <rdf:RDF>
      <cc:Work
         rdf:about="">
        <dc:format>image/svg+xml</dc:format>
        <dc:type
           rdf:resource="http://purl.org/dc/dcmitype/StillImage" />
        <dc:title />
      </cc:Work>
    </rdf:RDF>
  </metadata>
  <g
     inkscape:label="Ebene 1"
     inkscape:groupmode="layer"
     id="layer1"
     transform="translate(135.56763,223.20606)">
    <path
       d="m -130.70864,-152.27219 61.417495,0 0.0175,0 0.01875,0 c 0.20125,-0.001 0.4025,-0.015 0.60125,-0.0425 0.2,-0.0275 0.3975,-0.0675 0.59125,-0.1225 0.195,-0.0513 0.385,-0.115 0.57125,-0.19375 0.18625,-0.0775 0.36625,-0.16875 0.53875,-0.27125 0.175,-0.1 0.3425,-0.2125 0.5025,-0.335 0.15875,-0.1225 0.31,-0.25625 0.45125,-0.39875 0.14375,-0.14125 0.2775,-0.2925 0.4,-0.4525 0.1225,-0.15875 0.235,-0.3275 0.335,-0.50125 0.10125,-0.17375 0.19125,-0.35375 0.26875,-0.54 0.0775,-0.185 0.1425,-0.37625 0.195,-0.57 0.055,-0.195 0.0975,-0.3925 0.125,-0.5925 0.02875,-0.19875 0.04125,-0.4 0.04,-0.6 l 0,-61.49125 c -0.0012,-0.20125 -0.015,-0.40125 -0.0425,-0.60125 -0.02625,-0.19875 -0.0675,-0.39625 -0.1225,-0.59 -0.05,-0.195 -0.115,-0.38625 -0.1925,-0.57125 -0.07875,-0.18625 -0.16875,-0.36625 -0.27125,-0.54 -0.10125,-0.17375 -0.2125,-0.3425 -0.335,-0.50125 -0.1225,-0.16 -0.25625,-0.31125 -0.4,-0.4525 -0.14125,-0.1425 -0.2925,-0.27625 -0.45125,-0.39875 -0.16,-0.12375 -0.3275,-0.235 -0.5025,-0.335 -0.1725,-0.1025 -0.35375,-0.1925 -0.53875,-0.27 -0.18625,-0.0775 -0.3775,-0.1425 -0.57125,-0.195 -0.19375,-0.055 -0.39125,-0.0962 -0.59125,-0.125 -0.19875,-0.0275 -0.4,-0.0413 -0.60125,-0.04 l -61.489995,0 c -0.20125,0.001 -0.4025,0.015 -0.60125,0.0425 -0.2,0.0275 -0.3975,0.0687 -0.59125,0.1225 -0.195,0.0512 -0.38625,0.115 -0.57125,0.19375 -0.18625,0.0775 -0.36625,0.16875 -0.53875,0.27125 -0.175,0.1 -0.3425,0.21125 -0.5025,0.335 -0.15875,0.1225 -0.31,0.25625 -0.45125,0.39875 -0.14375,0.14125 -0.2775,0.2925 -0.4,0.4525 -0.1225,0.15875 -0.235,0.3275 -0.33375,0.50125 -0.1025,0.17375 -0.1925,0.35375 -0.27,0.54 -0.0775,0.185 -0.14375,0.37625 -0.19625,0.57125 -0.0537,0.19375 -0.0962,0.39125 -0.12375,0.59 -0.0288,0.2 -0.0412,0.4 -0.04,0.60125 l 0,0.0188 -0.001,0.0187 0,61.41625 0.001,0.0187 0,0.0188 c 0.001,0.20125 0.015,0.40125 0.0412,0.60125 0.0275,0.19875 0.0688,0.39625 0.1225,0.59125 0.0513,0.19375 0.11625,0.385 0.19375,0.57125 0.0787,0.185 0.16875,0.365 0.2725,0.53875 0.1,0.17375 0.21125,0.34125 0.33375,0.50125 0.1225,0.16 0.25625,0.31125 0.4,0.4525 0.14125,0.1425 0.2925,0.27625 0.45125,0.39875 0.16,0.12375 0.3275,0.235 0.5025,0.335 0.1725,0.1025 0.35375,0.1925 0.53875,0.27 0.18625,0.0775 0.37625,0.1425 0.57125,0.195 0.19375,0.055 0.39125,0.0962 0.59125,0.125 0.19875,0.0275 0.4,0.0412 0.60125,0.04 l 0.0188,0 0.0175,0 z"
       style="fill:none;stroke:#231f20;stroke-width:0.27000001;stroke-linecap:butt;stroke-linejoin:bevel;stroke-miterlimit:22.9260006;stroke-opacity:1;stroke-dasharray:none"
       id="path20230" />
    <path
       d="m -130.70864,-152.20469 -0.0362,0 c -0.205,-0.001 -0.40875,-0.0163 -0.61125,-0.0425 -0.2025,-0.0275 -0.4025,-0.07 -0.59875,-0.125 -0.1975,-0.0513 -0.39125,-0.11625 -0.58,-0.19625 -0.18875,-0.0787 -0.37125,-0.17125 -0.54625,-0.275 -0.1775,-0.1025 -0.3475,-0.215 -0.51,-0.34 -0.16125,-0.12375 -0.315,-0.26 -0.45875,-0.405 -0.145,-0.14375 -0.28,-0.29625 -0.405,-0.45875 -0.125,-0.16125 -0.2375,-0.33125 -0.33875,-0.50875 -0.10375,-0.17625 -0.195,-0.35875 -0.27375,-0.5475 -0.0788,-0.18875 -0.145,-0.38125 -0.1975,-0.57875 -0.0563,-0.1975 -0.0987,-0.3975 -0.1275,-0.6 -0.0288,-0.2025 -0.0425,-0.40625 -0.04,-0.61 l 0,-61.49125 c 0.001,-0.20375 0.015,-0.4075 0.0425,-0.61 0.0275,-0.2025 0.0687,-0.4025 0.125,-0.6 0.05,-0.1975 0.11625,-0.39125 0.195,-0.57875 0.08,-0.18875 0.17125,-0.37125 0.27625,-0.5475 0.10125,-0.17625 0.215,-0.34625 0.33875,-0.50875 0.125,-0.16125 0.26,-0.315 0.405,-0.45875 0.14375,-0.145 0.2975,-0.28125 0.45875,-0.40625 0.1625,-0.12375 0.3325,-0.23625 0.51,-0.33875 0.175,-0.10375 0.3575,-0.195 0.54625,-0.27375 0.18875,-0.0788 0.3825,-0.145 0.58,-0.1975 0.19625,-0.0563 0.39625,-0.0975 0.6,-0.12625 0.20125,-0.0288 0.405,-0.0425 0.61,-0.0413 l 61.491245,0 c 0.20375,0.001 0.4075,0.0163 0.61,0.0438 0.20125,0.0262 0.4025,0.0687 0.59875,0.12375 0.1975,0.0512 0.39125,0.1175 0.58,0.19625 0.18875,0.0787 0.37125,0.17125 0.54625,0.275 0.1775,0.1025 0.3475,0.215 0.50875,0.34 0.1625,0.125 0.31625,0.26 0.46,0.405 0.145,0.14375 0.28,0.2975 0.405,0.45875 0.125,0.1625 0.2375,0.33125 0.33875,0.50875 0.10375,0.17625 0.195,0.35875 0.27375,0.5475 0.07875,0.18875 0.145,0.38125 0.1975,0.57875 0.05625,0.1975 0.09875,0.3975 0.1275,0.6 0.0275,0.2025 0.04125,0.40625 0.04,0.61 l 0,61.49125 c -0.0012,0.20375 -0.015,0.4075 -0.0425,0.61 -0.0275,0.2025 -0.06875,0.4025 -0.125,0.6 -0.05125,0.1975 -0.11625,0.39125 -0.19625,0.58 -0.07875,0.1875 -0.17125,0.37 -0.275,0.54625 -0.10125,0.1775 -0.215,0.3475 -0.33875,0.50875 -0.125,0.1625 -0.26,0.315 -0.405,0.45875 -0.14375,0.145 -0.2975,0.28125 -0.46,0.405 -0.16125,0.125 -0.33125,0.23875 -0.50875,0.34 -0.17625,0.1025 -0.3575,0.195 -0.54625,0.27375 -0.18875,0.0788 -0.3825,0.145 -0.58,0.1975 -0.19625,0.0562 -0.3975,0.0975 -0.6,0.12625 -0.20125,0.0288 -0.405,0.0425 -0.60875,0.0412 l -61.454995,0 z"
       style="fill:#ffffff;fill-opacity:1;fill-rule:evenodd;stroke:#000000;stroke-width:0.27000001000000001;stroke-linecap:butt;stroke-linejoin:bevel;stroke-miterlimit:22.92600059999999800;stroke-opacity:1;stroke-dasharray:none"
       id="path20234" />
    <path
       d="m -130.70864,-153.97719 61.439995,0 c 0.12875,-0.001 0.255,-0.01 0.38125,-0.0275 0.1275,-0.0162 0.2525,-0.0425 0.375,-0.0775 0.12375,-0.0312 0.245,-0.0725 0.3625,-0.1225 0.1175,-0.0488 0.23125,-0.10625 0.34125,-0.1725 0.11125,-0.0637 0.2175,-0.13375 0.31875,-0.21125 0.10125,-0.0788 0.1975,-0.1625 0.2875,-0.25375 0.09,-0.09 0.175,-0.185 0.2525,-0.28625 0.0775,-0.10125 0.14875,-0.2075 0.21125,-0.31875 0.065,-0.11 0.1225,-0.22375 0.1725,-0.34125 0.04875,-0.11875 0.09,-0.23875 0.1225,-0.3625 0.035,-0.1225 0.06125,-0.2475 0.07875,-0.375 0.01875,-0.12625 0.0275,-0.25375 0.02625,-0.38125 l 0,-61.46375 c -0.0012,-0.1275 -0.01,-0.25375 -0.02625,-0.38125 -0.0175,-0.12625 -0.04375,-0.25125 -0.07875,-0.37375 -0.03125,-0.12375 -0.0725,-0.245 -0.1225,-0.3625 -0.05,-0.1175 -0.10625,-0.2325 -0.1725,-0.34125 -0.0625,-0.11125 -0.13375,-0.2175 -0.21125,-0.31875 -0.0775,-0.10125 -0.1625,-0.1975 -0.2525,-0.2875 -0.09,-0.09 -0.18625,-0.175 -0.2875,-0.2525 -0.10125,-0.0775 -0.2075,-0.14875 -0.31875,-0.2125 -0.11,-0.0637 -0.22375,-0.12125 -0.34125,-0.17125 -0.1175,-0.0487 -0.23875,-0.09 -0.3625,-0.12375 -0.1225,-0.0337 -0.2475,-0.06 -0.375,-0.0787 -0.12625,-0.0175 -0.2525,-0.0263 -0.38125,-0.025 l -61.462495,0 c -0.1275,0.001 -0.255,0.01 -0.38125,0.0263 -0.1275,0.0175 -0.2525,0.0437 -0.375,0.0775 -0.12375,0.0325 -0.245,0.0738 -0.3625,0.12375 -0.1175,0.0488 -0.23125,0.10625 -0.34125,0.17125 -0.11125,0.0637 -0.2175,0.135 -0.31875,0.2125 -0.10125,0.0775 -0.1975,0.1625 -0.28625,0.2525 -0.0913,0.09 -0.17625,0.18625 -0.25375,0.2875 -0.0775,0.10125 -0.14875,0.2075 -0.2125,0.31875 -0.0637,0.11 -0.12125,0.22375 -0.17,0.34125 -0.05,0.1175 -0.0913,0.23875 -0.125,0.3625 -0.0337,0.1225 -0.0613,0.2475 -0.0788,0.375 -0.0175,0.12625 -0.0262,0.2525 -0.025,0.38 l 0,61.46375 c 0,0.1275 0.01,0.255 0.0262,0.38125 0.0175,0.1275 0.0438,0.2525 0.0775,0.375 0.0325,0.12375 0.0737,0.245 0.12375,0.3625 0.0487,0.1175 0.10625,0.23125 0.17125,0.34125 0.0637,0.11125 0.135,0.2175 0.2125,0.31875 0.0788,0.10125 0.1625,0.19625 0.25375,0.28625 0.0888,0.0912 0.185,0.17625 0.28625,0.25375 0.10125,0.0775 0.2075,0.14875 0.31875,0.21125 0.11,0.065 0.22375,0.1225 0.34125,0.17125 0.1175,0.05 0.23875,0.0913 0.3625,0.12375 0.1225,0.035 0.2475,0.0613 0.375,0.08 0.12625,0.0175 0.25375,0.025 0.38125,0.025 l 0.0225,0 z"
       style="fill:#cc0000;fill-opacity:1;fill-rule:evenodd;stroke:#000000;stroke-width:0.27000001000000001;stroke-linecap:butt;stroke-linejoin:bevel;stroke-miterlimit:22.92600059999999800;stroke-opacity:1;stroke-dasharray:none"
       id="path20238" />
    <path
       d="m -83.536145,-164.01594 -40.084995,-40.085 0,40.085 40.084995,0"
       style="fill:#ffffff;fill-opacity:1;fill-rule:evenodd;stroke:none"
       id="path20242" />
    <path
       d="m -76.378645,-171.17469 0,-40.085 -40.084995,0 40.084995,40.085"
       style="fill:#ffffff;fill-opacity:1;fill-rule:evenodd;stroke:none"
       id="path20246" />
    <path
       d="m -94.596145,-192.61094 c 0.0075,-0.009 0.015,-0.0163 0.02375,-0.025 0.0075,-0.007 0.015,-0.0162 0.02375,-0.0238 0.04625,-0.0475 0.0975,-0.09 0.15,-0.13 0.05375,-0.04 0.10875,-0.0762 0.1675,-0.1075 0.0575,-0.0325 0.1175,-0.0613 0.17875,-0.0863 0.0625,-0.025 0.125,-0.045 0.19,-0.06 0.06375,-0.0175 0.12875,-0.03 0.195,-0.0375 0.06625,-0.007 0.1325,-0.0112 0.19875,-0.01 0.06625,0.001 0.1325,0.005 0.1975,0.015 0.06625,0.01 0.13125,0.0238 0.195,0.0425 0.06375,0.0175 0.12625,0.04 0.1875,0.065 0.06125,0.0262 0.12,0.0575 0.1775,0.0912 0.05625,0.0338 0.11125,0.0713 0.16375,0.1125 0.0525,0.0412 0.10125,0.085 0.1475,0.13375 0.04625,0.0463 0.09,0.0975 0.12875,0.15 0.04,0.0538 0.07625,0.10875 0.10875,0.1675 0.0325,0.0575 0.0625,0.1175 0.0875,0.17875 0.025,0.0613 0.045,0.125 0.05875,0.19 0.015,0.06 0.025,0.1225 0.03125,0.185 0.0063,0.0625 0.01125,0.125 0.01625,0.18875 l 0,0.02 c -0.0012,0.0662 -0.0062,0.1325 -0.01625,0.1975 -0.0087,0.0662 -0.0225,0.13125 -0.04125,0.195 -0.0175,0.0637 -0.03875,0.12625 -0.065,0.1875 -0.02625,0.0613 -0.0575,0.12 -0.09125,0.17625 -0.03375,0.0575 -0.07125,0.1125 -0.1125,0.165 -0.04125,0.0513 -0.08625,0.10125 -0.13375,0.1475 -0.04625,0.0463 -0.0975,0.09 -0.15,0.12875 -0.05375,0.04 -0.11,0.0763 -0.1675,0.1075 -0.0575,0.0337 -0.1175,0.0613 -0.17875,0.0862 -0.0625,0.025 -0.125,0.045 -0.19,0.0613 -0.06375,0.0175 -0.12875,0.03 -0.195,0.0375 -0.06625,0.009 -0.1325,0.0112 -0.19875,0.009 -0.01,0 -0.02125,0 -0.03125,-0.001 l -0.03125,-0.001 -1.35875,1.74 9.71125,0 c 0.03625,0 0.0725,0.004 0.10875,0.009 0.03625,0.005 0.0725,0.0137 0.1075,0.0237 0.03625,0.01 0.0725,0.0225 0.1075,0.0375 0.03375,0.015 0.0675,0.0325 0.1,0.0525 0.03375,0.0188 0.065,0.04 0.09375,0.0637 0.03,0.0238 0.05875,0.05 0.08375,0.0763 0.0275,0.0275 0.0525,0.0563 0.075,0.0863 0.0225,0.0312 0.0425,0.0625 0.06125,0.0962 0.01875,0.0325 0.035,0.0675 0.04875,0.1025 0.01375,0.035 0.025,0.0712 0.035,0.1075 0.0088,0.0375 0.01625,0.075 0.02,0.1125 0.005,0.0375 0.0063,0.075 0.0063,0.11375 -0.0012,0.0375 -0.0038,0.075 -0.0087,0.1125 -0.005,0.0375 -0.01375,0.075 -0.025,0.11125 l -0.0025,0.0112 -0.0037,0.01 -2.17125,6.94625 -0.0063,0.02 c -0.0075,0.0238 -0.01625,0.0463 -0.02625,0.0688 -0.01,0.0225 -0.02125,0.045 -0.0325,0.0675 -0.0175,0.0325 -0.0375,0.065 -0.06,0.0962 -0.0225,0.03 -0.0475,0.06 -0.07375,0.0863 -0.025,0.0288 -0.05375,0.0537 -0.0825,0.0775 -0.03,0.025 -0.06125,0.0463 -0.0925,0.065 -0.0325,0.0213 -0.06625,0.0387 -0.10125,0.0538 -0.035,0.015 -0.07,0.0288 -0.10625,0.0387 -0.03625,0.0112 -0.07375,0.02 -0.11125,0.0263 -0.0375,0.006 -0.075,0.009 -0.11375,0.01 l -0.01125,0 -14.313745,0 -2.62875,3.365 0,2.105 -4.05,5.17 -0.006,0.009 c -0.002,0.002 -0.005,0.005 -0.008,0.009 -0.0237,0.0288 -0.05,0.0563 -0.0775,0.0825 -0.0288,0.0263 -0.0575,0.05 -0.0887,0.0712 -0.0312,0.0225 -0.0625,0.0425 -0.0963,0.06 -0.0337,0.0175 -0.0687,0.0337 -0.10375,0.0463 -0.0363,0.0137 -0.0725,0.025 -0.10875,0.0325 -0.0375,0.009 -0.075,0.015 -0.1125,0.0187 -0.0375,0.004 -0.075,0.005 -0.11375,0.004 -0.0375,-0.002 -0.075,-0.006 -0.1125,-0.0125 -0.0375,-0.006 -0.075,-0.015 -0.11125,-0.0263 -0.0362,-0.0113 -0.0713,-0.0238 -0.10625,-0.04 -0.0275,-0.0125 -0.055,-0.0262 -0.0812,-0.0425 -0.0263,-0.015 -0.0512,-0.0325 -0.0763,-0.0513 l -0.0162,-0.0125 -2.05,-1.60375 -0.009,-0.008 -0.009,-0.006 c -0.03,-0.0238 -0.0575,-0.05 -0.0838,-0.0775 -0.025,-0.0288 -0.0487,-0.0575 -0.0712,-0.0887 -0.0225,-0.0312 -0.0425,-0.0625 -0.06,-0.0963 -0.0175,-0.0337 -0.0337,-0.0687 -0.0463,-0.10375 -0.0138,-0.0362 -0.025,-0.0725 -0.0325,-0.10875 -0.009,-0.0375 -0.015,-0.075 -0.0187,-0.1125 -0.004,-0.0375 -0.005,-0.0762 -0.004,-0.11375 0.001,-0.0375 0.006,-0.075 0.0125,-0.1125 0.006,-0.0375 0.015,-0.075 0.025,-0.11 0.0113,-0.0375 0.025,-0.0725 0.0412,-0.1075 0.0125,-0.0275 0.0263,-0.055 0.0425,-0.0825 0.0162,-0.0263 0.0337,-0.0525 0.0525,-0.0762 l 0.0125,-0.0163 4.21125,-5.35875 1.63875,0 2.03625,-2.605 -7.82,0 c -0.0363,-0.001 -0.0713,-0.004 -0.10625,-0.009 -0.035,-0.005 -0.0688,-0.0125 -0.10375,-0.0225 -0.0362,-0.01 -0.0725,-0.0213 -0.1075,-0.0362 -0.035,-0.015 -0.0687,-0.0325 -0.10125,-0.0513 -0.0325,-0.0188 -0.065,-0.04 -0.095,-0.0637 -0.0288,-0.0225 -0.0575,-0.0488 -0.0838,-0.0762 l -0.007,-0.008 -0.009,-0.009 -6.51125,-6.94625 -0.015,-0.015 c -0.0175,-0.0188 -0.0337,-0.0388 -0.0487,-0.06 -0.0162,-0.0213 -0.03,-0.0425 -0.0438,-0.065 -0.02,-0.0312 -0.0375,-0.065 -0.0525,-0.1 -0.0162,-0.035 -0.0287,-0.07 -0.04,-0.10625 -0.01,-0.0362 -0.0187,-0.0737 -0.025,-0.11125 -0.006,-0.0375 -0.009,-0.075 -0.01,-0.11375 -0.001,-0.0375 0,-0.075 0.004,-0.1125 0.004,-0.0387 0.0112,-0.075 0.02,-0.1125 0.009,-0.0362 0.02,-0.0738 0.0337,-0.10875 0.0125,-0.035 0.0288,-0.07 0.0475,-0.1025 0.0175,-0.0337 0.0375,-0.0662 0.06,-0.0962 0.0225,-0.0312 0.0475,-0.06 0.0738,-0.0875 0.025,-0.0275 0.0537,-0.0538 0.0825,-0.0775 0.03,-0.0238 0.0613,-0.045 0.0925,-0.065 0.0325,-0.02 0.0662,-0.0375 0.10125,-0.0525 0.0338,-0.0163 0.07,-0.0288 0.10625,-0.04 0.0363,-0.0113 0.0738,-0.0188 0.11125,-0.025 0.0375,-0.006 0.075,-0.01 0.1125,-0.01 l 0.0112,0 0.0113,-0.001 6.9625,0.001 c -0.025,-0.23625 -0.0475,-0.47125 -0.0675,-0.7075 -0.02,-0.23625 -0.0312,-0.4725 -0.035,-0.70875 -0.004,-0.38 0.0212,-0.75875 0.075,-1.135 0.055,-0.375 0.1375,-0.74625 0.25,-1.10875 0.10875,-0.3625 0.24125,-0.71625 0.39625,-1.06125 0.15625,-0.34625 0.3225,-0.68625 0.49875,-1.02125 0.0725,-0.14 0.14625,-0.27875 0.22375,-0.415 0.0763,-0.13625 0.16,-0.27 0.24875,-0.39875 0.0688,-0.0988 0.1425,-0.195 0.22,-0.2875 0.0788,-0.0925 0.16125,-0.18125 0.24875,-0.265 0.11125,-0.10875 0.22875,-0.21 0.35375,-0.3025 0.12375,-0.0937 0.255,-0.1775 0.39,-0.25375 0.135,-0.0775 0.275,-0.14625 0.41875,-0.20375 0.145,-0.0588 0.2925,-0.10625 0.445,-0.14 0.20625,-0.0512 0.41625,-0.0775 0.62875,-0.08 0.21125,-0.002 0.42125,0.02 0.6275,0.0675 0.1325,0.0275 0.2625,0.065 0.39,0.10875 0.1275,0.0438 0.255,0.0913 0.38,0.14125 l 10.983745,3.475"
       style="fill:#000000;fill-opacity:1;fill-rule:evenodd;stroke:none"
       id="path20250" />
    <path
       d="m -101.95364,-199.81969 0,0.02 0,0.02 c -0.003,0.1325 -0.0125,0.265 -0.03,0.39625 -0.0188,0.13125 -0.0475,0.26125 -0.0838,0.38875 -0.035,0.1275 -0.0787,0.25375 -0.13125,0.375 -0.0525,0.1225 -0.11375,0.24 -0.1825,0.35375 -0.0675,0.115 -0.1425,0.22375 -0.22375,0.32875 -0.0825,0.10375 -0.17125,0.2025 -0.2675,0.29375 -0.0937,0.0937 -0.195,0.18 -0.30125,0.26 -0.10625,0.0788 -0.2175,0.15125 -0.33375,0.215 -0.11625,0.0662 -0.23625,0.12375 -0.35875,0.1725 -0.12375,0.0487 -0.25,0.09 -0.37875,0.12125 -0.12875,0.0337 -0.25875,0.0587 -0.39,0.0737 -0.1325,0.0162 -0.265,0.0225 -0.3975,0.02 -0.1325,-0.001 -0.265,-0.0113 -0.39625,-0.03 -0.13125,-0.0188 -0.26125,-0.0475 -0.38875,-0.0838 -0.12875,-0.035 -0.25375,-0.0788 -0.375,-0.13125 -0.1225,-0.0525 -0.24125,-0.11375 -0.35375,-0.1825 -0.115,-0.0662 -0.225,-0.14125 -0.32875,-0.22375 -0.10375,-0.0825 -0.2025,-0.17125 -0.295,-0.2675 -0.0925,-0.0937 -0.18,-0.195 -0.25875,-0.30125 -0.08,-0.10625 -0.15125,-0.2175 -0.215,-0.33375 -0.0662,-0.115 -0.12375,-0.235 -0.1725,-0.35875 -0.05,-0.12375 -0.09,-0.25 -0.1225,-0.37875 -0.0325,-0.1275 -0.0575,-0.25875 -0.0737,-0.39 -0.015,-0.1325 -0.0213,-0.265 -0.0187,-0.3975 0,-0.1325 0.01,-0.265 0.0287,-0.39625 0.02,-0.13125 0.0475,-0.26125 0.085,-0.38875 0.035,-0.1275 0.0787,-0.25375 0.13125,-0.375 0.0525,-0.1225 0.11375,-0.24 0.18125,-0.35375 0.0675,-0.115 0.1425,-0.22375 0.225,-0.32875 0.0812,-0.10375 0.17125,-0.2025 0.26625,-0.295 0.095,-0.0925 0.195,-0.17875 0.30125,-0.25875 0.10625,-0.08 0.21875,-0.15125 0.335,-0.215 0.115,-0.0662 0.235,-0.12375 0.35875,-0.1725 0.1225,-0.05 0.24875,-0.09 0.3775,-0.12125 0.12875,-0.0337 0.25875,-0.0588 0.39125,-0.0737 0.13125,-0.0163 0.265,-0.0225 0.39625,-0.02 0.13375,10e-4 0.26625,0.0112 0.3975,0.03 0.13125,0.0188 0.26125,0.0475 0.38875,0.0838 0.1275,0.035 0.2525,0.0787 0.375,0.13125 0.12125,0.0525 0.24,0.11375 0.35375,0.1825 0.11375,0.0662 0.22375,0.14125 0.3275,0.22375 0.105,0.0825 0.20375,0.17125 0.295,0.26625 0.0937,0.095 0.18,0.19625 0.26,0.3025 0.0787,0.10625 0.15125,0.2175 0.215,0.33375 0.065,0.115 0.1225,0.235 0.1725,0.35875 0.0487,0.1225 0.09,0.24875 0.12125,0.3775 0.0325,0.1225 0.0562,0.24625 0.0725,0.37125 0.015,0.125 0.0225,0.25125 0.0213,0.3775"
       style="fill:#000000;fill-opacity:1;fill-rule:evenodd;stroke:none"
       id="path20254" />
    <path
       d="m -95.938645,-191.88844 -8.712495,-0.9475 -0.46,0 c -0.002,0.0662 -0.006,0.13375 -0.009,0.2 -0.004,0.0675 -0.008,0.135 -0.0113,0.20125 -0.0263,0.42125 -0.0763,0.84 -0.15,1.255 -0.0737,0.41375 -0.17125,0.82375 -0.2925,1.2275 -0.05,0.1725 -0.1025,0.34375 -0.1575,0.51375 -0.0563,0.17 -0.1125,0.34 -0.17125,0.50875 l 7.807495,0 2.195,-2.8075 -0.01125,-0.0362 c -0.0038,-0.0125 -0.0075,-0.025 -0.01,-0.0375 -0.0037,-0.0125 -0.0062,-0.0263 -0.0087,-0.0388 l -0.0087,-0.0387"
       style="fill:#cc0000;fill-opacity:1;fill-rule:evenodd;stroke:none"
       id="path20258" />
  </g>
</svg>
