<svg xmlns="http://www.w3.org/2000/svg" xmlns:xlink="http://www.w3.org/1999/xlink"><style>g.exerciseImage {        fill:white;       stroke:black;       stroke-linecap: round;        stroke-linejoin: round;       stroke-width: 1     }           g.exerciseImage text{       font-family: Arial, sans-serif;       fill: black;        stroke: none;     }</style><defs><rect id="water" style="fill:PowderBlue;stroke:none" width="100%" height="100%"></rect><marker id="endMarkerArrow" markerWidth="4" markerHeight="4" refX="2" refY="2" orient="auto"><path d="M0,0 L4,2 L0,4 z"></path></marker><marker id="startMarkerArrow" markerWidth="4" markerHeight="4" refX="2" refY="2" orient="auto"><path d="M4,0 L0,2 L4,4 z"></path></marker><g id="light-ball" transform="translate(26 20)"><line y2="-20"></line><circle r="5"></circle></g><g id="flashing-light-ball" transform="translate(20, -20)"><line y2="20"></line><circle style="fill:royalBlue" r="5"><animate attributeName="fill" values="black; royalBlue; black" dur="0.8s" repeatCount="indefinite"></animate></circle></g><g id="flag" transform="translate(26 20)"><line y2="-20"></line><path transform="translate(0 -2)" d="M0,0q2,-1 4,0t4,0v4q-2,1 -4,0t-4,0z"></path></g><g id="paddle"><line x2="16"></line><circle style="fill:black" cx="16" r="2"></circle></g><polygon id="ski" transform="translate(-18 0)" points="0,0 2,-2 30,-2 30,2 2,2"></polygon><g id="small-sail" transform="translate(4) rotate(-35)"><title>Small sail</title><path style="fill:white" d="M0,0 h20 A 18,18 0 0 0 0,0"></path></g><g id="large-sail" transform="translate(20) rotate(-25)"><title>Large sail</title><path style="fill:white" d="M0,0 h25 A 22,22 0 0 0 0,0"></path><circle r="1"></circle></g><g id="boat"><path id="boat-outline" d="M0.5,0.5c12,-12 22,-12 45,-7v14 c-22,4 -33,4 -45,-7z"></path><path style="fill:rgba(255,255,255,0.4)" d="M20.5,-5.5h22v12h-22a6,6 0 0 1 0,-12z"></path><line x1="0.5" y1="0.5" x2="14.5" y2="0.5"></line><rect style="fill:black" x="45.5" y="-1.5" width="2" height="4"></rect></g><g id="large-boat"><path d="M0,0c5,-10 15,-10 20,-10h20a1,1, 0,0,1 0,20h-20c-5,0 -15,0 -20,-10z"></path></g><g id="rowing-boat"><path id="boat-outline" d="M0.5,0q22,-14.5 43.5,0q-22,14.5 -43.5,0z"></path><polygon transform="translate(12 0)" points="0,0 4,-4 14,-4 18,0 14,4 4,4"></polygon><use transform="translate(18 0) rotate(60) translate(2 0)" xlink:href="#paddle"></use><use transform="translate(18 0) rotate(-60) translate(2 0)" xlink:href="#paddle"></use></g><g id="sailing-boat"><use xlink:href="#boat-outline"></use><use xlink:href="#small-sail"></use><use xlink:href="#large-sail"></use></g><g id="lighted-boat"><use style="fill:rgb(60,60,60)" xlink:href="#boat"></use><g stroke-linecap="round" transform="translate(46 0)"><line transform="rotate(60)" x2="10"></line><line transform="rotate(-60)" x2="10"></line><path fill="gold" d="M 3.500000000000001 -6.06217782649107 A 7 7 0 0 1 3.500000000000001 6.06217782649107 L 0 0 z"></path></g><g stroke-linecap="round" transform="translate(26 20)"><line y2="-20"></line><circle style="fill:green" r="5"></circle></g><g transform="translate(26 0)"><line transform="rotate(60)" x2="12"></line><line transform="rotate(-60)" x2="12"></line><path style="fill:gold" d="M 3.500000000000001 6.06217782649107 A 7 7 0 1 1 3.500000000000001 -6.06217782649107 L 0 0 z"></path></g><g class="portBowLight" transform="translate(10 5)"><line transform="rotate(60)" x2="12"></line><line transform="rotate(-180)" x2="12"></line><path style="fill:red" d="M 3.500000000000001 6.06217782649107 A 7 7 0 0 1 -7 8.572527594031472e-16 L 0 0 z"></path></g><g class="starboardBowLight" transform="translate(10 -5)"><line transform="rotate(-60)" x2="12"></line><line transform="rotate(180)" x2="12"></line><path style="fill:green" d="M -7 8.572527594031472e-16 A 7 7 0 0 1 3.500000000000001 -6.06217782649107 L 0 0 z"></path></g></g><g id="convoy"><title>Schleppverband</title><line x1="45" x2="60" y2="12"></line><line x1="45" x2="60" y2="-12"></line><use xlink:href="#boat-outline"></use><use transform="translate(60, -12)" xlink:href="#boat-outline"></use><use transform="translate(60, 12)" xlink:href="#boat-outline"></use></g><g id="img303" class="exerciseImage"><use xlink:href="#water"></use><g transform="translate(50, 50) rotate(120)"><use style="fill:rgb(60,60,60)" xlink:href="#boat"></use><line style="marker-end:url(#endMarkerArrow)" x1="-5" x2="-15" y1="0.5" y2="0.5"></line></g><g transform="translate(100, 50) rotate(60)"><use xlink:href="#boat"></use><line style="marker-end:url(#endMarkerArrow)" x1="-5" x2="-15" y1="0.5" y2="0.5"></line></g><text style="font-size:7.5" y="12" x="52">Hafeneinfahrt</text><g style="fill:SlateGray"><rect x="-0.5" y="-0.5" width="40" height="20"></rect><rect x="110.5" y="-0.5" width="40" height="20"></rect></g></g><g id="img304" class="exerciseImage"><use xlink:href="#water"></use><g transform="translate(35, 50) rotate(120)"><use xlink:href="#boat"></use><line style="marker-end:url(#endMarkerArrow)" x1="-5" x2="-15" y1="0.5" y2="0.5"></line></g><g transform="translate(90,20)"><use style="fill:rgb(60,60,60)" xlink:href="#boat"></use><line style="marker-end:url(#endMarkerArrow)" x1="-5" x2="-15" y1="0.5" y2="0.5"></line></g></g><g id="img307" class="exerciseImage"><use xlink:href="#water"></use><use transform="translate(60.5, 40.5) rotate(180)" xlink:href="#lighted-boat"></use><g transform="translate(90, 50) rotate(30)"><use xlink:href="#boat"></use></g></g><g id="img308" class="exerciseImage"><use xlink:href="#water"></use><g transform="translate(60.5, 65.5) rotate(180)"><use style="fill:rgb(60,60,60)" xlink:href="#large-boat"></use><use xlink:href="#light-ball" style="fill:green"></use></g><use transform="translate(90, 50) rotate(-30)" xlink:href="#boat"></use></g><g id="img309" class="exerciseImage"><use xlink:href="#water"></use><g transform="translate(90, 40) rotate(45)"><use xlink:href="#boat"></use><use xlink:href="#flashing-light-ball"></use></g><use transform="translate(50, 40) rotate(135)" xlink:href="#boat"></use></g><g id="img310" class="exerciseImage"><use xlink:href="#water"></use><g transform="translate(50, 40) rotate(135)"><use xlink:href="#boat"></use><line style="marker-end:url(#endMarkerArrow)" x1="-5" x2="-15" y1="0.5" y2="0.5"></line></g><g transform="translate(90, 20)"><use xlink:href="#boat-outline"></use><use xlink:href="#small-sail"></use><use xlink:href="#large-sail"></use><line style="marker-end:url(#endMarkerArrow)" x1="-5" x2="-15" y1="0.5" y2="0.5"></line></g></g><g id="img311" class="exerciseImage"><use xlink:href="#water"></use><g transform="translate(20,50)"><use xlink:href="#boat"></use><line style="marker-end:url(#endMarkerArrow)" x1="-5" x2="-15" y1="0.5" y2="0.5"></line></g><g transform="translate(100, 50)"><use xlink:href="#boat"></use><line style="marker-end:url(#endMarkerArrow)" x1="-5" x2="-15" y1="0.5" y2="0.5"></line></g></g><g id="img312" class="exerciseImage"><use xlink:href="#water"></use><g transform="translate(50,60) rotate(225)"><use xlink:href="#boat"></use></g><g transform="translate(100, 60) rotate(-45)"><use xlink:href="#boat-outline"></use><use xlink:href="#light-ball"></use></g></g><g id="img313" class="exerciseImage"><use xlink:href="#water"></use><g transform="translate(60.5,50) rotate(180)"><use xlink:href="#large-boat"></use><use xlink:href="#light-ball"></use></g><use transform="translate(90, 60)" xlink:href="#boat"></use></g><g id="img314" class="exerciseImage"><use xlink:href="#water"></use><use transform="translate(60, 20) rotate(180)" xlink:href="#boat"></use><g transform="translate(100,40) rotate(60)"><use xlink:href="#large-boat"></use><use xlink:href="#flag"></use></g></g><g id="img315" class="exerciseImage"><use xlink:href="#water"></use><use transform="translate(70, 20) rotate(180)" xlink:href="#boat"></use><g transform="translate(110,40) rotate(90)"><use xlink:href="#rowing-boat"></use></g></g><g id="img426" class="exerciseImage"><use xlink:href="#water"></use><g transform="rotate(35) translate(15 0)"><line style="marker-end:url(#endMarkerArrow)" x2="50"></line><text style="font-size:11" x="8" y="-4">Wind</text></g><g transform="translate(80, 30) rotate(-20) scale(1 -1)"><use style="fill:black" xlink:href="#boat-outline"></use><use xlink:href="#small-sail"></use><use xlink:href="#large-sail"></use></g><g transform="translate(50, 70) scale(1 -1)"><use xlink:href="#boat-outline"></use><use xlink:href="#small-sail"></use><use xlink:href="#large-sail"></use></g></g><g id="img427" class="exerciseImage"><use xlink:href="#water"></use><g transform="translate(10 50)"><line style="marker-end:url(#endMarkerArrow)" x2="50"></line><text style="font-size:11" x="8" y="-4">Wind</text></g><use transform="translate(80, 35) rotate(-20) scale(1 -1)" style="fill:black" xlink:href="#sailing-boat"></use><use transform="translate(80, 65) rotate(20)" xlink:href="#sailing-boat"></use></g><g id="img428" class="exerciseImage"><use xlink:href="#water"></use><g transform="translate(15 55)"><line style="marker-end:url(#endMarkerArrow)" x2="50"></line><text style="font-size:11" x="8" y="-4">Wind</text></g><use transform="translate(75 35) rotate(30) scale(-1 1)" style="fill:black" xlink:href="#sailing-boat"></use><use transform="translate(85, 60) rotate(40)" xlink:href="#sailing-boat"></use></g><g id="img429" class="exerciseImage"><use xlink:href="#water"></use><g transform="translate(10 55)"><line style="marker-end:url(#endMarkerArrow)" x2="50"></line><text style="font-size:11" x="8" y="-4">Wind</text></g><use transform="translate(120 30) rotate(10) scale(-1 1)" style="fill:black" xlink:href="#sailing-boat"></use><use transform="translate(100, 60) rotate(150)" xlink:href="#sailing-boat"></use></g><g id="img430" class="exerciseImage" style="font-size:11"><use xlink:href="#water"></use><g transform="translate(110 10)"><line style="marker-end:url(#endMarkerArrow)" y2="30"></line><text x="8" y="20">Wind</text></g><g><use transform="translate(80 50) rotate(-90)" xlink:href="#sailing-boat"></use><text x="78" y="18">3</text></g><g><use transform="translate(50, 60) rotate(200)" xlink:href="#sailing-boat"></use><text x="12" y="50">2</text></g><g><use transform="translate(80, 65) rotate(-150) scale(-1 1)" xlink:href="#sailing-boat"></use><text x="108" y="86">1</text></g></g><g id="img431" class="exerciseImage"><use xlink:href="#water"></use><use transform="translate(60, 30) rotate(180)" xlink:href="#lighted-boat"></use><use transform="translate(110, 50) rotate(120)" xlink:href="#sailing-boat"></use></g><g id="img432" class="exerciseImage"><use xlink:href="#water"></use><g transform="translate(60, 70) rotate(180)"><use xlink:href="#boat-outline"></use><use xlink:href="#light-ball" style="fill:green"></use></g><use transform="translate(100, 50) rotate(135) scale(-1 1)" xlink:href="#sailing-boat"></use></g><g id="img433" class="exerciseImage"><use xlink:href="#water"></use><g transform="translate(100, 60) rotate(-60)"><use xlink:href="#boat"></use><use xlink:href="#flashing-light-ball"></use></g><use transform="translate(60, 70) rotate(-160)" xlink:href="#sailing-boat"></use></g><g id="img434" class="exerciseImage"><use xlink:href="#water"></use><g transform="translate(60, 60) rotate(180)"><use xlink:href="#boat-outline"></use><use xlink:href="#light-ball"></use></g><use transform="translate(90, 50) rotate(150) scale(-1 1)" xlink:href="#sailing-boat"></use></g><g id="img435" class="exerciseImage"><use xlink:href="#water"></use><g transform="translate(60, 30) rotate(150)"><use xlink:href="#boat-outline"></use><use xlink:href="#flag"></use></g><use transform="translate(100, 50) rotate(-135) scale(-1 1)" xlink:href="#sailing-boat"></use></g><g id="img436" class="exerciseImage"><use xlink:href="#water"></use><use transform="translate(30, 45) rotate(90)" xlink:href="#rowing-boat"></use><use transform="translate(80, 25)" xlink:href="#sailing-boat"></use></g><g id="img437" class="exerciseImage"><use xlink:href="#water"></use><g transform="translate(60, 55) rotate(180)"><use xlink:href="#boat"></use><line style="marker-end:url(#endMarkerArrow)" x1="-2" x2="-10"></line></g><g transform="translate(90, 45)"><use xlink:href="#boat"></use><line style="marker-end:url(#endMarkerArrow)" x1="-2" x2="-10"></line></g></g><g id="img438" class="exerciseImage"><use xlink:href="#water"></use><g transform="translate(45, 50) rotate(130)"><use xlink:href="#boat"></use><line style="marker-end:url(#endMarkerArrow)" x1="-2" x2="-10"></line></g><g transform="translate(90, 25)"><use style="fill:black" xlink:href="#boat"></use><line style="marker-end:url(#endMarkerArrow)" x1="-2" x2="-10"></line></g></g><g id="img440" class="exerciseImage"><use xlink:href="#water"></use><g transform="translate(20, 40) rotate(-20)"><use xlink:href="#boat"></use><line x1="48" x2="78"></line><g id="water-skier" transform="translate(78 0)"><title>Water skier</title><use transform="translate(0 -4)" xlink:href="#ski"></use><use transform="translate(0 4)" xlink:href="#ski"></use><ellipse id="water-skier-body" rx="4" ry="8"></ellipse><circle id="water-skier-head" r="3"></circle></g></g><use transform="translate(60, 65) rotate(30)" xlink:href="#sailing-boat"></use></g><g id="img441" class="exerciseImage"><use xlink:href="#water"></use><use transform="translate(110, 55) rotate(45)" xlink:href="#boat"></use><text style="font-size:8" x="20" y="70">Schleppverband</text><use transform="translate(110, 35) rotate(180)" xlink:href="#convoy"></use></g><g id="img442" class="exerciseImage"><use xlink:href="#water"></use><use transform="translate(85, 85) rotate(180)" xlink:href="#boat"></use><line transform="translate(55 55)" style="marker-end:url(#endMarkerArrow);marker-start:url(#startMarkerArrow)" y2="15"></line><use transform="translate(135, 28) rotate(180)" xlink:href="#convoy"></use></g><g id="img443" class="exerciseImage"><use xlink:href="#water"></use><use transform="translate(70, 20) rotate(180)" xlink:href="#boat"></use><use transform="translate(110, 50) rotate(90)" xlink:href="#rowing-boat"></use></g><g id="img444" class="exerciseImage"><use xlink:href="#water"></use><g transform="translate(45, 50) rotate(135)"><use xlink:href="#boat"></use><line style="marker-end:url(#endMarkerArrow)" x1="-5" x2="-15"></line></g><g transform="translate(95, 20)"><use xlink:href="#sailing-boat"></use><line style="marker-end:url(#endMarkerArrow)" x1="-5" x2="-15"></line></g></g><g id="img445" class="exerciseImage"><use xlink:href="#water"></use><g transform="translate(55, 30) rotate(150)"><use xlink:href="#boat-outline"></use><use xlink:href="#flag"></use></g><use transform="translate(100, 40) rotate(40)" xlink:href="#sailing-boat"></use></g><g id="img446" class="exerciseImage"><use xlink:href="#water"></use><g transform="translate(55, 55) rotate(180)"><use xlink:href="#boat-outline"></use><use xlink:href="#light-ball"></use></g><use transform="translate(95, 45) rotate(-30) scale(1 -1)" xlink:href="#sailing-boat"></use></g><g id="img447" class="exerciseImage"><use xlink:href="#water"></use><g><rect x="70" y="-1" height="30" width="10"></rect><rect x="-1" y="80" height="10" width="70"></rect><text style="font-size:8" x="4" y="74">Hafeneinfahrt</text></g><g transform="translate(50, 40) rotate(-140)"><use xlink:href="#boat"></use><line style="marker-end:url(#endMarkerArrow)" x1="-5" x2="-60"></line></g><use transform="translate(95, 45) rotate(-30) scale(1 -1)" xlink:href="#boat"></use></g><g id="img448" class="exerciseImage"><use xlink:href="#water"></use><use transform="translate(50, 45) rotate(-150)" xlink:href="#boat"></use><use transform="translate(90, 60)" xlink:href="#lighted-boat"></use></g><g id="img449" class="exerciseImage"><use xlink:href="#water"></use><use transform="translate(95, 45) rotate(-30)" xlink:href="#boat"></use><g transform="translate(55, 60) rotate(180)"><use style="fill:black" xlink:href="#large-boat"></use><use style="fill:green" xlink:href="#light-ball"></use></g></g><g id="img450" class="exerciseImage"><use xlink:href="#water"></use><g transform="translate(50, 35) rotate(30)"><use xlink:href="#boat"></use><use xlink:href="#flashing-light-ball"></use></g></g><g id="img451" class="exerciseImage"><use xlink:href="#water"></use><use transform="translate(50, 60) rotate(-145)" xlink:href="#boat"></use><g transform="translate(100, 60) rotate(-45) scale(1 -1)"><use xlink:href="#boat-outline"></use><use xlink:href="#light-ball"></use></g></g><g id="img452" class="exerciseImage"><use xlink:href="#water"></use><use transform="translate(90, 55)" xlink:href="#boat"></use><g transform="translate(60, 45) rotate(180)"><use xlink:href="#large-boat"></use><use xlink:href="#light-ball"></use></g></g><g id="img453" class="exerciseImage"><use xlink:href="#water"></use><use transform="translate(60, 20) rotate(180)" xlink:href="#boat"></use><g transform="translate(100, 45) rotate(60) scale(1 -1)"><use xlink:href="#large-boat"></use><use xlink:href="#flag"></use></g></g><g id="img455" class="exerciseImage"><use xlink:href="#water"></use><g transform="translate(10 55)"><line style="marker-end:url(#endMarkerArrow)" x2="50"></line><text style="font-size:11" x="8" y="-4">Wind</text></g><use transform="translate(120 30) rotate(10) scale(-1 1)" style="fill:black" xlink:href="#sailing-boat"></use><use transform="translate(100, 60) rotate(150)" xlink:href="#sailing-boat"></use></g><g id="img456" class="exerciseImage" style="font-size:11"><use xlink:href="#water"></use><g transform="translate(8 18) rotate(30)"><line style="marker-end:url(#endMarkerArrow)" x2="50"></line><text style="font-size:9" x="8" y="-5">Wind</text></g><g><use transform="translate(75 45) rotate(-55) scale(1 -1)" xlink:href="#sailing-boat"></use><text x="92" y="18">1</text></g><g><use transform="translate(50, 55) rotate(130)" xlink:href="#sailing-boat"></use><text x="22" y="86">3</text></g><g><use transform="translate(85, 80) rotate(-15) scale(1 -1)" xlink:href="#sailing-boat"></use><text x="118" y="73">2</text></g></g><g id="img457" class="exerciseImage"><use xlink:href="#water"></use><g transform="translate(10 55)"><line style="marker-end:url(#endMarkerArrow)" x2="60"></line><text style="font-size:10" x="15" y="-4">Wind</text></g><use transform="translate(85 35) rotate(30) scale(-1 1)" xlink:href="#sailing-boat"></use><use transform="translate(95, 55) rotate(45)" style="fill:black" xlink:href="#sailing-boat"></use></g></defs></svg>
