<?xml version="1.0" encoding="UTF-8" standalone="no"?>
<!-- Created with Inkscape (http://www.inkscape.org/) -->

<svg
   xmlns:dc="http://purl.org/dc/elements/1.1/"
   xmlns:cc="http://creativecommons.org/ns#"
   xmlns:rdf="http://www.w3.org/1999/02/22-rdf-syntax-ns#"
   xmlns:svg="http://www.w3.org/2000/svg"
   xmlns="http://www.w3.org/2000/svg"
   xmlns:sodipodi="http://sodipodi.sourceforge.net/DTD/sodipodi-0.dtd"
   xmlns:inkscape="http://www.inkscape.org/namespaces/inkscape"
   width="247.91171"
   height="87.299004"
   id="svg2"
   version="1.1"
   inkscape:version="0.47 r22583"
   sodipodi:docname="B.2a Durchfahren von festen Brücken">
  <defs
     id="defs4">
    <inkscape:perspective
       sodipodi:type="inkscape:persp3d"
       inkscape:vp_x="0 : 526.18109 : 1"
       inkscape:vp_y="0 : 1000 : 0"
       inkscape:vp_z="744.09448 : 526.18109 : 1"
       inkscape:persp3d-origin="372.04724 : 350.78739 : 1"
       id="perspective10" />
    <clipPath
       id="clipPath3074"
       clipPathUnits="userSpaceOnUse">
      <path
         id="path3076"
         d="m 0.06,840.96 594.96,0 0,-840.96 -594.96,0 0,840.96 z" />
    </clipPath>
    <clipPath
       id="clipPath3068"
       clipPathUnits="userSpaceOnUse">
      <path
         id="path3070"
         d="M 0,841 595,841 595,0 0,0 0,841 z" />
    </clipPath>
    <clipPath
       id="clipPath3056"
       clipPathUnits="userSpaceOnUse">
      <path
         id="path3058"
         d="m 0.06,840.96 594.96,0 0,-840.96 -594.96,0 0,840.96 z" />
    </clipPath>
    <clipPath
       id="clipPath3050"
       clipPathUnits="userSpaceOnUse">
      <path
         id="path3052"
         d="M 0,841 595,841 595,0 0,0 0,841 z" />
    </clipPath>
    <clipPath
       id="clipPath3044"
       clipPathUnits="userSpaceOnUse">
      <path
         id="path3046"
         clip-rule="evenodd"
         d="m 332.07,693.78 198.43,0 0,-73.7 -198.43,0 0,73.7 z" />
    </clipPath>
    <clipPath
       id="clipPath3016"
       clipPathUnits="userSpaceOnUse">
      <path
         id="path3018"
         d="m 0.06,840.96 594.96,0 0,-840.96 -594.96,0 0,840.96 z" />
    </clipPath>
    <clipPath
       id="clipPath3010"
       clipPathUnits="userSpaceOnUse">
      <path
         id="path3012"
         d="M 0,841 595,841 595,0 0,0 0,841 z" />
    </clipPath>
    <clipPath
       id="clipPath2998"
       clipPathUnits="userSpaceOnUse">
      <path
         id="path3000"
         d="m 0.06,840.96 594.96,0 0,-840.96 -594.96,0 0,840.96 z" />
    </clipPath>
    <clipPath
       id="clipPath2992"
       clipPathUnits="userSpaceOnUse">
      <path
         id="path2994"
         d="M 0,841 595,841 595,0 0,0 0,841 z" />
    </clipPath>
    <clipPath
       id="clipPath2986"
       clipPathUnits="userSpaceOnUse">
      <path
         id="path2988"
         clip-rule="evenodd"
         d="m 476.97,416.22 47.53,0 0,-47.53 -47.53,0 0,47.53 z" />
    </clipPath>
    <clipPath
       id="clipPath2958"
       clipPathUnits="userSpaceOnUse">
      <path
         id="path2960"
         d="m 0.06,840.96 594.96,0 0,-840.96 -594.96,0 0,840.96 z" />
    </clipPath>
    <clipPath
       id="clipPath2952"
       clipPathUnits="userSpaceOnUse">
      <path
         id="path2954"
         d="M 0,841 595,841 595,0 0,0 0,841 z" />
    </clipPath>
    <clipPath
       id="clipPath2940"
       clipPathUnits="userSpaceOnUse">
      <path
         id="path2942"
         d="m 0.06,840.96 594.96,0 0,-840.96 -594.96,0 0,840.96 z" />
    </clipPath>
    <clipPath
       id="clipPath2934"
       clipPathUnits="userSpaceOnUse">
      <path
         id="path2936"
         d="M 0,841 595,841 595,0 0,0 0,841 z" />
    </clipPath>
    <clipPath
       id="clipPath2928"
       clipPathUnits="userSpaceOnUse">
      <path
         id="path2930"
         clip-rule="evenodd"
         d="m 478.97,134.76 43.53,0 0,-43.53 -43.53,0 0,43.53 z" />
    </clipPath>
    <clipPath
       id="clipPath2850"
       clipPathUnits="userSpaceOnUse">
      <path
         id="path2852"
         d="m 0.06,840.96 594.96,0 0,-840.96 -594.96,0 0,840.96 z" />
    </clipPath>
    <clipPath
       id="clipPath2844"
       clipPathUnits="userSpaceOnUse">
      <path
         id="path2846"
         d="M 0,841 595,841 595,0 0,0 0,841 z" />
    </clipPath>
    <clipPath
       id="clipPath2834"
       clipPathUnits="userSpaceOnUse">
      <path
         id="path2836"
         d="M 0,0 595,0 595,841 0,841 0,0 z" />
    </clipPath>
    <inkscape:perspective
       id="perspective2824"
       inkscape:persp3d-origin="0.5 : 0.33333333 : 1"
       inkscape:vp_z="1 : 0.5 : 1"
       inkscape:vp_y="0 : 1000 : 0"
       inkscape:vp_x="0 : 0.5 : 1"
       sodipodi:type="inkscape:persp3d" />
    <inkscape:perspective
       id="perspective4223"
       inkscape:persp3d-origin="35.567425 : 23.711489 : 1"
       inkscape:vp_z="71.13485 : 35.567234 : 1"
       inkscape:vp_y="0 : 1000 : 0"
       inkscape:vp_x="0 : 35.567234 : 1"
       sodipodi:type="inkscape:persp3d" />
  </defs>
  <sodipodi:namedview
     id="base"
     pagecolor="#ffffff"
     bordercolor="#666666"
     borderopacity="1.0"
     inkscape:pageopacity="0.0"
     inkscape:pageshadow="2"
     inkscape:zoom="4.759759"
     inkscape:cx="123.95586"
     inkscape:cy="43.649502"
     inkscape:document-units="px"
     inkscape:current-layer="layer1"
     showgrid="false"
     inkscape:window-width="1280"
     inkscape:window-height="748"
     inkscape:window-x="-8"
     inkscape:window-y="-8"
     inkscape:window-maximized="1"
     showborder="true" />
  <metadata
     id="metadata7">
    <rdf:RDF>
      <cc:Work
         rdf:about="">
        <dc:format>image/svg+xml</dc:format>
        <dc:type
           rdf:resource="http://purl.org/dc/dcmitype/StillImage" />
        <dc:title></dc:title>
      </cc:Work>
    </rdf:RDF>
  </metadata>
  <g
     inkscape:label="Ebene 1"
     inkscape:groupmode="layer"
     id="layer1"
     transform="translate(-435.66,-230.42418)">
    <path
       style="fill:none;stroke:#000000;stroke-width:1px;stroke-linecap:butt;stroke-linejoin:miter;stroke-opacity:1"
       d="m 436.16,257.62418 246.905,0"
       id="path3216"
       sodipodi:nodetypes="cc" />
    <path
       sodipodi:nodetypes="cc"
       id="path3226"
       d="m 436.17352,254.82418 246.89148,0"
       style="fill:none;stroke:#000000;stroke-width:1.01343358px;stroke-linecap:butt;stroke-linejoin:miter;stroke-opacity:1" />
    <path
       id="path3241"
       style="fill:none;stroke:#000000;stroke-width:1;stroke-linejoin:round;stroke-miterlimit:4;stroke-opacity:1;stroke-dasharray:none;stroke-dashoffset:0"
       d="m 662.19375,231.03125 -20.46875,23.6875 40.9375,0 -20.46875,-23.6875 z m -41.1,0 -20.46875,23.6875 40.9375,0 -20.46875,-23.6875 z m -40.9,0 -20.46875,23.6875 40.9375,0 -20.46875,-23.6875 z m -41.1,0 -20.46875,23.6875 40.9375,0 -20.46875,-23.6875 z m -40.9,0 -20.46875,23.6875 40.9375,0 -20.46875,-23.6875 z m -41.1,0 -20.46875,23.6875 40.9375,0 -20.46875,-23.6875 z" />
    <path
       sodipodi:nodetypes="cc"
       id="path3243"
       d="m 436.16,257.62418 246.905,0"
       style="fill:none;stroke:#000000;stroke-width:1px;stroke-linecap:butt;stroke-linejoin:miter;stroke-opacity:1" />
    <path
       style="fill:none;stroke:#000000;stroke-width:1px;stroke-linecap:butt;stroke-linejoin:miter;stroke-opacity:1"
       d="m 436.16,257.62418 246.905,0"
       id="path3245"
       sodipodi:nodetypes="cc" />
    <path
       sodipodi:nodetypes="cc"
       id="path3247"
       d="m 436.16,230.92418 246.905,0"
       style="fill:none;stroke:#000000;stroke-width:1px;stroke-linecap:butt;stroke-linejoin:miter;stroke-opacity:1" />
    <g
       id="g4129">
      <path
         sodipodi:nodetypes="ccccc"
         id="path3214"
         d="m 455.07372,317.22318 4.54569,-53.285 24.38059,0 4.66129,53.285 -33.58757,0 z"
         style="fill:none;stroke:#000000;stroke-width:1px;stroke-linecap:butt;stroke-linejoin:miter;stroke-opacity:1" />
      <path
         sodipodi:nodetypes="cccc"
         id="path3220"
         d="m 456.0205,257.62418 0,3.536 31.694,0 0,-3.536"
         style="fill:none;stroke:#000000;stroke-width:1px;stroke-linecap:butt;stroke-linejoin:miter;stroke-opacity:1" />
      <path
         sodipodi:nodetypes="ccccc"
         id="path3224"
         d="m 468.111,261.16018 0,2.778 7.513,0 0,-2.778 -7.513,0 z"
         style="fill:none;stroke:#000000;stroke-width:1px;stroke-linecap:butt;stroke-linejoin:miter;stroke-opacity:1" />
    </g>
    <path
       sodipodi:nodetypes="ccccc"
       id="path3260"
       d="m 664.35128,317.22318 -4.54569,-53.285 -24.38059,0 -4.66129,53.285 33.58757,0 z"
       style="fill:none;stroke:#000000;stroke-width:1px;stroke-linecap:butt;stroke-linejoin:miter;stroke-opacity:1" />
    <path
       sodipodi:nodetypes="cccc"
       id="path3262"
       d="m 663.4045,257.62418 0,3.536 -31.694,0 0,-3.536"
       style="fill:none;stroke:#000000;stroke-width:1px;stroke-linecap:butt;stroke-linejoin:miter;stroke-opacity:1" />
    <path
       sodipodi:nodetypes="ccccc"
       id="path3264"
       d="m 651.314,261.16018 0,2.778 -7.513,0 0,-2.778 7.513,0 z"
       style="fill:none;stroke:#000000;stroke-width:1px;stroke-linecap:butt;stroke-linejoin:miter;stroke-opacity:1" />
    <path
       style="fill:none;stroke:#000080;stroke-width:1px;stroke-linecap:butt;stroke-linejoin:miter;stroke-opacity:1"
       d="m 503.40715,317.22318 7.41071,0"
       id="path3289"
       sodipodi:nodetypes="cc" />
    <path
       sodipodi:nodetypes="cc"
       id="path3291"
       d="m 492.90715,317.22318 7.4107,0"
       style="fill:none;stroke:#000080;stroke-width:1px;stroke-linecap:butt;stroke-linejoin:miter;stroke-opacity:1" />
    <path
       style="fill:none;stroke:#000080;stroke-width:1px;stroke-linecap:butt;stroke-linejoin:miter;stroke-opacity:1"
       d="m 513.90715,317.22318 7.4107,0"
       id="path3293"
       sodipodi:nodetypes="cc" />
    <path
       sodipodi:nodetypes="cc"
       id="path3295"
       d="m 524.40715,317.22318 7.4107,0"
       style="fill:none;stroke:#000080;stroke-width:1px;stroke-linecap:butt;stroke-linejoin:miter;stroke-opacity:1" />
    <path
       style="fill:none;stroke:#000080;stroke-width:1px;stroke-linecap:butt;stroke-linejoin:miter;stroke-opacity:1"
       d="m 534.90715,317.22318 7.4107,0"
       id="path3297"
       sodipodi:nodetypes="cc" />
    <path
       sodipodi:nodetypes="cc"
       id="path3299"
       d="m 545.40715,317.22318 7.4107,0"
       style="fill:none;stroke:#000080;stroke-width:1px;stroke-linecap:butt;stroke-linejoin:miter;stroke-opacity:1" />
    <path
       style="fill:none;stroke:#000080;stroke-width:1px;stroke-linecap:butt;stroke-linejoin:miter;stroke-opacity:1"
       d="m 555.90715,317.22318 7.4107,0"
       id="path3301"
       sodipodi:nodetypes="cc" />
    <path
       sodipodi:nodetypes="cc"
       id="path3303"
       d="m 566.40715,317.22318 7.4107,0"
       style="fill:none;stroke:#000080;stroke-width:1px;stroke-linecap:butt;stroke-linejoin:miter;stroke-opacity:1" />
    <path
       style="fill:none;stroke:#000080;stroke-width:1px;stroke-linecap:butt;stroke-linejoin:miter;stroke-opacity:1"
       d="m 576.90715,317.22318 7.4107,0"
       id="path3305"
       sodipodi:nodetypes="cc" />
    <path
       sodipodi:nodetypes="cc"
       id="path3307"
       d="m 587.40715,317.22318 7.4107,0"
       style="fill:none;stroke:#000080;stroke-width:1px;stroke-linecap:butt;stroke-linejoin:miter;stroke-opacity:1" />
    <path
       style="fill:none;stroke:#000080;stroke-width:1px;stroke-linecap:butt;stroke-linejoin:miter;stroke-opacity:1"
       d="m 597.90715,317.22318 7.4107,0"
       id="path3309"
       sodipodi:nodetypes="cc" />
    <path
       sodipodi:nodetypes="cc"
       id="path3311"
       d="m 618.90715,317.22318 7.4107,0"
       style="fill:none;stroke:#000080;stroke-width:1px;stroke-linecap:butt;stroke-linejoin:miter;stroke-opacity:1" />
    <path
       style="fill:none;stroke:#000080;stroke-width:1px;stroke-linecap:butt;stroke-linejoin:miter;stroke-opacity:1"
       d="m 608.40715,317.22318 7.4107,0"
       id="path3313"
       sodipodi:nodetypes="cc" />
    <g
       id="g3347"
       transform="translate(5.25285,0)">
      <path
         style="fill:none;stroke:#000080;stroke-width:1px;stroke-linecap:butt;stroke-linejoin:miter;stroke-opacity:1"
         d="m 441.40715,317.22318 7.41071,0"
         id="path3343"
         sodipodi:nodetypes="cc" />
      <path
         sodipodi:nodetypes="cc"
         id="path3345"
         d="m 430.90715,317.22318 7.4107,0"
         style="fill:none;stroke:#000080;stroke-width:1px;stroke-linecap:butt;stroke-linejoin:miter;stroke-opacity:1" />
    </g>
    <g
       transform="translate(234.24714,0)"
       id="g3351">
      <path
         sodipodi:nodetypes="cc"
         id="path3353"
         d="m 441.40715,317.22318 7.41071,0"
         style="fill:none;stroke:#000080;stroke-width:1px;stroke-linecap:butt;stroke-linejoin:miter;stroke-opacity:1" />
      <path
         style="fill:none;stroke:#000080;stroke-width:1px;stroke-linecap:butt;stroke-linejoin:miter;stroke-opacity:1"
         d="m 430.90715,317.22318 7.4107,0"
         id="path3355"
         sodipodi:nodetypes="cc" />
    </g>
    <g
       id="g4238"
       transform="translate(-11.999996,0)">
      <g
         inkscape:label="Ebene 1"
         id="layer1-4"
         transform="matrix(0.32057417,0,0,0.32057417,458.81633,74.096747)">
        <path
           id="path17763"
           style="fill:none;stroke:#231f20;stroke-width:0.27000001;stroke-linecap:butt;stroke-linejoin:bevel;stroke-miterlimit:22.9260006;stroke-opacity:1;stroke-dasharray:none"
           d="m 312.88035,567.96378 -33.205,-33.205 -0.006,-0.006 c -0.0662,-0.0675 -0.12875,-0.14 -0.18625,-0.215 -0.0575,-0.0762 -0.11,-0.155 -0.15625,-0.23875 -0.0487,-0.0812 -0.0912,-0.1675 -0.12625,-0.255 -0.0362,-0.0875 -0.0662,-0.17875 -0.09,-0.27 -0.0238,-0.0912 -0.0425,-0.185 -0.055,-0.28 -0.0125,-0.0937 -0.0187,-0.18875 -0.0175,-0.28375 -10e-4,-0.095 0.005,-0.19 0.0175,-0.28375 0.0125,-0.095 0.0312,-0.1875 0.0562,-0.28 0.0238,-0.0912 0.0538,-0.18125 0.0888,-0.27 0.0362,-0.0875 0.0788,-0.1725 0.12625,-0.255 0.0462,-0.0838 0.0987,-0.16375 0.155,-0.23875 0.0575,-0.0762 0.12,-0.14875 0.1875,-0.215 l 0.006,-0.006 0.006,-0.006 33.19875,-33.1986 0.006,-0.006 0.006,-0.006 c 0.0675,-0.0662 0.13875,-0.12875 0.215,-0.18625 0.075,-0.0575 0.155,-0.11 0.2375,-0.15625 0.0825,-0.0487 0.1675,-0.09 0.25625,-0.12625 0.0875,-0.0362 0.1775,-0.0662 0.27,-0.0887 0.0925,-0.025 0.185,-0.0438 0.28,-0.0563 0.0937,-0.0125 0.18875,-0.0175 0.28375,-0.0175 0.095,0 0.19,0.005 0.28375,0.0175 0.095,0.0125 0.1875,0.0312 0.28,0.0563 0.0913,0.0237 0.18125,0.0537 0.27,0.09 0.0875,0.035 0.1725,0.0775 0.255,0.125 0.0838,0.0462 0.16375,0.0987 0.24,0.15625 0.075,0.0562 0.14625,0.11875 0.21375,0.18625 l 0.006,0.006 0.006,0.006 33.19875,33.19875 0.006,0.006 0.006,0.006 c 0.0662,0.0675 0.12875,0.13875 0.18625,0.215 0.0575,0.075 0.11,0.155 0.15625,0.23875 0.0475,0.0812 0.09,0.16625 0.12625,0.255 0.035,0.0875 0.065,0.17875 0.0888,0.27 0.025,0.0925 0.0438,0.185 0.0562,0.28 0.0125,0.0937 0.0188,0.18875 0.0175,0.28375 0.001,0.095 -0.005,0.19 -0.0175,0.285 -0.0125,0.0937 -0.0312,0.1875 -0.0562,0.27875 -0.0237,0.0913 -0.0538,0.1825 -0.09,0.27 -0.0362,0.0875 -0.0775,0.17375 -0.125,0.255 -0.0462,0.0837 -0.0987,0.16375 -0.15625,0.24 -0.0562,0.075 -0.11875,0.1475 -0.18625,0.21375 l -0.007,0.006 -33.20375,33.205 -0.006,0.006 -0.006,0.006 c -0.0675,0.0662 -0.14,0.12875 -0.215,0.18625 -0.0762,0.0575 -0.155,0.11 -0.23875,0.15625 -0.0812,0.0488 -0.1675,0.09 -0.255,0.12625 -0.0875,0.0362 -0.17875,0.065 -0.27,0.0888 -0.0925,0.025 -0.185,0.0437 -0.28,0.0562 -0.0937,0.0125 -0.18875,0.0187 -0.28375,0.0175 -0.095,0.001 -0.19,-0.005 -0.28375,-0.0175 -0.095,-0.0125 -0.18875,-0.0312 -0.28,-0.0562 -0.0925,-0.0238 -0.1825,-0.0538 -0.27,-0.09 -0.0875,-0.0362 -0.17375,-0.0775 -0.25625,-0.125 -0.0825,-0.0462 -0.1625,-0.0987 -0.23875,-0.15625 -0.0762,-0.0562 -0.1475,-0.11875 -0.21375,-0.18625 l -0.006,-0.006 -0.006,-0.006 z" />
        <path
           d="m 312.85535,567.98878 0.006,0.006 0.006,0.006 c 0.0688,0.0675 0.14125,0.13125 0.21875,0.19 0.0763,0.0588 0.1575,0.11125 0.24125,0.15875 0.0838,0.0487 0.17,0.0912 0.26,0.1275 0.0888,0.0375 0.18125,0.0675 0.275,0.0913 0.0925,0.025 0.1875,0.0437 0.28375,0.0562 0.095,0.0125 0.1925,0.0187 0.28875,0.0187 0.0963,0 0.1925,-0.006 0.28875,-0.0187 0.095,-0.0125 0.19,-0.0312 0.28375,-0.0562 0.0937,-0.025 0.185,-0.055 0.27375,-0.0913 0.09,-0.0375 0.17625,-0.08 0.26,-0.1275 0.085,-0.0475 0.16625,-0.1 0.2425,-0.15875 0.0775,-0.0575 0.15,-0.12125 0.2175,-0.19 l 0.007,-0.006 0.005,-0.006 33.2,-33.19875 0.006,-0.006 0.005,-0.006 c 0.0687,-0.0688 0.13125,-0.14125 0.19,-0.21875 0.0588,-0.0762 0.11125,-0.1575 0.15875,-0.24125 0.05,-0.0837 0.0925,-0.17 0.12875,-0.26 0.0362,-0.09 0.0662,-0.18125 0.09,-0.275 0.025,-0.0925 0.045,-0.1875 0.0575,-0.28375 0.0125,-0.095 0.0187,-0.19125 0.0175,-0.28875 10e-4,-0.0962 -0.005,-0.1925 -0.0175,-0.28875 -0.0125,-0.095 -0.0312,-0.19 -0.0563,-0.28375 -0.025,-0.0937 -0.055,-0.185 -0.0925,-0.27375 -0.0362,-0.09 -0.0788,-0.1775 -0.1275,-0.26 -0.0462,-0.085 -0.1,-0.16625 -0.1575,-0.24375 -0.0588,-0.0762 -0.1225,-0.15 -0.19125,-0.2175 l -0.005,-0.006 -0.006,-0.006 -33.2,-33.19875 -0.005,-0.006 -0.006,-0.006 c -0.0687,-0.0675 -0.1425,-0.13125 -0.21875,-0.18875 -0.0775,-0.0587 -0.1575,-0.1125 -0.2425,-0.15875 -0.0825,-0.05 -0.17,-0.0925 -0.26,-0.12875 -0.0888,-0.0363 -0.18,-0.0675 -0.27375,-0.0913 -0.0937,-0.025 -0.18875,-0.0438 -0.28375,-0.0563 -0.0963,-0.0125 -0.1925,-0.0188 -0.28875,-0.0175 -0.0975,-10e-4 -0.19375,0.005 -0.28875,0.0175 -0.0963,0.0125 -0.19125,0.0312 -0.28375,0.0563 -0.0937,0.025 -0.18625,0.055 -0.275,0.0913 -0.09,0.0375 -0.17625,0.08 -0.26,0.12875 -0.085,0.0462 -0.165,0.0987 -0.2425,0.1575 -0.0775,0.0575 -0.15,0.12125 -0.2175,0.19 l -0.006,0.006 -0.006,0.006 -33.19875,33.19875 -0.006,0.006 -0.006,0.006 c -0.0688,0.0688 -0.13125,0.14125 -0.19,0.21875 -0.0588,0.0762 -0.11125,0.1575 -0.15875,0.2425 -0.0487,0.0825 -0.0912,0.17 -0.12875,0.25875 -0.0362,0.09 -0.0662,0.18125 -0.09,0.275 -0.025,0.0937 -0.0437,0.18875 -0.0562,0.28375 -0.0137,0.0962 -0.0187,0.1925 -0.0187,0.28875 0,0.0975 0.005,0.19375 0.0175,0.28875 0.0138,0.0962 0.0325,0.19125 0.0575,0.28375 0.0238,0.0937 0.055,0.185 0.0913,0.275 0.0362,0.0888 0.0788,0.17625 0.1275,0.26 0.0475,0.0838 0.1,0.165 0.15875,0.2425 0.0575,0.0775 0.12125,0.15 0.19,0.2175 l 0.006,0.006 0.006,0.006 33.19875,33.19875 z"
           style="fill:#ffffff;stroke:#000000;stroke-width:0.27000001;stroke-linecap:butt;stroke-linejoin:bevel;stroke-miterlimit:22.9260006;stroke-opacity:1;stroke-dasharray:none"
           id="path17767" />
        <path
           id="path17759"
           style="fill:#ffff00;fill-opacity:1;fill-rule:evenodd;stroke:none"
           d="m 315.9707,566.70412 -0.0125,0.0112 c -0.0663,0.0663 -0.1375,0.12875 -0.21125,0.185 -0.075,0.0575 -0.15375,0.10875 -0.23625,0.155 -0.0813,0.0475 -0.165,0.0888 -0.2525,0.12375 -0.0862,0.0362 -0.17625,0.065 -0.2675,0.0888 -0.09,0.025 -0.1825,0.0425 -0.275,0.055 -0.0937,0.0125 -0.1875,0.0175 -0.28125,0.0175 -0.0937,0 -0.1875,-0.005 -0.28125,-0.0175 -0.0925,-0.0112 -0.185,-0.03 -0.27625,-0.055 -0.09,-0.0238 -0.18,-0.0525 -0.26625,-0.0888 -0.0875,-0.0362 -0.17125,-0.0775 -0.2525,-0.12375 -0.0825,-0.0463 -0.16125,-0.0975 -0.23625,-0.15375 -0.075,-0.0562 -0.14625,-0.11875 -0.2125,-0.18625 l -0.0113,-0.0112 -31.9575,-31.95625 -0.0113,-0.0125 c -0.0662,-0.0662 -0.1275,-0.1375 -0.185,-0.2125 -0.0562,-0.075 -0.10875,-0.15375 -0.15375,-0.235 -0.0475,-0.0812 -0.09,-0.165 -0.125,-0.2525 -0.035,-0.0875 -0.065,-0.17625 -0.0888,-0.2675 -0.0237,-0.09 -0.0425,-0.1825 -0.055,-0.27625 -0.0113,-0.0925 -0.0175,-0.18625 -0.0175,-0.28125 0,-0.0937 0.006,-0.1875 0.0175,-0.28 0.0125,-0.0937 0.0312,-0.185 0.055,-0.27625 0.0238,-0.0913 0.0538,-0.18 0.09,-0.2675 0.035,-0.0863 0.0762,-0.17 0.12375,-0.2525 0.045,-0.0813 0.0963,-0.16125 0.15375,-0.23625 0.0562,-0.075 0.1175,-0.145 0.185,-0.21125 l 0.0113,-0.0125 31.9575,-31.95625 0.0113,-0.0112 c 0.0675,-0.0662 0.13875,-0.1275 0.2125,-0.185 0.075,-0.0575 0.15375,-0.10875 0.23625,-0.155 0.08,-0.0475 0.165,-0.0888 0.2525,-0.12375 0.0863,-0.0362 0.175,-0.065 0.26625,-0.0888 0.0913,-0.025 0.18375,-0.0425 0.27625,-0.055 0.0937,-0.0125 0.1875,-0.0175 0.28125,-0.0175 0.0937,0 0.1875,0.005 0.28125,0.0175 0.0925,0.0113 0.185,0.03 0.275,0.055 0.0912,0.0238 0.18125,0.0538 0.2675,0.0888 0.0863,0.0362 0.17125,0.0775 0.2525,0.12375 0.0825,0.0462 0.16125,0.0975 0.23625,0.15375 0.075,0.0575 0.14625,0.11875 0.21125,0.18625 l 0.0125,0.0112 31.95625,31.95625 0.0125,0.0125 c 0.065,0.0675 0.1275,0.1375 0.18375,0.2125 0.0575,0.075 0.10875,0.15375 0.155,0.235 0.0475,0.0812 0.0888,0.165 0.125,0.2525 0.035,0.0875 0.065,0.17625 0.0875,0.2675 0.025,0.0913 0.0437,0.1825 0.055,0.27625 0.0125,0.0925 0.0187,0.18625 0.0187,0.28 0,0.095 -0.006,0.18875 -0.0175,0.28125 -0.0125,0.0937 -0.0312,0.18625 -0.0562,0.27625 -0.0238,0.0913 -0.0525,0.18 -0.0888,0.2675 -0.035,0.0863 -0.0775,0.17 -0.12375,0.2525 -0.0462,0.0813 -0.0975,0.16125 -0.15375,0.23625 -0.0562,0.075 -0.11875,0.145 -0.185,0.21125 l -0.0125,0.0125 -31.95625,31.95625" />
      </g>
      <g
         transform="matrix(0.32057417,0,0,0.32057417,482.81633,74.096747)"
         id="g4230"
         inkscape:label="Ebene 1">
        <path
           d="m 312.88035,567.96378 -33.205,-33.205 -0.006,-0.006 c -0.0662,-0.0675 -0.12875,-0.14 -0.18625,-0.215 -0.0575,-0.0762 -0.11,-0.155 -0.15625,-0.23875 -0.0487,-0.0812 -0.0912,-0.1675 -0.12625,-0.255 -0.0362,-0.0875 -0.0662,-0.17875 -0.09,-0.27 -0.0238,-0.0912 -0.0425,-0.185 -0.055,-0.28 -0.0125,-0.0937 -0.0187,-0.18875 -0.0175,-0.28375 -10e-4,-0.095 0.005,-0.19 0.0175,-0.28375 0.0125,-0.095 0.0312,-0.1875 0.0562,-0.28 0.0238,-0.0912 0.0538,-0.18125 0.0888,-0.27 0.0362,-0.0875 0.0788,-0.1725 0.12625,-0.255 0.0462,-0.0838 0.0987,-0.16375 0.155,-0.23875 0.0575,-0.0762 0.12,-0.14875 0.1875,-0.215 l 0.006,-0.006 0.006,-0.006 33.19875,-33.1986 0.006,-0.006 0.006,-0.006 c 0.0675,-0.0662 0.13875,-0.12875 0.215,-0.18625 0.075,-0.0575 0.155,-0.11 0.2375,-0.15625 0.0825,-0.0487 0.1675,-0.09 0.25625,-0.12625 0.0875,-0.0362 0.1775,-0.0662 0.27,-0.0887 0.0925,-0.025 0.185,-0.0438 0.28,-0.0563 0.0937,-0.0125 0.18875,-0.0175 0.28375,-0.0175 0.095,0 0.19,0.005 0.28375,0.0175 0.095,0.0125 0.1875,0.0312 0.28,0.0563 0.0913,0.0237 0.18125,0.0537 0.27,0.09 0.0875,0.035 0.1725,0.0775 0.255,0.125 0.0838,0.0462 0.16375,0.0987 0.24,0.15625 0.075,0.0562 0.14625,0.11875 0.21375,0.18625 l 0.006,0.006 0.006,0.006 33.19875,33.19875 0.006,0.006 0.006,0.006 c 0.0662,0.0675 0.12875,0.13875 0.18625,0.215 0.0575,0.075 0.11,0.155 0.15625,0.23875 0.0475,0.0812 0.09,0.16625 0.12625,0.255 0.035,0.0875 0.065,0.17875 0.0888,0.27 0.025,0.0925 0.0438,0.185 0.0562,0.28 0.0125,0.0937 0.0188,0.18875 0.0175,0.28375 0.001,0.095 -0.005,0.19 -0.0175,0.285 -0.0125,0.0937 -0.0312,0.1875 -0.0562,0.27875 -0.0237,0.0913 -0.0538,0.1825 -0.09,0.27 -0.0362,0.0875 -0.0775,0.17375 -0.125,0.255 -0.0462,0.0837 -0.0987,0.16375 -0.15625,0.24 -0.0562,0.075 -0.11875,0.1475 -0.18625,0.21375 l -0.007,0.006 -33.20375,33.205 -0.006,0.006 -0.006,0.006 c -0.0675,0.0662 -0.14,0.12875 -0.215,0.18625 -0.0762,0.0575 -0.155,0.11 -0.23875,0.15625 -0.0812,0.0488 -0.1675,0.09 -0.255,0.12625 -0.0875,0.0362 -0.17875,0.065 -0.27,0.0888 -0.0925,0.025 -0.185,0.0437 -0.28,0.0562 -0.0937,0.0125 -0.18875,0.0187 -0.28375,0.0175 -0.095,0.001 -0.19,-0.005 -0.28375,-0.0175 -0.095,-0.0125 -0.18875,-0.0312 -0.28,-0.0562 -0.0925,-0.0238 -0.1825,-0.0538 -0.27,-0.09 -0.0875,-0.0362 -0.17375,-0.0775 -0.25625,-0.125 -0.0825,-0.0462 -0.1625,-0.0987 -0.23875,-0.15625 -0.0762,-0.0562 -0.1475,-0.11875 -0.21375,-0.18625 l -0.006,-0.006 -0.006,-0.006 z"
           style="fill:none;stroke:#231f20;stroke-width:0.27000001;stroke-linecap:butt;stroke-linejoin:bevel;stroke-miterlimit:22.9260006;stroke-opacity:1;stroke-dasharray:none"
           id="path4232" />
        <path
           id="path4234"
           style="fill:#ffffff;stroke:#000000;stroke-width:0.27000001;stroke-linecap:butt;stroke-linejoin:bevel;stroke-miterlimit:22.9260006;stroke-opacity:1;stroke-dasharray:none"
           d="m 312.85535,567.98878 0.006,0.006 0.006,0.006 c 0.0688,0.0675 0.14125,0.13125 0.21875,0.19 0.0763,0.0588 0.1575,0.11125 0.24125,0.15875 0.0838,0.0487 0.17,0.0912 0.26,0.1275 0.0888,0.0375 0.18125,0.0675 0.275,0.0913 0.0925,0.025 0.1875,0.0437 0.28375,0.0562 0.095,0.0125 0.1925,0.0187 0.28875,0.0187 0.0963,0 0.1925,-0.006 0.28875,-0.0187 0.095,-0.0125 0.19,-0.0312 0.28375,-0.0562 0.0937,-0.025 0.185,-0.055 0.27375,-0.0913 0.09,-0.0375 0.17625,-0.08 0.26,-0.1275 0.085,-0.0475 0.16625,-0.1 0.2425,-0.15875 0.0775,-0.0575 0.15,-0.12125 0.2175,-0.19 l 0.007,-0.006 0.005,-0.006 33.2,-33.19875 0.006,-0.006 0.005,-0.006 c 0.0687,-0.0688 0.13125,-0.14125 0.19,-0.21875 0.0588,-0.0762 0.11125,-0.1575 0.15875,-0.24125 0.05,-0.0837 0.0925,-0.17 0.12875,-0.26 0.0362,-0.09 0.0662,-0.18125 0.09,-0.275 0.025,-0.0925 0.045,-0.1875 0.0575,-0.28375 0.0125,-0.095 0.0187,-0.19125 0.0175,-0.28875 10e-4,-0.0962 -0.005,-0.1925 -0.0175,-0.28875 -0.0125,-0.095 -0.0312,-0.19 -0.0563,-0.28375 -0.025,-0.0937 -0.055,-0.185 -0.0925,-0.27375 -0.0362,-0.09 -0.0788,-0.1775 -0.1275,-0.26 -0.0462,-0.085 -0.1,-0.16625 -0.1575,-0.24375 -0.0588,-0.0762 -0.1225,-0.15 -0.19125,-0.2175 l -0.005,-0.006 -0.006,-0.006 -33.2,-33.19875 -0.005,-0.006 -0.006,-0.006 c -0.0687,-0.0675 -0.1425,-0.13125 -0.21875,-0.18875 -0.0775,-0.0587 -0.1575,-0.1125 -0.2425,-0.15875 -0.0825,-0.05 -0.17,-0.0925 -0.26,-0.12875 -0.0888,-0.0363 -0.18,-0.0675 -0.27375,-0.0913 -0.0937,-0.025 -0.18875,-0.0438 -0.28375,-0.0563 -0.0963,-0.0125 -0.1925,-0.0188 -0.28875,-0.0175 -0.0975,-10e-4 -0.19375,0.005 -0.28875,0.0175 -0.0963,0.0125 -0.19125,0.0312 -0.28375,0.0563 -0.0937,0.025 -0.18625,0.055 -0.275,0.0913 -0.09,0.0375 -0.17625,0.08 -0.26,0.12875 -0.085,0.0462 -0.165,0.0987 -0.2425,0.1575 -0.0775,0.0575 -0.15,0.12125 -0.2175,0.19 l -0.006,0.006 -0.006,0.006 -33.19875,33.19875 -0.006,0.006 -0.006,0.006 c -0.0688,0.0688 -0.13125,0.14125 -0.19,0.21875 -0.0588,0.0762 -0.11125,0.1575 -0.15875,0.2425 -0.0487,0.0825 -0.0912,0.17 -0.12875,0.25875 -0.0362,0.09 -0.0662,0.18125 -0.09,0.275 -0.025,0.0937 -0.0437,0.18875 -0.0562,0.28375 -0.0137,0.0962 -0.0187,0.1925 -0.0187,0.28875 0,0.0975 0.005,0.19375 0.0175,0.28875 0.0138,0.0962 0.0325,0.19125 0.0575,0.28375 0.0238,0.0937 0.055,0.185 0.0913,0.275 0.0362,0.0888 0.0788,0.17625 0.1275,0.26 0.0475,0.0838 0.1,0.165 0.15875,0.2425 0.0575,0.0775 0.12125,0.15 0.19,0.2175 l 0.006,0.006 0.006,0.006 33.19875,33.19875 z" />
        <path
           d="m 315.9707,566.70412 -0.0125,0.0112 c -0.0663,0.0663 -0.1375,0.12875 -0.21125,0.185 -0.075,0.0575 -0.15375,0.10875 -0.23625,0.155 -0.0813,0.0475 -0.165,0.0888 -0.2525,0.12375 -0.0862,0.0362 -0.17625,0.065 -0.2675,0.0888 -0.09,0.025 -0.1825,0.0425 -0.275,0.055 -0.0937,0.0125 -0.1875,0.0175 -0.28125,0.0175 -0.0937,0 -0.1875,-0.005 -0.28125,-0.0175 -0.0925,-0.0112 -0.185,-0.03 -0.27625,-0.055 -0.09,-0.0238 -0.18,-0.0525 -0.26625,-0.0888 -0.0875,-0.0362 -0.17125,-0.0775 -0.2525,-0.12375 -0.0825,-0.0463 -0.16125,-0.0975 -0.23625,-0.15375 -0.075,-0.0562 -0.14625,-0.11875 -0.2125,-0.18625 l -0.0113,-0.0112 -31.9575,-31.95625 -0.0113,-0.0125 c -0.0662,-0.0662 -0.1275,-0.1375 -0.185,-0.2125 -0.0562,-0.075 -0.10875,-0.15375 -0.15375,-0.235 -0.0475,-0.0812 -0.09,-0.165 -0.125,-0.2525 -0.035,-0.0875 -0.065,-0.17625 -0.0888,-0.2675 -0.0237,-0.09 -0.0425,-0.1825 -0.055,-0.27625 -0.0113,-0.0925 -0.0175,-0.18625 -0.0175,-0.28125 0,-0.0937 0.006,-0.1875 0.0175,-0.28 0.0125,-0.0937 0.0312,-0.185 0.055,-0.27625 0.0238,-0.0913 0.0538,-0.18 0.09,-0.2675 0.035,-0.0863 0.0762,-0.17 0.12375,-0.2525 0.045,-0.0813 0.0963,-0.16125 0.15375,-0.23625 0.0562,-0.075 0.1175,-0.145 0.185,-0.21125 l 0.0113,-0.0125 31.9575,-31.95625 0.0113,-0.0112 c 0.0675,-0.0662 0.13875,-0.1275 0.2125,-0.185 0.075,-0.0575 0.15375,-0.10875 0.23625,-0.155 0.08,-0.0475 0.165,-0.0888 0.2525,-0.12375 0.0863,-0.0362 0.175,-0.065 0.26625,-0.0888 0.0913,-0.025 0.18375,-0.0425 0.27625,-0.055 0.0937,-0.0125 0.1875,-0.0175 0.28125,-0.0175 0.0937,0 0.1875,0.005 0.28125,0.0175 0.0925,0.0113 0.185,0.03 0.275,0.055 0.0912,0.0238 0.18125,0.0538 0.2675,0.0888 0.0863,0.0362 0.17125,0.0775 0.2525,0.12375 0.0825,0.0462 0.16125,0.0975 0.23625,0.15375 0.075,0.0575 0.14625,0.11875 0.21125,0.18625 l 0.0125,0.0112 31.95625,31.95625 0.0125,0.0125 c 0.065,0.0675 0.1275,0.1375 0.18375,0.2125 0.0575,0.075 0.10875,0.15375 0.155,0.235 0.0475,0.0812 0.0888,0.165 0.125,0.2525 0.035,0.0875 0.065,0.17625 0.0875,0.2675 0.025,0.0913 0.0437,0.1825 0.055,0.27625 0.0125,0.0925 0.0187,0.18625 0.0187,0.28 0,0.095 -0.006,0.18875 -0.0175,0.28125 -0.0125,0.0937 -0.0312,0.18625 -0.0562,0.27625 -0.0238,0.0913 -0.0525,0.18 -0.0888,0.2675 -0.035,0.0863 -0.0775,0.17 -0.12375,0.2525 -0.0462,0.0813 -0.0975,0.16125 -0.15375,0.23625 -0.0562,0.075 -0.11875,0.145 -0.185,0.21125 l -0.0125,0.0125 -31.95625,31.95625"
           style="fill:#ffff00;fill-opacity:1;fill-rule:evenodd;stroke:none"
           id="path4236" />
      </g>
    </g>
  </g>
</svg>
