<?xml version="1.0" encoding="UTF-8" standalone="no"?>
<!-- Created with Inkscape (http://www.inkscape.org/) -->

<svg
   xmlns:dc="http://purl.org/dc/elements/1.1/"
   xmlns:cc="http://creativecommons.org/ns#"
   xmlns:rdf="http://www.w3.org/1999/02/22-rdf-syntax-ns#"
   xmlns:svg="http://www.w3.org/2000/svg"
   xmlns="http://www.w3.org/2000/svg"
   xmlns:sodipodi="http://sodipodi.sourceforge.net/DTD/sodipodi-0.dtd"
   xmlns:inkscape="http://www.inkscape.org/namespaces/inkscape"
   width="48.276367"
   height="71.136368"
   id="svg15030"
   version="1.1"
   inkscape:version="0.47 r22583"
   sodipodi:docname="Neues Dokument 52">
  <defs
     id="defs15032">
    <inkscape:perspective
       sodipodi:type="inkscape:persp3d"
       inkscape:vp_x="0 : 526.18109 : 1"
       inkscape:vp_y="0 : 1000 : 0"
       inkscape:vp_z="744.09448 : 526.18109 : 1"
       inkscape:persp3d-origin="372.04724 : 350.78739 : 1"
       id="perspective15038" />
    <inkscape:perspective
       id="perspective15016"
       inkscape:persp3d-origin="0.5 : 0.33333333 : 1"
       inkscape:vp_z="1 : 0.5 : 1"
       inkscape:vp_y="0 : 1000 : 0"
       inkscape:vp_x="0 : 0.5 : 1"
       sodipodi:type="inkscape:persp3d" />
  </defs>
  <sodipodi:namedview
     id="base"
     pagecolor="#ffffff"
     bordercolor="#666666"
     borderopacity="1.0"
     inkscape:pageopacity="0.0"
     inkscape:pageshadow="2"
     inkscape:zoom="7.0428111"
     inkscape:cx="24.138184"
     inkscape:cy="35.568184"
     inkscape:document-units="px"
     inkscape:current-layer="layer1"
     showgrid="false"
     inkscape:window-width="1280"
     inkscape:window-height="748"
     inkscape:window-x="-8"
     inkscape:window-y="-8"
     inkscape:window-maximized="1" />
  <metadata
     id="metadata15035">
    <rdf:RDF>
      <cc:Work
         rdf:about="">
        <dc:format>image/svg+xml</dc:format>
        <dc:type
           rdf:resource="http://purl.org/dc/dcmitype/StillImage" />
        <dc:title></dc:title>
      </cc:Work>
    </rdf:RDF>
  </metadata>
  <g
     inkscape:label="Ebene 1"
     inkscape:groupmode="layer"
     id="layer1"
     transform="translate(-501.5761,-425.36543)">
    <g
       id="g3737"
       transform="matrix(0,1.25,1.25,0,504.59122,496.32043)"
       style="stroke:#000000;fill:#ffffff">
      <path
         d="m 0,0 0,33.814 c -0.001,0.098 -0.007,0.196 -0.021,0.293 -0.013,0.097 -0.033,0.193 -0.06,0.288 -0.024,0.095 -0.055,0.188 -0.093,0.278 -0.039,0.09 -0.083,0.178 -0.133,0.262 -0.048,0.085 -0.103,0.167 -0.163,0.245 -0.06,0.077 -0.124,0.151 -0.194,0.22 -0.069,0.07 -0.142,0.135 -0.22,0.194 -0.078,0.06 -0.16,0.115 -0.245,0.163 -0.084,0.05 -0.172,0.094 -0.262,0.131 -0.091,0.038 -0.184,0.07 -0.278,0.096 -0.095,0.026 -0.191,0.047 -0.288,0.06 -0.097,0.014 -0.195,0.021 -0.293,0.02 l -52.12,0 c -0.098,-10e-4 -0.195,-0.007 -0.292,-0.02 -0.098,-0.014 -0.194,-0.034 -0.288,-0.06 -0.095,-0.025 -0.188,-0.057 -0.279,-0.095 -0.09,-0.038 -0.178,-0.082 -0.262,-0.132 -0.085,-0.049 -0.167,-0.103 -0.244,-0.163 -0.078,-0.059 -0.152,-0.124 -0.221,-0.194 -0.069,-0.069 -0.134,-0.143 -0.194,-0.22 -0.06,-0.078 -0.114,-0.16 -0.163,-0.245 -0.05,-0.084 -0.093,-0.172 -0.131,-0.262 -0.038,-0.091 -0.07,-0.184 -0.095,-0.278 -0.027,-0.095 -0.047,-0.191 -0.061,-0.288 -0.014,-0.097 -0.02,-0.195 -0.02,-0.293 l 0,-33.832 c 10e-4,-0.098 0.008,-0.195 0.021,-0.293 0.013,-0.097 0.033,-0.193 0.06,-0.287 0.024,-0.095 0.056,-0.188 0.094,-0.279 0.038,-0.09 0.082,-0.178 0.132,-0.262 0.049,-0.085 0.103,-0.167 0.163,-0.244 0.06,-0.078 0.125,-0.152 0.194,-0.221 0.069,-0.069 0.143,-0.135 0.221,-0.194 0.077,-0.06 0.159,-0.114 0.244,-0.163 0.084,-0.05 0.172,-0.094 0.262,-0.131 0.091,-0.038 0.184,-0.07 0.279,-0.095 0.094,-0.027 0.19,-0.048 0.288,-0.061 0.097,-0.014 0.194,-0.02 0.292,-0.02 l 52.12,0 c 0.098,10e-4 0.196,0.008 0.293,0.021 0.097,0.013 0.193,0.033 0.288,0.06 0.095,0.024 0.188,0.056 0.278,0.094 0.09,0.038 0.178,0.082 0.262,0.132 0.085,0.049 0.167,0.103 0.245,0.163 0.077,0.06 0.151,0.125 0.22,0.194 0.07,0.069 0.135,0.143 0.194,0.221 0.06,0.077 0.115,0.159 0.163,0.244 0.05,0.084 0.094,0.172 0.132,0.263 0.038,0.09 0.069,0.183 0.094,0.278 0.027,0.094 0.048,0.19 0.061,0.288 0.014,0.097 0.021,0.194 0.02,0.292 L 0,0 z"
         style="fill:#ffffff;stroke:#000000;stroke-width:0.21600000999999999;stroke-linecap:butt;stroke-linejoin:bevel;stroke-miterlimit:22.92600059999999800;stroke-opacity:1;stroke-dasharray:none"
         id="path3739" />
      <g
         id="g3741"
         transform="translate(0.037,0)"
         style="stroke:#000000;fill:#ffffff">
        <path
           d="m 0,0 0,-0.018 c -0.001,-0.1 -0.008,-0.199 -0.021,-0.297 -0.013,-0.099 -0.033,-0.197 -0.061,-0.293 -0.025,-0.096 -0.057,-0.191 -0.095,-0.283 -0.039,-0.092 -0.084,-0.181 -0.135,-0.266 -0.049,-0.087 -0.105,-0.17 -0.165,-0.249 C -0.538,-1.485 -0.604,-1.559 -0.675,-1.629 -0.745,-1.7 -0.82,-1.766 -0.899,-1.827 -0.977,-1.888 -1.06,-1.943 -1.147,-1.992 -1.233,-2.043 -1.322,-2.088 -1.414,-2.126 -1.505,-2.165 -1.6,-2.197 -1.696,-2.223 -1.792,-2.25 -1.89,-2.271 -1.989,-2.284 -2.087,-2.298 -2.187,-2.305 -2.286,-2.304 l -52.12,0 c -0.1,0 -0.199,0.007 -0.298,0.021 -0.099,0.013 -0.197,0.033 -0.292,0.06 -0.097,0.025 -0.191,0.057 -0.283,0.096 -0.092,0.039 -0.181,0.083 -0.267,0.135 -0.086,0.049 -0.169,0.104 -0.248,0.165 -0.079,0.061 -0.154,0.127 -0.224,0.198 -0.071,0.07 -0.137,0.144 -0.198,0.223 -0.06,0.079 -0.116,0.162 -0.165,0.249 -0.051,0.085 -0.095,0.174 -0.134,0.266 -0.038,0.092 -0.071,0.187 -0.096,0.283 -0.027,0.096 -0.048,0.194 -0.062,0.293 -0.014,0.098 -0.02,0.197 -0.02,0.297 l 0,33.832 c 10e-4,0.1 0.008,0.199 0.021,0.298 0.013,0.099 0.034,0.196 0.061,0.292 0.025,0.097 0.057,0.191 0.096,0.283 0.038,0.092 0.083,0.181 0.134,0.266 0.049,0.087 0.105,0.17 0.165,0.249 0.061,0.079 0.127,0.154 0.198,0.224 0.07,0.071 0.145,0.137 0.224,0.197 0.079,0.061 0.162,0.116 0.248,0.166 0.086,0.051 0.175,0.095 0.267,0.133 0.092,0.039 0.186,0.071 0.283,0.097 0.095,0.027 0.193,0.048 0.292,0.062 0.098,0.014 0.198,0.02 0.298,0.02 l 52.12,0 c 0.099,-10e-4 0.199,-0.008 0.297,-0.021 0.099,-0.014 0.197,-0.034 0.293,-0.061 0.096,-0.025 0.191,-0.057 0.283,-0.096 0.091,-0.038 0.181,-0.083 0.266,-0.134 0.087,-0.05 0.17,-0.105 0.248,-0.166 0.079,-0.06 0.154,-0.126 0.224,-0.197 0.071,-0.07 0.137,-0.145 0.198,-0.224 0.061,-0.079 0.116,-0.162 0.165,-0.249 0.051,-0.085 0.095,-0.174 0.134,-0.266 0.038,-0.092 0.071,-0.187 0.096,-0.283 0.028,-0.096 0.048,-0.194 0.062,-0.292 C -0.006,34.013 0.001,33.914 0,33.814 L 0,0 z"
           style="fill:#ffffff;stroke:#000000;stroke-width:0.21600000999999999;stroke-linecap:butt;stroke-linejoin:bevel;stroke-miterlimit:22.92600059999999800;stroke-opacity:1;stroke-dasharray:none"
           id="path3743" />
      </g>
    </g>
    <g
       id="g3733"
       transform="matrix(0,1.25,1.25,0,504.59122,494.30793)"
       style="fill:#003399;fill-opacity:1">
      <path
         d="m 0,0 0,-0.005 c 0,-0.029 -0.002,-0.057 -0.006,-0.085 -0.004,-0.028 -0.01,-0.056 -0.017,-0.084 -0.008,-0.027 -0.017,-0.054 -0.028,-0.081 -0.011,-0.026 -0.024,-0.051 -0.038,-0.076 -0.014,-0.024 -0.03,-0.048 -0.048,-0.071 -0.017,-0.022 -0.036,-0.044 -0.056,-0.063 -0.02,-0.021 -0.041,-0.04 -0.064,-0.057 -0.022,-0.017 -0.046,-0.033 -0.071,-0.047 -0.024,-0.015 -0.05,-0.027 -0.076,-0.038 -0.026,-0.012 -0.053,-0.021 -0.081,-0.028 -0.027,-0.008 -0.055,-0.014 -0.083,-0.018 -0.028,-0.004 -0.057,-0.006 -0.085,-0.005 l -0.005,-0.001 -52.085,0 -0.005,0.001 c -0.029,0 -0.057,0.002 -0.085,0.006 -0.028,0.003 -0.056,0.009 -0.084,0.017 -0.027,0.007 -0.054,0.016 -0.08,0.027 -0.026,0.011 -0.052,0.024 -0.076,0.039 -0.025,0.014 -0.049,0.03 -0.071,0.047 -0.023,0.017 -0.044,0.036 -0.064,0.057 -0.021,0.019 -0.039,0.041 -0.057,0.063 -0.017,0.023 -0.033,0.047 -0.047,0.071 -0.014,0.025 -0.027,0.05 -0.038,0.076 -0.011,0.027 -0.02,0.054 -0.028,0.081 -0.007,0.028 -0.013,0.056 -0.017,0.084 -0.004,0.028 -0.006,0.056 -0.006,0.085 l 0,33.806 c 0,0.029 0.002,0.057 0.006,0.085 0.004,0.029 0.01,0.057 0.017,0.084 0.007,0.028 0.017,0.055 0.028,0.081 0.011,0.026 0.024,0.051 0.038,0.076 0.014,0.024 0.03,0.048 0.047,0.071 0.018,0.022 0.036,0.044 0.057,0.064 0.02,0.02 0.041,0.039 0.064,0.056 0.022,0.017 0.046,0.033 0.071,0.048 0.024,0.014 0.05,0.027 0.076,0.038 0.026,0.011 0.053,0.02 0.08,0.027 0.028,0.008 0.056,0.014 0.084,0.018 0.028,0.004 0.057,0.006 0.085,0.006 l 52.095,0 c 0.028,0 0.057,-0.002 0.085,-0.006 0.028,-0.004 0.056,-0.01 0.083,-0.018 0.028,-0.007 0.055,-0.016 0.081,-0.027 0.026,-0.011 0.052,-0.024 0.076,-0.038 0.025,-0.015 0.049,-0.031 0.071,-0.048 0.023,-0.017 0.044,-0.036 0.064,-0.056 0.02,-0.02 0.039,-0.042 0.057,-0.064 0.017,-0.023 0.033,-0.046 0.047,-0.071 0.014,-0.025 0.027,-0.05 0.038,-0.076 0.011,-0.026 0.02,-0.053 0.028,-0.081 0.007,-0.027 0.013,-0.055 0.017,-0.084 C -0.002,33.858 0,33.83 0,33.801 L 0,0"
         style="fill:#003399;fill-opacity:1;fill-rule:evenodd;stroke:none"
         id="path3735" />
    </g>
    <g
       id="g3745"
       transform="matrix(0,1.25,1.25,0,516.46497,449.95918)">
      <path
         d="m 0,0 -3.658,0 0,7.224 -0.005,-0.059 C -3.665,7.145 -3.666,7.125 -3.668,7.106 -3.68,6.98 -3.697,6.856 -3.719,6.732 -3.74,6.608 -3.768,6.485 -3.802,6.364 -3.846,6.202 -3.9,6.044 -3.967,5.89 -4.033,5.736 -4.111,5.587 -4.198,5.443 -4.283,5.298 -4.377,5.16 -4.481,5.028 -4.585,4.897 -4.698,4.772 -4.819,4.656 -4.938,4.538 -5.065,4.429 -5.199,4.328 -5.334,4.228 -5.475,4.137 -5.622,4.056 -5.768,3.973 -5.919,3.9 -6.075,3.838 -6.23,3.776 -6.39,3.725 -6.553,3.684 -6.715,3.642 -6.88,3.611 -7.047,3.591 -7.213,3.572 -7.381,3.563 -7.549,3.567 -7.716,3.568 -7.884,3.58 -8.05,3.604 c -0.166,0.025 -0.33,0.06 -0.491,0.107 -0.162,0.044 -0.32,0.1 -0.474,0.166 -0.155,0.066 -0.304,0.143 -0.447,0.229 -0.145,0.085 -0.284,0.18 -0.415,0.283 -0.132,0.104 -0.256,0.217 -0.373,0.338 -0.117,0.119 -0.227,0.247 -0.327,0.381 -0.101,0.134 -0.191,0.276 -0.272,0.422 -0.083,0.146 -0.156,0.297 -0.218,0.453 -0.062,0.156 -0.114,0.316 -0.154,0.479 -0.042,0.162 -0.073,0.327 -0.093,0.493 -0.02,0.167 -0.028,0.335 -0.025,0.502 0.001,0.168 0.014,0.335 0.038,0.501 0.024,0.166 0.059,0.33 0.106,0.491 0.044,0.162 0.1,0.321 0.166,0.475 0.066,0.154 0.143,0.303 0.23,0.447 0.085,0.144 0.179,0.283 0.283,0.415 0.104,0.132 0.217,0.256 0.338,0.372 0.119,0.118 0.246,0.227 0.381,0.326 0.134,0.101 0.275,0.192 0.422,0.274 0.145,0.084 0.297,0.158 0.453,0.221 0.155,0.063 0.315,0.114 0.478,0.15 0.154,0.037 0.311,0.063 0.469,0.079 0.158,0.017 0.317,0.03 0.476,0.04 0.009,0 0.017,0 0.025,0 0.009,0 0.017,0 0.026,-10e-4 0.168,-0.003 0.336,-0.016 0.503,-0.039 0.165,-0.023 0.329,-0.058 0.489,-0.105 0.162,-0.043 0.32,-0.098 0.474,-0.164 0.154,-0.067 0.304,-0.144 0.447,-0.231 0.145,-0.085 0.284,-0.18 0.415,-0.284 0.132,-0.104 0.257,-0.216 0.373,-0.337 0.117,-0.119 0.227,-0.246 0.327,-0.38 0.101,-0.135 0.192,-0.276 0.273,-0.423 0.083,-0.147 0.156,-0.298 0.218,-0.455 0.062,-0.155 0.113,-0.314 0.153,-0.477 0.031,-0.12 0.057,-0.242 0.075,-0.365 0.019,-0.126 0.032,-0.252 0.039,-0.379 0.002,-0.02 0.003,-0.04 0.004,-0.061 0,-0.019 10e-4,-0.038 0,-0.058 l 0,7.325 3.658,0 0,-4.664 22.031,0 0.015,10e-4 c 0.047,10e-4 0.095,0.005 0.142,0.012 0.048,0.008 0.095,0.018 0.141,0.032 0.045,0.013 0.091,0.03 0.134,0.049 0.044,0.02 0.087,0.043 0.127,0.068 0.041,0.025 0.08,0.052 0.117,0.082 0.038,0.031 0.073,0.063 0.106,0.098 0.033,0.035 0.064,0.072 0.092,0.11 0.028,0.039 0.054,0.08 0.076,0.122 0.023,0.042 0.043,0.085 0.061,0.13 0.017,0.045 0.031,0.091 0.042,0.137 0.011,0.047 0.019,0.094 0.025,0.142 0.005,0.048 0.006,0.096 0.005,0.143 -0.001,0.019 -0.001,0.037 -0.003,0.055 -0.001,0.018 -0.003,0.036 -0.006,0.054 l -0.001,0.013 -0.002,0.013 c -0.012,0.08 -0.024,0.16 -0.036,0.24 -0.012,0.08 -0.024,0.16 -0.036,0.239 -0.067,0.434 -0.141,0.867 -0.223,1.298 -0.082,0.432 -0.175,0.86 -0.281,1.287 -0.23,0.955 -0.523,1.894 -0.876,2.811 -0.353,0.917 -0.757,1.813 -1.211,2.684 -0.082,0.164 -0.166,0.328 -0.251,0.49 -0.084,0.163 -0.169,0.326 -0.255,0.488 l -0.004,0.008 c -0.004,0.007 -0.007,0.015 -0.01,0.022 -0.003,0.008 -0.006,0.016 -0.009,0.024 -0.005,0.015 -0.009,0.03 -0.012,0.046 -0.003,0.016 -0.005,0.032 -0.006,0.048 -0.001,0.016 0,0.032 0.001,0.048 10e-4,0.015 0.003,0.031 0.007,0.047 0.003,0.016 0.007,0.031 0.012,0.046 0.006,0.015 0.012,0.03 0.019,0.044 0.007,0.014 0.016,0.028 0.024,0.041 0.009,0.014 0.019,0.026 0.03,0.038 0.011,0.012 0.022,0.023 0.034,0.033 0.012,0.011 0.025,0.02 0.039,0.029 0.013,0.009 0.027,0.017 0.041,0.024 0.014,0.007 0.029,0.013 0.045,0.017 0.015,0.005 0.03,0.01 0.046,0.013 0.016,0.003 0.032,0.004 0.047,0.005 0.016,10e-4 0.032,10e-4 0.048,0 0.016,-0.002 0.032,-0.004 0.048,-0.007 0.015,-0.003 0.031,-0.007 0.046,-0.013 0.015,-0.005 0.03,-0.011 0.044,-0.019 l 0.008,-0.004 c 0.046,-0.025 0.092,-0.049 0.138,-0.074 0.046,-0.025 0.092,-0.049 0.138,-0.074 0.054,-0.03 0.108,-0.061 0.163,-0.092 0.053,-0.031 0.107,-0.062 0.161,-0.093 0.597,-0.345 1.175,-0.721 1.732,-1.126 0.557,-0.406 1.081,-0.854 1.567,-1.342 0.507,-0.487 0.971,-1.016 1.387,-1.582 0.417,-0.567 0.794,-1.164 1.127,-1.784 0.343,-0.614 0.646,-1.249 0.907,-1.902 0.26,-0.652 0.477,-1.32 0.65,-2 0.137,-0.51 0.247,-1.027 0.329,-1.548 C 28.812,9.301 28.862,8.776 28.88,8.25 28.887,8.074 28.891,7.899 28.893,7.723 28.895,7.547 28.895,7.372 28.895,7.196 28.89,7.021 28.885,6.845 28.879,6.67 28.872,6.494 28.863,6.319 28.852,6.143 28.816,5.618 28.751,5.095 28.657,4.577 28.562,4.058 28.441,3.544 28.292,3.038 28.103,2.362 27.869,1.7 27.591,1.056 27.312,0.41 26.993,-0.217 26.633,-0.822 26.284,-1.434 25.892,-2.021 25.461,-2.578 25.03,-3.134 24.553,-3.65 24.032,-4.121 23.527,-4.588 22.987,-5.017 22.417,-5.403 21.846,-5.79 21.262,-6.156 20.666,-6.502 l -0.11,-0.065 -0.11,-0.065 -0.007,-0.004 c -0.009,-0.005 -0.018,-0.01 -0.028,-0.014 -0.009,-0.005 -0.019,-0.008 -0.029,-0.012 -0.015,-0.005 -0.03,-0.01 -0.046,-0.013 -0.016,-0.003 -0.032,-0.005 -0.048,-0.007 -0.016,-10e-4 -0.031,-10e-4 -0.047,0 -0.016,0 -0.032,0.002 -0.048,0.006 -0.016,0.002 -0.031,0.006 -0.046,0.011 -0.015,0.005 -0.03,0.011 -0.045,0.018 -0.014,0.007 -0.028,0.015 -0.042,0.024 -0.013,0.008 -0.026,0.018 -0.038,0.028 -0.012,0.01 -0.023,0.022 -0.034,0.033 -0.011,0.012 -0.021,0.025 -0.03,0.038 -0.009,0.013 -0.017,0.027 -0.024,0.041 -0.007,0.014 -0.013,0.029 -0.019,0.044 -0.005,0.015 -0.01,0.031 -0.013,0.046 -0.003,0.016 -0.006,0.032 -0.007,0.048 -0.001,0.015 -0.001,0.032 0,0.048 0.001,0.016 0.002,0.032 0.005,0.047 0.003,0.016 0.007,0.031 0.012,0.047 0.005,0.015 0.011,0.029 0.018,0.044 l 0.004,0.008 c 0.1,0.192 0.199,0.384 0.298,0.577 0.098,0.192 0.196,0.385 0.292,0.579 0.37,0.74 0.709,1.494 1.017,2.261 0.309,0.766 0.572,1.55 0.791,2.347 0.142,0.494 0.266,0.992 0.372,1.495 0.106,0.503 0.198,1.008 0.277,1.516 0.021,0.129 0.041,0.258 0.061,0.387 0.019,0.13 0.039,0.259 0.058,0.389 l 0.002,0.014 0.002,0.014 c 0.007,0.048 0.01,0.095 0.009,0.143 0,0.048 -0.003,0.096 -0.01,0.144 -0.006,0.047 -0.015,0.094 -0.028,0.14 C 23.062,3.902 23.046,3.947 23.027,3.991 23.009,4.035 22.988,4.078 22.964,4.12 22.94,4.161 22.913,4.201 22.883,4.238 22.854,4.277 22.822,4.313 22.788,4.346 22.754,4.38 22.718,4.411 22.679,4.44 22.641,4.469 22.602,4.496 22.56,4.52 22.518,4.543 22.475,4.564 22.431,4.582 22.387,4.601 22.341,4.616 22.295,4.628 22.248,4.64 22.201,4.649 22.154,4.655 22.135,4.657 22.116,4.659 22.098,4.661 22.079,4.662 22.061,4.663 22.042,4.663 L 22.029,4.664 0,4.664 0,0"
         style="fill:#ffffff;fill-opacity:1;fill-rule:evenodd;stroke:none"
         id="path3747" />
    </g>
    <g
       id="g3749"
       transform="matrix(0,1.25,1.25,0,527.78122,440.58543)"
       style="fill:#003399;fill-opacity:1">
      <path
         d="M 0,0 0.011,0 0.022,0 C 0.093,-0.001 0.165,-0.006 0.236,-0.016 0.308,-0.027 0.378,-0.042 0.447,-0.062 0.516,-0.081 0.584,-0.104 0.65,-0.133 0.716,-0.161 0.78,-0.194 0.842,-0.231 0.903,-0.268 0.963,-0.308 1.019,-0.353 1.076,-0.397 1.129,-0.446 1.179,-0.497 1.23,-0.549 1.277,-0.603 1.32,-0.661 1.363,-0.718 1.402,-0.779 1.436,-0.842 1.472,-0.904 1.503,-0.969 1.53,-1.036 1.556,-1.103 1.578,-1.171 1.595,-1.241 1.613,-1.31 1.627,-1.381 1.635,-1.452 1.644,-1.524 1.647,-1.596 1.646,-1.668 1.645,-1.739 1.64,-1.811 1.63,-1.882 1.619,-1.953 1.604,-2.024 1.584,-2.093 1.565,-2.162 1.541,-2.23 1.513,-2.296 1.485,-2.362 1.452,-2.426 1.415,-2.488 1.379,-2.55 1.338,-2.609 1.293,-2.665 1.249,-2.722 1.2,-2.775 1.148,-2.825 1.097,-2.875 1.043,-2.923 0.985,-2.965 0.928,-3.008 0.867,-3.048 0.804,-3.082 0.742,-3.118 0.677,-3.149 0.61,-3.175 0.543,-3.202 0.475,-3.224 0.405,-3.241 0.336,-3.26 0.265,-3.273 0.193,-3.281 0.122,-3.29 0.05,-3.293 -0.022,-3.292 c -0.072,10e-4 -0.143,0.006 -0.214,0.016 -0.071,0.01 -0.142,0.026 -0.211,0.046 -0.069,0.019 -0.137,0.043 -0.203,0.071 -0.066,0.028 -0.13,0.061 -0.192,0.098 -0.062,0.037 -0.121,0.077 -0.177,0.122 -0.057,0.044 -0.11,0.093 -0.16,0.144 -0.05,0.052 -0.097,0.106 -0.14,0.164 -0.043,0.057 -0.082,0.118 -0.117,0.181 -0.035,0.062 -0.067,0.127 -0.093,0.194 -0.027,0.067 -0.049,0.135 -0.067,0.205 -0.018,0.069 -0.031,0.14 -0.039,0.211 -0.009,0.072 -0.013,0.144 -0.011,0.215 0,0.072 0.006,0.144 0.016,0.215 0.011,0.071 0.026,0.142 0.046,0.211 0.019,0.069 0.043,0.137 0.071,0.203 0.029,0.066 0.061,0.13 0.099,0.192 0.036,0.062 0.077,0.121 0.121,0.178 0.044,0.056 0.093,0.109 0.144,0.159 0.052,0.051 0.106,0.097 0.164,0.14 0.057,0.044 0.118,0.082 0.18,0.117 0.063,0.036 0.128,0.067 0.195,0.093 0.067,0.027 0.135,0.049 0.205,0.066 0.066,0.018 0.133,0.031 0.201,0.039 C -0.136,-0.003 -0.068,0.001 0,0"
         style="fill:#003399;fill-opacity:1;fill-rule:evenodd;stroke:none"
         id="path3751" />
    </g>
  </g>
</svg>
