<?xml version="1.0" encoding="UTF-8" standalone="no"?>
<!-- Created with Inkscape (http://www.inkscape.org/) -->

<svg
   xmlns:dc="http://purl.org/dc/elements/1.1/"
   xmlns:cc="http://creativecommons.org/ns#"
   xmlns:rdf="http://www.w3.org/1999/02/22-rdf-syntax-ns#"
   xmlns:svg="http://www.w3.org/2000/svg"
   xmlns="http://www.w3.org/2000/svg"
   xmlns:sodipodi="http://sodipodi.sourceforge.net/DTD/sodipodi-0.dtd"
   xmlns:inkscape="http://www.inkscape.org/namespaces/inkscape"
   width="48.276424"
   height="71.136505"
   id="svg7615"
   version="1.1"
   inkscape:version="0.47 r22583"
   sodipodi:docname="A.2 Überholverbot allgemein.svg">
  <defs
     id="defs7617" />
  <sodipodi:namedview
     id="base"
     pagecolor="#ffffff"
     bordercolor="#666666"
     borderopacity="1.0"
     inkscape:pageopacity="0.0"
     inkscape:pageshadow="2"
     inkscape:zoom="7.0427975"
     inkscape:cx="32.271299"
     inkscape:cy="36.749224"
     inkscape:document-units="px"
     inkscape:current-layer="layer1"
     showgrid="false"
     inkscape:window-width="1280"
     inkscape:window-height="748"
     inkscape:window-x="-8"
     inkscape:window-y="-8"
     inkscape:window-maximized="1" />
  <metadata
     id="metadata7620">
    <rdf:RDF>
      <cc:Work
         rdf:about="">
        <dc:format>image/svg+xml</dc:format>
        <dc:type
           rdf:resource="http://purl.org/dc/dcmitype/StillImage" />
        <dc:title />
      </cc:Work>
    </rdf:RDF>
  </metadata>
  <g
     inkscape:label="Ebene 1"
     inkscape:groupmode="layer"
     id="layer1"
     transform="translate(-473.00461,-442.50821)">
    <path
       d="m 476.56729,512.36584 -0.0175,0 c -0.0987,-0.001 -0.1975,-0.008 -0.29625,-0.0213 -0.0975,-0.0125 -0.19375,-0.0325 -0.28875,-0.06 -0.0962,-0.025 -0.19,-0.0562 -0.28125,-0.095 -0.0913,-0.0375 -0.17875,-0.0825 -0.26375,-0.1325 -0.0862,-0.05 -0.16875,-0.105 -0.2475,-0.165 -0.0775,-0.06 -0.1525,-0.12625 -0.22125,-0.19625 -0.07,-0.0687 -0.13625,-0.14375 -0.19625,-0.22125 -0.06,-0.0787 -0.115,-0.16125 -0.16375,-0.24625 -0.05,-0.0863 -0.095,-0.17375 -0.1325,-0.265 -0.0388,-0.0913 -0.07,-0.185 -0.0963,-0.28 -0.0275,-0.095 -0.0475,-0.1925 -0.0612,-0.29125 -0.0138,-0.0975 -0.02,-0.19625 -0.02,-0.29375 l 0,-64.045 c 10e-4,-0.0987 0.007,-0.1975 0.0213,-0.295 0.0125,-0.0975 0.0325,-0.195 0.06,-0.29 0.025,-0.0962 0.0563,-0.19 0.095,-0.28125 0.0387,-0.09 0.0825,-0.17875 0.13375,-0.26375 0.0487,-0.0863 0.10375,-0.1675 0.16375,-0.24625 0.06,-0.0788 0.12625,-0.1525 0.19625,-0.2225 0.0688,-0.07 0.14375,-0.13625 0.22125,-0.19625 0.0788,-0.06 0.16125,-0.115 0.2475,-0.16375 0.085,-0.05 0.1725,-0.095 0.26375,-0.1325 0.0913,-0.0375 0.185,-0.07 0.28125,-0.0962 0.095,-0.0263 0.19125,-0.0475 0.29,-0.0612 0.0975,-0.0138 0.19625,-0.02 0.295,-0.0188 l 41.18375,0 c 0.0987,0 0.1975,0.007 0.295,0.02 0.0987,0.0138 0.195,0.0337 0.29,0.06 0.0963,0.025 0.19,0.0575 0.28,0.095 0.0913,0.0387 0.18,0.0838 0.265,0.13375 0.085,0.0488 0.16875,0.10375 0.24625,0.16375 0.0788,0.0613 0.1525,0.12625 0.2225,0.19625 0.07,0.07 0.135,0.14375 0.19625,0.2225 0.06,0.0787 0.115,0.16 0.16375,0.24625 0.05,0.085 0.0937,0.17375 0.1325,0.26375 0.0375,0.0913 0.07,0.18625 0.095,0.28125 0.0275,0.095 0.0475,0.1925 0.0625,0.29 0.0137,0.0975 0.02,0.19625 0.0187,0.295 l 0,64.045 c 0,0.0975 -0.007,0.19625 -0.02,0.295 -0.0137,0.0975 -0.0338,0.195 -0.0612,0.29 -0.0238,0.095 -0.0563,0.18875 -0.0937,0.28 -0.0388,0.0913 -0.0838,0.17875 -0.13375,0.265 -0.0487,0.085 -0.10375,0.1675 -0.165,0.24625 -0.06,0.0775 -0.125,0.1525 -0.195,0.22125 -0.07,0.0713 -0.14375,0.13625 -0.2225,0.19625 -0.0775,0.06 -0.16125,0.115 -0.24625,0.165 -0.085,0.05 -0.17375,0.0937 -0.265,0.1325 -0.0912,0.0375 -0.185,0.0688 -0.28,0.095 -0.095,0.0275 -0.1925,0.0475 -0.29,0.0612 -0.0975,0.0138 -0.19625,0.02 -0.295,0.02 l -0.0187,0 -41.1475,0 z"
       style="fill:#cc0000;fill-opacity:1;fill-rule:evenodd;stroke:#000000;stroke-width:0.27000001000000001;stroke-linecap:butt;stroke-linejoin:bevel;stroke-miterlimit:22.92600059999999800;stroke-opacity:1;stroke-dasharray:none"
       id="path20700" />
    <path
       d="m 509.01979,505.50834 -27.88,-48.29125 0,48.29125 27.88,0"
       style="fill:#ffffff;fill-opacity:1;fill-rule:evenodd;stroke:none"
       id="path20704" />
    <path
       d="m 513.14354,498.93334 0,-48.29 -27.88,0 27.88,48.29"
       style="fill:#ffffff;fill-opacity:1;fill-rule:evenodd;stroke:none"
       id="path20708" />
    <path
       d="m 476.01979,513.46334 42.2675,0 c 0.1225,-10e-4 0.245,-0.009 0.36625,-0.025 0.12125,-0.0175 0.24125,-0.0425 0.36,-0.075 0.1175,-0.0312 0.235,-0.07 0.3475,-0.1175 0.1125,-0.0475 0.2225,-0.10375 0.3275,-0.16625 0.10625,-0.06 0.20875,-0.12875 0.30625,-0.20375 0.0963,-0.075 0.18875,-0.155 0.275,-0.2425 0.0875,-0.0862 0.16875,-0.1775 0.2425,-0.275 0.075,-0.0975 0.1425,-0.19875 0.20375,-0.30625 0.0625,-0.105 0.1175,-0.215 0.16375,-0.3275 0.0475,-0.11375 0.0875,-0.23 0.12,-0.3475 0.0325,-0.11875 0.0588,-0.23875 0.075,-0.36 0.0175,-0.12125 0.0263,-0.24375 0.025,-0.36625 l 0,-65.15 c -10e-4,-0.1225 -0.009,-0.24375 -0.0263,-0.36625 -0.0163,-0.12125 -0.0412,-0.24125 -0.0738,-0.35875 -0.0312,-0.11875 -0.0712,-0.235 -0.11875,-0.34875 -0.0475,-0.1125 -0.1025,-0.2225 -0.165,-0.3275 -0.0612,-0.10625 -0.12875,-0.20875 -0.20375,-0.305 -0.0738,-0.0975 -0.155,-0.19 -0.2425,-0.27625 -0.0862,-0.0863 -0.17875,-0.16875 -0.275,-0.2425 -0.0975,-0.075 -0.2,-0.1425 -0.30625,-0.20375 -0.105,-0.0625 -0.215,-0.1175 -0.3275,-0.16375 -0.11375,-0.0475 -0.23,-0.0875 -0.3475,-0.11875 -0.11875,-0.0337 -0.23875,-0.0587 -0.36,-0.0762 -0.12125,-0.0175 -0.24375,-0.025 -0.36625,-0.025 l -42.29,0 c -0.1225,10e-4 -0.245,0.01 -0.36625,0.0263 -0.12125,0.0163 -0.24125,0.0412 -0.35875,0.075 -0.11875,0.03 -0.235,0.07 -0.34875,0.1175 -0.1125,0.0475 -0.2225,0.1025 -0.3275,0.165 -0.10625,0.0612 -0.20875,0.12875 -0.30625,0.20375 -0.0962,0.075 -0.18875,0.15625 -0.275,0.2425 -0.0863,0.0862 -0.16875,0.17875 -0.2425,0.27625 -0.075,0.0962 -0.1425,0.19875 -0.20375,0.305 -0.0625,0.10625 -0.1175,0.215 -0.16375,0.32875 -0.0475,0.1125 -0.0875,0.22875 -0.11875,0.3475 -0.0337,0.1175 -0.06,0.2375 -0.0763,0.35875 -0.0175,0.12125 -0.025,0.24375 -0.025,0.36625 l 0,65.15 c 10e-4,0.1225 0.01,0.245 0.0263,0.36625 0.0162,0.12125 0.0412,0.24125 0.075,0.36 0.03,0.11875 0.07,0.235 0.1175,0.3475 0.0475,0.1125 0.1025,0.2225 0.165,0.3275 0.0613,0.10625 0.12875,0.20875 0.20375,0.30625 0.075,0.0975 0.15625,0.18875 0.2425,0.275 0.0863,0.0875 0.17875,0.16875 0.275,0.24375 0.0975,0.0738 0.2,0.1425 0.30625,0.2025 0.105,0.0625 0.215,0.1175 0.32875,0.165 0.1125,0.0475 0.22875,0.0862 0.3475,0.11875 0.1175,0.0325 0.2375,0.0588 0.35875,0.075 0.12125,0.0175 0.24375,0.0263 0.36625,0.025 l 0.0225,0 z"
       style="fill:none;stroke:#231f20;stroke-width:0.27000001;stroke-linecap:butt;stroke-linejoin:bevel;stroke-miterlimit:22.9260006;stroke-opacity:1;stroke-dasharray:none"
       id="path20712" />
    <path
       id="path20716"
       style="fill:none;stroke:#000000;stroke-width:0.27000001000000001;stroke-linecap:butt;stroke-linejoin:bevel;stroke-miterlimit:22.92600059999999800;stroke-opacity:1;stroke-dasharray:none"
       d="m 476.01979,513.50959 -0.0225,0 c -0.125,-10e-4 -0.24875,-0.009 -0.3725,-0.0263 -0.1225,-0.0163 -0.245,-0.0412 -0.365,-0.0762 -0.12,-0.0312 -0.23875,-0.0713 -0.35375,-0.11875 -0.115,-0.0487 -0.22625,-0.105 -0.3325,-0.1675 -0.10875,-0.0625 -0.2125,-0.13125 -0.31125,-0.2075 -0.0987,-0.0762 -0.19125,-0.15875 -0.27875,-0.2475 -0.09,-0.0875 -0.1725,-0.18125 -0.2475,-0.27875 -0.0763,-0.0987 -0.145,-0.2025 -0.20625,-0.31125 -0.0637,-0.1075 -0.12,-0.21875 -0.1675,-0.33375 -0.0487,-0.11375 -0.0887,-0.2325 -0.12125,-0.3525 -0.0337,-0.12 -0.06,-0.2425 -0.0763,-0.36625 -0.0175,-0.1225 -0.0263,-0.2475 -0.025,-0.37125 l 0,-65.15 c 0,-0.125 0.009,-0.25 0.0263,-0.3725 0.0163,-0.12375 0.0412,-0.24625 0.075,-0.36625 0.0312,-0.12 0.0713,-0.23875 0.12,-0.35375 0.0487,-0.11375 0.10375,-0.225 0.16875,-0.3325 0.0613,-0.1075 0.13,-0.21125 0.20625,-0.31 0.0763,-0.0987 0.15875,-0.1925 0.2475,-0.28 0.0863,-0.0888 0.18,-0.17125 0.27875,-0.2475 0.0987,-0.075 0.2025,-0.145 0.31125,-0.20625 0.10625,-0.0638 0.2175,-0.11875 0.3325,-0.1675 0.115,-0.0475 0.23375,-0.0875 0.35375,-0.12 0.12,-0.035 0.2425,-0.06 0.36625,-0.0775 0.1225,-0.0175 0.24625,-0.0263 0.37125,-0.025 l 42.29,0 c 0.125,10e-4 0.24875,0.009 0.3725,0.0263 0.1225,0.0162 0.245,0.0425 0.365,0.0762 0.12125,0.0312 0.23875,0.0713 0.35375,0.12 0.115,0.0475 0.22625,0.10375 0.3325,0.1675 0.10875,0.0612 0.2125,0.13125 0.31125,0.20625 0.0987,0.0762 0.1925,0.15875 0.28,0.2475 0.0888,0.0875 0.17125,0.18125 0.24625,0.28 0.0762,0.0987 0.145,0.2025 0.2075,0.31 0.0625,0.1075 0.11875,0.21875 0.16625,0.33375 0.0488,0.115 0.0888,0.2325 0.12125,0.3525 0.0337,0.12 0.06,0.2425 0.0775,0.36625 0.0175,0.1225 0.025,0.2475 0.025,0.3725 l 0,65.15 c -10e-4,0.12375 -0.01,0.24875 -0.0263,0.37125 -0.0175,0.12375 -0.0425,0.24625 -0.0762,0.36625 -0.0312,0.12 -0.0712,0.23875 -0.12,0.35375 -0.0475,0.11375 -0.10375,0.225 -0.1675,0.3325 -0.0625,0.10875 -0.13125,0.2125 -0.2075,0.31 -0.075,0.0987 -0.1575,0.1925 -0.24625,0.28 -0.0875,0.0888 -0.18125,0.17125 -0.28,0.2475 -0.0987,0.0763 -0.2025,0.145 -0.31125,0.2075 -0.10625,0.0625 -0.2175,0.1175 -0.3325,0.16625 -0.115,0.0475 -0.23375,0.0888 -0.35375,0.12 -0.12,0.035 -0.2425,0.06 -0.365,0.0775 -0.12375,0.0175 -0.2475,0.0263 -0.3725,0.025 l -42.2675,0 z" />
    <path
       d="m 489.80479,499.05959 -0.0175,0 0.009,-0.002 0.009,0.002 z"
       style="fill:#a7a9ac;fill-opacity:1;fill-rule:evenodd;stroke:#231f20;stroke-width:0.27000001;stroke-linecap:butt;stroke-linejoin:bevel;stroke-miterlimit:22.9260006;stroke-opacity:1;stroke-dasharray:none"
       id="path20720" />
    <path
       d="m 504.43604,466.41709 -0.0175,0 0.009,-0.002 0.009,0.002 z"
       style="fill:#a7a9ac;fill-opacity:1;fill-rule:evenodd;stroke:#231f20;stroke-width:0.27000001;stroke-linecap:butt;stroke-linejoin:bevel;stroke-miterlimit:22.9260006;stroke-opacity:1;stroke-dasharray:none"
       id="path20724" />
    <path
       d="m 506.56854,459.18084 2.37,0.37625 0.0138,10e-4 c 0.02,0.002 0.04,0.005 0.0612,0.007 0.02,10e-4 0.0413,0.002 0.0613,0.002 0.0263,0 0.0525,0 0.0775,-0.001 0.025,-10e-4 0.0512,-0.005 0.0763,-0.009 0.025,-0.002 0.0487,-0.007 0.0738,-0.0125 0.0237,-0.006 0.0462,-0.0125 0.0687,-0.02 0.0238,-0.006 0.045,-0.015 0.0663,-0.0237 0.02,-0.009 0.04,-0.0188 0.0587,-0.0288 0.0188,-0.01 0.0362,-0.0213 0.0525,-0.0337 0.0163,-0.0113 0.0312,-0.0238 0.0437,-0.0375 0.0138,-0.0125 0.0263,-0.025 0.0362,-0.04 0.01,-0.0137 0.02,-0.0275 0.0263,-0.0425 0.007,-0.0138 0.0138,-0.0288 0.0175,-0.0438 0.004,-0.015 0.006,-0.03 0.006,-0.045 0.001,-0.015 0,-0.03 -0.002,-0.0462 -0.002,-0.0138 -0.006,-0.03 -0.0125,-0.0438 -0.006,-0.015 -0.0138,-0.03 -0.0225,-0.0437 -0.009,-0.0138 -0.02,-0.0288 -0.0325,-0.0412 l -0.004,-0.004 -0.004,-0.004 -4.21,-4.30625 -4.17125,4.30625 -0.006,0.006 c -0.01,0.0113 -0.0188,0.0225 -0.0275,0.0337 -0.008,0.0113 -0.0138,0.0225 -0.02,0.0337 -0.007,0.015 -0.0125,0.03 -0.0162,0.045 -0.005,0.015 -0.006,0.03 -0.008,0.045 0,0.015 0.001,0.03 0.004,0.045 0.002,0.015 0.006,0.03 0.0138,0.045 0.005,0.015 0.0125,0.03 0.0225,0.0437 0.009,0.0138 0.02,0.0275 0.0325,0.0413 0.0125,0.0125 0.0263,0.0262 0.0412,0.0375 0.015,0.0125 0.0312,0.0238 0.0487,0.035 0.0188,0.0112 0.0375,0.0213 0.0563,0.0312 0.0212,0.009 0.0412,0.0188 0.0637,0.0263 0.0213,0.007 0.045,0.015 0.0688,0.0212 0.0225,0.006 0.0475,0.0113 0.0712,0.015 0.025,0.004 0.05,0.007 0.075,0.01 0.0262,0.002 0.0512,0.004 0.0775,0.004 0.025,10e-4 0.0512,0 0.0775,-10e-4 0.025,-0.001 0.05,-0.005 0.075,-0.009 l 0.007,0 0.007,-0.002 2.33,-0.3725 0,13.09125 0,0.009 0,0.01 c 10e-4,0.03 0.006,0.06 0.0137,0.09 0.008,0.03 0.02,0.0587 0.035,0.0888 0.0138,0.0288 0.0312,0.0575 0.0525,0.085 0.02,0.0275 0.045,0.055 0.0725,0.08 0.0263,0.0263 0.0562,0.0513 0.0875,0.075 0.0325,0.0238 0.0675,0.045 0.105,0.0662 0.0375,0.0213 0.0775,0.04 0.11875,0.0588 0.0412,0.0175 0.085,0.0337 0.13,0.0475 0.045,0.015 0.0913,0.0275 0.14,0.0388 0.0475,0.01 0.0975,0.0187 0.1475,0.0262 0.0375,0.006 0.0775,0.01 0.11625,0.0138 0.04,0.002 0.0787,0.005 0.11875,0.005 l 0.0138,0 0.045,0 c 0.0513,0 0.1025,-0.002 0.15375,-0.006 0.05,-0.005 0.10125,-0.0112 0.15,-0.02 0.05,-0.007 0.0987,-0.0175 0.145,-0.03 0.0475,-0.0125 0.0937,-0.0263 0.13625,-0.0425 0.045,-0.015 0.0875,-0.0325 0.1275,-0.0512 0.04,-0.0188 0.0788,-0.0387 0.11375,-0.0613 0.0362,-0.0213 0.0688,-0.045 0.1,-0.0687 0.0312,-0.025 0.0587,-0.05 0.0825,-0.0763 0.0263,-0.0263 0.0475,-0.0538 0.0663,-0.0825 0.0187,-0.0288 0.035,-0.0575 0.0475,-0.0863 0.01,-0.025 0.0188,-0.05 0.025,-0.0763 0.006,-0.025 0.009,-0.05 0.01,-0.0763 l 0,-0.0163 0,-13.0925 z"
       style="fill:#000000;fill-opacity:1;fill-rule:evenodd;stroke:#000000;stroke-width:0.27000001000000001;stroke-linecap:butt;stroke-linejoin:bevel;stroke-miterlimit:22.92600059999999800;stroke-opacity:1;stroke-dasharray:none"
       id="path20728" />
    <path
       d="m 488.41354,486.91084 2.37,0.375 0.0137,0.002 c 0.02,0.002 0.04,0.005 0.0613,0.007 0.02,10e-4 0.0412,0.002 0.0625,0.002 0.025,0 0.0512,0 0.0763,-10e-4 0.025,-10e-4 0.0512,-0.005 0.0762,-0.009 0.025,-0.002 0.0488,-0.007 0.0738,-0.0125 0.0238,-0.006 0.0462,-0.0125 0.0688,-0.02 0.0238,-0.006 0.045,-0.015 0.0662,-0.0237 0.02,-0.009 0.04,-0.0188 0.0588,-0.0288 0.0187,-0.01 0.0362,-0.0213 0.0525,-0.0337 0.0163,-0.0113 0.0312,-0.0238 0.0438,-0.0375 0.0137,-0.0125 0.0263,-0.0263 0.0362,-0.04 0.01,-0.0137 0.02,-0.0275 0.0263,-0.0425 0.007,-0.0138 0.0137,-0.0288 0.0175,-0.0438 0.004,-0.015 0.006,-0.03 0.007,-0.045 0,-0.015 0,-0.03 -0.004,-0.0463 -0.002,-0.015 -0.006,-0.03 -0.0125,-0.0437 -0.006,-0.015 -0.0138,-0.03 -0.0225,-0.0437 -0.009,-0.015 -0.02,-0.0288 -0.0325,-0.0412 l -0.004,-0.004 -0.004,-0.004 -4.21,-4.30625 -4.17125,4.30625 -0.006,0.006 c -0.01,0.0112 -0.0188,0.0225 -0.0275,0.0337 -0.007,0.0112 -0.0137,0.0225 -0.02,0.0337 -0.007,0.015 -0.0125,0.03 -0.0163,0.045 -0.005,0.015 -0.006,0.03 -0.007,0.045 0,0.015 10e-4,0.03 0.004,0.045 0.002,0.015 0.006,0.03 0.0137,0.045 0.005,0.015 0.0125,0.0287 0.0225,0.0437 0.009,0.0137 0.02,0.0275 0.0325,0.0412 0.0125,0.0125 0.025,0.0263 0.0412,0.0375 0.015,0.0125 0.0312,0.0238 0.0488,0.035 0.0187,0.0113 0.0375,0.0213 0.0562,0.0312 0.0213,0.009 0.0412,0.0175 0.0638,0.0263 0.0225,0.007 0.045,0.015 0.0687,0.0213 0.0225,0.006 0.0475,0.01 0.0713,0.015 0.025,0.004 0.05,0.007 0.0763,0.01 0.025,0.002 0.05,0.004 0.0762,0.004 0.025,0.001 0.0513,0 0.0775,-10e-4 0.025,-10e-4 0.05,-0.005 0.075,-0.009 l 0.007,-10e-4 0.007,-10e-4 2.33,-0.3725 0,13.09125 0,0.009 0,0.009 c 0.001,0.0312 0.006,0.0613 0.0138,0.0913 0.007,0.03 0.02,0.0587 0.035,0.0888 0.0138,0.0288 0.0312,0.0575 0.0525,0.085 0.02,0.0275 0.045,0.055 0.0725,0.08 0.0263,0.0263 0.0563,0.0512 0.0875,0.075 0.0325,0.0225 0.0675,0.045 0.105,0.0662 0.0375,0.0213 0.0775,0.04 0.11875,0.0588 0.0412,0.0175 0.085,0.0337 0.13,0.0475 0.045,0.015 0.0913,0.0275 0.14,0.0387 0.0475,0.01 0.0975,0.0187 0.1475,0.0263 0.0387,0.006 0.0775,0.01 0.11625,0.0137 0.04,0.002 0.0788,0.005 0.11875,0.005 l 0.0138,0 0.045,0 c 0.0512,0 0.1025,-0.002 0.15375,-0.006 0.05,-0.005 0.10125,-0.0113 0.15,-0.02 0.05,-0.007 0.0987,-0.0175 0.145,-0.03 0.0475,-0.0125 0.0937,-0.0263 0.13625,-0.0425 0.045,-0.015 0.0875,-0.0325 0.1275,-0.0512 0.04,-0.0188 0.0788,-0.0387 0.11375,-0.0613 0.0362,-0.0213 0.07,-0.045 0.1,-0.0687 0.0312,-0.025 0.0588,-0.05 0.0838,-0.0763 0.025,-0.0263 0.0462,-0.0537 0.0663,-0.0825 0.0187,-0.0288 0.0337,-0.0575 0.0462,-0.0863 0.01,-0.025 0.0188,-0.05 0.025,-0.0763 0.006,-0.025 0.009,-0.05 0.01,-0.0763 l 0,-0.0162 0,-13.0925 z"
       style="fill:#000000;fill-opacity:1;fill-rule:evenodd;stroke:#000000;stroke-width:0.27000001000000001;stroke-linecap:butt;stroke-linejoin:bevel;stroke-miterlimit:22.92600059999999800;stroke-opacity:1;stroke-dasharray:none"
       id="path20732" />
  </g>
</svg>
