<?xml version="1.0" encoding="UTF-8" standalone="no"?>
<!-- Created with Inkscape (http://www.inkscape.org/) -->

<svg
   xmlns:dc="http://purl.org/dc/elements/1.1/"
   xmlns:cc="http://creativecommons.org/ns#"
   xmlns:rdf="http://www.w3.org/1999/02/22-rdf-syntax-ns#"
   xmlns:svg="http://www.w3.org/2000/svg"
   xmlns="http://www.w3.org/2000/svg"
   xmlns:sodipodi="http://sodipodi.sourceforge.net/DTD/sodipodi-0.dtd"
   xmlns:inkscape="http://www.inkscape.org/namespaces/inkscape"
   width="71.182571"
   height="71.181396"
   id="svg9930"
   version="1.1"
   inkscape:version="0.47 r22583"
   sodipodi:docname="A.5.1 Stillliegeverbot.svg">
  <defs
     id="defs9932" />
  <sodipodi:namedview
     id="base"
     pagecolor="#ffffff"
     bordercolor="#666666"
     borderopacity="1.0"
     inkscape:pageopacity="0.0"
     inkscape:pageshadow="2"
     inkscape:zoom="7.3474254"
     inkscape:cx="35.591286"
     inkscape:cy="35.590698"
     inkscape:document-units="px"
     inkscape:current-layer="layer1"
     showgrid="false"
     inkscape:window-width="1280"
     inkscape:window-height="748"
     inkscape:window-x="-8"
     inkscape:window-y="-8"
     inkscape:window-maximized="1" />
  <metadata
     id="metadata9935">
    <rdf:RDF>
      <cc:Work
         rdf:about="">
        <dc:format>image/svg+xml</dc:format>
        <dc:type
           rdf:resource="http://purl.org/dc/dcmitype/StillImage" />
        <dc:title />
      </cc:Work>
    </rdf:RDF>
  </metadata>
  <g
     inkscape:label="Ebene 1"
     inkscape:groupmode="layer"
     id="layer1"
     transform="translate(-314.40872,-496.77146)">
    <path
       d="m 318.79875,566.12906 -0.02,0 c -0.11125,-10e-4 -0.22125,-0.009 -0.33125,-0.0237 -0.11,-0.015 -0.21875,-0.0375 -0.32625,-0.0675 -0.1075,-0.0275 -0.2125,-0.0638 -0.315,-0.10625 -0.1025,-0.0425 -0.20125,-0.0925 -0.29625,-0.15 -0.0962,-0.055 -0.18875,-0.11625 -0.2775,-0.185 -0.0875,-0.0675 -0.17,-0.14 -0.24875,-0.22 -0.0788,-0.0775 -0.1525,-0.16 -0.22,-0.24875 -0.0675,-0.0875 -0.12875,-0.18 -0.18375,-0.27625 -0.0562,-0.095 -0.10625,-0.195 -0.14875,-0.2975 -0.0437,-0.1025 -0.0787,-0.2075 -0.1075,-0.31375 -0.0312,-0.1075 -0.0538,-0.21625 -0.0688,-0.32625 -0.0163,-0.11 -0.0238,-0.22 -0.0225,-0.33125 l 0,-62.4425 c 0,-0.11125 0.009,-0.2225 0.0238,-0.33125 0.0137,-0.11 0.0362,-0.21875 0.0675,-0.32625 0.0275,-0.1075 0.0625,-0.2125 0.10625,-0.315 0.0425,-0.1025 0.0925,-0.20125 0.15,-0.29625 0.055,-0.0962 0.11625,-0.18875 0.18375,-0.2775 0.0675,-0.0875 0.14125,-0.17 0.22,-0.24875 0.0788,-0.0787 0.16125,-0.1525 0.24875,-0.22 0.0888,-0.0675 0.18125,-0.12875 0.2775,-0.185 0.095,-0.055 0.195,-0.105 0.29625,-0.1475 0.1025,-0.0437 0.2075,-0.0787 0.315,-0.1075 0.1075,-0.0312 0.21625,-0.0538 0.32625,-0.0688 0.11,-0.0163 0.22,-0.0238 0.33125,-0.0225 l 62.4425,0 c 0.11125,0 0.22125,0.009 0.33125,0.0225 0.11,0.015 0.21875,0.0375 0.32625,0.0688 0.1075,0.0275 0.2125,0.0625 0.315,0.10625 0.1025,0.0425 0.20125,0.0925 0.2975,0.14875 0.095,0.0562 0.1875,0.1175 0.275,0.185 0.0888,0.0675 0.17125,0.14125 0.25,0.22 0.0788,0.0788 0.1525,0.16125 0.22,0.24875 0.0675,0.0888 0.12875,0.18125 0.18375,0.2775 0.0575,0.095 0.10625,0.19375 0.14875,0.29625 0.0425,0.1025 0.0787,0.20875 0.1075,0.315 0.03,0.1075 0.0538,0.21625 0.0688,0.32625 0.0163,0.10875 0.0238,0.22 0.0225,0.33125 l 0,62.4425 c 0,0.11125 -0.007,0.22125 -0.0225,0.33125 -0.015,0.11 -0.0387,0.21875 -0.0688,0.32625 -0.0275,0.10625 -0.0625,0.2125 -0.10625,0.315 -0.0425,0.10125 -0.0925,0.20125 -0.15,0.29625 -0.055,0.0963 -0.11625,0.18875 -0.18375,0.27625 -0.0675,0.0888 -0.14125,0.17125 -0.22,0.24875 -0.0788,0.08 -0.16125,0.15375 -0.25,0.22125 -0.0875,0.0675 -0.18,0.12875 -0.275,0.18375 -0.0962,0.0562 -0.195,0.10625 -0.2975,0.14875 -0.1025,0.0425 -0.2075,0.0788 -0.315,0.1075 -0.1075,0.03 -0.21625,0.0537 -0.32625,0.0687 -0.11,0.0163 -0.22,0.0225 -0.33125,0.0225 l -0.02,0 -62.4025,0 z"
       style="fill:#cc0000;fill-opacity:1;fill-rule:evenodd;stroke:#000000;stroke-width:0.27000001000000001;stroke-linecap:butt;stroke-linejoin:bevel;stroke-miterlimit:22.92600059999999800;stroke-opacity:1;stroke-dasharray:none"
       id="path20078" />
    <path
       d="m 318.79875,567.75031 62.435,0 c 0.18125,-10e-4 0.3625,-0.0137 0.54125,-0.0375 0.17875,-0.025 0.35625,-0.0612 0.53125,-0.11125 0.175,-0.045 0.3475,-0.10375 0.51375,-0.17375 0.16625,-0.07 0.32875,-0.15125 0.48375,-0.24375 0.1575,-0.09 0.30875,-0.19125 0.45125,-0.30125 0.14375,-0.11 0.28,-0.23 0.4075,-0.35875 0.12875,-0.1275 0.24875,-0.2625 0.35875,-0.40625 0.11,-0.14375 0.21125,-0.29375 0.30125,-0.45125 0.0913,-0.15625 0.1725,-0.31875 0.24125,-0.485 0.0712,-0.1675 0.12875,-0.33875 0.17625,-0.51375 0.0487,-0.17375 0.0863,-0.3525 0.1125,-0.53125 0.025,-0.17875 0.0375,-0.36 0.0362,-0.54 l 0,-62.46875 c -10e-4,-0.18125 -0.0138,-0.36125 -0.0387,-0.54 -0.0238,-0.18 -0.0613,-0.3575 -0.11,-0.5325 -0.045,-0.175 -0.10375,-0.34625 -0.17375,-0.51375 -0.07,-0.16625 -0.1525,-0.32875 -0.24375,-0.48375 -0.0913,-0.1575 -0.19125,-0.3075 -0.30125,-0.45125 -0.11,-0.14375 -0.23,-0.27875 -0.35875,-0.40625 -0.1275,-0.12875 -0.26375,-0.24875 -0.4075,-0.36 -0.1425,-0.11 -0.29375,-0.21 -0.45125,-0.3 -0.155,-0.0913 -0.3175,-0.1725 -0.48375,-0.2425 -0.1675,-0.07 -0.33875,-0.12875 -0.51375,-0.175 -0.175,-0.05 -0.3525,-0.0875 -0.53125,-0.1125 -0.17875,-0.025 -0.36,-0.0375 -0.54125,-0.0362 l -62.4675,0 c -0.18125,0 -0.36125,0.0138 -0.54125,0.0375 -0.18,0.0238 -0.3575,0.0613 -0.53125,0.11125 -0.175,0.045 -0.3475,0.1025 -0.51375,0.1725 -0.1675,0.0713 -0.32875,0.1525 -0.485,0.245 -0.15625,0.09 -0.3075,0.19 -0.45,0.3 -0.14375,0.11125 -0.28,0.23125 -0.4075,0.36 -0.12875,0.1275 -0.24875,0.2625 -0.35875,0.40625 -0.11,0.14375 -0.21125,0.29375 -0.30125,0.45125 -0.0913,0.15625 -0.1725,0.3175 -0.2425,0.485 -0.07,0.16625 -0.12875,0.33875 -0.175,0.5125 -0.05,0.175 -0.0875,0.3525 -0.1125,0.5325 -0.025,0.17875 -0.0375,0.35875 -0.0362,0.54 l 0,62.46875 c 10e-4,0.18 0.0138,0.36125 0.0387,0.54 0.0238,0.18 0.06,0.3575 0.11,0.53125 0.045,0.175 0.10375,0.3475 0.17375,0.51375 0.07,0.1675 0.15125,0.32875 0.24375,0.485 0.09,0.15625 0.19125,0.3075 0.30125,0.45125 0.11,0.14375 0.23,0.27875 0.35875,0.40625 0.1275,0.12875 0.26375,0.24875 0.4075,0.35875 0.1425,0.11 0.29375,0.21125 0.45,0.30125 0.15625,0.0912 0.31875,0.1725 0.485,0.2425 0.1675,0.07 0.33875,0.12875 0.51375,0.175 0.175,0.05 0.3525,0.0875 0.53125,0.1125 0.18,0.025 0.36,0.0375 0.54125,0.0362 l 0.0325,0 z"
       style="fill:none;stroke:#231f20;stroke-width:0.27000001;stroke-linecap:butt;stroke-linejoin:bevel;stroke-miterlimit:22.9260006;stroke-opacity:1;stroke-dasharray:none"
       id="path20082" />
    <path
       id="path20086"
       style="fill:none;stroke:#000000;stroke-width:0.27000001000000001;stroke-linecap:butt;stroke-linejoin:bevel;stroke-miterlimit:22.92600059999999800;stroke-opacity:1;stroke-dasharray:none"
       d="m 318.79875,567.81781 -0.0337,0 c -0.18375,-10e-4 -0.3675,-0.0137 -0.54875,-0.0388 -0.1825,-0.025 -0.36375,-0.0625 -0.54,-0.1125 -0.17875,-0.045 -0.3525,-0.105 -0.5225,-0.17625 -0.17,-0.0713 -0.33375,-0.15375 -0.4925,-0.2475 -0.15875,-0.0925 -0.3125,-0.19375 -0.4575,-0.30625 -0.14625,-0.1125 -0.28375,-0.23375 -0.41375,-0.365 -0.13125,-0.12875 -0.2525,-0.26625 -0.365,-0.4125 -0.1125,-0.14625 -0.21375,-0.3 -0.30625,-0.45875 -0.0925,-0.15875 -0.175,-0.32375 -0.24625,-0.4925 -0.07,-0.17 -0.13,-0.34375 -0.1775,-0.5225 -0.05,-0.17625 -0.0888,-0.3575 -0.11375,-0.54 -0.0263,-0.18125 -0.0387,-0.365 -0.0375,-0.54875 l 0,-62.46875 c 0.001,-0.18375 0.0138,-0.3675 0.0387,-0.55 0.025,-0.1825 0.0625,-0.3625 0.1125,-0.53875 0.0462,-0.17875 0.105,-0.35375 0.17625,-0.52375 0.0713,-0.16875 0.15375,-0.33375 0.2475,-0.49125 0.0925,-0.15875 0.195,-0.3125 0.30625,-0.45875 0.1125,-0.14625 0.23375,-0.28375 0.365,-0.41375 0.12875,-0.13 0.2675,-0.2525 0.4125,-0.36375 0.14625,-0.1125 0.3,-0.215 0.45875,-0.30625 0.15875,-0.0937 0.32375,-0.17625 0.4925,-0.24625 0.17,-0.0713 0.345,-0.13125 0.5225,-0.17875 0.17625,-0.05 0.3575,-0.0888 0.54,-0.11375 0.18125,-0.0263 0.365,-0.0375 0.54875,-0.0362 l 62.47,0 c 0.18375,10e-4 0.3675,0.0137 0.54875,0.0375 0.1825,0.025 0.3625,0.0625 0.54,0.1125 0.17875,0.0462 0.3525,0.105 0.5225,0.1775 0.17,0.0713 0.33375,0.15375 0.4925,0.2475 0.15875,0.0913 0.3125,0.19375 0.4575,0.30625 0.14625,0.11125 0.28375,0.23375 0.41375,0.36375 0.13125,0.13 0.2525,0.2675 0.365,0.41375 0.1125,0.14625 0.21375,0.29875 0.30625,0.45875 0.0925,0.15875 0.175,0.3225 0.24625,0.4925 0.0713,0.17 0.13,0.34375 0.1775,0.5225 0.0512,0.17625 0.0888,0.3575 0.115,0.53875 0.025,0.1825 0.0375,0.36625 0.0362,0.55 l 0,62.46875 c -0.001,0.18375 -0.0138,0.3675 -0.0387,0.55 -0.025,0.18125 -0.0625,0.3625 -0.1125,0.53875 -0.0462,0.17875 -0.105,0.3525 -0.17625,0.5225 -0.0713,0.17 -0.15375,0.33375 -0.2475,0.4925 -0.0925,0.15875 -0.19375,0.3125 -0.30625,0.45875 -0.1125,0.145 -0.23375,0.28375 -0.365,0.4125 -0.13,0.13125 -0.2675,0.25375 -0.41375,0.365 -0.145,0.1125 -0.29875,0.215 -0.4575,0.30625 -0.15875,0.0925 -0.32375,0.175 -0.4925,0.24625 -0.17,0.0712 -0.345,0.13 -0.5225,0.1775 -0.1775,0.0512 -0.3575,0.0888 -0.54,0.115 -0.18125,0.025 -0.365,0.0375 -0.54875,0.0362 l -62.43625,0 z" />
    <path
       d="m 366.4675,556.56281 -40.09,-40.09 0,40.09 40.09,0"
       style="fill:#ffffff;fill-opacity:1;fill-rule:evenodd;stroke:none"
       id="path20090" />
    <path
       d="m 373.62125,549.40781 0,-40.09 -40.09,0 40.09,40.09"
       style="fill:#ffffff;fill-opacity:1;fill-rule:evenodd;stroke:none"
       id="path20094" />
    <path
       d="m 347.64875,540.46281 0,1.67125 0.0113,0.0838 c 0.004,0.0275 0.009,0.055 0.0125,0.0825 0.0362,0.22375 0.1,0.44375 0.18875,0.6525 0.09,0.21 0.21125,0.405 0.36,0.5775 0.19375,0.245 0.43875,0.4425 0.7175,0.58125 0.2825,0.14125 0.5925,0.2225 0.90875,0.23625 0.31625,0.0288 0.63375,-0.009 0.93375,-0.11125 0.29375,-0.0975 0.56125,-0.26 0.78375,-0.475 0.1325,-0.12125 0.25,-0.25875 0.34875,-0.40875 0.1,-0.1525 0.18875,-0.31125 0.265,-0.4775 0.0463,-0.0963 0.0888,-0.195 0.12375,-0.29625 0.035,-0.1 0.0562,-0.205 0.065,-0.31 0.002,-0.0263 0.005,-0.0512 0.005,-0.0775 0.001,-0.0263 0.002,-0.0512 0.002,-0.0775 l 0,-8.14875 c -10e-4,-0.0375 -0.002,-0.075 -0.004,-0.1125 -10e-4,-0.0375 -0.004,-0.075 -0.006,-0.11125 -0.02,-0.22125 -0.0738,-0.43625 -0.16,-0.64 -0.0863,-0.20625 -0.2025,-0.3975 -0.3475,-0.5675 -0.14375,-0.18375 -0.3175,-0.345 -0.5125,-0.475 -0.195,-0.12875 -0.4075,-0.23 -0.63125,-0.2975 -0.25125,-0.0838 -0.51375,-0.125 -0.7775,-0.12125 -0.2675,0.003 -0.53125,0.0538 -0.78125,0.15 -0.3075,0.10625 -0.59,0.275 -0.8275,0.4975 -0.235,0.21375 -0.41125,0.48375 -0.51375,0.78375 -0.0225,0.0588 -0.0413,0.1175 -0.0588,0.17625 -0.0163,0.06 -0.0325,0.12 -0.0475,0.18 l -4.23625,0 0,-17.74625 13.64375,0 0,4.45375 -9.45875,0 0,8.86625 c 0.1575,-0.12625 0.3175,-0.25 0.47875,-0.37125 0.16125,-0.12125 0.32875,-0.23625 0.5,-0.3425 0.42,-0.25875 0.87375,-0.4575 1.34875,-0.5925 0.4775,-0.13625 0.97375,-0.20375 1.47,-0.2 0.57,-0.0138 1.13875,0.065 1.6825,0.23375 0.5425,0.16625 1.055,0.41875 1.5175,0.7475 0.38625,0.2575 0.7375,0.56375 1.04375,0.91125 0.30875,0.34875 0.575,0.7325 0.79375,1.14375 0.17,0.30125 0.31,0.61875 0.41875,0.9475 0.1075,0.325 0.17125,0.6625 0.19125,1.00375 0.004,0.05 0.006,0.1 0.009,0.15 10e-4,0.05 0.004,0.1 0.005,0.15 l 0,9.45125 -0.0125,0.13 c -0.004,0.0425 -0.007,0.0862 -0.0125,0.12875 -0.0425,0.42625 -0.11875,0.84875 -0.22625,1.26375 -0.10875,0.415 -0.25625,0.82 -0.4425,1.2075 -0.2825,0.63375 -0.66375,1.21875 -1.13,1.7325 -0.46625,0.5175 -1.01,0.96 -1.61,1.3125 -0.4825,0.30625 -1.0025,0.55 -1.54625,0.725 -0.545,0.17375 -1.11,0.2775 -1.68,0.30875 -0.76625,0.0587 -1.535,-0.008 -2.27875,-0.2 -0.74375,-0.1875 -1.44875,-0.5025 -2.085,-0.93125 -0.5675,-0.35375 -1.0775,-0.7925 -1.51125,-1.30125 -0.435,-0.50875 -0.79625,-1.07625 -1.07125,-1.68625 -0.19,-0.39 -0.34,-0.7975 -0.44875,-1.21625 -0.1075,-0.415 -0.16625,-0.84125 -0.17125,-1.27 -0.001,-0.0438 -0.002,-0.0875 -0.002,-0.13125 -0.001,-0.0425 -0.001,-0.0875 -0.001,-0.13 l 0,-1.71375 4.76375,0 z"
       style="fill:#000000;fill-opacity:1;fill-rule:evenodd;stroke:#000000;stroke-width:0.27000001000000001;stroke-linecap:butt;stroke-linejoin:bevel;stroke-miterlimit:22.92600059999999800;stroke-opacity:1;stroke-dasharray:none"
       id="path20098" />
  </g>
</svg>
