<?xml version="1.0" encoding="UTF-8" standalone="no"?>
<!-- Created with Inkscape (http://www.inkscape.org/) -->

<svg
   xmlns:dc="http://purl.org/dc/elements/1.1/"
   xmlns:cc="http://creativecommons.org/ns#"
   xmlns:rdf="http://www.w3.org/1999/02/22-rdf-syntax-ns#"
   xmlns:svg="http://www.w3.org/2000/svg"
   xmlns="http://www.w3.org/2000/svg"
   xmlns:sodipodi="http://sodipodi.sourceforge.net/DTD/sodipodi-0.dtd"
   xmlns:inkscape="http://www.inkscape.org/namespaces/inkscape"
   width="71.136032"
   height="71.136383"
   id="svg16676"
   version="1.1"
   inkscape:version="0.47 r22583"
   sodipodi:docname="A.18 Fahrverbot für Wassermotorräder.svg">
  <defs
     id="defs16678" />
  <sodipodi:namedview
     id="base"
     pagecolor="#ffffff"
     bordercolor="#666666"
     borderopacity="1.0"
     inkscape:pageopacity="0.0"
     inkscape:pageshadow="2"
     inkscape:zoom="7.3520747"
     inkscape:cx="35.568016"
     inkscape:cy="35.568192"
     inkscape:document-units="px"
     inkscape:current-layer="layer1"
     showgrid="false"
     inkscape:window-width="1280"
     inkscape:window-height="748"
     inkscape:window-x="-8"
     inkscape:window-y="-8"
     inkscape:window-maximized="1" />
  <metadata
     id="metadata16681">
    <rdf:RDF>
      <cc:Work
         rdf:about="">
        <dc:format>image/svg+xml</dc:format>
        <dc:type
           rdf:resource="http://purl.org/dc/dcmitype/StillImage" />
        <dc:title />
      </cc:Work>
    </rdf:RDF>
  </metadata>
  <g
     inkscape:label="Ebene 1"
     inkscape:groupmode="layer"
     id="layer1"
     transform="translate(-524.43209,-453.93678)">
    <path
       d="m 529.29184,524.86941 61.45375,0 c 0.20125,-10e-4 0.4025,-0.015 0.60125,-0.0425 0.2,-0.0263 0.3975,-0.0675 0.59125,-0.1225 0.195,-0.05 0.385,-0.115 0.57125,-0.19375 0.185,-0.0775 0.36625,-0.16875 0.53875,-0.27125 0.175,-0.1 0.3425,-0.21125 0.50125,-0.33375 0.16,-0.12375 0.31125,-0.25625 0.4525,-0.4 0.14375,-0.14125 0.2775,-0.2925 0.4,-0.4525 0.1225,-0.15875 0.23375,-0.32625 0.335,-0.50125 0.10125,-0.17375 0.19125,-0.35375 0.26875,-0.54 0.0775,-0.185 0.1425,-0.37625 0.195,-0.57 0.055,-0.195 0.0962,-0.3925 0.125,-0.59125 0.0275,-0.2 0.0412,-0.4 0.04,-0.60125 l 0,-61.49 c -10e-4,-0.20125 -0.015,-0.4025 -0.0425,-0.6025 -0.0263,-0.19875 -0.0675,-0.39625 -0.1225,-0.59 -0.05,-0.195 -0.115,-0.38625 -0.19375,-0.57125 -0.0775,-0.18625 -0.1675,-0.36625 -0.27,-0.54 -0.10125,-0.17375 -0.2125,-0.34125 -0.335,-0.50125 -0.12375,-0.16 -0.25625,-0.31 -0.4,-0.45125 -0.14125,-0.14375 -0.2925,-0.2775 -0.4525,-0.4 -0.15875,-0.12375 -0.32625,-0.235 -0.50125,-0.335 -0.17375,-0.1025 -0.35375,-0.19125 -0.53875,-0.27 -0.18625,-0.0775 -0.3775,-0.1425 -0.57125,-0.19375 -0.195,-0.055 -0.39125,-0.0975 -0.59125,-0.12625 -0.19875,-0.0275 -0.4,-0.0412 -0.60125,-0.04 l -61.49,0 c -0.20125,10e-4 -0.4025,0.0162 -0.6025,0.0425 -0.19875,0.0275 -0.39625,0.0688 -0.59,0.12375 -0.195,0.05 -0.38625,0.11375 -0.57125,0.1925 -0.18625,0.0775 -0.36625,0.16875 -0.53875,0.27125 -0.175,0.1 -0.3425,0.2125 -0.5025,0.335 -0.15875,0.1225 -0.31,0.25625 -0.4525,0.4 -0.1425,0.14125 -0.27625,0.29125 -0.39875,0.45125 -0.1225,0.16 -0.235,0.3275 -0.335,0.50125 -0.10125,0.17375 -0.1925,0.35375 -0.26875,0.54 -0.0788,0.18625 -0.14375,0.37625 -0.19625,0.57125 -0.0538,0.19375 -0.0963,0.39125 -0.12375,0.59125 -0.0288,0.19875 -0.0425,0.4 -0.0413,0.60125 l 0,61.49 c 0.003,0.20125 0.0163,0.40125 0.0425,0.60125 0.0275,0.2 0.0688,0.39625 0.1225,0.59125 0.0512,0.19375 0.11625,0.385 0.19375,0.57125 0.0775,0.185 0.16875,0.365 0.27125,0.53875 0.10125,0.17375 0.2125,0.3425 0.335,0.50125 0.1225,0.16 0.25625,0.31125 0.39875,0.4525 0.1425,0.14375 0.2925,0.27625 0.4525,0.4 0.16,0.1225 0.3275,0.23375 0.5025,0.33375 0.1725,0.1025 0.3525,0.1925 0.53875,0.27 0.185,0.0775 0.37625,0.1425 0.57125,0.195 0.19375,0.055 0.39125,0.0962 0.59125,0.125 0.19875,0.0275 0.4,0.0412 0.60125,0.04 l 0.0362,0 z"
       style="fill:none;stroke:#231f20;stroke-width:0.27000001;stroke-linecap:butt;stroke-linejoin:bevel;stroke-miterlimit:22.9260006;stroke-opacity:1;stroke-dasharray:none"
       id="path20656" />
    <path
       d="m 529.29184,524.93816 -0.0187,0 -0.0188,0 c -0.20375,-0.001 -0.4075,-0.015 -0.61,-0.0425 -0.2025,-0.0275 -0.4025,-0.07 -0.6,-0.125 -0.1975,-0.0512 -0.39,-0.11625 -0.57875,-0.19625 -0.18875,-0.0787 -0.37125,-0.17125 -0.54625,-0.275 -0.1775,-0.1025 -0.3475,-0.215 -0.51,-0.34 -0.16125,-0.125 -0.315,-0.26 -0.45875,-0.405 -0.145,-0.14375 -0.28,-0.29625 -0.405,-0.45875 -0.125,-0.16125 -0.2375,-0.3325 -0.33875,-0.50875 -0.10375,-0.17625 -0.195,-0.35875 -0.27375,-0.5475 -0.0788,-0.18875 -0.145,-0.3825 -0.19875,-0.57875 -0.055,-0.1975 -0.0975,-0.3975 -0.12625,-0.6 -0.0287,-0.2025 -0.0425,-0.40625 -0.04,-0.61 l 0,-0.0188 -10e-4,-0.0187 0,-61.41625 10e-4,-0.0188 0,-0.0188 c 0,-0.205 0.015,-0.40875 0.0425,-0.61 0.0275,-0.2025 0.0688,-0.4025 0.12375,-0.6 0.0512,-0.1975 0.1175,-0.39125 0.19625,-0.57875 0.08,-0.18875 0.17125,-0.37125 0.27625,-0.5475 0.10125,-0.1775 0.215,-0.3475 0.33875,-0.50875 0.125,-0.1625 0.26,-0.315 0.405,-0.45875 0.14375,-0.145 0.2975,-0.28125 0.45875,-0.40625 0.1625,-0.12375 0.3325,-0.2375 0.51,-0.33875 0.175,-0.10375 0.35875,-0.195 0.54625,-0.27375 0.18875,-0.0788 0.3825,-0.145 0.57875,-0.1975 0.1975,-0.0563 0.3975,-0.0975 0.6,-0.12625 0.2025,-0.0288 0.40625,-0.0425 0.61,-0.0412 l 61.4925,0 c 0.20375,10e-4 0.4075,0.0163 0.60875,0.0437 0.2025,0.0263 0.40375,0.0675 0.6,0.12375 0.1975,0.0512 0.39125,0.11625 0.58,0.19625 0.1875,0.0788 0.37,0.17125 0.54625,0.275 0.1775,0.10125 0.3475,0.215 0.50875,0.34 0.1625,0.125 0.315,0.26 0.46,0.405 0.145,0.14375 0.28,0.29625 0.405,0.45875 0.12375,0.16125 0.2375,0.33125 0.33875,0.50875 0.10375,0.17625 0.195,0.35875 0.27375,0.5475 0.0788,0.1875 0.145,0.38125 0.1975,0.57875 0.0562,0.1975 0.0987,0.3975 0.12625,0.6 0.0287,0.20125 0.0425,0.40625 0.0412,0.61 l 0,61.49125 c -10e-4,0.20375 -0.015,0.4075 -0.0425,0.61 -0.0275,0.2025 -0.0688,0.4025 -0.125,0.6 -0.0512,0.1975 -0.11625,0.39125 -0.19625,0.58 -0.0788,0.1875 -0.17125,0.37 -0.275,0.54625 -0.10125,0.17625 -0.215,0.34625 -0.34,0.50875 -0.12375,0.1625 -0.26,0.315 -0.40375,0.45875 -0.145,0.145 -0.2975,0.28125 -0.46,0.405 -0.16125,0.125 -0.33125,0.23875 -0.50875,0.34 -0.17625,0.1025 -0.35875,0.195 -0.54625,0.27375 -0.18875,0.0788 -0.3825,0.14375 -0.58,0.1975 -0.19625,0.055 -0.3975,0.0975 -0.6,0.12625 -0.20125,0.0287 -0.40625,0.0425 -0.60875,0.0412 l -0.0188,0 -0.0187,0 -61.4175,0 z"
       style="fill:#ffffff;fill-opacity:1;fill-rule:evenodd;stroke:#000000;stroke-width:0.27000001000000001;stroke-linecap:butt;stroke-linejoin:bevel;stroke-miterlimit:22.92600059999999800;stroke-opacity:1;stroke-dasharray:none"
       id="path20660" />
    <path
       d="m 529.29184,523.16566 61.4175,0 0.0225,0 c 0.1275,-10e-4 0.255,-0.01 0.38125,-0.0275 0.1275,-0.0163 0.2525,-0.0425 0.375,-0.0775 0.12375,-0.0312 0.245,-0.0725 0.3625,-0.1225 0.1175,-0.0488 0.23125,-0.1075 0.34125,-0.1725 0.11125,-0.0625 0.2175,-0.13375 0.31875,-0.2125 0.10125,-0.0775 0.19625,-0.16125 0.28625,-0.2525 0.0913,-0.09 0.17625,-0.185 0.25375,-0.28625 0.0775,-0.10125 0.14875,-0.2075 0.21125,-0.31875 0.065,-0.11 0.1225,-0.22375 0.17125,-0.34125 0.05,-0.1175 0.0913,-0.23875 0.12375,-0.3625 0.035,-0.1225 0.0613,-0.24875 0.0788,-0.375 0.0188,-0.12625 0.0275,-0.25375 0.0263,-0.38125 l 0,-61.46375 c -10e-4,-0.1275 -0.01,-0.255 -0.0275,-0.38125 -0.0162,-0.12625 -0.0425,-0.25125 -0.0775,-0.375 -0.0325,-0.1225 -0.0725,-0.24375 -0.1225,-0.36125 -0.05,-0.1175 -0.1075,-0.2325 -0.1725,-0.34125 -0.0625,-0.11125 -0.13375,-0.2175 -0.21125,-0.31875 -0.0775,-0.10125 -0.1625,-0.1975 -0.25375,-0.2875 -0.09,-0.09 -0.185,-0.175 -0.28625,-0.2525 -0.10125,-0.0775 -0.2075,-0.14875 -0.31875,-0.2125 -0.11,-0.065 -0.22375,-0.12125 -0.34125,-0.17125 -0.11875,-0.0487 -0.23875,-0.09 -0.3625,-0.12375 -0.1225,-0.0337 -0.24875,-0.0613 -0.375,-0.0788 -0.12625,-0.0175 -0.25375,-0.0263 -0.38125,-0.025 l -61.46375,0 c -0.1275,0 -0.255,0.009 -0.38125,0.0263 -0.12625,0.0175 -0.25125,0.0437 -0.37375,0.0775 -0.12375,0.0325 -0.245,0.0738 -0.3625,0.12375 -0.1175,0.0488 -0.2325,0.10625 -0.3425,0.17125 -0.11,0.0637 -0.21625,0.135 -0.3175,0.2125 -0.10125,0.0775 -0.1975,0.1625 -0.28625,0.2525 -0.0912,0.09 -0.17625,0.18625 -0.25375,0.2875 -0.0788,0.10125 -0.14875,0.2075 -0.2125,0.31875 -0.065,0.10875 -0.12125,0.22375 -0.17125,0.34125 -0.0487,0.1175 -0.09,0.23875 -0.12375,0.36125 -0.035,0.12375 -0.0612,0.24875 -0.0788,0.375 -0.0175,0.12625 -0.0263,0.25375 -0.025,0.38125 l 0,0.0238 0,61.4175 0,0.0225 c 0,0.1275 0.01,0.255 0.0263,0.38125 0.0175,0.12625 0.0438,0.2525 0.0775,0.375 0.0325,0.12375 0.0738,0.245 0.12375,0.3625 0.0488,0.1175 0.10625,0.23125 0.17125,0.34125 0.0637,0.11125 0.135,0.2175 0.2125,0.31875 0.0775,0.10125 0.1625,0.19625 0.25375,0.28625 0.0888,0.0913 0.185,0.175 0.28625,0.25375 0.10125,0.0775 0.2075,0.14875 0.3175,0.21125 0.11,0.065 0.225,0.1225 0.3425,0.17125 0.1175,0.05 0.23875,0.0912 0.3625,0.12375 0.1225,0.035 0.2475,0.0612 0.375,0.08 0.125,0.0175 0.25375,0.0263 0.38,0.025 l 0.0237,0 z"
       style="fill:#cc0000;fill-opacity:1;fill-rule:evenodd;stroke:#000000;stroke-width:0.27000001000000001;stroke-linecap:butt;stroke-linejoin:bevel;stroke-miterlimit:22.92600059999999800;stroke-opacity:1;stroke-dasharray:none"
       id="path20664" />
    <path
       d="m 576.46309,513.12691 -40.08625,-40.08625 0,40.08625 40.08625,0"
       style="fill:#ffffff;fill-opacity:1;fill-rule:evenodd;stroke:none"
       id="path20668" />
    <path
       d="m 583.62184,505.96816 0,-40.085 -40.085,0 40.085,40.085"
       style="fill:#ffffff;fill-opacity:1;fill-rule:evenodd;stroke:none"
       id="path20672" />
    <path
       d="m 538.07559,502.35566 1.7325,2.38875 c 0.36875,0.0362 0.7375,0.0637 1.1075,0.0838 0.36625,0.02 0.735,0.0162 1.10125,-0.0125 0.41875,-0.0375 0.83375,-0.11 1.24125,-0.21625 0.41,-0.10625 0.815,-0.23375 1.2125,-0.38 0.81875,-0.29375 1.61875,-0.63625 2.39625,-1.0275 0.77625,-0.39125 1.53625,-0.81375 2.2775,-1.2675 0.63125,-0.385 1.26375,-0.76875 1.8975,-1.15 0.63,-0.37875 1.28375,-0.7175 1.95625,-1.01375 0.5975,-0.26875 1.21625,-0.4875 1.85,-0.65375 0.645,-0.17 1.30125,-0.29 1.965,-0.35875 0.7675,-0.0987 1.54375,-0.1125 2.31375,-0.0412 0.75375,0.0663 1.4875,0.26875 2.1675,0.6 0.32625,0.14875 0.63875,0.325 0.93625,0.52375 0.3025,0.2025 0.59875,0.41125 0.88875,0.62875 0.855,-0.125 1.7075,-0.26 2.55875,-0.405 0.85,-0.145 1.69375,-0.32125 2.53,-0.52875 0.93375,-0.23625 1.8525,-0.5225 2.75375,-0.86 0.90375,-0.3375 1.7875,-0.72625 2.64625,-1.16375 0.8,-0.395 1.57625,-0.8375 2.3225,-1.325 0.74625,-0.4875 1.45375,-1.03125 2.11625,-1.62625 0.32625,-0.28375 0.64,-0.5825 0.93875,-0.89625 0.3,-0.31125 0.58125,-0.64 0.84375,-0.98375 0.35125,-0.45625 0.67125,-0.9375 0.9575,-1.43875 0.28625,-0.5025 0.54875,-1.0175 0.78625,-1.545 0.2225,-0.48375 0.43125,-0.9725 0.62875,-1.4675 0.19625,-0.49375 0.3875,-0.98875 0.57625,-1.485 -0.67875,0.39875 -1.35875,0.79375 -2.04125,1.185 -0.6825,0.3925 -1.37125,0.77125 -2.0675,1.13875 -0.905,0.4775 -1.82375,0.9275 -2.755,1.3525 -0.93125,0.425 -1.87375,0.8275 -2.825,1.20625 -0.5,0.20125 -1.0025,0.3975 -1.5075,0.59 -0.50375,0.1925 -1.00875,0.3825 -1.515,0.5725 l -31.99125,9.57625"
       style="fill:#000000;fill-opacity:1;fill-rule:evenodd;stroke:none"
       id="path20676" />
    <path
       d="m 582.38934,486.03691 -21.1175,-0.23125 -6.16625,-5.49875 -0.33875,-0.27375 -0.34375,-0.2775 c -0.13125,-0.10875 -0.26625,-0.2125 -0.40625,-0.31125 -0.13625,-0.0962 -0.285,-0.17625 -0.44,-0.235 -0.16125,-0.0625 -0.33,-0.1025 -0.5025,-0.12 -0.17625,-0.0188 -0.35375,-0.03 -0.53125,-0.0337 l -6.23125,-0.55125 c -0.17375,-0.035 -0.3475,-0.0613 -0.52375,-0.0813 -0.17625,-0.0188 -0.35625,-0.0138 -0.53125,0.015 -0.13875,0.0225 -0.2725,0.0663 -0.39875,0.1275 -0.12125,0.0575 -0.22875,0.14375 -0.31125,0.25 -0.0525,0.065 -0.095,0.13875 -0.1275,0.21625 -0.0338,0.08 -0.065,0.16125 -0.0913,0.2425 l -1.24125,7.1875 c -0.0375,0.17125 -0.0738,0.3425 -0.10625,0.515 -0.0338,0.175 -0.0575,0.35125 -0.0738,0.52875 -0.02,0.21625 -0.0175,0.435 0.01,0.65 0.025,0.21 0.0913,0.4125 0.1975,0.59625 0.085,0.15375 0.195,0.29 0.3275,0.405 0.13375,0.11875 0.28125,0.22125 0.4375,0.30625 0.335,0.1825 0.6925,0.315 1.06375,0.39625 0.37,0.0812 0.74125,0.1625 1.1125,0.2425 0.4675,0.1075 0.9275,0.2475 1.37625,0.41875 0.44875,0.17125 0.89125,0.35625 1.32875,0.555 0.19,0.0837 0.38,0.16875 0.57,0.255 0.18875,0.0862 0.3775,0.17125 0.5675,0.25875 l 0.39375,1.32875 -8.79,2.4425 c -0.1325,0.0225 -0.265,0.0475 -0.395,0.0775 -0.13375,0.03 -0.265,0.07 -0.39125,0.12 -0.21125,0.0825 -0.40625,0.2 -0.57875,0.34625 -0.16625,0.13875 -0.2975,0.31625 -0.3775,0.51625 -0.0712,0.17 -0.1075,0.35125 -0.105,0.535 0.001,0.19375 0.0137,0.3875 0.0387,0.58125 -0.12625,0.005 -0.25125,0.0163 -0.37625,0.0337 -0.12125,0.0163 -0.24,0.0513 -0.35125,0.10125 -0.1725,0.0875 -0.32,0.21625 -0.43125,0.37375 -0.11625,0.16 -0.2,0.34125 -0.24625,0.53375 -0.04,0.1525 -0.06,0.30875 -0.0588,0.46625 10e-4,0.15625 0.01,0.3125 0.0263,0.46875 l 0.9275,1.75125 30.18625,-9.26125 c 0.48,-0.1625 0.95875,-0.3275 1.4375,-0.49375 0.47875,-0.16625 0.955,-0.3375 1.43,-0.51375 1.10875,-0.4125 2.20375,-0.86125 3.28375,-1.345 1.08,-0.485 2.1425,-1.005 3.1875,-1.56125 0.6225,-0.32625 1.23875,-0.6625 1.85125,-1.0075 0.6125,-0.34625 1.22125,-0.695 1.83,-1.04625"
       style="fill:#000000;fill-opacity:1;fill-rule:evenodd;stroke:none"
       id="path20680" />
    <path
       d="m 553.68059,491.92816 9.14,-2.48125 -7.855,-7.81125 -1.4,2.21375 c -0.06,0.105 -0.125,0.205 -0.19625,0.3025 -0.0662,0.0925 -0.15,0.17125 -0.24625,0.2325 -0.0913,0.0537 -0.1925,0.0888 -0.2975,0.105 -0.1075,0.0175 -0.2175,0.0212 -0.32625,0.01 -0.0725,-0.006 -0.145,-0.0163 -0.21625,-0.0325 -0.07,-0.015 -0.14,-0.0312 -0.21,-0.05 l -3.68375,-1.3825 -0.595,3.6125 c 0,0.06 0.002,0.12 0.007,0.18 0.004,0.0587 0.0138,0.11875 0.03,0.17625 0.02,0.0663 0.0487,0.13125 0.0862,0.19 0.0362,0.0575 0.0838,0.10875 0.13875,0.14875 0.06,0.0463 0.13,0.08 0.20375,0.10125 0.0763,0.0213 0.15375,0.0388 0.2325,0.0513 l 3.4875,1.1975 c 0.0925,0.0412 0.18375,0.0838 0.27375,0.1275 0.0913,0.045 0.18125,0.0925 0.2675,0.14625 0.1025,0.0625 0.19875,0.13375 0.28625,0.215 0.0875,0.0788 0.1625,0.17 0.2225,0.27125 0.045,0.0763 0.0825,0.15625 0.11125,0.24 0.0287,0.0838 0.0562,0.17 0.08,0.2575 l 0.45875,1.97875"
       style="fill:#cc0000;fill-opacity:1;fill-rule:evenodd;stroke:none"
       id="path20684" />
    <path
       d="m 548.95309,480.34066 -0.19125,0.86375 3.175,1.57375 c 0.0488,0.0163 0.0975,0.0325 0.14625,0.0462 0.0512,0.015 0.1025,0.0275 0.155,0.035 0.0475,0.009 0.0962,0.0112 0.14375,0.009 0.045,-10e-4 0.09,-0.0138 0.12875,-0.035 0.0362,-0.02 0.0675,-0.0475 0.0913,-0.0812 0.0263,-0.035 0.0512,-0.0725 0.0738,-0.11 l 1.125,-1.64 c 0.01,-0.0713 0.0137,-0.14375 0.0125,-0.215 0,-0.0675 -0.015,-0.135 -0.045,-0.195 -0.0275,-0.0525 -0.0663,-0.0987 -0.11375,-0.135 -0.0475,-0.0375 -0.10125,-0.065 -0.16,-0.0838 -0.0475,-0.015 -0.0975,-0.0238 -0.1475,-0.0263 -0.0513,-0.002 -0.10125,-0.002 -0.1525,0 l -4.24125,-0.006"
       style="fill:#cc0000;fill-opacity:1;fill-rule:evenodd;stroke:none"
       id="path20688" />
    <path
       d="m 537.78059,508.49441 c 0.44375,0.16 0.89125,0.30875 1.34125,0.44625 0.44625,0.13625 0.9025,0.235 1.36375,0.2975 0.48,0.0575 0.9625,0.0688 1.44375,0.035 0.48625,-0.0337 0.97,-0.0962 1.44875,-0.18875 0.74125,-0.13375 1.4725,-0.3175 2.18875,-0.55 0.71375,-0.23125 1.41375,-0.50375 2.09625,-0.81625 0.53375,-0.23625 1.05875,-0.495 1.57125,-0.775 0.5125,-0.28125 1.01375,-0.58375 1.5,-0.90875 0.46125,-0.30875 0.91875,-0.62375 1.3725,-0.94375 0.4525,-0.32 0.91875,-0.6175 1.39875,-0.8925 0.57875,-0.33625 1.18875,-0.615 1.8225,-0.82875 0.64625,-0.21875 1.315,-0.36375 1.9925,-0.43375 0.51375,-0.07 1.035,-0.0813 1.55125,-0.0337 0.5,0.0437 0.9875,0.185 1.43375,0.41625 0.325,0.165 0.6275,0.37125 0.89875,0.61375 0.2775,0.2475 0.5425,0.5075 0.795,0.78 0.18375,0.1925 0.36625,0.38625 0.54875,0.58 0.18,0.1925 0.36,0.385 0.53875,0.57875 0.47125,-0.24375 0.94875,-0.475 1.43125,-0.695 0.48,-0.21875 0.97625,-0.4025 1.4825,-0.55 0.40125,-0.11375 0.81,-0.195 1.22375,-0.245 0.41375,-0.05 0.83,-0.0637 1.24625,-0.0412 0.39625,0.0175 0.78875,0.0675 1.17625,0.14875 0.3875,0.08 0.76875,0.1875 1.14125,0.32 0.495,0.17625 0.9825,0.37375 1.46125,0.59375 0.4775,0.22 0.96125,0.425 1.45125,0.61625 0.575,0.225 1.1675,0.4025 1.77125,0.53 0.60875,0.12875 1.2275,0.20375 1.84875,0.2225 0.68125,0.0362 1.365,-10e-4 2.0375,-0.1125 0.6675,-0.10875 1.3175,-0.30625 1.93375,-0.58625 0.215,-0.0925 0.4275,-0.19375 0.635,-0.3025 0.2075,-0.11 0.41375,-0.22125 0.61875,-0.33625 l 0,-2.51375 c -0.3325,0.2075 -0.66875,0.40875 -1.00875,0.6025 -0.34,0.19375 -0.69125,0.3675 -1.05125,0.5175 -0.485,0.19875 -0.99,0.345 -1.50625,0.4375 -0.51625,0.0937 -1.04125,0.13 -1.56625,0.10875 -0.5025,-0.0113 -1.0025,-0.0713 -1.49375,-0.17875 -0.49,-0.1075 -0.9725,-0.2525 -1.44125,-0.4325 -0.50125,-0.19125 -0.995,-0.39875 -1.4825,-0.6225 -0.48625,-0.2225 -0.9825,-0.425 -1.485,-0.6075 -0.475,-0.17375 -0.96375,-0.31125 -1.45875,-0.41125 -0.4975,-0.10125 -1.0025,-0.16125 -1.51,-0.17875 -0.52375,-0.0275 -1.05,-0.009 -1.57125,0.0525 -0.52,0.0613 -1.035,0.16375 -1.53875,0.3075 -0.32375,0.0888 -0.645,0.18875 -0.96125,0.30125 -0.3175,0.1125 -0.6325,0.22875 -0.94625,0.35 -0.0987,-0.1025 -0.1975,-0.2025 -0.2975,-0.30375 -0.0987,-0.10125 -0.2,-0.2 -0.3025,-0.2975 -0.24875,-0.23875 -0.51125,-0.4625 -0.7875,-0.66875 -0.27375,-0.20625 -0.565,-0.3875 -0.87125,-0.54125 -0.63625,-0.32625 -1.3275,-0.5325 -2.03875,-0.61 -0.72625,-0.0813 -1.45875,-0.0738 -2.18375,0.0225 -0.8225,0.0825 -1.63375,0.25625 -2.41875,0.52 -0.7725,0.26 -1.515,0.60125 -2.215,1.02 -0.49625,0.2875 -0.97875,0.59625 -1.44875,0.9275 -0.47,0.33 -0.945,0.655 -1.425,0.9725 -0.43875,0.2875 -0.88875,0.55875 -1.34875,0.81125 -0.46,0.25125 -0.93,0.48625 -1.4075,0.7 -0.6025,0.27875 -1.22,0.52125 -1.85125,0.72875 -0.63375,0.2075 -1.28125,0.37 -1.9375,0.48625 -0.36875,0.0725 -0.7425,0.125 -1.1175,0.15375 -0.37125,0.0288 -0.74375,0.0238 -1.1125,-0.0175 -0.51625,-0.0588 -1.0225,-0.1775 -1.51,-0.355 -0.4975,-0.18 -0.9875,-0.38 -1.47,-0.5975 l 0,2.3775"
       style="fill:#000000;fill-opacity:1;fill-rule:evenodd;stroke:none"
       id="path20692" />
    <path
       d="m 549.23059,475.22816 c 0,0.115 -0.009,0.22875 -0.0263,0.3425 -0.0175,0.11375 -0.045,0.225 -0.0812,0.3325 -0.0338,0.11 -0.0775,0.215 -0.13,0.3175 -0.0513,0.10125 -0.11125,0.19875 -0.18,0.29125 -0.0675,0.0937 -0.14125,0.18125 -0.2225,0.2625 -0.0813,0.0813 -0.16875,0.155 -0.2625,0.2225 -0.0925,0.0675 -0.19,0.1275 -0.29125,0.18 -0.1025,0.0525 -0.2075,0.0962 -0.3175,0.13 -0.1075,0.0362 -0.22,0.0637 -0.3325,0.0825 -0.11375,0.0175 -0.2275,0.0263 -0.3425,0.025 -0.115,0.001 -0.22875,-0.007 -0.3425,-0.025 -0.1125,-0.0188 -0.225,-0.0462 -0.33375,-0.0825 -0.10875,-0.0337 -0.21375,-0.0775 -0.31625,-0.13 -0.10125,-0.0525 -0.19875,-0.1125 -0.29125,-0.18 -0.0937,-0.0675 -0.18125,-0.14125 -0.2625,-0.2225 -0.0813,-0.0813 -0.155,-0.17 -0.2225,-0.2625 -0.0675,-0.0925 -0.12875,-0.19 -0.18,-0.29125 -0.0525,-0.1025 -0.0963,-0.2075 -0.13,-0.3175 -0.0375,-0.1075 -0.0638,-0.22 -0.0825,-0.3325 -0.0175,-0.11375 -0.0263,-0.2275 -0.025,-0.3425 -10e-4,-0.115 0.008,-0.22875 0.025,-0.3425 0.0187,-0.11375 0.045,-0.225 0.0825,-0.33375 0.0337,-0.10875 0.0775,-0.215 0.13,-0.31625 0.0512,-0.10125 0.1125,-0.19875 0.18,-0.29125 0.0675,-0.0937 0.14125,-0.18125 0.2225,-0.2625 0.0812,-0.0813 0.16875,-0.155 0.2625,-0.2225 0.0925,-0.0675 0.19,-0.12875 0.29125,-0.18 0.1025,-0.0525 0.2075,-0.0962 0.31625,-0.13 0.10875,-0.0375 0.22125,-0.0637 0.33375,-0.0825 0.11375,-0.0175 0.2275,-0.0263 0.3425,-0.025 0.115,-10e-4 0.22875,0.008 0.3425,0.025 0.1125,0.0188 0.225,0.045 0.3325,0.0825 0.11,0.0337 0.215,0.0775 0.3175,0.13 0.10125,0.0513 0.19875,0.1125 0.29125,0.18 0.0937,0.0663 0.18125,0.14125 0.2625,0.2225 0.0812,0.0813 0.155,0.16875 0.2225,0.2625 0.0688,0.0925 0.12875,0.19 0.18,0.29125 0.0525,0.1025 0.0962,0.2075 0.13,0.31625 0.0362,0.10875 0.0637,0.22 0.0812,0.33375 0.0175,0.1125 0.0263,0.2275 0.0263,0.3425"
       style="fill:#000000;fill-opacity:1;fill-rule:evenodd;stroke:none"
       id="path20696" />
  </g>
</svg>
