<?xml version="1.0" encoding="UTF-8" standalone="no"?>
<!-- Created with Inkscape (http://www.inkscape.org/) -->

<svg
   xmlns:dc="http://purl.org/dc/elements/1.1/"
   xmlns:cc="http://creativecommons.org/ns#"
   xmlns:rdf="http://www.w3.org/1999/02/22-rdf-syntax-ns#"
   xmlns:svg="http://www.w3.org/2000/svg"
   xmlns="http://www.w3.org/2000/svg"
   xmlns:sodipodi="http://sodipodi.sourceforge.net/DTD/sodipodi-0.dtd"
   xmlns:inkscape="http://www.inkscape.org/namespaces/inkscape"
   width="71.182671"
   height="71.181427"
   id="svg14493"
   version="1.1"
   inkscape:version="0.47 r22583"
   sodipodi:docname="Neues Dokument 28">
  <defs
     id="defs14495" />
  <sodipodi:namedview
     id="base"
     pagecolor="#ffffff"
     bordercolor="#666666"
     borderopacity="1.0"
     inkscape:pageopacity="0.0"
     inkscape:pageshadow="2"
     inkscape:zoom="7.3474222"
     inkscape:cx="35.591335"
     inkscape:cy="35.590714"
     inkscape:document-units="px"
     inkscape:current-layer="layer1"
     showgrid="false"
     inkscape:window-width="1280"
     inkscape:window-height="748"
     inkscape:window-x="-8"
     inkscape:window-y="-8"
     inkscape:window-maximized="1" />
  <metadata
     id="metadata14498">
    <rdf:RDF>
      <cc:Work
         rdf:about="">
        <dc:format>image/svg+xml</dc:format>
        <dc:type
           rdf:resource="http://purl.org/dc/dcmitype/StillImage" />
        <dc:title></dc:title>
      </cc:Work>
    </rdf:RDF>
  </metadata>
  <g
     inkscape:label="Ebene 1"
     inkscape:groupmode="layer"
     id="layer1"
     transform="translate(-378.69437,-356.77147)">
    <g
       id="g7844"
       transform="matrix(0,1.25,1.25,0,383.08446,427.75031)"
       style="stroke:#000000;fill:#ffffff">
      <path
         d="m 0,0 0,49.948 c -0.001,0.145 -0.011,0.29 -0.03,0.433 -0.02,0.143 -0.049,0.285 -0.089,0.425 -0.036,0.14 -0.083,0.278 -0.139,0.411 -0.056,0.133 -0.121,0.263 -0.195,0.387 -0.072,0.126 -0.153,0.247 -0.241,0.361 -0.088,0.115 -0.184,0.224 -0.287,0.326 -0.102,0.103 -0.21,0.199 -0.325,0.287 -0.115,0.088 -0.236,0.169 -0.361,0.24 -0.125,0.074 -0.255,0.139 -0.388,0.194 -0.134,0.057 -0.271,0.103 -0.411,0.141 -0.139,0.039 -0.282,0.069 -0.425,0.09 -0.143,0.02 -0.288,0.03 -0.432,0.029 l -49.975,0 c -0.145,-10e-4 -0.289,-0.011 -0.432,-0.031 -0.144,-0.019 -0.286,-0.049 -0.426,-0.088 -0.14,-0.036 -0.277,-0.083 -0.411,-0.139 -0.133,-0.056 -0.263,-0.122 -0.387,-0.196 -0.126,-0.072 -0.246,-0.152 -0.361,-0.24 -0.115,-0.088 -0.223,-0.184 -0.325,-0.287 -0.103,-0.102 -0.199,-0.211 -0.288,-0.326 -0.088,-0.114 -0.168,-0.235 -0.24,-0.361 -0.073,-0.124 -0.138,-0.254 -0.194,-0.387 -0.056,-0.134 -0.103,-0.271 -0.14,-0.411 -0.04,-0.14 -0.07,-0.282 -0.09,-0.425 -0.02,-0.143 -0.03,-0.288 -0.029,-0.433 l 0,-49.974 c 0,-0.145 0.011,-0.29 0.03,-0.433 0.019,-0.144 0.049,-0.286 0.089,-0.425 0.036,-0.14 0.082,-0.278 0.138,-0.411 0.057,-0.134 0.122,-0.263 0.196,-0.388 0.072,-0.125 0.152,-0.246 0.24,-0.361 0.089,-0.114 0.185,-0.223 0.288,-0.325 0.102,-0.103 0.21,-0.199 0.325,-0.287 0.115,-0.089 0.235,-0.169 0.361,-0.241 0.125,-0.073 0.254,-0.138 0.388,-0.194 0.133,-0.056 0.271,-0.103 0.41,-0.14 0.14,-0.04 0.282,-0.07 0.426,-0.09 0.143,-0.02 0.287,-0.03 0.432,-0.029 l 49.975,0 c 0.144,10e-4 0.289,0.011 0.432,0.031 0.144,0.019 0.286,0.048 0.425,0.088 0.14,0.036 0.278,0.083 0.411,0.139 0.134,0.056 0.263,0.121 0.388,0.195 0.125,0.072 0.246,0.153 0.361,0.241 0.115,0.088 0.223,0.184 0.325,0.287 0.103,0.102 0.199,0.211 0.287,0.325 0.088,0.115 0.169,0.236 0.241,0.361 0.073,0.125 0.138,0.255 0.194,0.388 0.056,0.134 0.102,0.271 0.14,0.411 0.04,0.14 0.07,0.282 0.09,0.425 0.02,0.143 0.03,0.288 0.029,0.433 L 0,0 z"
         style="fill:#ffffff;stroke:#000000;stroke-width:0.21600000999999999;stroke-linecap:butt;stroke-linejoin:bevel;stroke-miterlimit:22.92600059999999800;stroke-opacity:1;stroke-dasharray:none"
         id="path7846" />
      <g
         id="g7848"
         transform="translate(0.054,0)"
         style="stroke:#000000;fill:#ffffff">
        <path
           d="M 0,0 0,-0.027 C -0.001,-0.174 -0.011,-0.321 -0.031,-0.466 -0.05,-0.612 -0.081,-0.757 -0.12,-0.898 -0.157,-1.041 -0.205,-1.18 -0.262,-1.316 -0.319,-1.452 -0.385,-1.583 -0.46,-1.71 -0.534,-1.837 -0.615,-1.96 -0.705,-2.076 -0.795,-2.193 -0.892,-2.303 -0.997,-2.407 -1.1,-2.512 -1.21,-2.609 -1.327,-2.699 -1.444,-2.789 -1.566,-2.87 -1.694,-2.943 -1.821,-3.018 -1.953,-3.084 -2.088,-3.141 -2.224,-3.198 -2.363,-3.245 -2.506,-3.283 -2.647,-3.323 -2.792,-3.354 -2.938,-3.374 -3.083,-3.395 -3.23,-3.405 -3.377,-3.404 l -49.975,0 c -0.147,10e-4 -0.294,0.011 -0.44,0.031 -0.146,0.02 -0.29,0.05 -0.431,0.09 -0.143,0.037 -0.283,0.084 -0.419,0.141 -0.135,0.057 -0.267,0.123 -0.393,0.199 -0.128,0.073 -0.25,0.154 -0.367,0.244 -0.117,0.09 -0.227,0.187 -0.331,0.292 -0.104,0.103 -0.202,0.214 -0.291,0.33 -0.09,0.117 -0.172,0.24 -0.245,0.367 -0.075,0.127 -0.14,0.259 -0.197,0.394 -0.057,0.136 -0.104,0.276 -0.143,0.418 -0.04,0.141 -0.071,0.286 -0.091,0.432 -0.021,0.145 -0.03,0.292 -0.029,0.439 l 0,49.976 c 10e-4,0.147 0.011,0.294 0.03,0.439 0.02,0.146 0.05,0.29 0.09,0.432 0.037,0.143 0.084,0.282 0.142,0.418 0.057,0.136 0.123,0.267 0.198,0.394 0.073,0.127 0.155,0.25 0.245,0.366 0.089,0.117 0.187,0.228 0.291,0.331 0.104,0.105 0.214,0.202 0.331,0.292 0.117,0.089 0.239,0.171 0.367,0.245 0.127,0.074 0.258,0.14 0.394,0.197 0.136,0.057 0.275,0.104 0.418,0.142 0.141,0.041 0.286,0.071 0.431,0.092 0.146,0.02 0.293,0.03 0.44,0.029 l 49.975,0 c 0.147,-10e-4 0.294,-0.011 0.44,-0.031 0.145,-0.02 0.29,-0.05 0.431,-0.09 0.143,-0.037 0.282,-0.084 0.418,-0.141 0.136,-0.057 0.267,-0.123 0.394,-0.198 0.128,-0.074 0.25,-0.156 0.367,-0.245 0.116,-0.09 0.227,-0.187 0.33,-0.292 0.105,-0.103 0.203,-0.214 0.292,-0.331 0.09,-0.116 0.172,-0.239 0.245,-0.366 0.074,-0.127 0.14,-0.259 0.197,-0.394 0.057,-0.136 0.104,-0.276 0.143,-0.418 0.04,-0.142 0.07,-0.286 0.091,-0.432 0.02,-0.145 0.03,-0.292 0.029,-0.439 L 0,0 z"
           style="fill:#ffffff;stroke:#000000;stroke-width:0.21600000999999999;stroke-linecap:butt;stroke-linejoin:bevel;stroke-miterlimit:22.92600059999999800;stroke-opacity:1;stroke-dasharray:none"
           id="path7850" />
      </g>
    </g>
    <g
       id="g7840"
       transform="matrix(0,1.25,1.25,0,383.08446,426.12906)"
       style="stroke:#000000;fill:#cc0000;fill-opacity:1">
      <path
         d="m 0,0 0,-0.016 c -0.001,-0.089 -0.007,-0.177 -0.019,-0.265 -0.012,-0.088 -0.03,-0.175 -0.054,-0.261 -0.022,-0.086 -0.051,-0.17 -0.085,-0.252 -0.034,-0.082 -0.074,-0.161 -0.12,-0.237 C -0.322,-1.108 -0.371,-1.182 -0.425,-1.253 -0.48,-1.323 -0.538,-1.39 -0.602,-1.452 -0.664,-1.515 -0.73,-1.574 -0.801,-1.628 -0.871,-1.682 -0.945,-1.731 -1.022,-1.775 -1.098,-1.82 -1.178,-1.86 -1.26,-1.894 -1.342,-1.929 -1.426,-1.957 -1.511,-1.98 -1.597,-2.005 -1.684,-2.023 -1.772,-2.035 -1.86,-2.048 -1.949,-2.054 -2.037,-2.053 l -49.954,0 c -0.089,0 -0.178,0.007 -0.265,0.019 -0.088,0.011 -0.175,0.029 -0.261,0.054 -0.086,0.022 -0.17,0.05 -0.252,0.085 -0.082,0.034 -0.161,0.074 -0.238,0.12 -0.076,0.044 -0.15,0.093 -0.221,0.147 -0.07,0.054 -0.136,0.113 -0.199,0.176 -0.063,0.062 -0.122,0.129 -0.176,0.199 -0.054,0.071 -0.103,0.145 -0.148,0.222 -0.044,0.076 -0.084,0.156 -0.118,0.237 -0.035,0.082 -0.063,0.166 -0.086,0.252 -0.025,0.086 -0.043,0.173 -0.055,0.261 -0.013,0.088 -0.019,0.176 -0.018,0.265 l 0,49.954 c 0,0.089 0.006,0.177 0.018,0.265 0.012,0.088 0.03,0.175 0.055,0.261 0.022,0.086 0.05,0.17 0.085,0.252 0.034,0.082 0.074,0.161 0.119,0.238 0.045,0.076 0.094,0.15 0.148,0.22 0.054,0.071 0.113,0.137 0.176,0.2 0.063,0.063 0.129,0.122 0.199,0.176 0.071,0.054 0.145,0.103 0.221,0.147 0.077,0.045 0.156,0.085 0.238,0.119 0.082,0.034 0.166,0.063 0.252,0.086 0.086,0.024 0.173,0.043 0.261,0.055 0.087,0.013 0.176,0.019 0.265,0.018 l 49.954,0 c 0.088,0 0.177,-0.006 0.265,-0.018 0.088,-0.012 0.175,-0.031 0.261,-0.055 0.085,-0.022 0.17,-0.05 0.252,-0.085 0.081,-0.034 0.161,-0.074 0.237,-0.12 0.077,-0.044 0.151,-0.093 0.221,-0.147 0.07,-0.054 0.137,-0.113 0.199,-0.176 0.064,-0.063 0.123,-0.129 0.177,-0.2 0.054,-0.07 0.103,-0.144 0.147,-0.22 0.045,-0.077 0.085,-0.156 0.119,-0.238 0.034,-0.082 0.063,-0.166 0.086,-0.252 0.024,-0.086 0.043,-0.173 0.055,-0.261 C -0.005,50.115 0,50.027 0,49.938 L 0,49.922 0,0 z"
         style="fill:#cc0000;fill-opacity:1;fill-rule:evenodd;stroke:#000000;stroke-width:0.21600000999999999;stroke-linecap:butt;stroke-linejoin:bevel;stroke-miterlimit:22.92600059999999800;stroke-opacity:1;stroke-dasharray:none"
         id="path7842" />
    </g>
    <path
       d="m 390.64821,368.72531 0,47.275 47.275,0 0,-47.275 -47.275,0 z"
       style="fill:#ffffff;fill-opacity:1;fill-rule:nonzero;stroke:none"
       id="path7852" />
    <g
       id="g7854"
       transform="matrix(0,1.25,1.25,0,411.93446,400.46281)"
       style="fill:#000000">
      <path
         d="M 0,0 1.337,0 1.404,0.009 C 1.426,0.012 1.448,0.016 1.47,0.019 1.649,0.048 1.825,0.099 1.992,0.17 2.16,0.242 2.316,0.339 2.454,0.458 2.65,0.613 2.808,0.809 2.919,1.032 3.033,1.258 3.097,1.506 3.108,1.759 3.131,2.012 3.101,2.266 3.019,2.506 2.941,2.741 2.811,2.955 2.639,3.133 2.542,3.239 2.432,3.333 2.312,3.412 2.19,3.492 2.063,3.563 1.93,3.624 1.853,3.661 1.774,3.695 1.693,3.723 1.613,3.751 1.529,3.768 1.445,3.775 1.424,3.777 1.404,3.779 1.383,3.779 1.362,3.78 1.342,3.781 1.321,3.781 l -6.519,0 C -5.228,3.78 -5.258,3.779 -5.288,3.778 -5.318,3.777 -5.348,3.775 -5.377,3.773 -5.554,3.757 -5.726,3.714 -5.889,3.645 -6.054,3.576 -6.207,3.483 -6.343,3.367 -6.491,3.252 -6.619,3.113 -6.723,2.957 -6.826,2.801 -6.907,2.631 -6.961,2.452 -7.028,2.251 -7.061,2.041 -7.058,1.83 -7.056,1.616 -7.015,1.405 -6.938,1.205 -6.853,0.959 -6.718,0.733 -6.54,0.543 -6.369,0.355 -6.153,0.214 -5.913,0.132 -5.866,0.115 -5.819,0.099 -5.772,0.085 -5.724,0.072 -5.676,0.059 -5.628,0.047 l 0,-3.389 -14.197,0 0,10.915 3.563,0 0,-7.567 7.093,0 c -0.101,0.126 -0.2,0.254 -0.297,0.383 -0.097,0.129 -0.189,0.263 -0.274,0.4 -0.207,0.336 -0.366,0.699 -0.474,1.079 -0.109,0.382 -0.163,0.779 -0.161,1.176 -0.01,0.456 0.053,0.911 0.188,1.346 0.133,0.434 0.335,0.844 0.598,1.214 0.206,0.309 0.451,0.59 0.729,0.835 0.279,0.247 0.586,0.46 0.915,0.635 0.241,0.136 0.495,0.248 0.758,0.335 0.26,0.086 0.53,0.137 0.803,0.153 0.04,0.003 0.08,0.005 0.12,0.007 0.04,0.001 0.08,0.003 0.12,0.004 l 7.561,0 0.104,-0.01 C 1.555,7.56 1.59,7.557 1.624,7.553 1.965,7.519 2.303,7.459 2.635,7.372 2.967,7.285 3.291,7.167 3.601,7.018 4.108,6.792 4.576,6.487 4.987,6.114 5.401,5.741 5.755,5.306 6.037,4.826 6.282,4.44 6.477,4.024 6.617,3.589 6.756,3.153 6.839,2.701 6.864,2.245 6.911,1.632 6.858,1.017 6.704,0.422 6.554,-0.173 6.302,-0.737 5.959,-1.246 5.676,-1.7 5.325,-2.108 4.918,-2.455 4.511,-2.803 4.057,-3.092 3.569,-3.312 3.257,-3.464 2.931,-3.584 2.596,-3.671 2.264,-3.757 1.923,-3.803 1.58,-3.808 1.545,-3.809 1.51,-3.81 1.475,-3.81 1.441,-3.811 1.405,-3.811 1.371,-3.811 L 0,-3.811 0,0 z"
         style="fill:#000000;fill-opacity:1;fill-rule:evenodd;stroke:#231f20;stroke-width:0.21600000999999999;stroke-linecap:butt;stroke-linejoin:bevel;stroke-miterlimit:22.92600059999999800;stroke-opacity:1;stroke-dasharray:none"
         id="path7856" />
    </g>
  </g>
</svg>
