<?xml version="1.0" encoding="UTF-8" standalone="no"?>
<!-- Created with Inkscape (http://www.inkscape.org/) -->

<svg
   xmlns:dc="http://purl.org/dc/elements/1.1/"
   xmlns:cc="http://creativecommons.org/ns#"
   xmlns:rdf="http://www.w3.org/1999/02/22-rdf-syntax-ns#"
   xmlns:svg="http://www.w3.org/2000/svg"
   xmlns="http://www.w3.org/2000/svg"
   xmlns:sodipodi="http://sodipodi.sourceforge.net/DTD/sodipodi-0.dtd"
   xmlns:inkscape="http://www.inkscape.org/namespaces/inkscape"
   width="71.13633"
   height="71.136421"
   id="svg12171"
   version="1.1"
   inkscape:version="0.47 r22583"
   sodipodi:docname="A.9 Vermeidung von Wellenschlag oder Sogwirkung.svg">
  <defs
     id="defs12173" />
  <sodipodi:namedview
     id="base"
     pagecolor="#ffffff"
     bordercolor="#666666"
     borderopacity="1.0"
     inkscape:pageopacity="0.0"
     inkscape:pageshadow="2"
     inkscape:zoom="7.3520707"
     inkscape:cx="35.568165"
     inkscape:cy="35.568211"
     inkscape:document-units="px"
     inkscape:current-layer="layer1"
     showgrid="false"
     inkscape:window-width="1280"
     inkscape:window-height="748"
     inkscape:window-x="-8"
     inkscape:window-y="-8"
     inkscape:window-maximized="1" />
  <metadata
     id="metadata12176">
    <rdf:RDF>
      <cc:Work
         rdf:about="">
        <dc:format>image/svg+xml</dc:format>
        <dc:type
           rdf:resource="http://purl.org/dc/dcmitype/StillImage" />
        <dc:title />
      </cc:Work>
    </rdf:RDF>
  </metadata>
  <g
     inkscape:label="Ebene 1"
     inkscape:groupmode="layer"
     id="layer1"
     transform="translate(372.71102,248.92031)">
    <path
       d="m -368.32349,-177.98648 62.395,0 c 0.18125,-0.001 0.36125,-0.0137 0.54,-0.0375 0.18,-0.025 0.3575,-0.0613 0.53125,-0.11125 0.175,-0.045 0.3475,-0.1025 0.51375,-0.17375 0.16625,-0.07 0.32875,-0.15125 0.48375,-0.24375 0.1575,-0.09 0.3075,-0.19 0.45125,-0.3 0.14375,-0.11 0.27875,-0.23125 0.40625,-0.35875 0.12875,-0.1275 0.24875,-0.26375 0.35875,-0.40625 0.11,-0.14375 0.21,-0.295 0.3,-0.45125 0.0925,-0.15625 0.17375,-0.3175 0.2425,-0.485 0.07,-0.16625 0.12875,-0.3375 0.17625,-0.5125 0.0487,-0.175 0.0863,-0.3525 0.11125,-0.53125 0.025,-0.17875 0.0375,-0.36 0.0362,-0.54 l 0,-62.42875 c 0,-0.18 -0.0138,-0.36125 -0.0375,-0.54 -0.0238,-0.18 -0.0613,-0.3575 -0.11,-0.53125 -0.0462,-0.175 -0.10375,-0.34625 -0.17375,-0.51375 -0.07,-0.16625 -0.1525,-0.32875 -0.245,-0.48375 -0.09,-0.15625 -0.19,-0.3075 -0.3,-0.45125 -0.11,-0.1425 -0.23,-0.27875 -0.35875,-0.40625 -0.1275,-0.12875 -0.2625,-0.24875 -0.40625,-0.35875 -0.14375,-0.11 -0.29375,-0.21 -0.45125,-0.3 -0.155,-0.0913 -0.3175,-0.1725 -0.485,-0.2425 -0.16625,-0.07 -0.3375,-0.12875 -0.5125,-0.175 -0.17375,-0.05 -0.35125,-0.0875 -0.53125,-0.1125 -0.17875,-0.025 -0.35875,-0.0375 -0.54,-0.0362 l -62.4275,0 c -0.18125,0.001 -0.3625,0.0137 -0.54125,0.0375 -0.17875,0.025 -0.35625,0.0613 -0.53125,0.11125 -0.175,0.045 -0.34625,0.1025 -0.5125,0.1725 -0.1675,0.0712 -0.32875,0.1525 -0.485,0.245 -0.15625,0.09 -0.3075,0.19 -0.45,0.3 -0.14375,0.11 -0.27875,0.23 -0.40625,0.35875 -0.12875,0.1275 -0.24875,0.26375 -0.36,0.40625 -0.11,0.14375 -0.21,0.29375 -0.3,0.45125 -0.0912,0.15625 -0.1725,0.3175 -0.2425,0.485 -0.07,0.16625 -0.12875,0.33875 -0.175,0.5125 -0.05,0.175 -0.0875,0.3525 -0.1125,0.53125 -0.025,0.17875 -0.0375,0.36 -0.0362,0.54 l 0,62.42875 c 10e-4,0.18 0.0138,0.36125 0.0387,0.54 0.0238,0.17875 0.0613,0.35625 0.11,0.53125 0.045,0.175 0.10375,0.34625 0.17375,0.51375 0.07,0.16625 0.15125,0.3275 0.24375,0.48375 0.09,0.15625 0.19,0.3075 0.30125,0.45125 0.11,0.1425 0.23,0.27875 0.35875,0.40625 0.12625,0.12875 0.2625,0.24875 0.40625,0.35875 0.1425,0.11 0.29375,0.21 0.45,0.3 0.15625,0.0913 0.3175,0.1725 0.485,0.2425 0.16625,0.07 0.33875,0.12875 0.5125,0.175 0.175,0.05 0.3525,0.0875 0.5325,0.1125 0.17875,0.025 0.35875,0.0375 0.54,0.0362 l 0.0325,0 z"
       style="fill:none;stroke:#231f20;stroke-width:0.27000001;stroke-linecap:butt;stroke-linejoin:bevel;stroke-miterlimit:22.9260006;stroke-opacity:1;stroke-dasharray:none"
       id="path20190" />
    <path
       id="path20194"
       style="fill:none;stroke:#000000;stroke-width:0.27000001000000001;stroke-linecap:butt;stroke-linejoin:bevel;stroke-miterlimit:22.92600059999999800;stroke-opacity:1;stroke-dasharray:none"
       d="m -368.32349,-177.91898 -0.0337,0 c -0.18375,-0.001 -0.3675,-0.0137 -0.54875,-0.0387 -0.1825,-0.0238 -0.3625,-0.0625 -0.54,-0.11125 -0.1775,-0.0462 -0.35125,-0.105 -0.52125,-0.1775 -0.17,-0.0713 -0.33375,-0.15375 -0.4925,-0.2475 -0.15875,-0.0913 -0.3125,-0.19375 -0.4575,-0.305 -0.14625,-0.1125 -0.28375,-0.235 -0.4125,-0.365 -0.13125,-0.13 -0.25375,-0.2675 -0.365,-0.4125 -0.1125,-0.14625 -0.215,-0.29875 -0.305,-0.45875 -0.0937,-0.15875 -0.17625,-0.3225 -0.2475,-0.4925 -0.07,-0.16875 -0.13,-0.34375 -0.1775,-0.52125 -0.05,-0.1775 -0.0888,-0.3575 -0.11375,-0.54 -0.0262,-0.18125 -0.0387,-0.365 -0.0375,-0.54875 l 0,-62.42875 c 10e-4,-0.18375 0.0138,-0.3675 0.0387,-0.54875 0.025,-0.1825 0.0625,-0.3625 0.1125,-0.54 0.0462,-0.1775 0.105,-0.3525 0.17625,-0.5225 0.0713,-0.16875 0.15375,-0.3325 0.24875,-0.49125 0.0913,-0.15875 0.1925,-0.3125 0.305,-0.4575 0.11125,-0.14625 0.23375,-0.28375 0.365,-0.41375 0.12875,-0.13 0.26625,-0.2525 0.4125,-0.36375 0.145,-0.1125 0.29875,-0.215 0.4575,-0.30625 0.15875,-0.0925 0.32375,-0.175 0.4925,-0.24625 0.17,-0.0712 0.34375,-0.13 0.52125,-0.1775 0.1775,-0.0512 0.3575,-0.0888 0.54,-0.115 0.1825,-0.025 0.365,-0.0375 0.54875,-0.0363 l 62.42875,0 c 0.185,0.001 0.3675,0.0138 0.55,0.0388 0.18125,0.025 0.3625,0.0613 0.53875,0.1125 0.17875,0.045 0.3525,0.105 0.5225,0.17625 0.17,0.0712 0.33375,0.15375 0.49125,0.2475 0.16,0.0913 0.3125,0.19375 0.45875,0.30625 0.145,0.11125 0.28375,0.23375 0.4125,0.36375 0.13125,0.13 0.2525,0.2675 0.365,0.41375 0.11125,0.145 0.21375,0.29875 0.305,0.4575 0.0937,0.15875 0.17625,0.3225 0.2475,0.4925 0.07,0.17 0.13,0.34375 0.1775,0.52125 0.05,0.1775 0.0888,0.3575 0.11375,0.54 0.0263,0.18125 0.0375,0.365 0.0362,0.54875 l 0,62.42875 c -10e-4,0.18375 -0.0138,0.3675 -0.0375,0.54875 -0.025,0.1825 -0.0625,0.3625 -0.1125,0.54 -0.0462,0.1775 -0.105,0.3525 -0.1775,0.52125 -0.0713,0.17 -0.15375,0.33375 -0.2475,0.4925 -0.0913,0.16 -0.19375,0.3125 -0.305,0.45875 -0.1125,0.145 -0.23375,0.2825 -0.365,0.4125 -0.12875,0.13 -0.2675,0.2525 -0.4125,0.365 -0.14625,0.11125 -0.29875,0.21375 -0.45875,0.305 -0.15875,0.0925 -0.3225,0.175 -0.4925,0.24625 -0.16875,0.0712 -0.34375,0.13 -0.52125,0.17875 -0.1775,0.05 -0.3575,0.0875 -0.54,0.11375 -0.18125,0.025 -0.36375,0.0375 -0.54875,0.0362 l -62.395,0 z" />
    <path
       d="m -368.32349,-179.60648 62.3625,0 0.02,0 c 0.11125,-0.001 0.22125,-0.009 0.33125,-0.0238 0.11,-0.015 0.21875,-0.0375 0.325,-0.0675 0.1075,-0.0275 0.2125,-0.0637 0.315,-0.10625 0.1025,-0.0438 0.20125,-0.0925 0.29625,-0.15 0.0962,-0.055 0.18875,-0.11625 0.27625,-0.18375 0.0888,-0.0675 0.17125,-0.14125 0.25,-0.22 0.0788,-0.0775 0.15125,-0.16125 0.22,-0.24875 0.0675,-0.0888 0.12875,-0.18125 0.18375,-0.27625 0.0563,-0.0962 0.10625,-0.195 0.14875,-0.2975 0.0425,-0.1025 0.0788,-0.2075 0.1075,-0.315 0.03,-0.10625 0.0525,-0.215 0.0687,-0.325 0.015,-0.11 0.0225,-0.22 0.0213,-0.33125 l 0,-62.4025 c 0,-0.11125 -0.007,-0.22125 -0.0225,-0.33125 -0.015,-0.11 -0.0375,-0.21875 -0.0675,-0.325 -0.0275,-0.1075 -0.0638,-0.2125 -0.10625,-0.315 -0.0425,-0.1025 -0.0937,-0.20125 -0.15,-0.29625 -0.055,-0.0962 -0.11625,-0.18875 -0.18375,-0.27625 -0.0688,-0.0887 -0.14125,-0.17125 -0.22,-0.25 -0.0788,-0.0787 -0.16125,-0.1525 -0.25,-0.22 -0.0875,-0.0675 -0.17875,-0.12875 -0.27625,-0.18375 -0.095,-0.0563 -0.19375,-0.10625 -0.29625,-0.14875 -0.1025,-0.0425 -0.2075,-0.0788 -0.315,-0.1075 -0.10625,-0.03 -0.215,-0.0525 -0.325,-0.0687 -0.11,-0.015 -0.22125,-0.0225 -0.33125,-0.0225 l -62.4025,0 c -0.11125,0.001 -0.22125,0.009 -0.33125,0.0238 -0.11,0.015 -0.21875,0.0375 -0.325,0.0675 -0.1075,0.0275 -0.21375,0.0637 -0.315,0.10625 -0.1025,0.0425 -0.20125,0.0937 -0.2975,0.15 -0.0962,0.055 -0.1875,0.11625 -0.27625,0.18375 -0.0875,0.0688 -0.17125,0.14125 -0.24875,0.22 -0.0787,0.0788 -0.1525,0.16125 -0.22,0.25 -0.0675,0.0875 -0.12875,0.17875 -0.18375,0.27625 -0.0562,0.095 -0.10625,0.19375 -0.14875,0.29625 -0.0425,0.1025 -0.0788,0.2075 -0.1075,0.315 -0.03,0.10625 -0.0538,0.215 -0.0688,0.325 -0.0163,0.11 -0.0225,0.22125 -0.0225,0.33125 l 0,0.02 0,62.3625 0,0.02 c 10e-4,0.11125 0.009,0.22125 0.0238,0.33125 0.015,0.11 0.0375,0.21875 0.0675,0.325 0.0275,0.1075 0.0637,0.2125 0.10625,0.315 0.0425,0.1025 0.0925,0.20125 0.15,0.2975 0.055,0.095 0.11625,0.1875 0.18375,0.27625 0.0675,0.0875 0.14125,0.17125 0.22,0.24875 0.0775,0.0788 0.16125,0.1525 0.24875,0.22 0.0888,0.0675 0.18,0.12875 0.27625,0.18375 0.0962,0.0563 0.195,0.10625 0.2975,0.14875 0.1025,0.0425 0.2075,0.0787 0.315,0.1075 0.10625,0.03 0.215,0.0538 0.325,0.0687 0.11,0.0163 0.22,0.0225 0.33125,0.0225 l 0.02,0 z"
       style="fill:#cc0000;fill-opacity:1;fill-rule:evenodd;stroke:#000000;stroke-width:0.27000001000000001;stroke-linecap:butt;stroke-linejoin:bevel;stroke-miterlimit:22.92600059999999800;stroke-opacity:1;stroke-dasharray:none"
       id="path20198" />
    <path
       d="m -319.83849,-190.61148 -40.085,-40.085 0,40.085 40.085,0"
       style="fill:#ffffff;fill-opacity:1;fill-rule:evenodd;stroke:none"
       id="path20202" />
    <path
       d="m -314.87849,-197.77023 0,-40.085 -40.085,0 40.085,40.085"
       style="fill:#ffffff;fill-opacity:1;fill-rule:evenodd;stroke:none"
       id="path20206" />
    <path
       d="m -359.42349,-206.93648 0,6.75125 c 0.39125,-0.004 0.7825,-0.01 1.175,-0.0188 0.3925,-0.009 0.785,-0.0225 1.17625,-0.0425 1.64125,-0.08 3.27,-0.305 4.87125,-0.67125 1.59625,-0.3625 3.145,-0.905 4.62,-1.615 0.8175,-0.37875 1.625,-0.78125 2.42,-1.20875 0.795,-0.42625 1.61375,-0.81 2.45,-1.14875 0.92625,-0.3775 1.88875,-0.6575 2.8725,-0.83375 0.9825,-0.17875 1.98125,-0.24375 2.9775,-0.195 1.1775,0.0425 2.345,0.22375 3.48,0.5425 1.145,0.32125 2.26875,0.71625 3.3625,1.1825 1.53625,0.655 3.07,1.3175 4.60125,1.9875 1.51125,0.66125 3.0875,1.1675 4.7025,1.50875 0.7,0.15875 1.41,0.27625 2.12375,0.3525 0.7175,0.0775 1.4375,0.12375 2.15875,0.14 0.26125,0.007 0.5225,0.0125 0.785,0.015 0.26125,0.003 0.5225,0.005 0.78375,0.005 l 0,-6.75125 c -0.39375,-0.006 -0.78875,-0.0138 -1.1825,-0.025 -0.39375,-0.0113 -0.78875,-0.03 -1.1825,-0.0575 -0.7325,-0.0513 -1.4625,-0.1425 -2.185,-0.27375 -0.72,-0.1325 -1.43125,-0.3125 -2.12625,-0.5425 -1.23625,-0.41625 -2.44,-0.92625 -3.59875,-1.525 -1.1625,-0.60125 -2.35,-1.15125 -3.56,-1.65125 -0.42625,-0.1775 -0.8575,-0.34125 -1.29625,-0.48875 -0.4375,-0.14875 -0.87875,-0.2825 -1.325,-0.40125 -1.00375,-0.27125 -2.02375,-0.4725 -3.05375,-0.60125 -1.035,-0.12875 -2.07625,-0.185 -3.11875,-0.16875 -0.8125,-0.002 -1.625,0.0437 -2.43125,0.13875 -0.80125,0.095 -1.59375,0.24875 -2.3725,0.46125 -1.64125,0.4725 -3.2325,1.10125 -4.75375,1.87625 -1.53375,0.78125 -3.11375,1.465 -4.7325,2.05125 -1.00625,0.37375 -2.0425,0.66125 -3.0975,0.86 -1.05375,0.19875 -2.12125,0.30875 -3.1925,0.33125 -0.225,0.007 -0.45,0.0125 -0.675,0.015 -0.22625,0.001 -0.45125,0.001 -0.67625,0.001 z"
       style="fill:#000000;fill-opacity:1;fill-rule:evenodd;stroke:#000000;stroke-width:0.27000001000000001;stroke-linecap:butt;stroke-linejoin:bevel;stroke-miterlimit:22.92600059999999800;stroke-opacity:1;stroke-dasharray:none"
       id="path20210" />
    <path
       d="m -359.42349,-220.44023 0,6.7525 c 0.39125,-0.005 0.7825,-0.0113 1.175,-0.02 0.3925,-0.009 0.785,-0.0225 1.17625,-0.0425 1.64125,-0.08 3.27,-0.305 4.87125,-0.67 1.59625,-0.36375 3.145,-0.905 4.62,-1.61625 0.8175,-0.37875 1.625,-0.78125 2.42,-1.2075 0.795,-0.4275 1.61375,-0.81125 2.45,-1.15 0.92625,-0.3775 1.88875,-0.65625 2.8725,-0.83375 0.9825,-0.1775 1.98125,-0.24375 2.9775,-0.195 1.1775,0.0425 2.345,0.22375 3.48,0.5425 1.145,0.32125 2.26875,0.71625 3.3625,1.1825 1.53625,0.655 3.07,1.31875 4.60125,1.9875 1.51125,0.66125 3.0875,1.1675 4.7025,1.50875 0.7,0.15875 1.41,0.27625 2.12375,0.3525 0.7175,0.0775 1.4375,0.12375 2.15875,0.14 0.26125,0.007 0.5225,0.0125 0.785,0.015 0.26125,0.002 0.5225,0.005 0.78375,0.006 l 0,-6.7525 c -0.39375,-0.006 -0.78875,-0.0138 -1.1825,-0.025 -0.39375,-0.0112 -0.78875,-0.03 -1.1825,-0.0575 -0.7325,-0.05 -1.46125,-0.1425 -2.185,-0.27375 -0.72,-0.1325 -1.43125,-0.3125 -2.12625,-0.5425 -1.23625,-0.41625 -2.44,-0.92625 -3.59875,-1.525 -1.1625,-0.60125 -2.35,-1.15125 -3.56,-1.65125 -0.42625,-0.1775 -0.8575,-0.34125 -1.29625,-0.48875 -0.4375,-0.14875 -0.87875,-0.28125 -1.325,-0.40125 -1.0025,-0.27125 -2.02375,-0.4725 -3.05375,-0.60125 -1.035,-0.12875 -2.07625,-0.185 -3.11875,-0.16875 -0.8125,-0.002 -1.625,0.0438 -2.43125,0.14 -0.80125,0.0937 -1.59375,0.24875 -2.3725,0.46 -1.64125,0.47375 -3.2325,1.10125 -4.75375,1.8775 -1.53375,0.78 -3.11375,1.465 -4.7325,2.05 -1.00625,0.37375 -2.0425,0.66125 -3.0975,0.86 -1.05375,0.19875 -2.12125,0.31 -3.1925,0.3325 -0.225,0.008 -0.45,0.0113 -0.675,0.0138 -0.22625,0.001 -0.45125,0.002 -0.67625,0.001 z"
       style="fill:#000000;fill-opacity:1;fill-rule:evenodd;stroke:#000000;stroke-width:0.27000001000000001;stroke-linecap:butt;stroke-linejoin:bevel;stroke-miterlimit:22.92600059999999800;stroke-opacity:1;stroke-dasharray:none"
       id="path20214" />
  </g>
</svg>
