<?xml version="1.0" encoding="UTF-8" standalone="no"?>
<!-- Created with Inkscape (http://www.inkscape.org/) -->

<svg
   xmlns:dc="http://purl.org/dc/elements/1.1/"
   xmlns:cc="http://creativecommons.org/ns#"
   xmlns:rdf="http://www.w3.org/1999/02/22-rdf-syntax-ns#"
   xmlns:svg="http://www.w3.org/2000/svg"
   xmlns="http://www.w3.org/2000/svg"
   xmlns:sodipodi="http://sodipodi.sourceforge.net/DTD/sodipodi-0.dtd"
   xmlns:inkscape="http://www.inkscape.org/namespaces/inkscape"
   width="73.5"
   height="71.137848"
   id="svg7057"
   version="1.1"
   inkscape:version="0.47 r22583"
   sodipodi:docname="A.1a Gesperrte Wasserflächen.svg">
  <defs
     id="defs7059">
    <inkscape:perspective
       sodipodi:type="inkscape:persp3d"
       inkscape:vp_x="0 : 526.18109 : 1"
       inkscape:vp_y="0 : 1000 : 0"
       inkscape:vp_z="744.09448 : 526.18109 : 1"
       inkscape:persp3d-origin="372.04724 : 350.78739 : 1"
       id="perspective7065" />
    <inkscape:perspective
       id="perspective7048"
       inkscape:persp3d-origin="0.5 : 0.33333333 : 1"
       inkscape:vp_z="1 : 0.5 : 1"
       inkscape:vp_y="0 : 1000 : 0"
       inkscape:vp_x="0 : 0.5 : 1"
       sodipodi:type="inkscape:persp3d" />
  </defs>
  <sodipodi:namedview
     id="base"
     pagecolor="#ffffff"
     bordercolor="#666666"
     borderopacity="1.0"
     inkscape:pageopacity="0.0"
     inkscape:pageshadow="2"
     inkscape:zoom="7.0426646"
     inkscape:cx="36.75"
     inkscape:cy="35.568924"
     inkscape:document-units="px"
     inkscape:current-layer="layer1"
     showgrid="false"
     inkscape:window-width="1280"
     inkscape:window-height="748"
     inkscape:window-x="-8"
     inkscape:window-y="-8"
     inkscape:window-maximized="1" />
  <metadata
     id="metadata7062">
    <rdf:RDF>
      <cc:Work
         rdf:about="">
        <dc:format>image/svg+xml</dc:format>
        <dc:type
           rdf:resource="http://purl.org/dc/dcmitype/StillImage" />
        <dc:title />
      </cc:Work>
    </rdf:RDF>
  </metadata>
  <g
     inkscape:label="Ebene 1"
     inkscape:groupmode="layer"
     id="layer1"
     transform="translate(516.75,-62.507547)">
    <path
       d="m -444.63625,98.076468 c 0,-0.0775 0,-0.15375 -10e-4,-0.23125 0,-0.0775 0,-0.15375 -0.001,-0.23125 -0.0188,-1.5425 -0.13625,-3.0825 -0.3525,-4.61 -0.21625,-1.53 -0.54125,-3.0425 -0.9725,-4.52625 -0.39875,-1.4925 -0.90625,-2.9525 -1.51875,-4.37125 -0.6125,-1.4175 -1.3225,-2.79125 -2.125,-4.11 -0.7825,-1.3325 -1.655,-2.60875 -2.61,-3.8225 -0.955,-1.2125 -1.9925,-2.3575 -3.10625,-3.4275 -1.0975,-1.085 -2.27,-2.09375 -3.5075,-3.01625 -1.23625,-0.925 -2.53625,-1.7625 -3.88875,-2.5075 -1.3425,-0.76375 -2.735,-1.43375 -4.17,-2.00625 -1.43375,-0.5725 -2.905,-1.045 -4.40375,-1.415 -1.495,-0.39 -3.01375,-0.67625 -4.5475,-0.8575 -1.5325,-0.1825 -3.0775,-0.2575 -4.62125,-0.2275 -1.54375,0.01 -3.085,0.12625 -4.61375,0.34875 -1.5275,0.22125 -3.03875,0.5475 -4.52125,0.97625 -1.48875,0.40875 -2.9475,0.92125 -4.3675,1.53 -1.41875,0.61 -2.79375,1.31625 -4.115,2.11375 -1.3325,0.78125 -2.60875,1.6525 -3.82125,2.60875 -1.2125,0.955 -2.35875,1.99375 -3.42875,3.10625 -1.085,1.09875 -2.0925,2.27125 -3.01625,3.50875 -0.92375,1.2375 -1.76125,2.53625 -2.5075,3.88875 -0.7625,1.3425 -1.4325,2.735 -2.005,4.16875 -0.5725,1.435 -1.045,2.90625 -1.415,4.405 -0.39,1.495 -0.6775,3.01375 -0.85875,4.5475 -0.18125,1.5325 -0.2575,3.07625 -0.22625,4.62 0.01,1.545002 0.12625,3.086252 0.3475,4.613752 0.22125,1.52875 0.5475,3.04 0.97625,4.5225 0.41,1.48875 0.92125,2.9475 1.53125,4.36625 0.60875,1.41875 1.315,2.79375 2.11375,4.11625 0.78,1.33125 1.65125,2.60875 2.6075,3.82125 0.95625,1.2125 1.995,2.35875 3.1075,3.4275 1.09875,1.085 2.27125,2.0925 3.50875,3.01625 1.23625,0.925 2.53625,1.7625 3.88875,2.5075 1.34125,0.76375 2.735,1.43375 4.16875,2.00625 1.43375,0.57125 2.90625,1.045 4.405,1.415 1.49375,0.39 3.0125,0.67625 4.54625,0.8575 1.53375,0.18125 3.0775,0.2575 4.62125,0.2275 1.54375,-0.01 3.08625,-0.12625 4.61375,-0.3475 1.5275,-0.22125 3.03875,-0.54875 4.5225,-0.9775 1.48875,-0.40875 2.9475,-0.92 4.36625,-1.53 1.41875,-0.60875 2.79375,-1.31625 4.115,-2.11375 1.3325,-0.78 2.60875,-1.6525 3.82125,-2.60875 1.21375,-0.955 2.35875,-1.99375 3.42875,-3.10625 1.085,-1.09875 2.0925,-2.27125 3.0175,-3.50875 0.92375,-1.2375 1.76125,-2.53625 2.50625,-3.88875 0.7625,-1.34125 1.4325,-2.73375 2.00375,-4.1675 0.57125,-1.435 1.045,-2.9075 1.4175,-4.40625 0.3725,-1.42125 0.6525,-2.86375 0.83625,-4.32125 0.18375,-1.45375 0.2675,-2.918752 0.25125,-4.383752 z"
       style="fill:none;stroke:#231f20;stroke-width:0.27000001;stroke-linecap:butt;stroke-linejoin:bevel;stroke-miterlimit:22.9260006;stroke-opacity:1;stroke-dasharray:none"
       id="path19994" />
    <path
       id="path19998"
       style="fill:#ffffff;stroke:#231f20;stroke-width:0.27000001000000001;stroke-linecap:butt;stroke-linejoin:bevel;stroke-miterlimit:22.92600059999999800;stroke-opacity:1;stroke-dasharray:none"
       d="m -444.56875,98.076468 c 0,0.0775 0,0.155 -10e-4,0.2325 0,0.07625 0,0.15375 -10e-4,0.23125 -0.0187,1.546252 -0.13625,3.088752 -0.35375,4.618752 -0.21625,1.5325 -0.54125,3.04875 -0.97375,4.535 -0.4,1.495 -0.90875,2.95875 -1.5225,4.37875 -0.61375,1.42125 -1.325,2.7975 -2.12875,4.11875 -0.78375,1.335 -1.6575,2.61375 -2.615,3.82875 -0.9575,1.215 -1.99625,2.3625 -3.11125,3.435 -1.1,1.0875 -2.275,2.0975 -3.51375,3.0225 -1.24,0.925 -2.5425,1.765 -3.8975,2.51125 -1.345,0.765 -2.74,1.43625 -4.1775,2.01 -1.43625,0.5725 -2.91125,1.04625 -4.4125,1.4175 -1.4975,0.39125 -3.01875,0.67875 -4.55625,0.86 -1.535,0.1825 -3.0825,0.2575 -4.63,0.2275 -1.54625,-0.01 -3.09,-0.12625 -4.62125,-0.34875 -1.53125,-0.22125 -3.045,-0.54875 -4.53125,-0.97875 -1.4925,-0.41 -2.95375,-0.9225 -4.375,-1.5325 -1.42125,-0.61125 -2.79875,-1.31875 -4.12375,-2.11875 -1.33375,-0.78125 -2.61375,-1.655 -3.82875,-2.6125 -1.215,-0.9575 -2.3625,-1.9975 -3.435,-3.11375 -1.08625,-1.1 -2.09625,-2.275 -3.02125,-3.515 -0.92625,-1.23875 -1.765,-2.54125 -2.5125,-3.895 -0.76375,-1.345 -1.43625,-2.74125 -2.00875,-4.1775 -0.57375,-1.4375 -1.0475,-2.91125 -1.41875,-4.41375 -0.39,-1.49625 -0.6775,-3.01875 -0.85875,-4.555 -0.1825,-1.53625 -0.25875,-3.082502 -0.2275,-4.630002 0.01,-1.54625 0.12625,-3.09125 0.3475,-4.6225 0.2225,-1.53125 0.55,-3.045 0.97875,-4.53125 0.41,-1.49125 0.9225,-2.9525 1.53375,-4.37375 0.61,-1.42125 1.3175,-2.8 2.1175,-4.12375 0.7825,-1.335 1.655,-2.61375 2.61375,-3.82875 0.9575,-1.215 1.9975,-2.3625 3.1125,-3.435 1.10125,-1.08625 2.275,-2.09625 3.515,-3.0225 1.24,-0.925 2.54125,-1.76375 3.89625,-2.51125 1.345,-0.765 2.74,-1.43625 4.1775,-2.01 1.43625,-0.5725 2.91125,-1.04625 4.41375,-1.4175 1.49625,-0.39125 3.0175,-0.67875 4.555,-0.86 1.53625,-0.1825 3.0825,-0.2575 4.63,-0.2275 1.54625,0.01 3.09125,0.1275 4.6225,0.34875 1.53,0.2225 3.04375,0.54875 4.53,0.97875 1.4925,0.41 2.95375,0.9225 4.375,1.53375 1.42125,0.61 2.79875,1.3175 4.12375,2.1175 1.33375,0.7825 2.61375,1.655 3.82875,2.6125 1.215,0.9575 2.3625,1.9975 3.435,3.11375 1.08625,1.10125 2.09625,2.275 3.0225,3.515 0.925,1.23875 1.765,2.54125 2.51125,3.89625 0.76375,1.34375 1.435,2.73875 2.0075,4.175 0.57375,1.4375 1.0475,2.9125 1.42,4.415 0.37375,1.42375 0.6525,2.87 0.8375,4.33 0.185,1.45625 0.26875,2.92375 0.2525,4.39125 z" />
    <path
       id="path20006"
       style="fill:#cc0000;fill-opacity:1;fill-rule:evenodd;stroke:none"
       d="m -446.935,104.82147 -0.0263,0.1375 c -0.007,0.045 -0.0175,0.0913 -0.0263,0.13625 -0.0712,0.36125 -0.1525,0.72 -0.2425,1.07625 -0.0913,0.35625 -0.19,0.71125 -0.29375,1.06375 -0.40625,1.41625 -0.89875,2.805 -1.47375,4.16125 -0.57375,1.35625 -1.24375,2.67125 -2.00375,3.9325 -0.735,1.27625 -1.5625,2.4975 -2.4775,3.6525 -0.915,1.15625 -1.91,2.24625 -2.97625,3.265 -1.05,1.03375 -2.16875,1.995 -3.34875,2.8775 -1.18,0.8825 -2.41875,1.68125 -3.70875,2.3925 -1.28,0.73 -2.60875,1.36875 -3.9775,1.915 -1.36875,0.54625 -2.77375,0.99625 -4.20375,1.35 -1.42625,0.37125 -2.875,0.645 -4.33875,0.81875 -1.46375,0.1725 -2.93625,0.245 -4.40875,0.21625 -1.47375,-0.01 -2.945,-0.12 -4.4025,-0.3325 -1.4575,-0.21 -2.9,-0.5225 -4.315,-0.93125 -1.42125,-0.39 -2.81375,-0.87875 -4.1675,-1.46 -1.35375,-0.58125 -2.665,-1.255 -3.92625,-2.0175 -1.27125,-0.745 -2.48875,-1.57625 -3.64625,-2.48875 -1.15625,-0.9125 -2.25,-1.90375 -3.27125,-2.96375 -1.03625,-1.04875 -2,-2.16625 -2.8825,-3.34625 -0.8825,-1.18 -1.68125,-2.42 -2.38875,-3.7125 -0.72375,-1.28375 -1.35875,-2.61625 -1.9,-3.98625 -0.54125,-1.36875 -0.9975,-2.77 -1.36375,-4.195 -0.07,-0.25875 -0.1375,-0.51875 -0.2025,-0.77875 -0.0662,-0.25875 -0.13125,-0.51875 -0.195,-0.77875 l 66.1675,-0.004 m -0.0499,-13.493502 -66.11625,0 c 0.015,-0.045 0.03,-0.09 0.045,-0.135 0.015,-0.045 0.03,-0.09 0.0437,-0.135 0.10875,-0.35125 0.205,-0.70625 0.28625,-1.065 0.0825,-0.35875 0.165,-0.7175 0.25125,-1.075 0.34375,-1.4325 0.815,-2.83 1.40875,-4.1775 0.595,-1.35375 1.28625,-2.6625 2.0675,-3.91625 0.7525,-1.26875 1.5875,-2.4875 2.49875,-3.6475 0.9075,-1.1575 1.895,-2.25 2.955,-3.27 1.04625,-1.0375 2.16375,-1.99875 3.34375,-2.87875 1.18125,-0.88125 2.4225,-1.68125 3.71375,-2.3925 1.28125,-0.7275 2.61125,-1.3675 3.98,-1.9125 1.3675,-0.54625 2.7725,-0.9975 4.2025,-1.35125 1.425,-0.3725 2.875,-0.645 4.3375,-0.81875 1.4625,-0.17375 2.93625,-0.245 4.41,-0.21625 1.47375,0.0088 2.945,0.12 4.4025,0.33125 1.4575,0.21125 2.9,0.52375 4.315,0.9325 1.42,0.39 2.81125,0.87875 4.165,1.46 1.35375,0.5825 2.66625,1.25625 3.92875,2.0175 1.2725,0.74375 2.4925,1.575 3.65125,2.4875 1.1575,0.91125 2.24875,1.90125 3.26625,2.96625 1.02875,1.04875 1.985,2.16875 2.86125,3.34875 0.88,1.185 1.68375,2.42375 2.40875,3.70875 0.7475,1.27625 1.40625,2.6025 1.97,3.97 0.56125,1.36125 0.995,2.77125 1.295,4.21125 0.0575,0.25875 0.11125,0.5175 0.16125,0.7775 0.0512,0.26 0.1,0.52 0.1475,0.78" />
  </g>
</svg>
