<?xml version="1.0" encoding="UTF-8" standalone="no"?>
<!-- Created with Inkscape (http://www.inkscape.org/) -->

<svg
   xmlns:dc="http://purl.org/dc/elements/1.1/"
   xmlns:cc="http://creativecommons.org/ns#"
   xmlns:rdf="http://www.w3.org/1999/02/22-rdf-syntax-ns#"
   xmlns:svg="http://www.w3.org/2000/svg"
   xmlns="http://www.w3.org/2000/svg"
   xmlns:xlink="http://www.w3.org/1999/xlink"
   xmlns:sodipodi="http://sodipodi.sourceforge.net/DTD/sodipodi-0.dtd"
   xmlns:inkscape="http://www.inkscape.org/namespaces/inkscape"
   width="600"
   height="250"
   id="svg2"
   version="1.1"
   inkscape:version="0.48.0 r9654"
   sodipodi:docname="hafen.svg">
  <defs
     id="defs4">
    <pattern
       inkscape:collect="always"
       xlink:href="#Wavywhite"
       id="pattern3066"
       patternTransform="matrix(0.98039215,0,0,0.98039214,-49.299719,563.19542)" />
    <pattern
       inkscape:stockid="Wavy white"
       id="Wavywhite"
       height="5.1805778"
       width="30.066020"
       patternUnits="userSpaceOnUse"
       inkscape:collect="always"
       patternTransform="matrix(0.98039215,0,0,0.98039216,-49.299719,563.19542)">
      <path
         id="path5254"
         d="M 7.597,0.061 C 5.079,-0.187 2.656,0.302 -0.01,1.788 L -0.01,3.061 C 2.773,1.431 5.173,1.052 7.472,1.280 C 9.770,1.508 11.969,2.361 14.253,3.218 C 18.820,4.931 23.804,6.676 30.066,3.061 L 30.062,1.788 C 23.622,5.497 19.246,3.770 14.691,2.061 C 12.413,1.207 10.115,0.311 7.597,0.061 z "
         style="fill:white;stroke:none;" />
    </pattern>
  </defs>
  <sodipodi:namedview
     id="base"
     pagecolor="#ffffff"
     bordercolor="#666666"
     borderopacity="1.0"
     inkscape:pageopacity="0.0"
     inkscape:pageshadow="2"
     inkscape:zoom="1"
     inkscape:cx="210.57611"
     inkscape:cy="164.17828"
     inkscape:document-units="px"
     inkscape:current-layer="layer1"
     showgrid="false"
     inkscape:window-width="1276"
     inkscape:window-height="1002"
     inkscape:window-x="4"
     inkscape:window-y="0"
     inkscape:window-maximized="0"
     inkscape:object-nodes="true"
     inkscape:object-paths="true"
     inkscape:snap-page="true"
     inkscape:snap-global="true"
     fit-margin-top="0"
     fit-margin-left="0"
     fit-margin-right="0"
     fit-margin-bottom="0"
     showguides="true"
     inkscape:guide-bbox="true"
     showborder="true"
     inkscape:showpageshadow="false"
     borderlayer="true"
     inkscape:snap-object-midpoints="true"
     inkscape:snap-center="true" />
  <metadata
     id="metadata7">
    <rdf:RDF>
      <cc:Work
         rdf:about="">
        <dc:format>image/svg+xml</dc:format>
        <dc:type
           rdf:resource="http://purl.org/dc/dcmitype/StillImage" />
        <dc:title />
      </cc:Work>
    </rdf:RDF>
  </metadata>
  <g
     inkscape:label="Ebene 1"
     inkscape:groupmode="layer"
     id="layer1"
     transform="translate(0,-802.36224)">
    <rect
       y="802.36224"
       x="5.0661574e-06"
       height="250"
       width="600"
       id="rect3900"
       style="fill:#d3e1ec;fill-opacity:1;fill-rule:nonzero;stroke:none" />
    <path
       style="fill:#b67d54;fill-opacity:1;stroke:none"
       d="M 5.0661574e-6,940.31278 C 31.733214,913.58524 42.983865,920.77536 49.336885,917.68536 c 10.90177,-5.3025 45.143726,15.4278 61.093215,7.6702 6.60781,-3.21386 32.33391,1.0978 98.86146,14.92005 6.16728,1.28135 83.54652,15.73113 88.92636,13.98668 12.51857,-4.0592 43.5583,-1.64317 55.6523,-7.52548 12.75006,-6.20139 55.06536,-11.51392 66.25446,-16.95609 9.52679,-4.63366 74.62513,-7.84716 95.9192,-2.66278 10.55554,2.56992 72.99214,10.58354 83.95613,10.58354 l -2e-5,114.66072 -599.99999,0 z"
       id="path3066"
       inkscape:connector-curvature="0"
       sodipodi:nodetypes="cssssssscccc" />
    <rect
       style="fill:#0073d3;fill-opacity:1;fill-rule:nonzero;stroke:none"
       id="rect3068"
       width="600"
       height="57.330383"
       x="5.0661574e-06"
       y="995.03186" />
    <rect
       y="996.88135"
       x="5.0661574e-06"
       height="55.480919"
       width="600"
       id="rect3902"
       style="opacity:0.2;fill:url(#pattern3066);fill-opacity:1;fill-rule:nonzero;stroke:none" />
    <rect
       y="974.25391"
       x="2.5892579e-14"
       height="34.267662"
       width="262.00293"
       id="rect5391"
       style="fill:#3c3c3c;fill-opacity:1;fill-rule:nonzero;stroke:none" />
    <rect
       style="fill:#3c3c3c;fill-opacity:1;fill-rule:nonzero;stroke:none"
       id="rect5393"
       width="123.41004"
       height="34.267662"
       x="476.58997"
       y="974.25391" />
    <path
       sodipodi:type="arc"
       style="fill:#fffa1e;fill-opacity:1;fill-rule:nonzero;stroke:#646464;stroke-width:1.46714008;stroke-miterlimit:4;stroke-opacity:1;stroke-dasharray:none"
       id="path5395"
       sodipodi:cx="219.5"
       sodipodi:cy="-96.5"
       sodipodi:rx="20.5"
       sodipodi:ry="10.5"
       d="m 240,-96.5 c 0,5.79899 -9.17816,10.5 -20.5,10.5 -11.32184,0 -20.5,-4.70101 -20.5,-10.5 0,-5.79899 9.17816,-10.5 20.5,-10.5 11.32184,0 20.5,4.70101 20.5,10.5 z"
       transform="matrix(0.48780488,0,0,0.95238095,262.92683,1076.267)" />
    <path
       transform="matrix(0.48780488,0,0,0.95238095,142.92683,1055.267)"
       d="m 240,-96.5 c 0,5.79899 -9.17816,10.5 -20.5,10.5 -11.32184,0 -20.5,-4.70101 -20.5,-10.5 0,-5.79899 9.17816,-10.5 20.5,-10.5 11.32184,0 20.5,4.70101 20.5,10.5 z"
       sodipodi:ry="10.5"
       sodipodi:rx="20.5"
       sodipodi:cy="-96.5"
       sodipodi:cx="219.5"
       id="path5397"
       style="fill:#ff0000;fill-opacity:1;fill-rule:nonzero;stroke:#646464;stroke-width:1.46714008000000007;stroke-miterlimit:4;stroke-opacity:1;stroke-dasharray:none"
       sodipodi:type="arc" />
    <path
       transform="matrix(0.48780488,0,0,0.95238095,378.92683,1055.267)"
       d="m 240,-96.5 c 0,5.79899 -9.17816,10.5 -20.5,10.5 -11.32184,0 -20.5,-4.70101 -20.5,-10.5 0,-5.79899 9.17816,-10.5 20.5,-10.5 11.32184,0 20.5,4.70101 20.5,10.5 z"
       sodipodi:ry="10.5"
       sodipodi:rx="20.5"
       sodipodi:cy="-96.5"
       sodipodi:cx="219.5"
       id="path5399"
       style="fill:#00c800;fill-opacity:1;fill-rule:nonzero;stroke:#646464;stroke-width:1.46714008000000007;stroke-miterlimit:4;stroke-opacity:1;stroke-dasharray:none"
       sodipodi:type="arc" />
    <text
       xml:space="preserve"
       style="font-size:24px;font-style:normal;font-variant:normal;font-weight:normal;font-stretch:normal;text-align:center;line-height:125%;letter-spacing:0px;word-spacing:0px;text-anchor:middle;fill:#000000;fill-opacity:1;stroke:none;font-family:Arial;-inkscape-font-specification:Arial"
       x="250"
       y="945.36224"
       id="text5401"
       sodipodi:linespacing="125%"><tspan
         sodipodi:role="line"
         id="tspan5403"
         x="250"
         y="945.36224"
         style="font-size:14px">6 km</tspan></text>
    <text
       sodipodi:linespacing="125%"
       id="text5405"
       y="945.36224"
       x="486"
       style="font-size:24px;font-style:normal;font-variant:normal;font-weight:normal;font-stretch:normal;text-align:center;line-height:125%;letter-spacing:0px;word-spacing:0px;text-anchor:middle;fill:#000000;fill-opacity:1;stroke:none;font-family:Arial;-inkscape-font-specification:Arial"
       xml:space="preserve"><tspan
         style="font-size:14px"
         y="945.36224"
         x="486"
         id="tspan5407"
         sodipodi:role="line">6 km</tspan></text>
    <text
       xml:space="preserve"
       style="font-size:24px;font-style:normal;font-variant:normal;font-weight:normal;font-stretch:normal;text-align:center;line-height:125%;letter-spacing:0px;word-spacing:0px;text-anchor:middle;fill:#000000;fill-opacity:1;stroke:none;font-family:Arial;-inkscape-font-specification:Arial"
       x="370"
       y="966.36224"
       id="text5409"
       sodipodi:linespacing="125%"><tspan
         sodipodi:role="line"
         id="tspan5411"
         x="370"
         y="966.36224"
         style="font-size:14px">1.5 km</tspan></text>
    <g
       id="g3781"
       transform="matrix(0.75,0,0,0.75,133,437.98223)">
      <path
         inkscape:connector-curvature="0"
         id="rect3002"
         d="m -102.1375,674.36224 -5.8625,5.8625 0,8.275 5.8625,5.8625 8.275,0 5.8625,-5.8625 0,-8.275 -5.8625,-5.8625 -8.275,0 z"
         style="fill:#000000;fill-opacity:1;fill-rule:nonzero;stroke:none" />
      <path
         inkscape:connector-curvature="0"
         style="fill:#000000;fill-opacity:1;fill-rule:nonzero;stroke:none"
         d="m -102.1375,694.36224 -5.8625,5.8625 0,8.275 5.8625,5.8625 8.275,0 5.8625,-5.8625 0,-8.275 -5.8625,-5.8625 -8.275,0 z"
         id="path3775" />
      <path
         transform="matrix(0.22727273,0,0,0.3030303,-95.045454,754.21072)"
         d="m 9,-230.5 c 0,9.1127 -9.8497355,16.5 -22,16.5 -12.150264,0 -22,-7.3873 -22,-16.5 0,-9.1127 9.849736,-16.5 22,-16.5 12.1502645,0 22,7.3873 22,16.5 z"
         sodipodi:ry="16.5"
         sodipodi:rx="22"
         sodipodi:cy="-230.5"
         sodipodi:cx="-13"
         id="path3777"
         style="fill:#ff0000;fill-opacity:1;fill-rule:nonzero;stroke:none"
         sodipodi:type="arc" />
      <path
         sodipodi:type="arc"
         style="fill:#00c800;fill-opacity:1;fill-rule:nonzero;stroke:none"
         id="path3779"
         sodipodi:cx="-13"
         sodipodi:cy="-230.5"
         sodipodi:rx="22"
         sodipodi:ry="16.5"
         d="m 9,-230.5 c 0,9.1127 -9.8497355,16.5 -22,16.5 -12.150264,0 -22,-7.3873 -22,-16.5 0,-9.1127 9.849736,-16.5 22,-16.5 12.1502645,0 22,7.3873 22,16.5 z"
         transform="matrix(0.22727273,0,0,0.3030303,-95.045454,774.21072)" />
    </g>
    <text
       sodipodi:linespacing="125%"
       id="text3787"
       y="962.25391"
       x="89"
       style="font-size:24px;font-style:normal;font-variant:normal;font-weight:normal;font-stretch:normal;text-align:center;line-height:125%;letter-spacing:0px;word-spacing:0px;text-anchor:middle;fill:#000000;fill-opacity:1;stroke:none;font-family:Arial;-inkscape-font-specification:Arial"
       xml:space="preserve"><tspan
         style="font-size:14px"
         y="962.25391"
         x="89"
         id="tspan3789"
         sodipodi:role="line">6 km</tspan></text>
    <text
       xml:space="preserve"
       style="font-size:18px;font-style:normal;font-variant:normal;font-weight:normal;font-stretch:normal;text-align:center;line-height:125%;letter-spacing:0px;word-spacing:0px;text-anchor:middle;fill:#000000;fill-opacity:1;stroke:none;font-family:Arial;-inkscape-font-specification:Arial"
       x="369"
       y="909.36224"
       id="text3791"
       sodipodi:linespacing="125%"><tspan
         sodipodi:role="line"
         id="tspan3793"
         x="369"
         y="909.36224">Hafeneinfahrt</tspan></text>
    <text
       sodipodi:linespacing="125%"
       id="text3795"
       y="899.17975"
       x="74.952789"
       style="font-size:18px;font-style:normal;font-variant:normal;font-weight:normal;font-stretch:normal;text-align:center;line-height:125%;letter-spacing:0px;word-spacing:0px;text-anchor:middle;fill:#000000;fill-opacity:1;stroke:none;font-family:Arial;-inkscape-font-specification:Arial"
       xml:space="preserve"><tspan
         y="899.17975"
         x="74.952789"
         id="tspan3797"
         sodipodi:role="line">Landestelle</tspan></text>
  </g>
</svg>
