<?xml version="1.0" encoding="UTF-8" standalone="no"?>
<!-- Created with Inkscape (http://www.inkscape.org/) -->

<svg
   xmlns:dc="http://purl.org/dc/elements/1.1/"
   xmlns:cc="http://creativecommons.org/ns#"
   xmlns:rdf="http://www.w3.org/1999/02/22-rdf-syntax-ns#"
   xmlns:svg="http://www.w3.org/2000/svg"
   xmlns="http://www.w3.org/2000/svg"
   xmlns:sodipodi="http://sodipodi.sourceforge.net/DTD/sodipodi-0.dtd"
   xmlns:inkscape="http://www.inkscape.org/namespaces/inkscape"
   width="71.135361"
   height="71.136322"
   id="svg16106"
   version="1.1"
   inkscape:version="0.47 r22583"
   sodipodi:docname="A.17 Verbot des Segelsurfens.svg">
  <defs
     id="defs16108" />
  <sodipodi:namedview
     id="base"
     pagecolor="#ffffff"
     bordercolor="#666666"
     borderopacity="1.0"
     inkscape:pageopacity="0.0"
     inkscape:pageshadow="2"
     inkscape:zoom="7.352081"
     inkscape:cx="35.56768"
     inkscape:cy="35.568161"
     inkscape:document-units="px"
     inkscape:current-layer="layer1"
     showgrid="false"
     inkscape:window-width="1280"
     inkscape:window-height="748"
     inkscape:window-x="-8"
     inkscape:window-y="-8"
     inkscape:window-maximized="1" />
  <metadata
     id="metadata16111">
    <rdf:RDF>
      <cc:Work
         rdf:about="">
        <dc:format>image/svg+xml</dc:format>
        <dc:type
           rdf:resource="http://purl.org/dc/dcmitype/StillImage" />
        <dc:title />
      </cc:Work>
    </rdf:RDF>
  </metadata>
  <g
     inkscape:label="Ebene 1"
     inkscape:groupmode="layer"
     id="layer1"
     transform="translate(-314.43237,-496.79403)">
    <path
       d="m 319.29136,567.72781 61.4175,0 0.0175,0 0.0188,0 c 0.20125,-10e-4 0.4025,-0.015 0.60125,-0.0425 0.2,-0.0275 0.3975,-0.0675 0.59125,-0.1225 0.195,-0.0512 0.385,-0.115 0.57125,-0.19375 0.18625,-0.0775 0.36625,-0.16875 0.53875,-0.27125 0.175,-0.1 0.3425,-0.2125 0.5025,-0.335 0.15875,-0.1225 0.31,-0.25625 0.45125,-0.39875 0.14375,-0.14125 0.2775,-0.2925 0.4,-0.4525 0.1225,-0.15875 0.235,-0.3275 0.335,-0.50125 0.10125,-0.17375 0.19125,-0.35375 0.26875,-0.54 0.0775,-0.185 0.1425,-0.37625 0.195,-0.57 0.055,-0.195 0.0975,-0.3925 0.125,-0.5925 0.0288,-0.19875 0.0412,-0.4 0.04,-0.6 l 0,-61.49125 c -10e-4,-0.2 -0.015,-0.40125 -0.0425,-0.60125 -0.0263,-0.19875 -0.0675,-0.39625 -0.1225,-0.59 -0.05,-0.195 -0.115,-0.38625 -0.1925,-0.57125 -0.0788,-0.18625 -0.16875,-0.36625 -0.27125,-0.54 -0.10125,-0.17375 -0.2125,-0.3425 -0.335,-0.50125 -0.1225,-0.16 -0.25625,-0.31125 -0.4,-0.4525 -0.14125,-0.1425 -0.2925,-0.27625 -0.45125,-0.39875 -0.16,-0.12375 -0.3275,-0.235 -0.5025,-0.335 -0.1725,-0.1025 -0.35375,-0.1925 -0.53875,-0.27 -0.18625,-0.0775 -0.3775,-0.1425 -0.57125,-0.195 -0.19375,-0.055 -0.39125,-0.0962 -0.59125,-0.125 -0.19875,-0.0275 -0.4,-0.0412 -0.60125,-0.04 l -61.49,0 c -0.20125,0.001 -0.4025,0.015 -0.60125,0.0425 -0.2,0.0275 -0.3975,0.0687 -0.59125,0.1225 -0.195,0.0512 -0.38625,0.115 -0.57125,0.19375 -0.18625,0.0775 -0.36625,0.16875 -0.53875,0.27125 -0.175,0.1 -0.3425,0.21125 -0.5025,0.335 -0.15875,0.1225 -0.31,0.25625 -0.45125,0.39875 -0.14375,0.14125 -0.2775,0.2925 -0.4,0.4525 -0.1225,0.15875 -0.235,0.3275 -0.33375,0.50125 -0.1025,0.17375 -0.1925,0.35375 -0.27,0.54 -0.0775,0.185 -0.14375,0.37625 -0.19625,0.57125 -0.0537,0.19375 -0.0962,0.39125 -0.12375,0.59 -0.0288,0.2 -0.0412,0.40125 -0.04,0.60125 l 0,0.0188 -10e-4,0.0188 0,61.41625 10e-4,0.0188 0,0.0187 c 0.001,0.20125 0.015,0.40125 0.0412,0.60125 0.0275,0.19875 0.0688,0.39625 0.1225,0.59125 0.0512,0.19375 0.11625,0.385 0.19375,0.57125 0.0788,0.185 0.16875,0.365 0.2725,0.53875 0.1,0.17375 0.21125,0.34125 0.33375,0.50125 0.1225,0.16 0.25625,0.31125 0.4,0.4525 0.14125,0.1425 0.2925,0.27625 0.45125,0.39875 0.16,0.1225 0.3275,0.235 0.5025,0.335 0.1725,0.1025 0.35375,0.1925 0.53875,0.27 0.18625,0.0775 0.37625,0.1425 0.57125,0.195 0.19375,0.055 0.39125,0.0962 0.59125,0.125 0.19875,0.0275 0.4,0.0412 0.60125,0.04 l 0.0188,0 0.0175,0 z"
       style="fill:none;stroke:#231f20;stroke-width:0.27000001;stroke-linecap:butt;stroke-linejoin:bevel;stroke-miterlimit:22.9260006;stroke-opacity:1;stroke-dasharray:none"
       id="path20342" />
    <path
       d="m 319.29136,567.79531 -0.0362,0 c -0.205,-10e-4 -0.40875,-0.015 -0.61125,-0.0425 -0.2025,-0.0275 -0.4025,-0.07 -0.59875,-0.125 -0.1975,-0.0512 -0.39125,-0.11625 -0.58,-0.19625 -0.18875,-0.0788 -0.37125,-0.17125 -0.54625,-0.275 -0.1775,-0.1025 -0.3475,-0.215 -0.51,-0.34 -0.16125,-0.12375 -0.315,-0.26 -0.45875,-0.405 -0.145,-0.14375 -0.28,-0.29625 -0.405,-0.45875 -0.125,-0.16125 -0.2375,-0.33125 -0.33875,-0.50875 -0.10375,-0.17625 -0.195,-0.35875 -0.27375,-0.5475 -0.0788,-0.18875 -0.145,-0.38125 -0.1975,-0.57875 -0.0563,-0.1975 -0.0987,-0.3975 -0.1275,-0.6 -0.0288,-0.2025 -0.0425,-0.40625 -0.04,-0.61 l 0,-61.49125 c 0.001,-0.20375 0.015,-0.4075 0.0425,-0.61 0.0275,-0.2025 0.0687,-0.4025 0.125,-0.6 0.05,-0.1975 0.11625,-0.39125 0.195,-0.58 0.08,-0.1875 0.17125,-0.37 0.27625,-0.54625 0.10125,-0.17625 0.215,-0.34625 0.33875,-0.50875 0.125,-0.16125 0.26,-0.315 0.405,-0.45875 0.14375,-0.14625 0.2975,-0.28125 0.45875,-0.40625 0.1625,-0.12375 0.3325,-0.23625 0.51,-0.33875 0.175,-0.10375 0.3575,-0.195 0.54625,-0.27375 0.18875,-0.0788 0.3825,-0.145 0.58,-0.1975 0.19625,-0.0563 0.39625,-0.0975 0.6,-0.12625 0.20125,-0.0288 0.405,-0.0425 0.61,-0.0412 l 61.49125,0 c 0.20375,0.001 0.4075,0.0163 0.61,0.0437 0.20125,0.0263 0.4025,0.0688 0.59875,0.12375 0.1975,0.0512 0.39125,0.1175 0.58,0.19625 0.18875,0.0788 0.37125,0.17125 0.54625,0.275 0.1775,0.1025 0.3475,0.215 0.50875,0.34 0.1625,0.125 0.31625,0.26 0.46,0.405 0.145,0.14375 0.28,0.2975 0.405,0.45875 0.125,0.1625 0.2375,0.33125 0.33875,0.50875 0.10375,0.17625 0.195,0.35875 0.27375,0.54625 0.0788,0.19 0.145,0.3825 0.1975,0.58 0.0563,0.1975 0.0987,0.3975 0.1275,0.6 0.0275,0.2025 0.0412,0.40625 0.04,0.61 l 0,61.49125 c -10e-4,0.20375 -0.015,0.4075 -0.0425,0.61 -0.0275,0.2025 -0.0687,0.4025 -0.125,0.6 -0.0512,0.1975 -0.11625,0.39125 -0.19625,0.58 -0.0787,0.1875 -0.17125,0.37 -0.275,0.54625 -0.10125,0.1775 -0.215,0.3475 -0.33875,0.50875 -0.125,0.1625 -0.26,0.315 -0.405,0.45875 -0.14375,0.145 -0.2975,0.28125 -0.46,0.405 -0.16125,0.125 -0.33125,0.23875 -0.50875,0.34 -0.17625,0.1025 -0.3575,0.195 -0.54625,0.27375 -0.18875,0.0788 -0.3825,0.145 -0.58,0.1975 -0.19625,0.0563 -0.3975,0.0975 -0.6,0.12625 -0.20125,0.0288 -0.405,0.0425 -0.60875,0.0412 l -61.455,0 z"
       style="fill:#ffffff;fill-opacity:1;fill-rule:evenodd;stroke:#000000;stroke-width:0.27000001000000001;stroke-linecap:butt;stroke-linejoin:bevel;stroke-miterlimit:22.92600059999999800;stroke-opacity:1;stroke-dasharray:none"
       id="path20346" />
    <path
       d="m 319.29136,566.02406 61.44,0 c 0.12875,-10e-4 0.255,-0.01 0.38125,-0.0275 0.1275,-0.0163 0.2525,-0.0425 0.375,-0.0775 0.12375,-0.0312 0.245,-0.0725 0.3625,-0.1225 0.1175,-0.0488 0.23125,-0.10625 0.34125,-0.17125 0.11125,-0.0638 0.2175,-0.135 0.31875,-0.2125 0.10125,-0.0788 0.1975,-0.1625 0.2875,-0.25375 0.09,-0.09 0.175,-0.185 0.2525,-0.28625 0.0775,-0.10125 0.14875,-0.2075 0.21125,-0.31875 0.065,-0.11 0.1225,-0.22375 0.1725,-0.34125 0.0488,-0.1175 0.09,-0.23875 0.1225,-0.3625 0.035,-0.1225 0.0613,-0.2475 0.0788,-0.375 0.0188,-0.12625 0.0275,-0.25375 0.0263,-0.38125 l 0,-61.46375 c -10e-4,-0.1275 -0.01,-0.25375 -0.0263,-0.38125 -0.0175,-0.12625 -0.0437,-0.25125 -0.0788,-0.37375 -0.0312,-0.12375 -0.0725,-0.245 -0.1225,-0.3625 -0.05,-0.1175 -0.10625,-0.2325 -0.1725,-0.34125 -0.0625,-0.11125 -0.13375,-0.2175 -0.21125,-0.31875 -0.0775,-0.10125 -0.1625,-0.1975 -0.2525,-0.2875 -0.09,-0.09 -0.18625,-0.175 -0.2875,-0.2525 -0.10125,-0.0775 -0.2075,-0.14875 -0.31875,-0.21125 -0.11,-0.065 -0.22375,-0.1225 -0.34125,-0.1725 -0.1175,-0.0487 -0.23875,-0.09 -0.3625,-0.12375 -0.1225,-0.0337 -0.2475,-0.06 -0.375,-0.0788 -0.12625,-0.0175 -0.2525,-0.0263 -0.38125,-0.025 l -61.4625,0 c -0.1275,0.001 -0.255,0.01 -0.38125,0.0263 -0.1275,0.0175 -0.2525,0.0438 -0.375,0.0775 -0.12375,0.0325 -0.245,0.0737 -0.3625,0.12375 -0.1175,0.0487 -0.23125,0.10625 -0.34125,0.1725 -0.11125,0.0625 -0.2175,0.13375 -0.31875,0.21125 -0.10125,0.0775 -0.1975,0.1625 -0.28625,0.2525 -0.0913,0.09 -0.17625,0.18625 -0.25375,0.2875 -0.0775,0.10125 -0.14875,0.2075 -0.2125,0.31875 -0.0638,0.11 -0.12125,0.22375 -0.17,0.34125 -0.05,0.1175 -0.0913,0.23875 -0.125,0.3625 -0.0337,0.1225 -0.0613,0.2475 -0.0788,0.375 -0.0175,0.12625 -0.0263,0.2525 -0.025,0.38 l 0,61.46375 c 0,0.1275 0.01,0.255 0.0263,0.38125 0.0175,0.1275 0.0437,0.2525 0.0775,0.375 0.0325,0.12375 0.0738,0.245 0.12375,0.3625 0.0488,0.1175 0.10625,0.23125 0.17125,0.34125 0.0637,0.11125 0.135,0.2175 0.2125,0.31875 0.0788,0.10125 0.1625,0.19625 0.25375,0.28625 0.0888,0.0913 0.185,0.17625 0.28625,0.25375 0.10125,0.0775 0.2075,0.14875 0.31875,0.2125 0.11,0.0638 0.22375,0.12125 0.34125,0.17 0.1175,0.05 0.23875,0.0913 0.3625,0.12375 0.1225,0.035 0.2475,0.0613 0.375,0.08 0.12625,0.0175 0.25375,0.0263 0.38125,0.025 l 0.0225,0 z"
       style="fill:#cc0000;fill-opacity:1;fill-rule:evenodd;stroke:#000000;stroke-width:0.27000001000000001;stroke-linecap:butt;stroke-linejoin:bevel;stroke-miterlimit:22.92600059999999800;stroke-opacity:1;stroke-dasharray:none"
       id="path20350" />
    <path
       d="m 366.46386,555.98531 -40.085,-40.085 0,40.085 40.085,0"
       style="fill:#ffffff;fill-opacity:1;fill-rule:evenodd;stroke:none"
       id="path20354" />
    <path
       d="m 373.62136,548.82656 0,-40.085 -40.085,0 40.085,40.085"
       style="fill:#ffffff;fill-opacity:1;fill-rule:evenodd;stroke:none"
       id="path20358" />
    <path
       d="m 340.81011,551.10031 c 1.0725,-13.28375 3.57375,-26.805 7.50625,-40.565 7.29625,8.1825 11.76375,17.63875 14.29625,27.96625 -6.82375,7.08875 -14.02625,11.70625 -21.8025,12.59875"
       style="fill:#000000;fill-opacity:1;fill-rule:evenodd;stroke:none"
       id="path20362" />
    <path
       d="m 336.25386,553.24406 9.395,0.0838 0.43375,-1.15625 c -3.6925,-0.8625 -7.15375,-0.95125 -10.275,0.09 l 0.44625,0.9825"
       style="fill:#000000;fill-opacity:1;fill-rule:evenodd;stroke:none"
       id="path20366" />
    <path
       d="m 340.81011,551.10031 c 0.0312,-0.38 0.90875,-4.82 -0.16875,-6.12125 -1.07625,-1.30125 -2.29125,-2.60875 -4.19875,-4.4575 l -0.0638,-3.0975 c -0.0125,-0.645 -0.495,-1.17875 -0.5375,-1.7325 1.8325,0.0662 3.64375,-0.0925 5.44375,-0.35375 l 0.21875,-0.58125 -7.14125,-0.8675 -1.68375,0.19875 c -1.38125,1.715 0.43,3.50375 0.81625,5.1325 l 0.0662,2.0525 c 0.0613,1.96 2.8075,3.8125 4.9025,4.5625 0.29625,1.9675 0.83,3.87125 1.74875,5.675 l 0.5975,-0.41"
       style="fill:#000000;fill-opacity:1;fill-rule:evenodd;stroke:none"
       id="path20370" />
    <path
       d="m 332.91386,529.99281 c 0.87375,0.0588 1.45875,0.84 1.58375,1.92125 0.125,1.08125 -0.28875,2.20875 -1.265,2.0075 -0.975,-0.2025 -1.61375,-0.99875 -1.7675,-1.9825 -0.1525,-0.985 0.575,-2.00375 1.44875,-1.94625"
       style="fill:#000000;fill-opacity:1;fill-rule:evenodd;stroke:none"
       id="path20374" />
    <path
       d="m 344.61067,533.45278 -3.06755,1.36271 -0.23179,0.59426 c 0,0 1.35364,2.22464 1.44901,2.23361"
       style="fill:none;stroke:#000000;stroke-width:1.30243802;stroke-linecap:butt;stroke-linejoin:miter;stroke-miterlimit:22.9260006;stroke-opacity:1;stroke-dasharray:none"
       id="path20378" />
  </g>
</svg>
