<?xml version="1.0" encoding="UTF-8" standalone="no"?>
<!-- Created with Inkscape (http://www.inkscape.org/) -->

<svg
   xmlns:dc="http://purl.org/dc/elements/1.1/"
   xmlns:cc="http://creativecommons.org/ns#"
   xmlns:rdf="http://www.w3.org/1999/02/22-rdf-syntax-ns#"
   xmlns:svg="http://www.w3.org/2000/svg"
   xmlns="http://www.w3.org/2000/svg"
   xmlns:sodipodi="http://sodipodi.sourceforge.net/DTD/sodipodi-0.dtd"
   xmlns:inkscape="http://www.inkscape.org/namespaces/inkscape"
   width="94.072685"
   height="63.813938"
   id="svg9552"
   version="1.1"
   inkscape:version="0.47 r22583"
   sodipodi:docname="B.1 Gebot.svg">
  <defs
     id="defs9554" />
  <sodipodi:namedview
     id="base"
     pagecolor="#ffffff"
     bordercolor="#666666"
     borderopacity="1.0"
     inkscape:pageopacity="0.0"
     inkscape:pageshadow="2"
     inkscape:zoom="8.1957017"
     inkscape:cx="47.036343"
     inkscape:cy="31.906969"
     inkscape:document-units="px"
     inkscape:current-layer="layer1"
     showgrid="false"
     inkscape:window-width="1280"
     inkscape:window-height="748"
     inkscape:window-x="-8"
     inkscape:window-y="-8"
     inkscape:window-maximized="1" />
  <metadata
     id="metadata9557">
    <rdf:RDF>
      <cc:Work
         rdf:about="">
        <dc:format>image/svg+xml</dc:format>
        <dc:type
           rdf:resource="http://purl.org/dc/dcmitype/StillImage" />
        <dc:title></dc:title>
      </cc:Work>
    </rdf:RDF>
  </metadata>
  <g
     inkscape:label="Ebene 1"
     inkscape:groupmode="layer"
     id="layer1"
     transform="translate(304.1792,42.401929)">
    <g
       id="g7642"
       transform="matrix(0,1.25,1.25,0,-300.23161,21.216915)"
       style="stroke:#000000;fill:#ffffff">
      <path
         d="m 0,0 0,68.966 c -0.001,0.129 -0.01,0.259 -0.027,0.387 -0.018,0.129 -0.044,0.256 -0.079,0.381 -0.033,0.126 -0.075,0.249 -0.125,0.369 -0.05,0.119 -0.109,0.235 -0.175,0.347 -0.065,0.112 -0.137,0.22 -0.216,0.323 -0.079,0.103 -0.165,0.2 -0.257,0.292 -0.091,0.092 -0.189,0.178 -0.291,0.257 -0.103,0.079 -0.211,0.151 -0.324,0.216 -0.112,0.065 -0.228,0.123 -0.348,0.173 -0.119,0.05 -0.242,0.093 -0.368,0.126 -0.125,0.036 -0.252,0.062 -0.381,0.081 -0.128,0.018 -0.258,0.026 -0.387,0.026 l -44.782,0 c -0.13,-0.001 -0.26,-0.01 -0.388,-0.027 -0.129,-0.018 -0.256,-0.044 -0.381,-0.08 -0.125,-0.032 -0.248,-0.074 -0.368,-0.124 -0.12,-0.051 -0.236,-0.109 -0.347,-0.175 -0.113,-0.065 -0.221,-0.137 -0.324,-0.216 -0.103,-0.079 -0.2,-0.165 -0.291,-0.257 -0.093,-0.092 -0.179,-0.189 -0.258,-0.292 -0.079,-0.103 -0.151,-0.211 -0.215,-0.323 -0.066,-0.112 -0.124,-0.228 -0.174,-0.348 -0.05,-0.12 -0.092,-0.243 -0.126,-0.368 -0.035,-0.125 -0.062,-0.252 -0.08,-0.381 -0.019,-0.128 -0.027,-0.258 -0.026,-0.387 l 0,-68.99 c 0,-0.129 0.009,-0.259 0.027,-0.387 0.017,-0.129 0.044,-0.256 0.079,-0.381 0.033,-0.126 0.074,-0.249 0.125,-0.369 0.05,-0.119 0.108,-0.235 0.175,-0.347 0.064,-0.112 0.136,-0.22 0.215,-0.323 0.08,-0.103 0.165,-0.201 0.258,-0.292 0.091,-0.092 0.188,-0.178 0.291,-0.257 0.103,-0.079 0.211,-0.151 0.324,-0.216 0.111,-0.065 0.228,-0.124 0.347,-0.174 0.12,-0.05 0.243,-0.092 0.368,-0.125 0.125,-0.036 0.253,-0.063 0.381,-0.081 0.128,-0.018 0.258,-0.026 0.388,-0.026 l 0.011,0 44.759,0 0.012,0 c 0.129,10e-4 0.259,0.01 0.387,0.027 0.129,0.018 0.256,0.044 0.381,0.08 0.126,0.032 0.249,0.074 0.369,0.124 0.119,0.051 0.235,0.109 0.347,0.175 0.112,0.065 0.221,0.137 0.323,0.216 0.103,0.079 0.201,0.165 0.292,0.257 0.092,0.091 0.178,0.189 0.257,0.292 0.079,0.102 0.151,0.211 0.216,0.323 0.066,0.112 0.124,0.228 0.174,0.348 0.05,0.119 0.092,0.242 0.126,0.368 0.035,0.125 0.062,0.252 0.08,0.381 0.018,0.128 0.027,0.258 0.026,0.387 L 0,0 z"
         style="fill:#ffffff;stroke:#000000;stroke-width:0.21600000999999999;stroke-linecap:butt;stroke-linejoin:bevel;stroke-miterlimit:22.92600059999999800;stroke-opacity:1;stroke-dasharray:none"
         id="path7644" />
      <g
         id="g7646"
         transform="translate(0.048,0)"
         style="stroke:#000000;fill:#ffffff">
        <path
           d="m 0,0 0,-0.012 0,-0.012 c -0.001,-0.132 -0.01,-0.263 -0.028,-0.394 -0.017,-0.131 -0.044,-0.26 -0.08,-0.387 -0.033,-0.128 -0.076,-0.253 -0.127,-0.374 -0.051,-0.122 -0.11,-0.24 -0.178,-0.353 -0.065,-0.114 -0.139,-0.224 -0.219,-0.329 -0.08,-0.104 -0.168,-0.203 -0.261,-0.296 -0.093,-0.094 -0.192,-0.181 -0.296,-0.262 -0.105,-0.08 -0.215,-0.153 -0.329,-0.219 -0.114,-0.067 -0.232,-0.125 -0.353,-0.176 -0.122,-0.051 -0.247,-0.094 -0.374,-0.128 -0.127,-0.036 -0.257,-0.064 -0.388,-0.082 -0.13,-0.018 -0.261,-0.027 -0.393,-0.026 l -44.783,0 c -0.132,10e-4 -0.263,0.01 -0.394,0.027 -0.131,0.018 -0.26,0.045 -0.387,0.081 -0.128,0.033 -0.253,0.075 -0.375,0.126 -0.121,0.052 -0.239,0.111 -0.352,0.178 -0.114,0.066 -0.224,0.139 -0.329,0.219 -0.104,0.081 -0.203,0.168 -0.296,0.262 -0.094,0.093 -0.181,0.192 -0.262,0.296 -0.08,0.105 -0.153,0.214 -0.219,0.329 -0.067,0.114 -0.126,0.231 -0.177,0.353 -0.05,0.122 -0.093,0.247 -0.127,0.374 -0.036,0.127 -0.064,0.256 -0.082,0.387 -0.018,0.131 -0.027,0.262 -0.026,0.394 l 0,68.99 c 0,0.132 0.01,0.263 0.027,0.394 0.018,0.13 0.045,0.26 0.081,0.387 0.033,0.128 0.075,0.253 0.127,0.374 0.051,0.122 0.11,0.24 0.177,0.353 0.066,0.114 0.139,0.224 0.219,0.329 0.081,0.104 0.168,0.203 0.262,0.296 0.093,0.094 0.192,0.181 0.296,0.261 0.105,0.081 0.215,0.154 0.329,0.22 0.113,0.067 0.231,0.125 0.353,0.177 0.122,0.05 0.247,0.093 0.374,0.127 0.127,0.036 0.256,0.064 0.387,0.082 0.131,0.018 0.262,0.027 0.394,0.026 l 44.783,0 c 0.132,0 0.263,-0.01 0.393,-0.027 0.131,-0.018 0.261,-0.045 0.388,-0.081 0.127,-0.033 0.253,-0.075 0.374,-0.127 0.121,-0.051 0.239,-0.11 0.353,-0.177 0.114,-0.066 0.224,-0.139 0.329,-0.22 0.104,-0.08 0.203,-0.167 0.296,-0.261 0.093,-0.093 0.181,-0.192 0.261,-0.296 0.081,-0.105 0.154,-0.215 0.219,-0.329 0.067,-0.114 0.126,-0.231 0.177,-0.353 0.051,-0.122 0.094,-0.247 0.128,-0.374 C -0.072,69.62 -0.045,69.49 -0.026,69.36 -0.008,69.229 0.001,69.098 0,68.966 L 0,68.954 0,0 z"
           style="fill:#ffffff;stroke:#000000;stroke-width:0.21600000999999999;stroke-linecap:butt;stroke-linejoin:bevel;stroke-miterlimit:22.92600059999999800;stroke-opacity:1;stroke-dasharray:none"
           id="path7648" />
      </g>
    </g>
    <path
       d="m -301.51536,-27.593085 0,29.2624998 88.74625,0 0,-29.2624998 -88.74625,0 z"
       style="fill:#ffffff;fill-opacity:1;fill-rule:nonzero;stroke:none"
       id="path7158" />
    <g
       id="g7632"
       transform="matrix(0,1.25,1.25,0,-300.23161,19.764415)"
       style="stroke:#000000">
      <path
         d="m 0,0 0,68.956 c -0.001,0.08 -0.006,0.159 -0.017,0.238 -0.01,0.079 -0.027,0.157 -0.048,0.234 -0.02,0.077 -0.046,0.152 -0.076,0.225 -0.031,0.074 -0.067,0.145 -0.108,0.213 -0.04,0.069 -0.084,0.135 -0.132,0.198 -0.048,0.063 -0.101,0.123 -0.158,0.179 -0.056,0.056 -0.115,0.109 -0.178,0.158 -0.063,0.048 -0.13,0.092 -0.199,0.132 -0.068,0.04 -0.139,0.076 -0.213,0.106 -0.073,0.031 -0.149,0.057 -0.225,0.077 -0.077,0.022 -0.155,0.039 -0.234,0.05 -0.079,0.011 -0.158,0.016 -0.237,0.016 l -44.764,0 c -0.08,-10e-4 -0.159,-0.007 -0.238,-0.017 -0.079,-0.011 -0.157,-0.027 -0.233,-0.049 -0.077,-0.019 -0.153,-0.045 -0.226,-0.075 -0.073,-0.031 -0.144,-0.067 -0.213,-0.108 -0.069,-0.04 -0.135,-0.084 -0.198,-0.132 -0.063,-0.049 -0.123,-0.102 -0.179,-0.158 -0.056,-0.056 -0.109,-0.116 -0.157,-0.179 -0.049,-0.063 -0.093,-0.129 -0.133,-0.198 -0.04,-0.068 -0.075,-0.139 -0.106,-0.213 -0.031,-0.073 -0.056,-0.149 -0.077,-0.225 -0.022,-0.077 -0.038,-0.155 -0.049,-0.234 -0.012,-0.079 -0.017,-0.158 -0.017,-0.238 l 0,-68.97 c 10e-4,-0.08 0.007,-0.16 0.017,-0.238 0.011,-0.079 0.027,-0.157 0.049,-0.234 0.02,-0.077 0.045,-0.152 0.076,-0.225 0.031,-0.074 0.067,-0.145 0.107,-0.213 0.04,-0.069 0.084,-0.135 0.133,-0.199 0.048,-0.062 0.101,-0.122 0.157,-0.178 0.056,-0.057 0.116,-0.11 0.179,-0.158 0.063,-0.048 0.129,-0.093 0.198,-0.132 0.069,-0.04 0.14,-0.076 0.213,-0.107 0.073,-0.03 0.149,-0.056 0.226,-0.077 0.076,-0.021 0.155,-0.038 0.233,-0.049 0.079,-0.011 0.159,-0.017 0.238,-0.016 l 0.014,0 44.735,0 0.015,0 c 0.079,0.001 0.158,0.006 0.237,0.017 0.079,0.011 0.157,0.027 0.234,0.048 0.077,0.02 0.152,0.046 0.225,0.077 0.074,0.03 0.145,0.066 0.213,0.107 0.069,0.04 0.136,0.084 0.199,0.132 0.062,0.049 0.122,0.102 0.178,0.158 0.057,0.056 0.11,0.116 0.158,0.178 0.048,0.063 0.093,0.13 0.132,0.199 0.04,0.068 0.076,0.139 0.107,0.213 0.03,0.073 0.056,0.149 0.077,0.225 0.022,0.077 0.038,0.155 0.049,0.234 0.011,0.078 0.017,0.158 0.016,0.238 L 0,0 z"
         style="fill:#cc0000;fill-opacity:1;fill-rule:evenodd;stroke:#000000;stroke-width:0.21600000999999999;stroke-linecap:butt;stroke-linejoin:bevel;stroke-miterlimit:22.92600059999999800;stroke-opacity:1;stroke-dasharray:none"
         id="path7634" />
    </g>
    <path
       d="m -293.45286,-31.675585 0,42.3625 72.62125,0 0,-42.3625 -72.62125,0 z"
       style="fill:#ffffff;fill-opacity:1;fill-rule:nonzero;stroke:none"
       id="path7636" />
    <g
       id="g7638"
       transform="matrix(0,1.25,1.25,0,-252.30161,-5.9555852)"
       style="fill:#000000;stroke:#000000">
      <path
         d="m 0,0 6.727,-1.809 0.019,-0.004 0.019,-0.005 c 0.061,-0.015 0.123,-0.026 0.186,-0.033 0.064,-0.007 0.127,-0.009 0.19,-0.007 0.064,0.001 0.127,0.007 0.19,0.017 0.062,0.01 0.124,0.024 0.185,0.043 0.061,0.017 0.121,0.039 0.179,0.065 0.057,0.026 0.114,0.055 0.167,0.089 0.055,0.032 0.107,0.069 0.156,0.109 0.049,0.04 0.096,0.083 0.139,0.129 0.044,0.046 0.085,0.095 0.122,0.146 0.037,0.051 0.071,0.105 0.101,0.161 0.031,0.056 0.057,0.113 0.08,0.172 0.023,0.06 0.041,0.12 0.056,0.182 0.015,0.062 0.026,0.124 0.033,0.187 0.006,0.063 0.008,0.127 0.006,0.19 C 8.554,-0.304 8.549,-0.241 8.539,-0.179 8.529,-0.116 8.514,-0.054 8.496,0.007 8.482,0.055 8.466,0.103 8.447,0.149 8.428,0.196 8.406,0.241 8.381,0.285 8.379,0.29 8.376,0.295 8.373,0.3 L 8.365,0.315 -3.631,21.303 -15.627,0.315 -15.636,0.298 -15.645,0.282 c -0.031,-0.056 -0.057,-0.114 -0.08,-0.173 -0.022,-0.059 -0.041,-0.12 -0.055,-0.182 -0.015,-0.061 -0.026,-0.124 -0.032,-0.187 -0.006,-0.063 -0.008,-0.127 -0.006,-0.19 0.002,-0.064 0.008,-0.127 0.018,-0.189 0.01,-0.063 0.025,-0.125 0.043,-0.185 0.018,-0.061 0.04,-0.121 0.066,-0.179 0.026,-0.057 0.056,-0.113 0.09,-0.167 0.033,-0.054 0.07,-0.106 0.11,-0.155 0.04,-0.049 0.083,-0.095 0.13,-0.139 0.046,-0.043 0.094,-0.084 0.146,-0.121 0.051,-0.037 0.105,-0.07 0.162,-0.1 0.055,-0.031 0.113,-0.057 0.172,-0.08 0.059,-0.022 0.12,-0.04 0.182,-0.055 0.062,-0.014 0.124,-0.025 0.187,-0.031 0.063,-0.007 0.127,-0.009 0.19,-0.007 0.051,0.002 0.101,0.006 0.151,0.012 0.049,0.007 0.099,0.017 0.147,0.029 l 0.017,0.004 0.017,0.004 6.728,1.809 0,-24.449 0,-0.048 c 0,-0.016 0,-0.031 10e-4,-0.047 0.003,-0.159 0.017,-0.317 0.042,-0.473 0.024,-0.157 0.06,-0.312 0.106,-0.463 0.043,-0.153 0.098,-0.302 0.162,-0.447 0.065,-0.145 0.14,-0.285 0.224,-0.419 0.082,-0.136 0.173,-0.266 0.273,-0.389 0.099,-0.123 0.208,-0.239 0.323,-0.348 0.114,-0.11 0.236,-0.212 0.364,-0.305 0.129,-0.093 0.263,-0.178 0.403,-0.252 0.139,-0.077 0.283,-0.144 0.431,-0.2 0.148,-0.057 0.299,-0.104 0.454,-0.14 0.119,-0.029 0.239,-0.053 0.361,-0.069 0.121,-0.017 0.243,-0.027 0.366,-0.029 0.014,-0.001 0.029,-0.001 0.043,-0.001 l 0.043,-10e-4 0.048,0 c 0.016,0 0.032,0 0.047,0 0.159,0.002 0.317,0.015 0.474,0.038 0.157,0.023 0.312,0.057 0.464,0.102 0.153,0.042 0.303,0.094 0.448,0.158 0.145,0.063 0.286,0.136 0.421,0.219 0.137,0.081 0.268,0.171 0.392,0.269 0.124,0.099 0.241,0.206 0.351,0.321 0.111,0.113 0.214,0.233 0.308,0.361 0.095,0.127 0.18,0.261 0.256,0.4 0.078,0.138 0.146,0.282 0.204,0.429 0.059,0.147 0.107,0.299 0.144,0.453 0.034,0.13 0.06,0.262 0.078,0.395 0.018,0.132 0.028,0.266 0.03,0.399 0,0.015 0,0.029 0,0.044 L 0,-24.449 0,0 z"
         style="fill:#000000;fill-opacity:1;fill-rule:evenodd;stroke:#000000;stroke-width:0.21600000999999999;stroke-linecap:butt;stroke-linejoin:bevel;stroke-miterlimit:22.92600059999999800;stroke-opacity:1;stroke-dasharray:none"
         id="path7640" />
    </g>
  </g>
</svg>
