<?xml version="1.0" encoding="UTF-8" standalone="no"?>
<!-- Created with Inkscape (http://www.inkscape.org/) -->

<svg
   xmlns:dc="http://purl.org/dc/elements/1.1/"
   xmlns:cc="http://creativecommons.org/ns#"
   xmlns:rdf="http://www.w3.org/1999/02/22-rdf-syntax-ns#"
   xmlns:svg="http://www.w3.org/2000/svg"
   xmlns="http://www.w3.org/2000/svg"
   xmlns:sodipodi="http://sodipodi.sourceforge.net/DTD/sodipodi-0.dtd"
   xmlns:inkscape="http://www.inkscape.org/namespaces/inkscape"
   width="71.18251"
   height="71.181396"
   id="svg15609"
   version="1.1"
   inkscape:version="0.47 r22583"
   sodipodi:docname="B.8 Gebot.svg">
  <defs
     id="defs15611">
    <inkscape:perspective
       sodipodi:type="inkscape:persp3d"
       inkscape:vp_x="0 : 35.568226 : 1"
       inkscape:vp_y="0 : 1000 : 0"
       inkscape:vp_z="71.136459 : 35.568226 : 1"
       inkscape:persp3d-origin="35.56823 : 23.712151 : 1"
       id="perspective12" />
    <inkscape:perspective
       id="perspective2859"
       inkscape:persp3d-origin="35.56823 : 23.712118 : 1"
       inkscape:vp_z="71.136459 : 35.568176 : 1"
       inkscape:vp_y="0 : 1000 : 0"
       inkscape:vp_x="0 : 35.568176 : 1"
       sodipodi:type="inkscape:persp3d" />
  </defs>
  <sodipodi:namedview
     id="base"
     pagecolor="#ffffff"
     bordercolor="#666666"
     borderopacity="1.0"
     inkscape:pageopacity="0.0"
     inkscape:pageshadow="2"
     inkscape:zoom="7.0383559"
     inkscape:cx="35.591255"
     inkscape:cy="35.590698"
     inkscape:document-units="px"
     inkscape:current-layer="layer1"
     showgrid="false"
     inkscape:window-width="1280"
     inkscape:window-height="748"
     inkscape:window-x="-8"
     inkscape:window-y="-8"
     inkscape:window-maximized="1" />
  <metadata
     id="metadata15614">
    <rdf:RDF>
      <cc:Work
         rdf:about="">
        <dc:format>image/svg+xml</dc:format>
        <dc:type
           rdf:resource="http://purl.org/dc/dcmitype/StillImage" />
        <dc:title />
      </cc:Work>
    </rdf:RDF>
  </metadata>
  <g
     inkscape:label="Ebene 1"
     inkscape:groupmode="layer"
     id="layer1"
     transform="translate(-981.55159,-833.91435)">
    <path
       d="m 992.33975,844.70197 0,49.60625 49.60625,0 0,-49.60625 -49.60625,0 z"
       style="fill:#ffffff;fill-opacity:1;fill-rule:nonzero;stroke:none"
       id="path7862" />
    <path
       id="path7846"
       style="fill:#ffffff;stroke:#000000;stroke-width:0.27000001;stroke-linecap:butt;stroke-linejoin:bevel;stroke-miterlimit:22.9260006;stroke-opacity:1;stroke-dasharray:none"
       d="m 985.94163,904.8931 62.43497,0 c 0.1813,-10e-4 0.3625,-0.0137 0.5413,-0.0375 0.1787,-0.025 0.3562,-0.0613 0.5312,-0.11125 0.175,-0.045 0.3475,-0.10375 0.5138,-0.17375 0.1662,-0.07 0.3287,-0.15125 0.4837,-0.24375 0.1575,-0.09 0.3088,-0.19125 0.4513,-0.30125 0.1437,-0.11 0.28,-0.23 0.4075,-0.35875 0.1287,-0.1275 0.2487,-0.2625 0.3587,-0.40625 0.11,-0.14375 0.2113,-0.295 0.3,-0.45125 0.092,-0.15625 0.1738,-0.31875 0.2425,-0.485 0.071,-0.1675 0.1288,-0.33875 0.1763,-0.51375 0.049,-0.17375 0.086,-0.3525 0.1125,-0.53125 0.025,-0.17875 0.037,-0.36 0.036,-0.54 l 0,-62.46875 c -10e-4,-0.18125 -0.014,-0.36125 -0.039,-0.54 -0.024,-0.18 -0.061,-0.3575 -0.11,-0.5325 -0.045,-0.175 -0.1038,-0.34625 -0.1738,-0.51375 -0.07,-0.16625 -0.1525,-0.32875 -0.245,-0.48375 -0.09,-0.1575 -0.19,-0.3075 -0.3,-0.45125 -0.11,-0.14375 -0.23,-0.27875 -0.3587,-0.40625 -0.1275,-0.12875 -0.2638,-0.24875 -0.4075,-0.36 -0.1425,-0.11 -0.2938,-0.21 -0.4513,-0.3 -0.155,-0.0913 -0.3175,-0.1725 -0.4837,-0.2425 -0.1675,-0.07 -0.3388,-0.12875 -0.5138,-0.175 -0.175,-0.05 -0.3525,-0.0875 -0.5312,-0.1125 -0.1788,-0.025 -0.36,-0.0375 -0.5413,-0.0362 l -62.46747,0 c -0.18125,0 -0.3625,0.0137 -0.54125,0.0375 -0.18,0.0238 -0.3575,0.0613 -0.53125,0.11125 -0.175,0.045 -0.3475,0.1025 -0.51375,0.1725 -0.1675,0.0712 -0.32875,0.1525 -0.485,0.245 -0.15625,0.09 -0.3075,0.19 -0.45125,0.3 -0.1425,0.11125 -0.27875,0.23125 -0.40625,0.36 -0.12875,0.1275 -0.24875,0.2625 -0.35875,0.40625 -0.11125,0.14375 -0.21125,0.29375 -0.30125,0.45125 -0.0913,0.15625 -0.1725,0.3175 -0.2425,0.485 -0.07,0.16625 -0.12875,0.33875 -0.175,0.5125 -0.05,0.175 -0.0875,0.3525 -0.1125,0.5325 -0.025,0.17875 -0.0375,0.35875 -0.0362,0.54 l 0,62.46875 c 10e-4,0.18 0.0138,0.36125 0.0387,0.54 0.0238,0.18 0.06,0.3575 0.11,0.53125 0.045,0.175 0.10375,0.3475 0.17375,0.51375 0.07,0.1675 0.15125,0.32875 0.24375,0.485 0.09,0.15625 0.19125,0.3075 0.30125,0.45125 0.11,0.14375 0.23,0.27875 0.35875,0.40625 0.1275,0.12875 0.26375,0.24875 0.40625,0.35875 0.14375,0.11 0.295,0.21125 0.45125,0.30125 0.15625,0.0913 0.31875,0.1725 0.485,0.2425 0.1675,0.07 0.33875,0.1275 0.51375,0.175 0.175,0.05 0.3525,0.0875 0.53125,0.1125 0.17875,0.025 0.36,0.0375 0.54125,0.0362 l 0.0325,0 z" />
    <path
       d="m 985.94163,904.9606 -0.0337,0 c -0.18375,-10e-4 -0.3675,-0.0137 -0.54875,-0.0387 -0.1825,-0.0238 -0.36375,-0.0625 -0.54,-0.11125 -0.17875,-0.0462 -0.3525,-0.10625 -0.5225,-0.1775 -0.17,-0.0712 -0.33375,-0.15375 -0.4925,-0.2475 -0.15875,-0.0925 -0.3125,-0.19375 -0.4575,-0.30625 -0.14625,-0.1125 -0.28375,-0.23375 -0.41375,-0.365 -0.13125,-0.12875 -0.2525,-0.26625 -0.365,-0.4125 -0.1125,-0.14625 -0.21375,-0.29875 -0.305,-0.45875 -0.0937,-0.15875 -0.17625,-0.32375 -0.2475,-0.4925 -0.0713,-0.17 -0.13,-0.34375 -0.1775,-0.5225 -0.05,-0.17625 -0.0888,-0.3575 -0.11375,-0.54 -0.0263,-0.18125 -0.0388,-0.365 -0.0375,-0.54875 l 0,-62.46875 c 10e-4,-0.18375 0.0138,-0.3675 0.0387,-0.55 0.025,-0.1825 0.0625,-0.3625 0.1125,-0.53875 0.0462,-0.17875 0.105,-0.35375 0.17625,-0.52375 0.0713,-0.16875 0.15375,-0.33375 0.24875,-0.49125 0.0913,-0.16 0.1925,-0.3125 0.305,-0.45875 0.1125,-0.14625 0.23375,-0.28375 0.365,-0.41375 0.12875,-0.13 0.2675,-0.2525 0.4125,-0.36375 0.14625,-0.1125 0.3,-0.215 0.45875,-0.30625 0.15875,-0.0937 0.32375,-0.175 0.4925,-0.24625 0.17,-0.0712 0.345,-0.13 0.5225,-0.17875 0.17625,-0.05 0.3575,-0.0887 0.54,-0.11375 0.18125,-0.0263 0.365,-0.0375 0.54875,-0.0362 l 62.47002,0 c 0.1837,10e-4 0.3675,0.0137 0.5487,0.0375 0.1825,0.025 0.3625,0.0625 0.54,0.1125 0.1788,0.0463 0.3525,0.105 0.5225,0.1775 0.17,0.0712 0.3338,0.15375 0.4925,0.2475 0.1588,0.0913 0.3125,0.19375 0.4575,0.30625 0.1463,0.11125 0.285,0.23375 0.4138,0.36375 0.1312,0.13 0.2525,0.2675 0.365,0.41375 0.1112,0.14625 0.2137,0.29875 0.3062,0.45875 0.092,0.15875 0.175,0.3225 0.2463,0.4925 0.071,0.17 0.13,0.34375 0.1775,0.5225 0.051,0.17625 0.089,0.3575 0.115,0.53875 0.025,0.1825 0.038,0.36625 0.036,0.55 l 0,62.46875 c -10e-4,0.18375 -0.014,0.3675 -0.039,0.55 -0.025,0.18125 -0.062,0.3625 -0.1125,0.53875 -0.046,0.17875 -0.105,0.3525 -0.1763,0.5225 -0.071,0.17 -0.1537,0.33375 -0.2475,0.4925 -0.093,0.16 -0.195,0.3125 -0.3062,0.45875 -0.1125,0.145 -0.2338,0.28375 -0.365,0.4125 -0.1288,0.13125 -0.2675,0.25375 -0.4138,0.365 -0.145,0.1125 -0.2987,0.215 -0.4575,0.30625 -0.1587,0.0925 -0.3237,0.175 -0.4925,0.24625 -0.17,0.0712 -0.345,0.13 -0.5225,0.17875 -0.1775,0.05 -0.3575,0.0875 -0.54,0.11375 -0.1812,0.025 -0.365,0.0375 -0.5487,0.0362 l -62.43627,0 z"
       style="fill:#ffffff;stroke:#000000;stroke-width:0.27000001;stroke-linecap:butt;stroke-linejoin:bevel;stroke-miterlimit:22.9260006;stroke-opacity:1;stroke-dasharray:none"
       id="path7850" />
    <path
       id="path7842"
       style="fill:#cc0000;fill-opacity:1;fill-rule:evenodd;stroke:#000000;stroke-width:0.27000001;stroke-linecap:butt;stroke-linejoin:bevel;stroke-miterlimit:22.9260006;stroke-opacity:1;stroke-dasharray:none"
       d="m 985.94163,903.27185 -0.02,0 c -0.11125,-10e-4 -0.22125,-0.009 -0.33125,-0.0238 -0.11,-0.015 -0.21875,-0.0375 -0.32625,-0.0675 -0.1075,-0.0275 -0.2125,-0.0638 -0.315,-0.10625 -0.1025,-0.0425 -0.20125,-0.0925 -0.29625,-0.15 -0.0962,-0.055 -0.18875,-0.11625 -0.2775,-0.18375 -0.0875,-0.0688 -0.17125,-0.14125 -0.24875,-0.22125 -0.0788,-0.0775 -0.1525,-0.16 -0.22,-0.24875 -0.0675,-0.0875 -0.12875,-0.18 -0.18375,-0.27625 -0.0562,-0.095 -0.10625,-0.195 -0.14875,-0.2975 -0.0437,-0.1025 -0.0788,-0.2075 -0.1075,-0.31375 -0.0312,-0.1075 -0.0537,-0.21625 -0.0687,-0.32625 -0.0163,-0.11 -0.0238,-0.22125 -0.0225,-0.33125 l 0,-62.4425 c 0,-0.11125 0.009,-0.2225 0.0238,-0.33125 0.0138,-0.11 0.0362,-0.21875 0.0675,-0.32625 0.0275,-0.1075 0.0625,-0.2125 0.10625,-0.315 0.0425,-0.1025 0.0925,-0.20125 0.15,-0.2975 0.055,-0.095 0.11625,-0.1875 0.18375,-0.27625 0.0675,-0.0875 0.14125,-0.17 0.22,-0.24875 0.0775,-0.0788 0.16125,-0.1525 0.24875,-0.22 0.0888,-0.0675 0.18125,-0.12875 0.2775,-0.185 0.095,-0.055 0.195,-0.105 0.29625,-0.1475 0.1025,-0.0437 0.2075,-0.0788 0.315,-0.1075 0.1075,-0.0312 0.21625,-0.0538 0.32625,-0.0688 0.11,-0.0162 0.22,-0.0237 0.33125,-0.0225 l 62.44247,0 c 0.1113,0 0.2213,0.007 0.3313,0.0225 0.11,0.015 0.2187,0.0375 0.3262,0.0688 0.1075,0.0275 0.2125,0.0625 0.315,0.10625 0.1025,0.0425 0.2013,0.0925 0.2975,0.14875 0.095,0.0562 0.1875,0.1175 0.275,0.185 0.089,0.0675 0.1713,0.14125 0.25,0.22 0.079,0.0787 0.1525,0.16125 0.22,0.24875 0.067,0.0887 0.1288,0.18125 0.1838,0.27625 0.056,0.0963 0.1062,0.195 0.1487,0.2975 0.043,0.1025 0.079,0.2075 0.1075,0.315 0.03,0.1075 0.054,0.21625 0.069,0.32625 0.016,0.10875 0.024,0.22 0.023,0.33125 l 0,62.4425 c 0,0.11 -0.01,0.22125 -0.023,0.33125 -0.015,0.11 -0.039,0.21875 -0.069,0.32625 -0.027,0.10625 -0.062,0.2125 -0.1062,0.315 -0.043,0.10125 -0.092,0.20125 -0.15,0.29625 -0.055,0.0962 -0.1163,0.18875 -0.1838,0.27625 -0.068,0.0875 -0.1412,0.17125 -0.22,0.24875 -0.079,0.08 -0.1612,0.15375 -0.25,0.22125 -0.088,0.0675 -0.18,0.12875 -0.275,0.18375 -0.096,0.0563 -0.195,0.10625 -0.2975,0.14875 -0.1025,0.0425 -0.2075,0.0788 -0.315,0.1075 -0.1075,0.03 -0.2162,0.0537 -0.3262,0.0688 -0.11,0.0162 -0.22,0.0225 -0.3313,0.0225 l -0.02,0 -62.40247,0 z" />
    <path
       d="m 993.50538,845.8681 0,47.275 47.27502,0 0,-47.275 -47.27502,0 z"
       style="fill:#ffffff;fill-opacity:1;fill-rule:nonzero;stroke:none"
       id="path7852" />
    <g
       id="g7874"
       transform="matrix(0,1.25,1.25,0,1022.4572,881.19692)"
       style="fill:#000000;stroke:#000000">
      <path
         d="M 0,0 0.033,0 C 0.217,-0.001 0.401,-0.014 0.583,-0.039 0.765,-0.063 0.945,-0.101 1.122,-0.15 1.3,-0.197 1.474,-0.256 1.644,-0.327 1.813,-0.398 1.978,-0.481 2.136,-0.575 2.295,-0.667 2.448,-0.769 2.594,-0.881 2.74,-0.993 2.877,-1.115 3.007,-1.245 3.138,-1.375 3.26,-1.512 3.372,-1.658 3.484,-1.804 3.586,-1.957 3.677,-2.116 3.77,-2.275 3.852,-2.439 3.923,-2.608 3.994,-2.778 4.054,-2.952 4.101,-3.13 4.152,-3.307 4.19,-3.487 4.215,-3.67 4.241,-3.851 4.253,-4.035 4.252,-4.219 l 0,-0.066 C 4.251,-4.469 4.238,-4.652 4.213,-4.835 4.189,-5.017 4.151,-5.197 4.101,-5.374 4.055,-5.552 3.996,-5.726 3.925,-5.896 3.854,-6.065 3.771,-6.229 3.677,-6.388 3.585,-6.547 3.483,-6.7 3.371,-6.846 3.259,-6.992 3.137,-7.129 3.007,-7.259 2.878,-7.389 2.74,-7.512 2.594,-7.624 2.448,-7.735 2.295,-7.838 2.136,-7.929 1.977,-8.022 1.813,-8.104 1.643,-8.175 1.474,-8.246 1.3,-8.306 1.122,-8.353 0.945,-8.404 0.764,-8.442 0.582,-8.467 0.401,-8.493 0.217,-8.505 0.033,-8.504 l -18.775,0 c -0.184,10e-4 -0.367,0.014 -0.549,0.039 -0.183,0.024 -0.363,0.062 -0.54,0.112 -0.178,0.046 -0.352,0.105 -0.521,0.176 -0.17,0.072 -0.334,0.154 -0.492,0.248 -0.16,0.092 -0.313,0.194 -0.459,0.306 -0.145,0.112 -0.283,0.234 -0.412,0.364 -0.131,0.13 -0.253,0.267 -0.365,0.413 -0.112,0.146 -0.214,0.299 -0.305,0.458 -0.094,0.159 -0.176,0.323 -0.247,0.493 -0.071,0.169 -0.13,0.344 -0.178,0.521 -0.05,0.177 -0.088,0.358 -0.114,0.54 -0.026,0.182 -0.038,0.365 -0.037,0.549 l 0,0.066 c 10e-4,0.184 0.014,0.368 0.039,0.55 0.025,0.182 0.062,0.362 0.112,0.539 0.046,0.178 0.105,0.352 0.176,0.522 0.072,0.169 0.155,0.333 0.249,0.492 0.091,0.159 0.193,0.312 0.305,0.458 0.112,0.146 0.234,0.283 0.365,0.413 0.129,0.131 0.267,0.253 0.412,0.365 0.146,0.112 0.299,0.214 0.459,0.305 0.158,0.093 0.323,0.175 0.492,0.246 0.17,0.071 0.344,0.131 0.521,0.179 0.177,0.05 0.358,0.088 0.54,0.113 0.182,0.026 0.365,0.038 0.549,0.037 L 0,0 z"
         style="fill:#000000;fill-opacity:1;fill-rule:evenodd;stroke:#000000;stroke-width:0.21600001;stroke-linecap:butt;stroke-linejoin:bevel;stroke-miterlimit:22.9260006;stroke-opacity:1;stroke-dasharray:none"
         id="path7876" />
    </g>
  </g>
</svg>
