<?xml version="1.0" encoding="UTF-8" standalone="no"?>
<!-- Created with Inkscape (http://www.inkscape.org/) -->

<svg
   xmlns:dc="http://purl.org/dc/elements/1.1/"
   xmlns:cc="http://creativecommons.org/ns#"
   xmlns:rdf="http://www.w3.org/1999/02/22-rdf-syntax-ns#"
   xmlns:svg="http://www.w3.org/2000/svg"
   xmlns="http://www.w3.org/2000/svg"
   xmlns:sodipodi="http://sodipodi.sourceforge.net/DTD/sodipodi-0.dtd"
   xmlns:inkscape="http://www.inkscape.org/namespaces/inkscape"
   width="71.135361"
   height="71.136322"
   id="svg13278"
   version="1.1"
   inkscape:version="0.47 r22583"
   sodipodi:docname="A.12 Fahrverbot für Fahrzeuge mit Maschinenantrieb.svg">
  <defs
     id="defs13280" />
  <sodipodi:namedview
     id="base"
     pagecolor="#ffffff"
     bordercolor="#666666"
     borderopacity="1.0"
     inkscape:pageopacity="0.0"
     inkscape:pageshadow="2"
     inkscape:zoom="7.352081"
     inkscape:cx="35.56768"
     inkscape:cy="35.568161"
     inkscape:document-units="px"
     inkscape:current-layer="layer1"
     showgrid="false"
     inkscape:window-width="1280"
     inkscape:window-height="748"
     inkscape:window-x="-8"
     inkscape:window-y="-8"
     inkscape:window-maximized="1" />
  <metadata
     id="metadata13283">
    <rdf:RDF>
      <cc:Work
         rdf:about="">
        <dc:format>image/svg+xml</dc:format>
        <dc:type
           rdf:resource="http://purl.org/dc/dcmitype/StillImage" />
        <dc:title />
      </cc:Work>
    </rdf:RDF>
  </metadata>
  <g
     inkscape:label="Ebene 1"
     inkscape:groupmode="layer"
     id="layer1"
     transform="translate(-550.14665,-591.07974)">
    <path
       d="m 555.00564,662.01352 61.4175,0 0.0175,0 0.0187,0 c 0.20125,-10e-4 0.4025,-0.015 0.60125,-0.0425 0.2,-0.0263 0.3975,-0.0675 0.59125,-0.1225 0.195,-0.0512 0.385,-0.115 0.57125,-0.19375 0.18625,-0.0775 0.36625,-0.16875 0.53875,-0.27125 0.175,-0.1 0.3425,-0.2125 0.5025,-0.335 0.15875,-0.1225 0.31,-0.25625 0.45125,-0.39875 0.14375,-0.14125 0.2775,-0.2925 0.4,-0.4525 0.1225,-0.15875 0.235,-0.3275 0.335,-0.50125 0.10125,-0.17375 0.19125,-0.35375 0.26875,-0.54 0.0775,-0.185 0.1425,-0.37625 0.195,-0.57 0.055,-0.195 0.0975,-0.3925 0.125,-0.5925 0.0287,-0.19875 0.0412,-0.4 0.04,-0.6 l 0,-61.49125 c -10e-4,-0.20125 -0.015,-0.40125 -0.0425,-0.60125 -0.0263,-0.19875 -0.0675,-0.39625 -0.1225,-0.59 -0.05,-0.195 -0.115,-0.38625 -0.1925,-0.57125 -0.0788,-0.18625 -0.16875,-0.36625 -0.27125,-0.54 -0.10125,-0.17375 -0.2125,-0.3425 -0.335,-0.50125 -0.1225,-0.16 -0.25625,-0.31125 -0.4,-0.4525 -0.14125,-0.1425 -0.2925,-0.27625 -0.45125,-0.39875 -0.16,-0.12375 -0.3275,-0.235 -0.5025,-0.335 -0.1725,-0.1025 -0.35375,-0.1925 -0.53875,-0.27 -0.18625,-0.0775 -0.3775,-0.1425 -0.57125,-0.195 -0.19375,-0.055 -0.39125,-0.0963 -0.59125,-0.125 -0.19875,-0.0275 -0.4,-0.0412 -0.60125,-0.04 l -61.49,0 c -0.20125,10e-4 -0.4025,0.015 -0.60125,0.0425 -0.2,0.0275 -0.3975,0.0688 -0.59125,0.1225 -0.195,0.0512 -0.38625,0.115 -0.57125,0.19375 -0.18625,0.0775 -0.36625,0.16875 -0.53875,0.27125 -0.175,0.1 -0.3425,0.21125 -0.5025,0.335 -0.15875,0.1225 -0.31,0.25625 -0.45125,0.39875 -0.14375,0.14125 -0.2775,0.2925 -0.4,0.4525 -0.1225,0.15875 -0.235,0.3275 -0.33375,0.50125 -0.1025,0.17375 -0.1925,0.35375 -0.27,0.54 -0.0775,0.185 -0.14375,0.37625 -0.19625,0.57125 -0.0538,0.19375 -0.0963,0.39125 -0.12375,0.59 -0.0288,0.2 -0.0413,0.4 -0.04,0.60125 l 0,0.0187 -10e-4,0.0187 0,61.41625 10e-4,0.0188 0,0.0187 c 10e-4,0.20125 0.015,0.40125 0.0412,0.60125 0.0275,0.19875 0.0688,0.39625 0.1225,0.59125 0.0512,0.19375 0.11625,0.385 0.19375,0.57125 0.0787,0.185 0.16875,0.365 0.2725,0.53875 0.1,0.17375 0.21125,0.34125 0.33375,0.50125 0.1225,0.16 0.25625,0.31125 0.4,0.4525 0.14125,0.14375 0.2925,0.27625 0.45125,0.39875 0.16,0.12375 0.3275,0.235 0.5025,0.335 0.1725,0.1025 0.35375,0.1925 0.53875,0.27 0.18625,0.0775 0.37625,0.1425 0.57125,0.195 0.19375,0.055 0.39125,0.0962 0.59125,0.125 0.19875,0.0275 0.4,0.0412 0.60125,0.04 l 0.0188,0 0.0175,0 z"
       style="fill:none;stroke:#231f20;stroke-width:0.27000001;stroke-linecap:butt;stroke-linejoin:bevel;stroke-miterlimit:22.9260006;stroke-opacity:1;stroke-dasharray:none"
       id="path20318" />
    <path
       id="path20322"
       style="fill:none;stroke:#000000;stroke-width:0.27000001000000001;stroke-linecap:butt;stroke-linejoin:bevel;stroke-miterlimit:22.92600059999999800;stroke-opacity:1;stroke-dasharray:none"
       d="m 555.00564,662.08102 -0.0362,0 c -0.205,-10e-4 -0.40875,-0.015 -0.61125,-0.0425 -0.2025,-0.0275 -0.4025,-0.07 -0.59875,-0.125 -0.1975,-0.0512 -0.39125,-0.11625 -0.58,-0.19625 -0.18875,-0.0788 -0.37125,-0.17125 -0.54625,-0.275 -0.1775,-0.1025 -0.3475,-0.215 -0.51,-0.34 -0.16125,-0.12375 -0.315,-0.26 -0.45875,-0.405 -0.145,-0.14375 -0.28,-0.29625 -0.405,-0.45875 -0.125,-0.16125 -0.2375,-0.33125 -0.33875,-0.50875 -0.10375,-0.17625 -0.195,-0.35875 -0.27375,-0.5475 -0.0788,-0.18875 -0.145,-0.38125 -0.1975,-0.57875 -0.0562,-0.1975 -0.0987,-0.3975 -0.1275,-0.6 -0.0288,-0.2025 -0.0425,-0.40625 -0.04,-0.61 l 0,-61.49125 c 0.001,-0.20375 0.015,-0.4075 0.0425,-0.61 0.0275,-0.2025 0.0688,-0.4025 0.125,-0.6 0.05,-0.1975 0.11625,-0.39125 0.195,-0.57875 0.08,-0.18875 0.17125,-0.37125 0.27625,-0.5475 0.10125,-0.17625 0.215,-0.34625 0.33875,-0.50875 0.125,-0.16125 0.26,-0.315 0.405,-0.45875 0.14375,-0.145 0.2975,-0.28125 0.45875,-0.40625 0.1625,-0.12375 0.3325,-0.2375 0.51,-0.33875 0.175,-0.10375 0.3575,-0.195 0.54625,-0.27375 0.18875,-0.0788 0.3825,-0.145 0.58,-0.1975 0.19625,-0.0562 0.39625,-0.0975 0.6,-0.12625 0.20125,-0.0288 0.405,-0.0425 0.61,-0.0412 l 61.49125,0 c 0.20375,10e-4 0.4075,0.0162 0.61,0.0437 0.20125,0.0263 0.4025,0.0688 0.59875,0.12375 0.1975,0.0513 0.39125,0.1175 0.58,0.19625 0.18875,0.0788 0.37125,0.17125 0.54625,0.275 0.1775,0.1025 0.3475,0.215 0.50875,0.34 0.1625,0.125 0.31625,0.26 0.46,0.405 0.145,0.14375 0.28,0.2975 0.405,0.45875 0.125,0.1625 0.2375,0.33125 0.33875,0.50875 0.10375,0.17625 0.195,0.35875 0.27375,0.5475 0.0788,0.18875 0.145,0.38125 0.1975,0.57875 0.0562,0.1975 0.0987,0.3975 0.1275,0.6 0.0275,0.2025 0.0412,0.40625 0.04,0.61 l 0,61.49125 c -10e-4,0.20375 -0.015,0.4075 -0.0425,0.61 -0.0275,0.2025 -0.0688,0.4025 -0.125,0.6 -0.0512,0.1975 -0.11625,0.39125 -0.19625,0.58 -0.0788,0.1875 -0.17125,0.37 -0.275,0.54625 -0.10125,0.1775 -0.215,0.3475 -0.33875,0.50875 -0.125,0.1625 -0.26,0.315 -0.405,0.45875 -0.14375,0.145 -0.2975,0.28125 -0.46,0.405 -0.16125,0.125 -0.33125,0.23875 -0.50875,0.34 -0.17625,0.1025 -0.3575,0.195 -0.54625,0.27375 -0.18875,0.0788 -0.3825,0.145 -0.58,0.1975 -0.19625,0.0563 -0.3975,0.0975 -0.6,0.12625 -0.20125,0.0288 -0.405,0.0425 -0.60875,0.0412 l -61.455,0 z" />
    <path
       d="m 555.00564,660.30852 -0.0225,0 c -0.1275,-0.001 -0.255,-0.01 -0.38125,-0.0275 -0.1275,-0.0163 -0.2525,-0.0425 -0.375,-0.0775 -0.12375,-0.0312 -0.245,-0.0725 -0.3625,-0.1225 -0.1175,-0.0487 -0.23125,-0.10625 -0.34125,-0.17125 -0.11125,-0.0638 -0.2175,-0.135 -0.31875,-0.2125 -0.10125,-0.0788 -0.1975,-0.1625 -0.28625,-0.25375 -0.0912,-0.09 -0.17625,-0.185 -0.25375,-0.28625 -0.0775,-0.10125 -0.14875,-0.2075 -0.2125,-0.31875 -0.0638,-0.11 -0.12125,-0.22375 -0.17,-0.34125 -0.05,-0.1175 -0.0912,-0.23875 -0.125,-0.3625 -0.0337,-0.1225 -0.0612,-0.24875 -0.0788,-0.375 -0.0175,-0.12625 -0.0263,-0.25375 -0.025,-0.38125 l 0,-61.46375 c 0,-0.1275 0.01,-0.25375 0.0263,-0.38125 0.0175,-0.12625 0.0438,-0.25125 0.0775,-0.37375 0.0325,-0.12375 0.0738,-0.245 0.12375,-0.3625 0.0488,-0.1175 0.10625,-0.2325 0.17125,-0.34125 0.0637,-0.11125 0.135,-0.2175 0.2125,-0.31875 0.0788,-0.10125 0.1625,-0.1975 0.25375,-0.2875 0.0888,-0.09 0.185,-0.175 0.28625,-0.2525 0.10125,-0.0775 0.2075,-0.14875 0.31875,-0.2125 0.11,-0.0638 0.22375,-0.12125 0.34125,-0.17125 0.1175,-0.0488 0.23875,-0.09 0.3625,-0.12375 0.1225,-0.0338 0.2475,-0.06 0.375,-0.0788 0.12625,-0.0175 0.25375,-0.0263 0.38125,-0.025 l 61.4625,0 c 0.12875,0 0.255,0.01 0.38125,0.0262 0.1275,0.0175 0.2525,0.0438 0.375,0.0775 0.12375,0.0325 0.245,0.0737 0.3625,0.12375 0.1175,0.0487 0.23125,0.10625 0.34125,0.17125 0.11125,0.0638 0.2175,0.135 0.31875,0.2125 0.10125,0.0775 0.1975,0.1625 0.2875,0.2525 0.09,0.09 0.175,0.18625 0.2525,0.2875 0.0775,0.10125 0.14875,0.2075 0.21125,0.31875 0.065,0.11 0.1225,0.22375 0.1725,0.34125 0.0488,0.1175 0.09,0.23875 0.1225,0.3625 0.035,0.1225 0.0613,0.2475 0.0788,0.375 0.0188,0.12625 0.0275,0.2525 0.0263,0.38 l 0,61.46375 c 0,0.1275 -0.01,0.255 -0.0263,0.38125 -0.0175,0.12625 -0.0437,0.2525 -0.0788,0.375 -0.0312,0.12375 -0.0725,0.245 -0.1225,0.3625 -0.05,0.1175 -0.10625,0.23125 -0.1725,0.34125 -0.0625,0.11125 -0.13375,0.2175 -0.21125,0.31875 -0.0775,0.10125 -0.1625,0.19625 -0.2525,0.28625 -0.09,0.0912 -0.18625,0.17625 -0.2875,0.25375 -0.10125,0.0775 -0.2075,0.14875 -0.31875,0.2125 -0.11,0.0638 -0.22375,0.12125 -0.34125,0.17 -0.1175,0.05 -0.23875,0.0912 -0.3625,0.12375 -0.1225,0.035 -0.2475,0.0612 -0.375,0.08 -0.12625,0.0175 -0.2525,0.0263 -0.38125,0.025 l -61.44,0 z"
       style="fill:#cc0000;fill-opacity:1;fill-rule:evenodd;stroke:#000000;stroke-width:0.27000001000000001;stroke-linecap:butt;stroke-linejoin:bevel;stroke-miterlimit:22.92600059999999800;stroke-opacity:1;stroke-dasharray:none"
       id="path20326" />
    <path
       d="m 602.17814,650.26977 -40.085,-40.085 0,40.085 40.085,0"
       style="fill:#ffffff;fill-opacity:1;fill-rule:evenodd;stroke:none"
       id="path20330" />
    <path
       d="m 609.33564,643.11102 0,-40.085 -40.085,0 40.085,40.085"
       style="fill:#ffffff;fill-opacity:1;fill-rule:evenodd;stroke:none"
       id="path20334" />
    <path
       d="m 590.81689,631.39602 c 0.0575,0.0487 0.11375,0.0975 0.17125,0.145 0.0575,0.0488 0.115,0.0975 0.1725,0.145 0.31875,0.26125 0.65,0.5075 0.99,0.73875 0.3425,0.23125 0.69125,0.45 1.05,0.655 0.70875,0.41625 1.44375,0.78625 2.2,1.1075 0.76125,0.32375 1.54,0.60375 2.3325,0.84 0.79,0.255 1.59875,0.4525 2.4175,0.59 0.81375,0.1375 1.64125,0.1775 2.465,0.11875 0.075,-0.005 0.15,-0.009 0.225,-0.0113 0.075,-0.004 0.15125,-0.004 0.22625,0 0.15375,0.009 0.30625,0.0375 0.4525,0.0838 0.14875,0.0487 0.29125,0.11375 0.42375,0.195 0.15375,0.09 0.295,0.19875 0.42,0.32625 0.12375,0.12625 0.22875,0.26875 0.31125,0.425 0.0738,0.13 0.13125,0.26875 0.175,0.4125 0.0425,0.14375 0.075,0.29125 0.095,0.44 0.025,0.16 0.04,0.3225 0.0462,0.48375 0.006,0.1625 0.008,0.325 10e-4,0.48625 -0.008,0.32375 -0.0338,0.6475 -0.0775,0.9675 -0.045,0.32125 -0.11125,0.63875 -0.2,0.95125 -0.0838,0.3125 -0.19,0.62 -0.3175,0.9175 -0.12875,0.2975 -0.2775,0.58625 -0.4475,0.8625 -0.16875,0.28375 -0.3575,0.55625 -0.56375,0.81375 -0.20625,0.25875 -0.4275,0.505 -0.66375,0.73625 -0.3125,0.3125 -0.6475,0.6025 -1.0025,0.86625 -0.355,0.26375 -0.7275,0.5025 -1.115,0.715 -0.385,0.2175 -0.78375,0.40875 -1.195,0.57375 -0.41,0.16375 -0.83125,0.29875 -1.26,0.405 -0.4275,0.1125 -0.8625,0.19375 -1.30125,0.24625 -0.43875,0.0513 -0.88125,0.0738 -1.32375,0.065 -0.44125,-0.004 -0.8825,-0.0362 -1.32,-0.1 -0.4375,-0.0638 -0.87,-0.15625 -1.295,-0.28 -0.42625,-0.1175 -0.84375,-0.26375 -1.25,-0.4375 -0.40625,-0.175 -0.8,-0.37625 -1.1775,-0.605 -0.3825,-0.22375 -0.7475,-0.47375 -1.095,-0.7475 -0.3475,-0.27375 -0.675,-0.57 -0.98125,-0.88875 -0.31,-0.315 -0.59875,-0.65 -0.86375,-1.005 -0.26375,-0.35375 -0.50375,-0.72625 -0.7175,-1.1125 -0.21875,-0.385 -0.41,-0.78375 -0.57375,-1.19375 -0.165,-0.41125 -0.3,-0.8325 -0.405,-1.26125 -0.1125,-0.4275 -0.19375,-0.8625 -0.245,-1.30125 -0.0525,-0.43875 -0.0738,-0.88125 -0.0662,-1.32375 0.002,-0.4425 0.035,-0.88375 0.0975,-1.3225 0.0625,-0.4375 0.1575,-0.86875 0.2825,-1.2925 0.04,-0.1425 0.0825,-0.28375 0.1275,-0.42375 0.0462,-0.14125 0.0925,-0.28125 0.14,-0.42125 -0.0825,-0.0162 -0.165,-0.0337 -0.2475,-0.0525 -0.0813,-0.0175 -0.16375,-0.0375 -0.24375,-0.0588 -0.21375,-0.0575 -0.4225,-0.13 -0.62625,-0.2175 -0.2025,-0.0875 -0.4,-0.18875 -0.58875,-0.30375 -0.19,-0.1125 -0.3725,-0.2375 -0.54625,-0.37375 -0.17375,-0.1375 -0.3375,-0.28625 -0.49125,-0.445 -0.15625,-0.15625 -0.3025,-0.32375 -0.43625,-0.50125 -0.1325,-0.17625 -0.25125,-0.3625 -0.355,-0.5575 -0.08,-0.14875 -0.1525,-0.30125 -0.2175,-0.4575 -0.065,-0.1575 -0.1275,-0.315 -0.1875,-0.47375 -0.0775,0.0263 -0.15375,0.0525 -0.23125,0.0788 -0.0762,0.0275 -0.1525,0.0538 -0.23,0.0825 -0.38625,0.1425 -0.765,0.30375 -1.13625,0.485 -0.37125,0.18 -0.735,0.375 -1.09125,0.58375 -0.71375,0.40875 -1.40125,0.86125 -2.05875,1.355 -0.66,0.49625 -1.2925,1.03 -1.89375,1.59625 -0.61625,0.55625 -1.19125,1.1575 -1.72,1.79875 -0.52625,0.63625 -0.97375,1.3325 -1.33375,2.075 -0.0337,0.0675 -0.0688,0.135 -0.10375,0.2025 -0.035,0.0662 -0.0725,0.13125 -0.1125,0.195 -0.085,0.12875 -0.185,0.24625 -0.3,0.35 -0.115,0.105 -0.2425,0.195 -0.38,0.26875 -0.155,0.0887 -0.32,0.15625 -0.4925,0.20125 -0.17125,0.0437 -0.3475,0.0638 -0.52375,0.0575 -0.15,-0.003 -0.29875,-0.02 -0.445,-0.055 -0.14625,-0.035 -0.28875,-0.0812 -0.42875,-0.1375 -0.15125,-0.0588 -0.29875,-0.12625 -0.4425,-0.2025 -0.14375,-0.075 -0.28375,-0.15625 -0.42125,-0.24125 -0.27625,-0.16875 -0.54375,-0.3525 -0.79875,-0.5525 -0.25625,-0.19875 -0.4975,-0.415 -0.72375,-0.6475 -0.22875,-0.22875 -0.44125,-0.47375 -0.63625,-0.73375 -0.19375,-0.26125 -0.36875,-0.53375 -0.52375,-0.81875 -0.16,-0.28875 -0.3025,-0.5875 -0.4225,-0.895 -0.12125,-0.30875 -0.2225,-0.6225 -0.305,-0.94375 -0.115,-0.42625 -0.19875,-0.86125 -0.24875,-1.3 -0.0513,-0.44 -0.0725,-0.88125 -0.0613,-1.32375 0.003,-0.4425 0.0362,-0.88375 0.1,-1.32125 0.0625,-0.4375 0.15625,-0.87 0.27875,-1.29375 0.1175,-0.42625 0.26375,-0.845 0.4375,-1.25125 0.175,-0.405 0.3775,-0.79875 0.605,-1.1775 0.22375,-0.38125 0.47375,-0.7475 0.7475,-1.09375 0.27375,-0.3475 0.57125,-0.675 0.89,-0.9825 0.31375,-0.31 0.65,-0.59875 1.00375,-0.8625 0.35375,-0.265 0.72625,-0.505 1.1125,-0.7175 0.385,-0.21875 0.78375,-0.41125 1.19375,-0.575 0.41125,-0.16375 0.8325,-0.29875 1.26125,-0.405 0.42875,-0.11125 0.8625,-0.19375 1.3025,-0.24625 0.43875,-0.0512 0.88,-0.0738 1.3225,-0.0638 0.44125,0.003 0.8825,0.0362 1.32,0.0987 0.4375,0.0638 0.87,0.1575 1.295,0.28 0.42625,0.11625 0.845,0.2625 1.25125,0.43625 0.40625,0.175 0.8,0.3775 1.1775,0.6075 0.38,0.225 0.745,0.475 1.09125,0.75 0.34625,0.275 0.675,0.57 0.98375,0.885 0.10875,0.10875 0.215,0.2175 0.31875,0.32875 0.105,0.11125 0.20875,0.2225 0.3125,0.335 0.0575,-0.0638 0.115,-0.1275 0.1725,-0.19125 0.0575,-0.0638 0.11625,-0.125 0.1775,-0.18625 0.15625,-0.15625 0.32375,-0.30125 0.50125,-0.4325 0.1775,-0.1325 0.36375,-0.2525 0.5575,-0.35875 0.1925,-0.10875 0.39125,-0.20375 0.59625,-0.28625 0.20625,-0.0812 0.41625,-0.14875 0.63125,-0.2025 0.21375,-0.0575 0.43125,-0.1 0.65125,-0.1275 0.22,-0.0275 0.44,-0.0375 0.66125,-0.0288 0.16875,0.005 0.33875,0.0188 0.50625,0.0412 0.16875,0.0213 0.33625,0.0462 0.505,0.0738 0.0137,-0.0738 0.0287,-0.1475 0.0425,-0.22 0.0137,-0.0738 0.0263,-0.1475 0.04,-0.22125 0.0688,-0.40625 0.11875,-0.81625 0.1475,-1.22625 0.0287,-0.4125 0.0425,-0.825 0.04,-1.2375 0.004,-0.8225 -0.0437,-1.64375 -0.14375,-2.46 -0.1,-0.82 -0.245,-1.635 -0.43625,-2.43875 -0.17375,-0.8125 -0.40625,-1.61125 -0.69625,-2.38875 -0.28875,-0.77375 -0.66875,-1.51 -1.13125,-2.19375 -0.0412,-0.0625 -0.0825,-0.12625 -0.1225,-0.19 -0.0412,-0.0638 -0.0788,-0.12875 -0.1125,-0.195 -0.07,-0.1375 -0.12125,-0.28375 -0.15375,-0.435 -0.0337,-0.1525 -0.0475,-0.3075 -0.0438,-0.46375 0,-0.17875 0.025,-0.355 0.0725,-0.52625 0.0475,-0.17125 0.11875,-0.3325 0.2125,-0.4825 0.0762,-0.12875 0.1675,-0.24875 0.27,-0.3575 0.10375,-0.11 0.215,-0.21125 0.33375,-0.30375 0.12625,-0.10125 0.25875,-0.195 0.39625,-0.28125 0.13625,-0.0862 0.27625,-0.16875 0.42,-0.245 0.28375,-0.155 0.57625,-0.29375 0.8775,-0.415 0.3,-0.1225 0.6075,-0.22375 0.9225,-0.3025 0.3125,-0.085 0.63125,-0.14625 0.95375,-0.18375 0.3225,-0.0375 0.64625,-0.0525 0.97,-0.0437 0.33125,0.004 0.66,0.03 0.9875,0.08 0.32625,0.05 0.65,0.11875 0.96875,0.2075 0.4275,0.11375 0.845,0.26 1.25125,0.435 0.40625,0.175 0.8,0.37875 1.1775,0.60875 0.38125,0.22375 0.74625,0.47375 1.09375,0.7475 0.3475,0.2725 0.675,0.57 0.98125,0.88875 0.31125,0.31375 0.59875,0.65 0.86375,1.00375 0.265,0.35375 0.50375,0.72625 0.7175,1.11375 0.21875,0.38375 0.41,0.7825 0.57375,1.19375 0.16375,0.41 0.3,0.83125 0.40625,1.26125 0.11125,0.4275 0.1925,0.8625 0.245,1.30125 0.0525,0.43875 0.0738,0.88125 0.065,1.3225 -0.003,0.4425 -0.0363,0.88375 -0.1,1.32125 -0.0625,0.4375 -0.15625,0.87 -0.27875,1.295 -0.1175,0.42625 -0.26375,0.84375 -0.43875,1.25 -0.175,0.405 -0.37625,0.79875 -0.605,1.1775 -0.22375,0.38125 -0.4725,0.7475 -0.74625,1.09375 -0.27375,0.3475 -0.57125,0.675 -0.89,0.98125 -0.31375,0.31125 -0.65,0.6 -1.00375,0.86375 -0.355,0.265 -0.72625,0.505 -1.11375,0.71875 -0.385,0.2175 -0.78375,0.40875 -1.195,0.5725 -0.41,0.1625 -0.83125,0.29875 -1.26,0.40625 -0.10625,0.0287 -0.21375,0.055 -0.32125,0.0788 -0.1075,0.025 -0.21625,0.0462 -0.325,0.0662 -0.0388,0.008 -0.0775,0.0137 -0.11625,0.0213 -0.04,0.006 -0.0788,0.0125 -0.1175,0.0187 0.0275,0.08 0.0537,0.16 0.0788,0.24125 0.0263,0.08 0.05,0.16 0.0712,0.2425 0.05,0.2025 0.085,0.40875 0.10625,0.61625 0.0213,0.21 0.0375,0.41875 0.0488,0.63 l 0,0.0325 0,0.0337 c -0.002,0.22 -0.02,0.44 -0.0512,0.65875 -0.0312,0.21875 -0.0775,0.435 -0.13875,0.64875 -0.0563,0.21375 -0.1275,0.42375 -0.215,0.6275 -0.085,0.20375 -0.18875,0.4 -0.30625,0.58625 -0.0888,0.1425 -0.18375,0.28125 -0.285,0.41375 -0.1025,0.13375 -0.20625,0.26625 -0.3125,0.39625 z"
       style="fill:#000000;fill-opacity:1;fill-rule:evenodd;stroke:#000000;stroke-width:0.27000001000000001;stroke-linecap:butt;stroke-linejoin:bevel;stroke-miterlimit:22.92600059999999800;stroke-opacity:1;stroke-dasharray:none"
       id="path20338" />
  </g>
</svg>
