<?xml version="1.0" encoding="UTF-8" standalone="no"?>
<!-- Created with Inkscape (http://www.inkscape.org/) -->

<svg
   xmlns:dc="http://purl.org/dc/elements/1.1/"
   xmlns:cc="http://creativecommons.org/ns#"
   xmlns:rdf="http://www.w3.org/1999/02/22-rdf-syntax-ns#"
   xmlns:svg="http://www.w3.org/2000/svg"
   xmlns="http://www.w3.org/2000/svg"
   xmlns:sodipodi="http://sodipodi.sourceforge.net/DTD/sodipodi-0.dtd"
   xmlns:inkscape="http://www.inkscape.org/namespaces/inkscape"
   width="48.276424"
   height="71.136475"
   id="svg8804"
   version="1.1"
   inkscape:version="0.47 r22583"
   sodipodi:docname="A.4 Verbot des Begegnens und Überholens.svg">
  <defs
     id="defs8806" />
  <sodipodi:namedview
     id="base"
     pagecolor="#ffffff"
     bordercolor="#666666"
     borderopacity="1.0"
     inkscape:pageopacity="0.0"
     inkscape:pageshadow="2"
     inkscape:zoom="7.3520652"
     inkscape:cx="24.138212"
     inkscape:cy="35.568237"
     inkscape:document-units="px"
     inkscape:current-layer="layer1"
     showgrid="false"
     inkscape:window-width="1280"
     inkscape:window-height="748"
     inkscape:window-x="-8"
     inkscape:window-y="-8"
     inkscape:window-maximized="1" />
  <metadata
     id="metadata8809">
    <rdf:RDF>
      <cc:Work
         rdf:about="">
        <dc:format>image/svg+xml</dc:format>
        <dc:type
           rdf:resource="http://purl.org/dc/dcmitype/StillImage" />
        <dc:title />
      </cc:Work>
    </rdf:RDF>
  </metadata>
  <g
     inkscape:label="Ebene 1"
     inkscape:groupmode="layer"
     id="layer1"
     transform="translate(555.56682,126.06319)">
    <path
       d="m -552.00414,-56.205585 -0.0175,0 c -0.0987,-0.0012 -0.1975,-0.0075 -0.29625,-0.02125 -0.0975,-0.0125 -0.19375,-0.0325 -0.28875,-0.06 -0.0963,-0.025 -0.19,-0.05625 -0.28125,-0.095 -0.0913,-0.03875 -0.17875,-0.0825 -0.26375,-0.1325 -0.0862,-0.05 -0.16875,-0.105 -0.2475,-0.165 -0.0775,-0.06 -0.1525,-0.12625 -0.22125,-0.19625 -0.07,-0.06875 -0.13625,-0.14375 -0.19625,-0.22125 -0.06,-0.07875 -0.115,-0.16125 -0.16375,-0.24625 -0.05,-0.08625 -0.095,-0.17375 -0.1325,-0.265 -0.0388,-0.09125 -0.07,-0.185 -0.0963,-0.28 -0.0275,-0.095 -0.0475,-0.1925 -0.0612,-0.29125 -0.0137,-0.0975 -0.02,-0.19625 -0.02,-0.29375 l 0,-64.044995 c 10e-4,-0.0987 0.008,-0.1975 0.0213,-0.295 0.0125,-0.0975 0.0325,-0.195 0.06,-0.29 0.025,-0.0962 0.0563,-0.19 0.095,-0.28125 0.0388,-0.09 0.0825,-0.17875 0.13375,-0.26375 0.0488,-0.0863 0.10375,-0.1675 0.16375,-0.24625 0.06,-0.0787 0.12625,-0.1525 0.19625,-0.2225 0.0688,-0.07 0.14375,-0.13625 0.22125,-0.19625 0.0788,-0.06 0.16125,-0.115 0.2475,-0.16375 0.085,-0.05 0.1725,-0.095 0.26375,-0.1325 0.0912,-0.0375 0.185,-0.07 0.28125,-0.0962 0.095,-0.0263 0.19125,-0.0475 0.29,-0.0613 0.0975,-0.0138 0.19625,-0.02 0.295,-0.0187 l 41.18375,0 c 0.0987,0 0.1975,0.007 0.295,0.02 0.0987,0.0138 0.195,0.0337 0.29,0.06 0.0962,0.025 0.19,0.0575 0.28,0.095 0.0913,0.0387 0.18,0.0837 0.265,0.13375 0.085,0.0488 0.16875,0.10375 0.24625,0.16375 0.0788,0.0613 0.1525,0.12625 0.2225,0.19625 0.07,0.07 0.135,0.14375 0.19625,0.2225 0.06,0.0787 0.115,0.16 0.16375,0.24625 0.05,0.085 0.0937,0.17375 0.1325,0.26375 0.0375,0.0925 0.07,0.18625 0.095,0.28125 0.0275,0.095 0.0475,0.1925 0.0625,0.29 0.0137,0.0975 0.02,0.19625 0.0188,0.295 l 0,64.044995 c 0,0.0975 -0.008,0.19625 -0.02,0.295 -0.0137,0.0975 -0.0337,0.195 -0.0612,0.29 -0.0238,0.095 -0.0563,0.18875 -0.0937,0.28 -0.0387,0.09125 -0.0838,0.17875 -0.13375,0.265 -0.0487,0.085 -0.10375,0.1675 -0.165,0.24625 -0.06,0.0775 -0.125,0.1525 -0.195,0.22125 -0.07,0.07125 -0.14375,0.13625 -0.2225,0.19625 -0.0775,0.06 -0.16125,0.115 -0.24625,0.165 -0.085,0.04875 -0.17375,0.09375 -0.265,0.1325 -0.0913,0.0375 -0.185,0.06875 -0.28,0.095 -0.095,0.0275 -0.1925,0.0475 -0.29,0.06125 -0.0975,0.01375 -0.19625,0.02 -0.295,0.02 l -0.0188,0 -41.1475,0 z"
       style="fill:#cc0000;fill-opacity:1;fill-rule:evenodd;stroke:#000000;stroke-width:0.27000001000000001;stroke-linecap:butt;stroke-linejoin:bevel;stroke-miterlimit:22.92600059999999800;stroke-opacity:1;stroke-dasharray:none"
       id="path20010" />
    <path
       d="m -519.55164,-63.063085 -27.88,-48.291255 0,48.291255 27.88,0"
       style="fill:#ffffff;fill-opacity:1;fill-rule:evenodd;stroke:none"
       id="path20014" />
    <path
       d="m -515.42789,-69.636835 0,-48.289995 -27.88,0 27.88,48.289995"
       style="fill:#ffffff;fill-opacity:1;fill-rule:evenodd;stroke:none"
       id="path20018" />
    <path
       d="m -552.55164,-55.108085 42.2675,0 c 0.1225,-0.0012 0.245,-0.0088 0.36625,-0.025 0.12125,-0.0175 0.24125,-0.0425 0.36,-0.075 0.1175,-0.03125 0.235,-0.07 0.3475,-0.1175 0.1125,-0.0475 0.2225,-0.10375 0.3275,-0.16625 0.10625,-0.06 0.20875,-0.12875 0.30625,-0.20375 0.0962,-0.075 0.18875,-0.155 0.275,-0.2425 0.0875,-0.08625 0.16875,-0.1775 0.2425,-0.275 0.075,-0.0975 0.1425,-0.19875 0.20375,-0.30625 0.0625,-0.105 0.1175,-0.215 0.16375,-0.3275 0.0475,-0.11375 0.0875,-0.23 0.12,-0.3475 0.0325,-0.11875 0.0587,-0.23875 0.075,-0.36 0.0175,-0.12125 0.0263,-0.24375 0.025,-0.36625 l 0,-65.149995 c -0.001,-0.1225 -0.009,-0.245 -0.0263,-0.36625 -0.0163,-0.12125 -0.0412,-0.24125 -0.0738,-0.36 -0.0312,-0.1175 -0.0713,-0.23375 -0.11875,-0.3475 -0.0475,-0.1125 -0.1025,-0.2225 -0.165,-0.3275 -0.0612,-0.10625 -0.12875,-0.20875 -0.20375,-0.305 -0.0737,-0.0975 -0.155,-0.19 -0.2425,-0.27625 -0.0863,-0.0863 -0.17875,-0.16875 -0.275,-0.2425 -0.0975,-0.075 -0.2,-0.1425 -0.30625,-0.20375 -0.105,-0.0625 -0.215,-0.1175 -0.3275,-0.16375 -0.11375,-0.0475 -0.23,-0.0875 -0.3475,-0.11875 -0.11875,-0.0337 -0.23875,-0.0588 -0.36,-0.0763 -0.12125,-0.0175 -0.24375,-0.025 -0.36625,-0.025 l -42.29,0 c -0.1225,10e-4 -0.245,0.01 -0.36625,0.0263 -0.12125,0.0162 -0.24125,0.0413 -0.35875,0.075 -0.11875,0.03 -0.235,0.07 -0.34875,0.1175 -0.1125,0.0475 -0.2225,0.1025 -0.3275,0.165 -0.10625,0.0613 -0.20875,0.12875 -0.30625,0.20375 -0.0962,0.075 -0.18875,0.15625 -0.275,0.2425 -0.0862,0.0862 -0.16875,0.17875 -0.2425,0.27625 -0.075,0.0962 -0.1425,0.19875 -0.20375,0.305 -0.0625,0.105 -0.1175,0.215 -0.16375,0.3275 -0.0475,0.11375 -0.0875,0.23 -0.11875,0.3475 -0.0337,0.11875 -0.06,0.23875 -0.0762,0.36 -0.0175,0.12125 -0.025,0.24375 -0.025,0.36625 l 0,65.149995 c 0.001,0.1225 0.01,0.245 0.0263,0.36625 0.0163,0.12125 0.0413,0.24125 0.075,0.36 0.03,0.11875 0.07,0.235 0.1175,0.3475 0.0475,0.1125 0.1025,0.2225 0.165,0.3275 0.0612,0.10625 0.12875,0.20875 0.20375,0.30625 0.075,0.0975 0.15625,0.18875 0.2425,0.275 0.0863,0.0875 0.17875,0.16875 0.275,0.24375 0.0975,0.07375 0.2,0.1425 0.30625,0.2025 0.105,0.0625 0.215,0.1175 0.32875,0.165 0.1125,0.0475 0.22875,0.08625 0.3475,0.11875 0.1175,0.0325 0.2375,0.05875 0.35875,0.075 0.12125,0.0175 0.24375,0.02625 0.36625,0.025 l 0.0225,0 z"
       style="fill:none;stroke:#231f20;stroke-width:0.27000001;stroke-linecap:butt;stroke-linejoin:bevel;stroke-miterlimit:22.9260006;stroke-opacity:1;stroke-dasharray:none"
       id="path20022" />
    <path
       id="path20026"
       style="fill:none;stroke:#000000;stroke-width:0.27000001000000001;stroke-linecap:butt;stroke-linejoin:bevel;stroke-miterlimit:22.92600059999999800;stroke-opacity:1;stroke-dasharray:none"
       d="m -552.55164,-55.061835 -0.0225,0 c -0.125,-0.0012 -0.24875,-0.0088 -0.3725,-0.02625 -0.1225,-0.01625 -0.245,-0.04125 -0.365,-0.07625 -0.12,-0.03125 -0.23875,-0.07125 -0.35375,-0.11875 -0.115,-0.04875 -0.22625,-0.105 -0.3325,-0.16875 -0.10875,-0.06125 -0.2125,-0.13 -0.31125,-0.20625 -0.0987,-0.07625 -0.19125,-0.15875 -0.27875,-0.2475 -0.09,-0.0875 -0.1725,-0.18125 -0.2475,-0.27875 -0.0763,-0.09875 -0.145,-0.2025 -0.20625,-0.31125 -0.0638,-0.1075 -0.12,-0.21875 -0.1675,-0.33375 -0.0487,-0.11375 -0.0888,-0.2325 -0.12125,-0.3525 -0.0338,-0.12 -0.06,-0.2425 -0.0763,-0.36625 -0.0175,-0.1225 -0.0263,-0.2475 -0.025,-0.37125 l 0,-65.149995 c 0,-0.125 0.009,-0.25 0.0263,-0.3725 0.0163,-0.12375 0.0412,-0.24625 0.075,-0.36625 0.0312,-0.12 0.0712,-0.23875 0.12,-0.35375 0.0487,-0.11375 0.10375,-0.225 0.16875,-0.3325 0.0612,-0.10875 0.13,-0.21125 0.20625,-0.31 0.0762,-0.0988 0.15875,-0.1925 0.2475,-0.28 0.0863,-0.0888 0.18,-0.17125 0.27875,-0.2475 0.0987,-0.0763 0.2025,-0.145 0.31125,-0.20625 0.10625,-0.0638 0.2175,-0.11875 0.3325,-0.1675 0.115,-0.0475 0.23375,-0.0888 0.35375,-0.12 0.12,-0.035 0.2425,-0.06 0.36625,-0.0775 0.1225,-0.0175 0.24625,-0.0262 0.37125,-0.025 l 42.29,0 c 0.125,10e-4 0.24875,0.009 0.3725,0.0262 0.1225,0.0162 0.245,0.0425 0.365,0.0763 0.12125,0.0312 0.23875,0.0713 0.35375,0.12 0.115,0.0475 0.22625,0.10375 0.3325,0.1675 0.10875,0.0612 0.2125,0.13 0.31125,0.20625 0.0987,0.0763 0.1925,0.15875 0.28,0.2475 0.0888,0.0875 0.17125,0.18125 0.24625,0.28 0.0763,0.0987 0.145,0.20125 0.2075,0.31 0.0625,0.1075 0.11875,0.21875 0.16625,0.33375 0.0487,0.115 0.0888,0.2325 0.12125,0.3525 0.0337,0.12 0.06,0.2425 0.0775,0.36625 0.0175,0.1225 0.025,0.2475 0.025,0.3725 l 0,65.149995 c -0.001,0.12375 -0.01,0.24875 -0.0263,0.37125 -0.0175,0.12375 -0.0425,0.24625 -0.0763,0.36625 -0.0312,0.12 -0.0712,0.23875 -0.12,0.35375 -0.0475,0.11375 -0.10375,0.225 -0.1675,0.3325 -0.0625,0.10875 -0.13125,0.2125 -0.2075,0.31 -0.075,0.09875 -0.1575,0.1925 -0.24625,0.28 -0.0875,0.08875 -0.18125,0.17125 -0.28,0.2475 -0.0987,0.07625 -0.2025,0.145 -0.31125,0.20625 -0.10625,0.06375 -0.2175,0.11875 -0.3325,0.1675 -0.115,0.0475 -0.23375,0.08875 -0.35375,0.12 -0.12,0.035 -0.2425,0.06 -0.365,0.0775 -0.12375,0.0175 -0.2475,0.02625 -0.3725,0.025 l -42.2675,0 z" />
    <path
       d="m -538.76664,-78.839335 -0.0175,0 0.009,0.0025 0.009,-0.0025 z"
       style="fill:#a7a9ac;fill-opacity:1;fill-rule:evenodd;stroke:#231f20;stroke-width:0.27000001;stroke-linecap:butt;stroke-linejoin:bevel;stroke-miterlimit:22.9260006;stroke-opacity:1;stroke-dasharray:none"
       id="path20030" />
    <path
       d="m -536.94664,-79.328085 3.6825,-0.98875 0.0213,-0.005 c 0.0312,-0.0087 0.0638,-0.01375 0.095,-0.01875 0.0325,-0.0037 0.065,-0.0063 0.0975,-0.0075 0.0387,-0.0012 0.0788,0 0.11875,0.0038 0.04,0.005 0.08,0.01125 0.11875,0.02125 0.0388,0.0087 0.0763,0.02 0.11375,0.035 0.0375,0.01375 0.0738,0.03125 0.10875,0.05 0.035,0.01875 0.0687,0.04 0.10125,0.06375 0.0325,0.02375 0.0625,0.04875 0.0913,0.07625 0.03,0.0275 0.0562,0.0575 0.0825,0.0875 0.025,0.03125 0.0475,0.06375 0.0688,0.09875 0.0213,0.03375 0.04,0.06875 0.0562,0.105 0.015,0.0375 0.0287,0.075 0.04,0.1125 0.0125,0.03875 0.0213,0.0775 0.0275,0.11625 0.006,0.04 0.01,0.08 0.01,0.12 10e-4,0.04 0,0.07875 -0.004,0.11875 -0.005,0.04 -0.0113,0.08 -0.0213,0.11875 -0.009,0.03875 -0.02,0.0775 -0.0338,0.11375 -0.015,0.03875 -0.0312,0.07375 -0.0512,0.10875 l -0.005,0.01 -0.006,0.01125 -6.54125,11.34125 -6.4825,-11.34125 -0.0113,-0.02 c -0.015,-0.0275 -0.0288,-0.05625 -0.0412,-0.08625 -0.0125,-0.03 -0.0225,-0.06 -0.0312,-0.09 -0.0125,-0.03875 -0.0213,-0.0775 -0.0263,-0.1175 -0.006,-0.03875 -0.01,-0.07875 -0.01,-0.11875 -0.003,-0.04 0,-0.08 0.004,-0.12 0.005,-0.04 0.0113,-0.07875 0.0213,-0.1175 0.009,-0.03875 0.0213,-0.0775 0.035,-0.11375 0.015,-0.0375 0.0312,-0.07375 0.0512,-0.10875 0.0188,-0.035 0.04,-0.06875 0.0638,-0.10125 0.0238,-0.0325 0.0488,-0.0625 0.0775,-0.09125 0.0275,-0.03 0.0562,-0.05625 0.0875,-0.08125 0.0312,-0.025 0.0638,-0.04875 0.0975,-0.06875 0.035,-0.02125 0.07,-0.04 0.10625,-0.05625 0.0362,-0.01625 0.0738,-0.03 0.1125,-0.04 0.0387,-0.01125 0.0775,-0.02 0.11625,-0.02625 0.04,-0.0063 0.08,-0.01 0.12,-0.01125 0.04,-0.0012 0.08,0 0.12,0.005 0.0388,0.0038 0.0788,0.01125 0.1175,0.02125 l 0.0113,0.0025 0.0112,0.0038 3.62125,0.98125 0,-34.483755 0,-0.0475 c 0.003,-0.08 0.009,-0.15875 0.0213,-0.23875 0.0125,-0.0787 0.03,-0.15625 0.0538,-0.2325 0.0213,-0.0775 0.0487,-0.1525 0.0812,-0.225 0.0325,-0.0725 0.07,-0.14375 0.1125,-0.21125 0.0412,-0.0688 0.0875,-0.13375 0.1375,-0.19625 0.05,-0.0613 0.105,-0.12 0.16375,-0.175 0.0575,-0.055 0.11875,-0.10625 0.1825,-0.15375 0.065,-0.0463 0.1325,-0.0888 0.20375,-0.12625 0.07,-0.0387 0.14125,-0.0725 0.21625,-0.10125 0.075,-0.0288 0.15125,-0.0525 0.22875,-0.07 0.06,-0.015 0.12125,-0.0275 0.1825,-0.0362 0.0612,-0.008 0.1225,-0.0125 0.18375,-0.0138 l 0.0225,0 0.0213,-0.001 0.0475,0 c 0.08,0.001 0.16,0.007 0.23875,0.0187 0.0788,0.0125 0.1575,0.0288 0.23375,0.0525 0.0762,0.0213 0.1525,0.0475 0.22625,0.0787 0.0725,0.0325 0.14375,0.0688 0.21125,0.11125 0.0687,0.04 0.135,0.085 0.1975,0.135 0.0625,0.05 0.12125,0.10375 0.17625,0.16125 0.0562,0.0575 0.10875,0.1175 0.15625,0.1825 0.0475,0.0637 0.09,0.13125 0.12875,0.20125 0.0388,0.07 0.0738,0.14125 0.1025,0.21625 0.0288,0.0737 0.0538,0.15 0.0725,0.2275 0.0175,0.0663 0.03,0.1325 0.0388,0.19875 0.01,0.0675 0.015,0.135 0.015,0.2025 l 0.001,0.0425 0,34.487505 z"
       style="fill:#000000;fill-opacity:1;fill-rule:evenodd;stroke:#000000;stroke-width:0.27000001000000001;stroke-linecap:butt;stroke-linejoin:bevel;stroke-miterlimit:22.92600059999999800;stroke-opacity:1;stroke-dasharray:none"
       id="path20034" />
    <path
       d="m -524.13539,-102.15434 -0.0175,0 0.009,-0.002 0.009,0.002 z"
       style="fill:#a7a9ac;fill-opacity:1;fill-rule:evenodd;stroke:#231f20;stroke-width:0.27000001;stroke-linecap:butt;stroke-linejoin:bevel;stroke-miterlimit:22.9260006;stroke-opacity:1;stroke-dasharray:none"
       id="path20038" />
    <path
       d="m -522.31539,-101.66559 3.6825,0.98875 0.0213,0.006 c 0.0325,0.008 0.0637,0.0138 0.0962,0.0175 0.0312,0.005 0.0638,0.008 0.0963,0.008 0.04,0.002 0.08,0 0.12,-0.004 0.0387,-0.004 0.0788,-0.0113 0.1175,-0.0213 0.0388,-0.009 0.0762,-0.02 0.11375,-0.035 0.0375,-0.0138 0.0738,-0.03 0.10875,-0.05 0.035,-0.0187 0.0688,-0.04 0.10125,-0.0637 0.0325,-0.0238 0.0625,-0.0487 0.0925,-0.0763 0.0288,-0.0275 0.0562,-0.0563 0.0813,-0.0875 0.025,-0.0312 0.0475,-0.0637 0.0687,-0.0987 0.0213,-0.0337 0.04,-0.0687 0.0563,-0.105 0.0162,-0.0362 0.03,-0.0737 0.0412,-0.1125 0.0113,-0.0387 0.02,-0.0775 0.0263,-0.11625 0.006,-0.04 0.01,-0.0787 0.0112,-0.11875 0,-0.04 -0.001,-0.08 -0.005,-0.12 -0.004,-0.04 -0.0112,-0.0787 -0.02,-0.11875 -0.01,-0.0388 -0.0213,-0.0763 -0.035,-0.11375 -0.0137,-0.0375 -0.0312,-0.0737 -0.0512,-0.10875 l -0.005,-0.01 -0.006,-0.0113 -6.54125,-11.34125 -6.4825,11.34125 -0.0112,0.02 c -0.015,0.0275 -0.0288,0.0563 -0.0412,0.0863 -0.0125,0.03 -0.0225,0.06 -0.0312,0.0913 -0.0113,0.0375 -0.02,0.0763 -0.0263,0.11625 -0.006,0.04 -0.01,0.0787 -0.01,0.11875 -0.001,0.0412 0,0.0812 0.004,0.12 0.005,0.04 0.0113,0.0788 0.0213,0.1175 0.009,0.0387 0.0213,0.0775 0.035,0.115 0.015,0.0363 0.0325,0.0738 0.0512,0.1075 0.0188,0.035 0.04,0.07 0.0638,0.10125 0.0237,0.0325 0.05,0.0625 0.0775,0.0913 0.0275,0.03 0.0562,0.0562 0.0875,0.0825 0.0312,0.025 0.0638,0.0475 0.0987,0.0687 0.0338,0.02 0.0688,0.0388 0.105,0.055 0.0362,0.0162 0.075,0.03 0.1125,0.0412 0.0387,0.0113 0.0775,0.02 0.1175,0.0263 0.0388,0.005 0.0788,0.009 0.11875,0.01 0.04,10e-4 0.08,0 0.12,-0.004 0.04,-0.005 0.0788,-0.0113 0.1175,-0.0225 l 0.0112,-0.002 0.0113,-0.002 3.62125,-0.98125 0,34.506255 0,0.02375 c 0.003,0.08 0.01,0.16 0.0213,0.23875 0.0125,0.07875 0.03,0.15625 0.0538,0.2325 0.0225,0.0775 0.05,0.1525 0.0812,0.225 0.0325,0.07375 0.0712,0.14375 0.11375,0.21125 0.0412,0.06875 0.0863,0.13375 0.1375,0.19625 0.05,0.0625 0.10375,0.12125 0.1625,0.175 0.0575,0.055 0.11875,0.1075 0.1825,0.15375 0.065,0.0475 0.1325,0.09 0.20375,0.1275 0.07,0.0375 0.1425,0.07125 0.21625,0.1 0.075,0.02875 0.15125,0.0525 0.22875,0.07125 0.06,0.015 0.12125,0.02625 0.1825,0.035 0.0612,0.0075 0.1225,0.0125 0.18375,0.01375 l 0.0225,0.0012 0.0213,0 0.0475,0 c 0.08,-0.0012 0.16,-0.0075 0.23875,-0.01875 0.0788,-0.0125 0.1575,-0.02875 0.23375,-0.05125 0.0775,-0.02125 0.1525,-0.04875 0.22625,-0.08 0.0725,-0.0325 0.14375,-0.06875 0.21125,-0.11125 0.0688,-0.04 0.135,-0.085 0.1975,-0.135 0.0625,-0.05 0.12125,-0.10375 0.17625,-0.16125 0.0562,-0.0575 0.10875,-0.1175 0.15625,-0.18125 0.0475,-0.065 0.09,-0.1325 0.12875,-0.2025 0.0388,-0.07 0.0738,-0.14125 0.1025,-0.21625 0.03,-0.07375 0.0538,-0.15 0.0725,-0.2275 0.0175,-0.065 0.03,-0.13125 0.04,-0.19875 0.009,-0.0675 0.0137,-0.13375 0.0137,-0.20125 l 10e-4,-0.0225 0,-0.02125 0,-34.487505 z"
       style="fill:#000000;fill-opacity:1;fill-rule:evenodd;stroke:#000000;stroke-width:0.27000001000000001;stroke-linecap:butt;stroke-linejoin:bevel;stroke-miterlimit:22.92600059999999800;stroke-opacity:1;stroke-dasharray:none"
       id="path20042" />
  </g>
</svg>
