<?xml version="1.0" encoding="UTF-8" standalone="no"?>
<!-- Created with Inkscape (http://www.inkscape.org/) -->

<svg
   xmlns:dc="http://purl.org/dc/elements/1.1/"
   xmlns:cc="http://creativecommons.org/ns#"
   xmlns:rdf="http://www.w3.org/1999/02/22-rdf-syntax-ns#"
   xmlns:svg="http://www.w3.org/2000/svg"
   xmlns="http://www.w3.org/2000/svg"
   xmlns:sodipodi="http://sodipodi.sourceforge.net/DTD/sodipodi-0.dtd"
   xmlns:inkscape="http://www.inkscape.org/namespaces/inkscape"
   width="1015.9929"
   height="100.00002"
   id="svg4097"
   sodipodi:version="0.32"
   inkscape:version="0.48.0 r9654"
   version="1.0"
   sodipodi:docname="logo.svg"
   inkscape:output_extension="org.inkscape.output.svg.inkscape"
   inkscape:export-filename="C:\Documents and Settings\jmarino\My Documents\sail-red.png"
   inkscape:export-xdpi="90"
   inkscape:export-ydpi="90">
  <defs
     id="defs4099" />
  <sodipodi:namedview
     id="base"
     pagecolor="#ffffff"
     bordercolor="#666666"
     borderopacity="1.0"
     gridtolerance="10000"
     guidetolerance="10"
     objecttolerance="10"
     inkscape:pageopacity="0.0"
     inkscape:pageshadow="2"
     inkscape:zoom="0.38699268"
     inkscape:cx="677.31116"
     inkscape:cy="-275.49412"
     inkscape:document-units="px"
     inkscape:current-layer="layer3"
     width="600px"
     height="300px"
     inkscape:window-width="1276"
     inkscape:window-height="756"
     inkscape:window-x="4"
     inkscape:window-y="0"
     inkscape:showpageshadow="false"
     showborder="true"
     showgrid="false"
     borderlayer="false"
     inkscape:object-paths="true"
     inkscape:object-nodes="true"
     inkscape:snap-global="false"
     fit-margin-top="0"
     fit-margin-left="0"
     fit-margin-right="0"
     fit-margin-bottom="0"
     inkscape:window-maximized="0" />
  <metadata
     id="metadata4102">
    <rdf:RDF>
      <cc:Work
         rdf:about="">
        <dc:format>image/svg+xml</dc:format>
        <dc:type
           rdf:resource="http://purl.org/dc/dcmitype/StillImage" />
        <cc:license
           rdf:resource="http://web.resource.org/cc/PublicDomain" />
        <dc:title>Sail Boat &amp; Red Sun</dc:title>
        <dc:date>7 June 2007</dc:date>
        <dc:creator>
          <cc:Agent>
            <dc:title>Joseph Marino</dc:title>
          </cc:Agent>
        </dc:creator>
        <dc:contributor>
          <cc:Agent>
            <dc:title>Sun geometry by </dc:title>
          </cc:Agent>
        </dc:contributor>
      </cc:Work>
      <cc:License
         rdf:about="http://web.resource.org/cc/PublicDomain">
        <cc:permits
           rdf:resource="http://web.resource.org/cc/Reproduction" />
        <cc:permits
           rdf:resource="http://web.resource.org/cc/Distribution" />
        <cc:permits
           rdf:resource="http://web.resource.org/cc/DerivativeWorks" />
      </cc:License>
    </rdf:RDF>
  </metadata>
  <g
     inkscape:label="Layer 1"
     inkscape:groupmode="layer"
     id="layer1"
     transform="translate(314.05869,506.69844)" />
  <g
     inkscape:groupmode="layer"
     id="layer2"
     inkscape:label="Sillouette"
     transform="translate(378.582,559.28876)" />
  <g
     inkscape:groupmode="layer"
     id="layer3"
     inkscape:label="Boat"
     transform="translate(378.582,559.28876)">
    <g
       id="g3087">
      <path
         sodipodi:nodetypes="cczccc"
         id="path4250"
         d="m -378.582,-489.58841 4.91249,11.90206 c 37.82356,6.61399 68.48102,10.12593 75.83287,5.73457 7.35184,-4.39135 16.22572,-18.67806 16.22572,-18.67806 -19.97672,1.43817 -39.7888,3.47144 -55.97872,2.52919 -14.92767,-0.49592 -26.0647,-0.99184 -40.99236,-1.48776 z"
         style="fill:#000000;fill-opacity:1;fill-rule:evenodd;stroke:none"
         inkscape:connector-curvature="0" />
      <path
         sodipodi:nodetypes="cccc"
         id="path5231"
         d="m -324.58283,-559.28876 c 16.48097,28.85861 22.28889,39.40611 32.62072,60.03633 -10.28988,4.23575 -22.29661,6.72264 -32.79619,5.91163 13.28123,-28.31697 7.31002,-43.73079 0.17547,-65.94796 z"
         style="fill:#000000;fill-opacity:1;fill-rule:evenodd;stroke:none"
         inkscape:connector-curvature="0" />
      <path
         sodipodi:nodetypes="cccc"
         id="path6202"
         d="m -324.58283,-559.28876 -0.17547,65.94796 c -8.81526,3.21224 -37.92744,1.75951 -46.96611,-1.97442 20.32308,-19.07478 32.46283,-34.47943 47.14158,-63.97354 z"
         style="fill:#000000;fill-opacity:1;fill-rule:evenodd;stroke:none"
         inkscape:connector-curvature="0" />
      <path
         d="m -199.92353,-497.21774 c -6e-5,3.22617 -0.61041,6.07447 -1.83105,8.54493 -1.22076,2.47048 -2.8629,4.50498 -4.92641,6.10351 -2.44146,1.91825 -5.12991,3.28428 -8.06536,4.09808 -2.90648,0.8138 -6.61218,1.2207 -11.11712,1.2207 l -23.01898,0 0,-64.91525 19.22608,0 c 4.73746,6e-5 8.28331,0.17445 10.63756,0.52316 2.35417,0.34883 4.60665,1.07544 6.75746,2.17982 2.38323,1.24983 4.11256,2.8629 5.18799,4.83922 1.07533,1.94737 1.61302,4.28705 1.61307,7.01904 -5e-5,3.08087 -0.78479,5.7112 -2.35421,7.89098 -1.56953,2.1508 -3.66216,3.88013 -6.2779,5.18799 l 0,0.34877 c 4.38867,0.90103 7.84732,2.83381 10.37597,5.79834 2.52855,2.93553 3.79284,6.65576 3.7929,11.16071 m -14.51765,-29.25328 c -4e-5,-1.56942 -0.26162,-2.89185 -0.78473,-3.96728 -0.5232,-1.07533 -1.36607,-1.94726 -2.5286,-2.61579 -1.36607,-0.78469 -3.02273,-1.26425 -4.97001,-1.43869 -1.94735,-0.20339 -4.35968,-0.30512 -7.23703,-0.30518 l -10.28878,0 0,18.74652 11.16071,0 c 2.70296,4e-5 4.85372,-0.13075 6.45229,-0.39237 1.59851,-0.29061 3.08079,-0.87189 4.44685,-1.74386 1.36598,-0.87189 2.32511,-1.99087 2.87737,-3.35694 0.58125,-1.39504 0.87189,-3.03718 0.87193,-4.92641 m 5.53676,29.60206 c -4e-5,-2.61577 -0.39241,-4.69387 -1.1771,-6.23431 -0.78479,-1.54038 -2.20894,-2.84828 -4.27246,-3.92369 -1.39513,-0.72658 -3.0954,-1.19161 -5.1008,-1.39509 -1.97641,-0.23248 -4.38875,-0.34874 -7.23703,-0.34877 l -13.55852,0 0,24.15249 11.42229,0 c 3.77834,0 6.87369,-0.18892 9.28607,-0.56676 2.4123,-0.40689 4.38867,-1.1335 5.92913,-2.17983 1.62756,-1.1335 2.81919,-2.42686 3.57491,-3.88009 0.75563,-1.4532 1.13347,-3.32785 1.13351,-5.62395"
         style="font-size:89.28572083px;font-style:normal;font-variant:normal;font-weight:normal;font-stretch:normal;text-align:center;line-height:125%;letter-spacing:-7.34821606px;word-spacing:0px;text-anchor:middle;fill:#000000;fill-opacity:1;stroke:none;font-family:Verdana;-inkscape-font-specification:Verdana"
         id="path3018"
         inkscape:connector-curvature="0" />
      <path
         d="m -154.17116,-501.57739 c -5e-5,7.93459 -2.03455,14.19795 -6.10351,18.79011 -4.06905,4.59217 -9.51862,6.88825 -16.34871,6.88825 -6.88827,0 -12.3669,-2.29608 -16.43589,-6.88825 -4.03996,-4.59216 -6.05993,-10.85552 -6.05992,-18.79011 -1e-5,-7.93454 2.01996,-14.1979 6.05992,-18.79011 4.06899,-4.62119 9.54762,-6.9318 16.43589,-6.93185 6.83009,5e-5 12.27966,2.31066 16.34871,6.93185 4.06896,4.59221 6.10346,10.85557 6.10351,18.79011 m -8.45773,0 c -4e-5,-6.30694 -1.23527,-10.98629 -3.7057,-14.03809 -2.47051,-3.08078 -5.9001,-4.62119 -10.28879,-4.62123 -4.44687,4e-5 -7.90552,1.54045 -10.37597,4.62123 -2.44142,3.0518 -3.66213,7.73115 -3.66211,14.03809 -2e-5,6.10353 1.23522,10.7393 3.7057,13.9073 2.47045,3.13896 5.91458,4.70843 10.33238,4.70842 4.35963,1e-5 7.77469,-1.55493 10.24519,-4.66483 2.4995,-3.13893 3.74926,-7.78923 3.7493,-13.95089"
         style="font-size:89.28572083px;font-style:normal;font-variant:normal;font-weight:normal;font-stretch:normal;text-align:center;line-height:125%;letter-spacing:-7.34821606px;word-spacing:0px;text-anchor:middle;fill:#000000;fill-opacity:1;stroke:none;font-family:Verdana;-inkscape-font-specification:Verdana"
         id="path3020"
         inkscape:connector-curvature="0" />
      <path
         d="m -109.29071,-477.25052 -8.19615,0 0,-5.10079 c -2.35425,2.0345 -4.81019,3.61851 -7.36782,4.75202 -2.55769,1.13351 -5.33333,1.70026 -8.32694,1.70026 -5.81289,0 -10.43412,-2.23795 -13.8637,-6.71386 -3.40053,-4.47591 -5.1008,-10.68114 -5.10079,-18.61573 -1e-5,-4.12711 0.58128,-7.80375 1.74386,-11.02992 1.19163,-3.22611 2.79017,-5.97269 4.79562,-8.23975 1.97636,-2.20885 4.27244,-3.89458 6.88825,-5.0572 2.64484,-1.16252 5.37689,-1.74381 8.19615,-1.74386 2.55764,5e-5 4.82466,0.27616 6.80106,0.82833 1.97635,0.52321 4.05444,1.35154 6.23431,2.48501 l 0,-21.10073 8.19615,0 0,67.83622 m -8.19615,-11.98905 0,-27.94538 c -2.20893,-0.98815 -4.1853,-1.67116 -5.92913,-2.04904 -1.74389,-0.37779 -3.64761,-0.56671 -5.71115,-0.56676 -4.59219,5e-5 -8.1671,1.59859 -10.72475,4.79562 -2.55768,3.19712 -3.83651,7.73116 -3.83649,13.60213 -2e-5,5.78382 0.98817,10.18707 2.96456,13.20975 1.97636,2.99364 5.14437,4.49045 9.50405,4.49044 2.32512,10e-6 4.67933,-0.50862 7.06264,-1.52588 2.38324,-1.0463 4.60666,-2.38326 6.67027,-4.01088"
         style="font-size:89.28572083px;font-style:normal;font-variant:normal;font-weight:normal;font-stretch:normal;text-align:center;line-height:125%;letter-spacing:-7.34821606px;word-spacing:0px;text-anchor:middle;fill:#000000;fill-opacity:1;stroke:none;font-family:Verdana;-inkscape-font-specification:Verdana"
         id="path3022"
         inkscape:connector-curvature="0" />
      <path
         d="m -59.745443,-500.74906 -35.879955,0 c -1.3e-5,2.99365 0.450484,5.60944 1.351493,7.84738 0.90098,2.20891 2.136214,4.02543 3.705706,5.44957 1.511327,1.3951 3.298784,2.44141 5.362375,3.13895 2.092608,0.69755 4.388691,1.04632 6.888253,1.04632 3.313304,0 6.64117,-0.65394 9.983609,-1.96185 3.371422,-1.33695 5.76923,-2.64484 7.19343,-3.92369 l 0.435965,0 0,8.9373 c -2.76116,1.16257 -5.5804,2.13623 -8.457729,2.92096 -2.877409,0.78474 -5.900099,1.17711 -9.068081,1.17711 -8.079915,0 -14.386876,-2.17982 -18.9209,-6.53948 -4.534043,-4.38871 -6.801063,-10.60848 -6.801063,-18.65932 0,-7.9636 2.16529,-14.2851 6.495887,-18.9645 4.359639,-4.67931 10.085312,-7.01899 17.177038,-7.01904 6.568511,5e-5 11.625705,1.9183 15.171597,5.75474 3.57487,3.83654 5.362326,9.2861 5.362375,16.34871 l 0,4.44684 m -7.978167,-6.2779 c -0.02911,-4.30149 -1.119018,-7.62936 -3.269741,-9.98361 -2.121734,-2.35417 -5.362407,-3.53127 -9.722029,-3.53132 -4.388743,5e-5 -7.890995,1.29341 -10.506767,3.8801 -2.586743,2.58676 -4.054492,5.79837 -4.403251,9.63483 l 27.901788,0"
         style="font-size:89.28572083px;font-style:normal;font-variant:normal;font-weight:normal;font-stretch:normal;text-align:center;line-height:125%;letter-spacing:-7.34821606px;word-spacing:0px;text-anchor:middle;fill:#000000;fill-opacity:1;stroke:none;font-family:Verdana;-inkscape-font-specification:Verdana"
         id="path3024"
         inkscape:connector-curvature="0" />
      <path
         d="m -13.94947,-477.25052 -8.196151,0 0,-27.7274 c -4e-5,-2.23793 -0.13083,-4.33056 -0.392369,-6.2779 -0.261619,-1.97634 -0.74118,-3.51675 -1.438685,-4.62124 -0.726648,-1.22066 -1.772964,-2.12165 -3.138952,-2.70298 -1.366059,-0.61031 -3.138983,-0.91549 -5.318778,-0.91553 -2.237984,4e-5 -4.577663,0.55227 -7.019043,1.65667 -2.441428,1.10448 -4.781106,2.5141 -7.019044,4.22886 l 0,36.35952 -8.19615,0 0,-48.69734 8.19615,0 0,5.40597 c 2.557645,-2.12165 5.2025,-3.77832 7.934571,-4.97 2.732023,-1.19159 5.536731,-1.78741 8.414133,-1.78746 5.260612,5e-5 9.27149,1.58406 12.032646,4.75202 2.761067,3.16806 4.141623,7.73116 4.141672,13.68932 l 0,31.60749"
         style="font-size:89.28572083px;font-style:normal;font-variant:normal;font-weight:normal;font-stretch:normal;text-align:center;line-height:125%;letter-spacing:-7.34821606px;word-spacing:0px;text-anchor:middle;fill:#000000;fill-opacity:1;stroke:none;font-family:Verdana;-inkscape-font-specification:Verdana"
         id="path3026"
         inkscape:connector-curvature="0" />
      <path
         d="m 29.274308,-491.28861 c -4.3e-5,4.44686 -1.845628,8.09444 -5.536761,10.94274 -3.662143,2.8483 -8.675741,4.27246 -15.0408075,4.27246 -3.6039996,0 -6.9173336,-0.42144 -9.9400119,-1.2643 -2.9936387,-0.87193 -5.5077035,-1.81652 -7.542202,-2.83378 l 0,-9.19887 0.4359654,0 c 2.5867204,1.94732 5.4640894,3.50227 8.63211559,4.66483 3.16799841,1.13352 6.20522131,1.70027 9.11167761,1.70027 3.6039538,0 6.4231948,-0.58128 8.4577298,-1.74386 2.034471,-1.16257 3.051723,-2.99362 3.051758,-5.49317 -3.5e-5,-1.91823 -0.552257,-3.37145 -1.656669,-4.35965 -1.104478,-0.98817 -3.226174,-1.83104 -6.365095,-2.5286 -1.1626,-0.26156 -2.688478,-0.56674 -4.5776374,-0.91553 -1.8601392,-0.34875 -3.5604027,-0.72659 -5.1007956,-1.13351 -4.2724738,-1.13349 -7.3096966,-2.79015 -9.1116776,-4.97001 -1.772932,-2.20886 -2.6593941,-4.91184 -2.6593891,-8.10895 -5e-6,-2.00541 0.4068956,-3.89459 1.2207032,-5.66755 0.8428594,-1.77289 2.1071579,-3.35689 3.7928993,-4.75203 1.6275926,-1.36598 3.69116026,-2.44136 6.1907091,-3.22614 2.5285808,-0.81375 5.3478211,-1.22065 8.4577291,-1.2207 2.906409,5e-5 5.841907,0.36335 8.806502,1.08991 2.993593,0.69759 5.478593,1.55499 7.455009,2.5722 l 0,8.7629 -0.435965,0 c -2.092673,-1.54037 -4.635802,-2.83373 -7.629396,-3.88009 -2.993659,-1.07534 -5.929156,-1.61303 -8.806501,-1.61307 -2.9936506,4e-5 -5.5222476,0.58133 -7.5857988,1.74386 -2.06358415,1.13355 -3.09536797,2.83381 -3.09535459,5.10079 -1.338e-5,2.00548 0.62486978,3.51682 1.87465139,4.53404 1.2206867,1.01729 3.1970614,1.84562 5.9291299,2.48501 1.5113241,0.3488 3.1970551,0.69757 5.0571991,1.04631 1.889155,0.3488 3.458629,0.66851 4.708427,0.95913 3.807396,0.87195 6.742894,2.36877 8.806501,4.49044 2.063528,2.15078 3.095312,4.99909 3.095355,8.54492"
         style="font-size:89.28572083px;font-style:normal;font-variant:normal;font-weight:normal;font-stretch:normal;text-align:center;line-height:125%;letter-spacing:-7.34821606px;word-spacing:0px;text-anchor:middle;fill:#000000;fill-opacity:1;stroke:none;font-family:Verdana;-inkscape-font-specification:Verdana"
         id="path3028"
         inkscape:connector-curvature="0" />
      <path
         d="m 74.459925,-500.74906 -35.879955,0 c -1.3e-5,2.99365 0.450484,5.60944 1.351493,7.84738 0.90098,2.20891 2.136214,4.02543 3.705706,5.44957 1.511327,1.3951 3.298784,2.44141 5.362375,3.13895 2.092608,0.69755 4.388691,1.04632 6.888254,1.04632 3.313303,0 6.641169,-0.65394 9.983608,-1.96185 3.371422,-1.33695 5.76923,-2.64484 7.19343,-3.92369 l 0.435965,0 0,8.9373 c -2.761159,1.16257 -5.5804,2.13623 -8.457729,2.92096 -2.877409,0.78474 -5.900099,1.17711 -9.068081,1.17711 -8.079915,0 -14.386876,-2.17982 -18.9209,-6.53948 -4.534048,-4.38871 -6.801066,-10.60848 -6.801061,-18.65932 -5e-6,-7.9636 2.165288,-14.2851 6.495885,-18.9645 4.359639,-4.67931 10.085312,-7.01899 17.177038,-7.01904 6.568511,5e-5 11.625705,1.9183 15.171597,5.75474 3.57487,3.83654 5.362326,9.2861 5.362375,16.34871 l 0,4.44684 m -7.978167,-6.2779 c -0.02911,-4.30149 -1.119018,-7.62936 -3.269741,-9.98361 -2.121734,-2.35417 -5.362407,-3.53127 -9.722029,-3.53132 -4.388743,5e-5 -7.890995,1.29341 -10.506767,3.8801 -2.586743,2.58676 -4.054492,5.79837 -4.403251,9.63483 l 27.901788,0"
         style="font-size:89.28572083px;font-style:normal;font-variant:normal;font-weight:normal;font-stretch:normal;text-align:center;line-height:125%;letter-spacing:-7.34821606px;word-spacing:0px;text-anchor:middle;fill:#000000;fill-opacity:1;stroke:none;font-family:Verdana;-inkscape-font-specification:Verdana"
         id="path3030"
         inkscape:connector-curvature="0" />
      <path
         d="m 120.29949,-500.74906 -35.879951,0 c -1.3e-5,2.99365 0.450484,5.60944 1.351493,7.84738 0.90098,2.20891 2.136214,4.02543 3.705706,5.44957 1.511327,1.3951 3.298784,2.44141 5.362375,3.13895 2.092608,0.69755 4.388691,1.04632 6.888257,1.04632 3.3133,0 6.64117,-0.65394 9.98361,-1.96185 3.37142,-1.33695 5.76922,-2.64484 7.19342,-3.92369 l 0.43597,0 0,8.9373 c -2.76116,1.16257 -5.5804,2.13623 -8.45773,2.92096 -2.87741,0.78474 -5.9001,1.17711 -9.06808,1.17711 -8.079915,0 -14.386876,-2.17982 -18.9209,-6.53948 -4.534048,-4.38871 -6.801066,-10.60848 -6.801061,-18.65932 -5e-6,-7.9636 2.165288,-14.2851 6.495885,-18.9645 4.359639,-4.67931 10.085313,-7.01899 17.177038,-7.01904 6.568508,5e-5 11.625708,1.9183 15.171598,5.75474 3.57487,3.83654 5.36233,9.2861 5.36237,16.34871 l 0,4.44684 m -7.97816,-6.2779 c -0.0291,-4.30149 -1.11902,-7.62936 -3.26974,-9.98361 -2.12174,-2.35417 -5.36241,-3.53127 -9.722033,-3.53132 -4.388742,5e-5 -7.890995,1.29341 -10.506767,3.8801 -2.586743,2.58676 -4.054492,5.79837 -4.403251,9.63483 l 27.901791,0"
         style="font-size:89.28572083px;font-style:normal;font-variant:normal;font-weight:normal;font-stretch:normal;text-align:center;line-height:125%;letter-spacing:-7.34821606px;word-spacing:0px;text-anchor:middle;fill:#000000;fill-opacity:1;stroke:none;font-family:Verdana;-inkscape-font-specification:Verdana"
         id="path3032"
         inkscape:connector-curvature="0" />
      <path
         d="m 160.16634,-491.28861 c -5e-5,4.44686 -1.84563,8.09444 -5.53676,10.94274 -3.66215,2.8483 -8.67575,4.27246 -15.04081,4.27246 -3.604,0 -6.91734,-0.42144 -9.94001,-1.2643 -2.99364,-0.87193 -5.50771,-1.81652 -7.54221,-2.83378 l 0,-9.19887 0.43597,0 c 2.58672,1.94732 5.46409,3.50227 8.63212,4.66483 3.16799,1.13352 6.20522,1.70027 9.11167,1.70027 3.60396,0 6.4232,-0.58128 8.45773,-1.74386 2.03447,-1.16257 3.05173,-2.99362 3.05176,-5.49317 -3e-5,-1.91823 -0.55226,-3.37145 -1.65667,-4.35965 -1.10448,-0.98817 -3.22617,-1.83104 -6.36509,-2.5286 -1.1626,-0.26156 -2.68848,-0.56674 -4.57764,-0.91553 -1.86014,-0.34875 -3.5604,-0.72659 -5.1008,-1.13351 -4.27247,-1.13349 -7.30969,-2.79015 -9.11167,-4.97001 -1.77294,-2.20886 -2.6594,-4.91184 -2.65939,-8.10895 -1e-5,-2.00541 0.40689,-3.89459 1.2207,-5.66755 0.84286,-1.77289 2.10716,-3.35689 3.7929,-4.75203 1.62759,-1.36598 3.69116,-2.44136 6.19071,-3.22614 2.52858,-0.81375 5.34782,-1.22065 8.45773,-1.2207 2.90641,5e-5 5.8419,0.36335 8.8065,1.08991 2.99359,0.69759 5.47859,1.55499 7.45501,2.5722 l 0,8.7629 -0.43597,0 c -2.09267,-1.54037 -4.6358,-2.83373 -7.62939,-3.88009 -2.99366,-1.07534 -5.92916,-1.61303 -8.8065,-1.61307 -2.99365,4e-5 -5.52225,0.58133 -7.5858,1.74386 -2.06359,1.13355 -3.09537,2.83381 -3.09536,5.10079 -10e-6,2.00548 0.62487,3.51682 1.87465,4.53404 1.22069,1.01729 3.19707,1.84562 5.92913,2.48501 1.51133,0.3488 3.19706,0.69757 5.0572,1.04631 1.88916,0.3488 3.45863,0.66851 4.70843,0.95913 3.8074,0.87195 6.74289,2.36877 8.8065,4.49044 2.06353,2.15078 3.09531,4.99909 3.09536,8.54492"
         style="font-size:89.28572083px;font-style:normal;font-variant:normal;font-weight:normal;font-stretch:normal;text-align:center;line-height:125%;letter-spacing:-7.34821606px;word-spacing:0px;text-anchor:middle;fill:#000000;fill-opacity:1;stroke:none;font-family:Verdana;-inkscape-font-specification:Verdana"
         id="path3034"
         inkscape:connector-curvature="0" />
      <path
         d="m 200.59993,-480.30228 c -2.73209,1.3079 -5.33335,2.32515 -7.80378,3.05176 -2.44144,0.72661 -5.0427,1.08991 -7.80378,1.08991 -3.51681,0 -6.74296,-0.50862 -9.67843,-1.52587 -2.93552,-1.04632 -5.44959,-2.61579 -7.54221,-4.70843 -2.1217,-2.09263 -3.76384,-4.73748 -4.92641,-7.93457 -1.16258,-3.19707 -1.74386,-6.93183 -1.74386,-11.20431 0,-7.96361 2.17982,-14.21244 6.53948,-18.74652 4.38871,-4.53399 10.17251,-6.80101 17.35143,-6.80106 2.79015,5e-5 5.52219,0.39242 8.19615,1.17711 2.70294,0.78478 5.17341,1.74391 7.41141,2.87737 l 0,9.11168 -0.43596,0 c -2.49958,-1.94728 -5.08631,-3.44409 -7.76019,-4.49045 -2.64489,-1.04627 -5.23162,-1.56943 -7.76018,-1.56947 -4.65033,4e-5 -8.32696,1.56952 -11.02993,4.70843 -2.67394,3.10992 -4.01089,7.68755 -4.01088,13.73291 -1e-5,5.87102 1.30788,10.39052 3.92369,13.55852 2.64483,3.13896 6.35054,4.70843 11.11712,4.70843 1.65663,0 3.34237,-0.21798 5.05719,-0.65395 1.71477,-0.43596 3.25518,-1.00271 4.62124,-1.70027 1.1916,-0.61034 2.31058,-1.24975 3.35693,-1.91824 1.04628,-0.69754 1.87461,-1.29336 2.48501,-1.78746 l 0.43596,0 0,9.02448"
         style="font-size:89.28572083px;font-style:normal;font-variant:normal;font-weight:normal;font-stretch:normal;text-align:center;line-height:125%;letter-spacing:-7.34821606px;word-spacing:0px;text-anchor:middle;fill:#000000;fill-opacity:1;stroke:none;font-family:Verdana;-inkscape-font-specification:Verdana"
         id="path3036"
         inkscape:connector-curvature="0" />
      <path
         d="m 244.52125,-477.25052 -8.19615,0 0,-27.7274 c -4e-5,-2.23793 -0.13083,-4.33056 -0.39237,-6.2779 -0.26162,-1.97634 -0.74118,-3.51675 -1.43869,-4.62124 -0.72664,-1.22066 -1.77296,-2.12165 -3.13895,-2.70298 -1.36606,-0.61031 -3.13898,-0.91549 -5.31878,-0.91553 -2.23798,4e-5 -4.57766,0.55227 -7.01904,1.65667 -2.44143,1.10448 -4.78111,2.5141 -7.01904,4.22886 l 0,36.35952 -8.19615,0 0,-67.83622 8.19615,0 0,24.54485 c 2.55764,-2.12165 5.2025,-3.77832 7.93457,-4.97 2.73202,-1.19159 5.53673,-1.78741 8.41413,-1.78746 5.26061,5e-5 9.27149,1.58406 12.03265,4.75202 2.76106,3.16806 4.14162,7.73116 4.14167,13.68932 l 0,31.60749"
         style="font-size:89.28572083px;font-style:normal;font-variant:normal;font-weight:normal;font-stretch:normal;text-align:center;line-height:125%;letter-spacing:-7.34821606px;word-spacing:0px;text-anchor:middle;fill:#000000;fill-opacity:1;stroke:none;font-family:Verdana;-inkscape-font-specification:Verdana"
         id="path3038"
         inkscape:connector-curvature="0" />
      <path
         d="m 261.76147,-534.10041 -9.24247,0 0,-8.50133 9.24247,0 0,8.50133 m -0.52316,56.84989 -8.19615,0 0,-48.69734 8.19615,0 0,48.69734"
         style="font-size:89.28572083px;font-style:normal;font-variant:normal;font-weight:normal;font-stretch:normal;text-align:center;line-height:125%;letter-spacing:-7.34821606px;word-spacing:0px;text-anchor:middle;fill:#000000;fill-opacity:1;stroke:none;font-family:Verdana;-inkscape-font-specification:Verdana"
         id="path3040"
         inkscape:connector-curvature="0" />
      <path
         d="m 296.04794,-537.15217 -0.43596,0 c -0.90103,-0.26152 -2.07814,-0.5231 -3.53132,-0.78474 -1.45325,-0.29058 -2.73208,-0.4359 -3.8365,-0.43596 -3.51681,6e-5 -6.07447,0.7848 -7.67299,2.35421 -1.56949,1.54047 -2.35423,4.34518 -2.35422,8.41413 l 0,1.65667 14.77923,0 0,6.88826 -14.51765,0 0,41.80908 -8.19615,0 0,-41.80908 -5.53676,0 0,-6.88826 5.53676,0 0,-1.61307 c 0,-5.78375 1.43868,-10.21606 4.31606,-13.29695 2.87736,-3.10982 7.03356,-4.66476 12.46861,-4.66483 1.83103,7e-5 3.47317,0.0873 4.92641,0.26158 1.48225,0.17446 2.83374,0.37791 4.05448,0.61036 l 0,7.4986"
         style="font-size:89.28572083px;font-style:normal;font-variant:normal;font-weight:normal;font-stretch:normal;text-align:center;line-height:125%;letter-spacing:-7.34821606px;word-spacing:0px;text-anchor:middle;fill:#000000;fill-opacity:1;stroke:none;font-family:Verdana;-inkscape-font-specification:Verdana"
         id="path3042"
         inkscape:connector-curvature="0" />
      <path
         d="m 320.08926,-537.15217 -0.43596,0 c -0.90103,-0.26152 -2.07814,-0.5231 -3.53132,-0.78474 -1.45325,-0.29058 -2.73208,-0.4359 -3.8365,-0.43596 -3.51681,6e-5 -6.07447,0.7848 -7.67299,2.35421 -1.56949,1.54047 -2.35423,4.34518 -2.35421,8.41413 l 0,1.65667 14.77922,0 0,6.88826 -14.51765,0 0,41.80908 -8.19615,0 0,-41.80908 -5.53676,0 0,-6.88826 5.53676,0 0,-1.61307 c 0,-5.78375 1.43868,-10.21606 4.31606,-13.29695 2.87736,-3.10982 7.03356,-4.66476 12.46861,-4.66483 1.83103,7e-5 3.47317,0.0873 4.92641,0.26158 1.48225,0.17446 2.83375,0.37791 4.05448,0.61036 l 0,7.4986"
         style="font-size:89.28572083px;font-style:normal;font-variant:normal;font-weight:normal;font-stretch:normal;text-align:center;line-height:125%;letter-spacing:-7.34821606px;word-spacing:0px;text-anchor:middle;fill:#000000;fill-opacity:1;stroke:none;font-family:Verdana;-inkscape-font-specification:Verdana"
         id="path3044"
         inkscape:connector-curvature="0" />
      <path
         d="m 358.69177,-500.74906 -35.87996,0 c -10e-6,2.99365 0.45049,5.60944 1.35149,7.84738 0.90098,2.20891 2.13622,4.02543 3.70571,5.44957 1.51133,1.3951 3.29878,2.44141 5.36238,3.13895 2.0926,0.69755 4.38869,1.04632 6.88825,1.04632 3.3133,0 6.64117,-0.65394 9.98361,-1.96185 3.37142,-1.33695 5.76923,-2.64484 7.19343,-3.92369 l 0.43596,0 0,8.9373 c -2.76116,1.16257 -5.5804,2.13623 -8.45773,2.92096 -2.8774,0.78474 -5.9001,1.17711 -9.06808,1.17711 -8.07991,0 -14.38687,-2.17982 -18.9209,-6.53948 -4.53404,-4.38871 -6.80106,-10.60848 -6.80106,-18.65932 0,-7.9636 2.16529,-14.2851 6.49589,-18.9645 4.35964,-4.67931 10.08531,-7.01899 17.17704,-7.01904 6.56851,5e-5 11.6257,1.9183 15.17159,5.75474 3.57487,3.83654 5.36233,9.2861 5.36238,16.34871 l 0,4.44684 m -7.97817,-6.2779 c -0.0291,-4.30149 -1.11902,-7.62936 -3.26974,-9.98361 -2.12174,-2.35417 -5.36241,-3.53127 -9.72203,-3.53132 -4.38874,5e-5 -7.89099,1.29341 -10.50677,3.8801 -2.58674,2.58676 -4.05449,5.79837 -4.40325,9.63483 l 27.90179,0"
         style="font-size:89.28572083px;font-style:normal;font-variant:normal;font-weight:normal;font-stretch:normal;text-align:center;line-height:125%;letter-spacing:-7.34821606px;word-spacing:0px;text-anchor:middle;fill:#000000;fill-opacity:1;stroke:none;font-family:Verdana;-inkscape-font-specification:Verdana"
         id="path3046"
         inkscape:connector-curvature="0" />
      <path
         d="m 394.15539,-517.01057 -0.43597,0 c -1.22074,-0.2906 -2.41237,-0.49405 -3.57491,-0.61035 -1.13355,-0.14528 -2.48504,-0.21794 -4.05448,-0.21798 -2.52863,4e-5 -4.97003,0.56679 -7.32422,1.70026 -2.35423,1.10449 -4.62125,2.54317 -6.80106,4.31606 l 0,34.57206 -8.19615,0 0,-48.69734 8.19615,0 0,7.19343 c 3.25519,-2.61575 6.11802,-4.46133 8.58852,-5.53676 2.49951,-1.1044 5.04263,-1.65662 7.62939,-1.65667 1.42412,5e-5 2.45591,0.0436 3.09536,0.13079 0.63938,0.0582 1.5985,0.18897 2.87737,0.39237 l 0,8.41413"
         style="font-size:89.28572083px;font-style:normal;font-variant:normal;font-weight:normal;font-stretch:normal;text-align:center;line-height:125%;letter-spacing:-7.34821606px;word-spacing:0px;text-anchor:middle;fill:#000000;fill-opacity:1;stroke:none;font-family:Verdana;-inkscape-font-specification:Verdana"
         id="path3048"
         inkscape:connector-curvature="0" />
      <path
         d="m 437.46635,-502.18774 c -5e-5,3.95277 -0.56681,7.57128 -1.70027,10.85554 -1.13356,3.25522 -2.73209,6.01633 -4.79562,8.28334 -1.91829,2.15077 -4.18531,3.82197 -6.80106,5.0136 -2.58676,1.16258 -5.33334,1.74386 -8.23975,1.74387 -2.52862,-1e-5 -4.8247,-0.27612 -6.88825,-0.82834 -2.03453,-0.55222 -4.11263,-1.40962 -6.23431,-2.5722 l 0,20.40319 -8.19615,0 0,-66.65912 8.19615,0 0,5.1008 c 2.17981,-1.83101 4.62122,-3.35689 7.32422,-4.57764 2.73203,-1.24972 5.63846,-1.8746 8.71931,-1.87465 5.87097,5e-5 10.43407,2.22347 13.68932,6.67027 3.28422,4.41782 4.92636,10.56493 4.92641,18.44134 m -8.45773,0.21798 c -4e-5,-5.87097 -1.00276,-10.25968 -3.00816,-13.16615 -2.00548,-2.9064 -5.0863,-4.35962 -9.24247,-4.35966 -2.35424,4e-5 -4.72299,0.50867 -7.10624,1.52588 -2.3833,1.01729 -4.66485,2.35425 -6.84466,4.01088 l 0,27.59661 c 2.32514,1.04633 4.31604,1.7584 5.97273,2.13623 1.68571,0.37785 3.58942,0.56677 5.71115,0.56676 4.56307,10e-6 8.12345,-1.5404 10.68115,-4.62123 2.55762,-3.08081 3.83646,-7.64391 3.8365,-13.68932"
         style="font-size:89.28572083px;font-style:normal;font-variant:normal;font-weight:normal;font-stretch:normal;text-align:center;line-height:125%;letter-spacing:-7.34821606px;word-spacing:0px;text-anchor:middle;fill:#000000;fill-opacity:1;stroke:none;font-family:Verdana;-inkscape-font-specification:Verdana"
         id="path3050"
         inkscape:connector-curvature="0" />
      <path
         d="m 480.73375,-477.25052 -8.15255,0 0,-5.18799 c -0.72665,0.4941 -1.71484,1.19165 -2.96457,2.09264 -1.22074,0.87193 -2.41237,1.56947 -3.57491,2.09263 -1.36606,0.66848 -2.93553,1.2207 -4.70843,1.65667 -1.77295,0.46503 -3.85105,0.69754 -6.23431,0.69754 -4.38873,0 -8.10897,-1.45321 -11.16071,-4.35965 -3.05177,-2.90643 -4.57764,-6.61213 -4.57764,-11.11712 0,-3.69116 0.78473,-6.67025 2.35421,-8.93729 1.59854,-2.29606 3.86555,-4.09805 6.80106,-5.40597 2.96455,-1.30787 6.52493,-2.19433 10.68116,-2.65939 4.15617,-0.465 8.61755,-0.81377 13.38414,-1.04632 l 0,-1.2643 c -4e-5,-1.86008 -0.33428,-3.40049 -1.00272,-4.62123 -0.63946,-1.22067 -1.56951,-2.17979 -2.79018,-2.87737 -1.16261,-0.66844 -2.5577,-1.11894 -4.18527,-1.3515 -1.62763,-0.23247 -3.3279,-0.34873 -5.1008,-0.34877 -2.15078,4e-5 -4.54859,0.29069 -7.19343,0.87193 -2.64487,0.55227 -5.37692,1.36607 -8.19615,2.44141 l -0.43596,0 0,-8.32694 c 1.59853,-0.43592 3.90914,-0.91548 6.93185,-1.43869 3.02267,-0.52311 6.00177,-0.78468 8.93729,-0.78473 3.42957,5e-5 6.40866,0.29069 8.93729,0.87193 2.55763,0.55227 4.76652,1.51139 6.62668,2.87737 1.83101,1.337 3.2261,3.06633 4.18526,5.18799 0.95908,2.12173 1.43864,4.75206 1.43869,7.89097 l 0,33.04618 m -8.15255,-11.98905 0,-13.55852 c -2.49957,0.14534 -5.4496,0.36333 -8.8501,0.65394 -3.37149,0.29067 -6.04541,0.71211 -8.02177,1.2643 -2.35423,0.66851 -4.25794,1.71482 -5.71114,3.13896 -1.45323,1.3951 -2.17984,3.32788 -2.17983,5.79834 -10e-6,2.79019 0.84285,4.89735 2.5286,6.32149 1.68572,1.3951 4.25791,2.09265 7.71659,2.09264 2.87734,10e-6 5.50767,-0.55222 7.89097,-1.65667 2.38325,-1.1335 4.59214,-2.48499 6.62668,-4.05448"
         style="font-size:89.28572083px;font-style:normal;font-variant:normal;font-weight:normal;font-stretch:normal;text-align:center;line-height:125%;letter-spacing:-7.34821606px;word-spacing:0px;text-anchor:middle;fill:#000000;fill-opacity:1;stroke:none;font-family:Verdana;-inkscape-font-specification:Verdana"
         id="path3052"
         inkscape:connector-curvature="0" />
      <path
         d="m 514.54062,-477.68648 c -1.54045,0.4069 -3.22618,0.74114 -5.0572,1.00272 -1.80202,0.26157 -3.41509,0.39236 -4.83922,0.39237 -4.97002,-1e-5 -8.74839,-1.33697 -11.3351,-4.01089 -2.58674,-2.67391 -3.8801,-6.9609 -3.88009,-12.86098 l 0,-25.89634 -5.53676,0 0,-6.88826 5.53676,0 0,-13.99449 8.19615,0 0,13.99449 16.91546,0 0,6.88826 -16.91546,0 0,22.19064 c -2e-5,2.55768 0.0581,4.56312 0.17438,6.01632 0.11624,1.42417 0.52315,2.76112 1.22071,4.01088 0.63939,1.16258 1.51132,2.01998 2.61579,2.5722 1.13349,0.52316 2.84828,0.78474 5.14439,0.78474 1.33694,0 2.73202,-0.18892 4.18527,-0.56676 1.45319,-0.40689 2.4995,-0.74113 3.13895,-1.00272 l 0.43597,0 0,7.36782"
         style="font-size:89.28572083px;font-style:normal;font-variant:normal;font-weight:normal;font-stretch:normal;text-align:center;line-height:125%;letter-spacing:-7.34821606px;word-spacing:0px;text-anchor:middle;fill:#000000;fill-opacity:1;stroke:none;font-family:Verdana;-inkscape-font-specification:Verdana"
         id="path3054"
         inkscape:connector-curvature="0" />
      <path
         d="m 557.8952,-500.74906 -35.87996,0 c -10e-6,2.99365 0.45049,5.60944 1.35149,7.84738 0.90098,2.20891 2.13622,4.02543 3.70571,5.44957 1.51133,1.3951 3.29878,2.44141 5.36238,3.13895 2.0926,0.69755 4.38869,1.04632 6.88825,1.04632 3.3133,0 6.64117,-0.65394 9.98361,-1.96185 3.37142,-1.33695 5.76923,-2.64484 7.19343,-3.92369 l 0.43596,0 0,8.9373 c -2.76116,1.16257 -5.5804,2.13623 -8.45773,2.92096 -2.8774,0.78474 -5.9001,1.17711 -9.06808,1.17711 -8.07991,0 -14.38687,-2.17982 -18.9209,-6.53948 -4.53404,-4.38871 -6.80106,-10.60848 -6.80106,-18.65932 0,-7.9636 2.16529,-14.2851 6.49589,-18.9645 4.35964,-4.67931 10.08531,-7.01899 17.17704,-7.01904 6.56851,5e-5 11.6257,1.9183 15.17159,5.75474 3.57487,3.83654 5.36233,9.2861 5.36238,16.34871 l 0,4.44684 m -7.97817,-6.2779 c -0.0291,-4.30149 -1.11902,-7.62936 -3.26974,-9.98361 -2.12173,-2.35417 -5.36241,-3.53127 -9.72203,-3.53132 -4.38874,5e-5 -7.89099,1.29341 -10.50677,3.8801 -2.58674,2.58676 -4.05449,5.79837 -4.40325,9.63483 l 27.90179,0"
         style="font-size:89.28572083px;font-style:normal;font-variant:normal;font-weight:normal;font-stretch:normal;text-align:center;line-height:125%;letter-spacing:-7.34821606px;word-spacing:0px;text-anchor:middle;fill:#000000;fill-opacity:1;stroke:none;font-family:Verdana;-inkscape-font-specification:Verdana"
         id="path3056"
         inkscape:connector-curvature="0" />
      <path
         d="m 603.6912,-477.25052 -8.19615,0 0,-27.7274 c -4e-5,-2.23793 -0.13083,-4.33056 -0.39237,-6.2779 -0.26162,-1.97634 -0.74118,-3.51675 -1.43868,-4.62124 -0.72665,-1.22066 -1.77297,-2.12165 -3.13896,-2.70298 -1.36606,-0.61031 -3.13898,-0.91549 -5.31877,-0.91553 -2.23799,4e-5 -4.57767,0.55227 -7.01905,1.65667 -2.44142,1.10448 -4.7811,2.5141 -7.01904,4.22886 l 0,36.35952 -8.19615,0 0,-48.69734 8.19615,0 0,5.40597 c 2.55764,-2.12165 5.2025,-3.77832 7.93457,-4.97 2.73202,-1.19159 5.53673,-1.78741 8.41413,-1.78746 5.26061,5e-5 9.27149,1.58406 12.03265,4.75202 2.76107,3.16806 4.14162,7.73116 4.14167,13.68932 l 0,31.60749"
         style="font-size:89.28572083px;font-style:normal;font-variant:normal;font-weight:normal;font-stretch:normal;text-align:center;line-height:125%;letter-spacing:-7.34821606px;word-spacing:0px;text-anchor:middle;fill:#000000;fill-opacity:1;stroke:none;font-family:Verdana;-inkscape-font-specification:Verdana"
         id="path3058"
         inkscape:connector-curvature="0" />
      <path
         d="m 637.41092,-477.68648 c -1.54045,0.4069 -3.22618,0.74114 -5.0572,1.00272 -1.80202,0.26157 -3.41509,0.39236 -4.83922,0.39237 -4.97002,-1e-5 -8.74839,-1.33697 -11.3351,-4.01089 -2.58674,-2.67391 -3.8801,-6.9609 -3.88009,-12.86098 l 0,-25.89634 -5.53676,0 0,-6.88826 5.53676,0 0,-13.99449 8.19615,0 0,13.99449 16.91546,0 0,6.88826 -16.91546,0 0,22.19064 c -2e-5,2.55768 0.0581,4.56312 0.17438,6.01632 0.11625,1.42417 0.52315,2.76112 1.22071,4.01088 0.6394,1.16258 1.51133,2.01998 2.61579,2.5722 1.13349,0.52316 2.84828,0.78474 5.14439,0.78474 1.33694,0 2.73202,-0.18892 4.18527,-0.56676 1.45319,-0.40689 2.4995,-0.74113 3.13895,-1.00272 l 0.43597,0 0,7.36782"
         style="font-size:89.28572083px;font-style:normal;font-variant:normal;font-weight:normal;font-stretch:normal;text-align:center;line-height:125%;letter-spacing:-7.34821606px;word-spacing:0px;text-anchor:middle;fill:#000000;fill-opacity:1;stroke:none;font-family:Verdana;-inkscape-font-specification:Verdana"
         id="path3060"
         inkscape:connector-curvature="0" />
    </g>
    <flowRoot
       xml:space="preserve"
       id="flowRoot3792"
       style="font-size:14px;font-style:normal;font-variant:normal;font-weight:bold;font-stretch:normal;text-align:center;line-height:125%;letter-spacing:0px;word-spacing:0px;text-anchor:middle;fill:#000000;fill-opacity:1;stroke:none;font-family:Arial;-inkscape-font-specification:Sans Bold"><flowRegion
         id="flowRegion3794"><rect
           id="rect3796"
           width="56.848621"
           height="1222.2454"
           x="-439.28479"
           y="-2149.6587" /></flowRegion><flowPara
         id="flowPara3798" /></flowRoot>  </g>
  <g
     inkscape:groupmode="layer"
     id="layer4"
     inkscape:label="text"
     transform="translate(378.582,559.28876)" />
</svg>
